G04 #@! TF.GenerationSoftware,KiCad,Pcbnew,(5.0.0)*
G04 #@! TF.CreationDate,2020-08-03T17:04:06+01:00*
G04 #@! TF.ProjectId,basic-mc6800,62617369632D6D63363830302E6B6963,rev?*
G04 #@! TF.SameCoordinates,Original*
G04 #@! TF.FileFunction,Soldermask,Top*
G04 #@! TF.FilePolarity,Negative*
%FSLAX46Y46*%
G04 Gerber Fmt 4.6, Leading zero omitted, Abs format (unit mm)*
G04 Created by KiCad (PCBNEW (5.0.0)) date 08/03/20 17:04:06*
%MOMM*%
%LPD*%
G01*
G04 APERTURE LIST*
%ADD10O,2.000000X2.000000*%
%ADD11R,2.000000X2.000000*%
%ADD12R,2.100000X2.100000*%
%ADD13O,2.100000X2.100000*%
%ADD14C,0.100000*%
%ADD15C,1.275000*%
%ADD16C,3.600000*%
%ADD17R,2.400000X4.900000*%
%ADD18R,1.200000X1.150000*%
%ADD19R,1.000000X1.900000*%
%ADD20R,1.150000X1.200000*%
G04 APERTURE END LIST*
D10*
G04 #@! TO.C,U4*
X196540000Y-93240000D03*
X163520000Y-78000000D03*
X194000000Y-93240000D03*
X166060000Y-78000000D03*
X191460000Y-93240000D03*
X168600000Y-78000000D03*
X188920000Y-93240000D03*
X171140000Y-78000000D03*
X186380000Y-93240000D03*
X173680000Y-78000000D03*
X183840000Y-93240000D03*
X176220000Y-78000000D03*
X181300000Y-93240000D03*
X178760000Y-78000000D03*
X178760000Y-93240000D03*
X181300000Y-78000000D03*
X176220000Y-93240000D03*
X183840000Y-78000000D03*
X173680000Y-93240000D03*
X186380000Y-78000000D03*
X171140000Y-93240000D03*
X188920000Y-78000000D03*
X168600000Y-93240000D03*
X191460000Y-78000000D03*
X166060000Y-93240000D03*
X194000000Y-78000000D03*
X163520000Y-93240000D03*
D11*
X196540000Y-78000000D03*
G04 #@! TD*
D12*
G04 #@! TO.C,J1*
X99700000Y-99700000D03*
D13*
X102240000Y-99700000D03*
X104780000Y-99700000D03*
X107320000Y-99700000D03*
X109860000Y-99700000D03*
X112400000Y-99700000D03*
X114940000Y-99700000D03*
X117480000Y-99700000D03*
X120020000Y-99700000D03*
X122560000Y-99700000D03*
X125100000Y-99700000D03*
X127640000Y-99700000D03*
X130180000Y-99700000D03*
X132720000Y-99700000D03*
X135260000Y-99700000D03*
X137800000Y-99700000D03*
X140340000Y-99700000D03*
X142880000Y-99700000D03*
X145420000Y-99700000D03*
X147960000Y-99700000D03*
X150500000Y-99700000D03*
X153040000Y-99700000D03*
X155580000Y-99700000D03*
X158120000Y-99700000D03*
X160660000Y-99700000D03*
X163200000Y-99700000D03*
X165740000Y-99700000D03*
X168280000Y-99700000D03*
X170820000Y-99700000D03*
X173360000Y-99700000D03*
X175900000Y-99700000D03*
X178440000Y-99700000D03*
X180980000Y-99700000D03*
X183520000Y-99700000D03*
X186060000Y-99700000D03*
X188600000Y-99700000D03*
X191140000Y-99700000D03*
X193680000Y-99700000D03*
X196220000Y-99700000D03*
G04 #@! TD*
D12*
G04 #@! TO.C,J2*
X128000000Y-59000000D03*
D13*
X125460000Y-59000000D03*
X122920000Y-59000000D03*
X120380000Y-59000000D03*
G04 #@! TD*
D14*
G04 #@! TO.C,R5*
G36*
X115742293Y-74916935D02*
X115773235Y-74921525D01*
X115803578Y-74929125D01*
X115833030Y-74939663D01*
X115861308Y-74953038D01*
X115888138Y-74969119D01*
X115913263Y-74987753D01*
X115936440Y-75008760D01*
X115957447Y-75031937D01*
X115976081Y-75057062D01*
X115992162Y-75083892D01*
X116005537Y-75112170D01*
X116016075Y-75141622D01*
X116023675Y-75171965D01*
X116028265Y-75202907D01*
X116029800Y-75234150D01*
X116029800Y-75946650D01*
X116028265Y-75977893D01*
X116023675Y-76008835D01*
X116016075Y-76039178D01*
X116005537Y-76068630D01*
X115992162Y-76096908D01*
X115976081Y-76123738D01*
X115957447Y-76148863D01*
X115936440Y-76172040D01*
X115913263Y-76193047D01*
X115888138Y-76211681D01*
X115861308Y-76227762D01*
X115833030Y-76241137D01*
X115803578Y-76251675D01*
X115773235Y-76259275D01*
X115742293Y-76263865D01*
X115711050Y-76265400D01*
X115073550Y-76265400D01*
X115042307Y-76263865D01*
X115011365Y-76259275D01*
X114981022Y-76251675D01*
X114951570Y-76241137D01*
X114923292Y-76227762D01*
X114896462Y-76211681D01*
X114871337Y-76193047D01*
X114848160Y-76172040D01*
X114827153Y-76148863D01*
X114808519Y-76123738D01*
X114792438Y-76096908D01*
X114779063Y-76068630D01*
X114768525Y-76039178D01*
X114760925Y-76008835D01*
X114756335Y-75977893D01*
X114754800Y-75946650D01*
X114754800Y-75234150D01*
X114756335Y-75202907D01*
X114760925Y-75171965D01*
X114768525Y-75141622D01*
X114779063Y-75112170D01*
X114792438Y-75083892D01*
X114808519Y-75057062D01*
X114827153Y-75031937D01*
X114848160Y-75008760D01*
X114871337Y-74987753D01*
X114896462Y-74969119D01*
X114923292Y-74953038D01*
X114951570Y-74939663D01*
X114981022Y-74929125D01*
X115011365Y-74921525D01*
X115042307Y-74916935D01*
X115073550Y-74915400D01*
X115711050Y-74915400D01*
X115742293Y-74916935D01*
X115742293Y-74916935D01*
G37*
D15*
X115392300Y-75590400D03*
D14*
G36*
X114167293Y-74916935D02*
X114198235Y-74921525D01*
X114228578Y-74929125D01*
X114258030Y-74939663D01*
X114286308Y-74953038D01*
X114313138Y-74969119D01*
X114338263Y-74987753D01*
X114361440Y-75008760D01*
X114382447Y-75031937D01*
X114401081Y-75057062D01*
X114417162Y-75083892D01*
X114430537Y-75112170D01*
X114441075Y-75141622D01*
X114448675Y-75171965D01*
X114453265Y-75202907D01*
X114454800Y-75234150D01*
X114454800Y-75946650D01*
X114453265Y-75977893D01*
X114448675Y-76008835D01*
X114441075Y-76039178D01*
X114430537Y-76068630D01*
X114417162Y-76096908D01*
X114401081Y-76123738D01*
X114382447Y-76148863D01*
X114361440Y-76172040D01*
X114338263Y-76193047D01*
X114313138Y-76211681D01*
X114286308Y-76227762D01*
X114258030Y-76241137D01*
X114228578Y-76251675D01*
X114198235Y-76259275D01*
X114167293Y-76263865D01*
X114136050Y-76265400D01*
X113498550Y-76265400D01*
X113467307Y-76263865D01*
X113436365Y-76259275D01*
X113406022Y-76251675D01*
X113376570Y-76241137D01*
X113348292Y-76227762D01*
X113321462Y-76211681D01*
X113296337Y-76193047D01*
X113273160Y-76172040D01*
X113252153Y-76148863D01*
X113233519Y-76123738D01*
X113217438Y-76096908D01*
X113204063Y-76068630D01*
X113193525Y-76039178D01*
X113185925Y-76008835D01*
X113181335Y-75977893D01*
X113179800Y-75946650D01*
X113179800Y-75234150D01*
X113181335Y-75202907D01*
X113185925Y-75171965D01*
X113193525Y-75141622D01*
X113204063Y-75112170D01*
X113217438Y-75083892D01*
X113233519Y-75057062D01*
X113252153Y-75031937D01*
X113273160Y-75008760D01*
X113296337Y-74987753D01*
X113321462Y-74969119D01*
X113348292Y-74953038D01*
X113376570Y-74939663D01*
X113406022Y-74929125D01*
X113436365Y-74921525D01*
X113467307Y-74916935D01*
X113498550Y-74915400D01*
X114136050Y-74915400D01*
X114167293Y-74916935D01*
X114167293Y-74916935D01*
G37*
D15*
X113817300Y-75590400D03*
G04 #@! TD*
D14*
G04 #@! TO.C,R8*
G36*
X197250793Y-96252935D02*
X197281735Y-96257525D01*
X197312078Y-96265125D01*
X197341530Y-96275663D01*
X197369808Y-96289038D01*
X197396638Y-96305119D01*
X197421763Y-96323753D01*
X197444940Y-96344760D01*
X197465947Y-96367937D01*
X197484581Y-96393062D01*
X197500662Y-96419892D01*
X197514037Y-96448170D01*
X197524575Y-96477622D01*
X197532175Y-96507965D01*
X197536765Y-96538907D01*
X197538300Y-96570150D01*
X197538300Y-97282650D01*
X197536765Y-97313893D01*
X197532175Y-97344835D01*
X197524575Y-97375178D01*
X197514037Y-97404630D01*
X197500662Y-97432908D01*
X197484581Y-97459738D01*
X197465947Y-97484863D01*
X197444940Y-97508040D01*
X197421763Y-97529047D01*
X197396638Y-97547681D01*
X197369808Y-97563762D01*
X197341530Y-97577137D01*
X197312078Y-97587675D01*
X197281735Y-97595275D01*
X197250793Y-97599865D01*
X197219550Y-97601400D01*
X196582050Y-97601400D01*
X196550807Y-97599865D01*
X196519865Y-97595275D01*
X196489522Y-97587675D01*
X196460070Y-97577137D01*
X196431792Y-97563762D01*
X196404962Y-97547681D01*
X196379837Y-97529047D01*
X196356660Y-97508040D01*
X196335653Y-97484863D01*
X196317019Y-97459738D01*
X196300938Y-97432908D01*
X196287563Y-97404630D01*
X196277025Y-97375178D01*
X196269425Y-97344835D01*
X196264835Y-97313893D01*
X196263300Y-97282650D01*
X196263300Y-96570150D01*
X196264835Y-96538907D01*
X196269425Y-96507965D01*
X196277025Y-96477622D01*
X196287563Y-96448170D01*
X196300938Y-96419892D01*
X196317019Y-96393062D01*
X196335653Y-96367937D01*
X196356660Y-96344760D01*
X196379837Y-96323753D01*
X196404962Y-96305119D01*
X196431792Y-96289038D01*
X196460070Y-96275663D01*
X196489522Y-96265125D01*
X196519865Y-96257525D01*
X196550807Y-96252935D01*
X196582050Y-96251400D01*
X197219550Y-96251400D01*
X197250793Y-96252935D01*
X197250793Y-96252935D01*
G37*
D15*
X196900800Y-96926400D03*
D14*
G36*
X195675793Y-96252935D02*
X195706735Y-96257525D01*
X195737078Y-96265125D01*
X195766530Y-96275663D01*
X195794808Y-96289038D01*
X195821638Y-96305119D01*
X195846763Y-96323753D01*
X195869940Y-96344760D01*
X195890947Y-96367937D01*
X195909581Y-96393062D01*
X195925662Y-96419892D01*
X195939037Y-96448170D01*
X195949575Y-96477622D01*
X195957175Y-96507965D01*
X195961765Y-96538907D01*
X195963300Y-96570150D01*
X195963300Y-97282650D01*
X195961765Y-97313893D01*
X195957175Y-97344835D01*
X195949575Y-97375178D01*
X195939037Y-97404630D01*
X195925662Y-97432908D01*
X195909581Y-97459738D01*
X195890947Y-97484863D01*
X195869940Y-97508040D01*
X195846763Y-97529047D01*
X195821638Y-97547681D01*
X195794808Y-97563762D01*
X195766530Y-97577137D01*
X195737078Y-97587675D01*
X195706735Y-97595275D01*
X195675793Y-97599865D01*
X195644550Y-97601400D01*
X195007050Y-97601400D01*
X194975807Y-97599865D01*
X194944865Y-97595275D01*
X194914522Y-97587675D01*
X194885070Y-97577137D01*
X194856792Y-97563762D01*
X194829962Y-97547681D01*
X194804837Y-97529047D01*
X194781660Y-97508040D01*
X194760653Y-97484863D01*
X194742019Y-97459738D01*
X194725938Y-97432908D01*
X194712563Y-97404630D01*
X194702025Y-97375178D01*
X194694425Y-97344835D01*
X194689835Y-97313893D01*
X194688300Y-97282650D01*
X194688300Y-96570150D01*
X194689835Y-96538907D01*
X194694425Y-96507965D01*
X194702025Y-96477622D01*
X194712563Y-96448170D01*
X194725938Y-96419892D01*
X194742019Y-96393062D01*
X194760653Y-96367937D01*
X194781660Y-96344760D01*
X194804837Y-96323753D01*
X194829962Y-96305119D01*
X194856792Y-96289038D01*
X194885070Y-96275663D01*
X194914522Y-96265125D01*
X194944865Y-96257525D01*
X194975807Y-96252935D01*
X195007050Y-96251400D01*
X195644550Y-96251400D01*
X195675793Y-96252935D01*
X195675793Y-96252935D01*
G37*
D15*
X195325800Y-96926400D03*
G04 #@! TD*
D14*
G04 #@! TO.C,R7*
G36*
X112313193Y-76237735D02*
X112344135Y-76242325D01*
X112374478Y-76249925D01*
X112403930Y-76260463D01*
X112432208Y-76273838D01*
X112459038Y-76289919D01*
X112484163Y-76308553D01*
X112507340Y-76329560D01*
X112528347Y-76352737D01*
X112546981Y-76377862D01*
X112563062Y-76404692D01*
X112576437Y-76432970D01*
X112586975Y-76462422D01*
X112594575Y-76492765D01*
X112599165Y-76523707D01*
X112600700Y-76554950D01*
X112600700Y-77267450D01*
X112599165Y-77298693D01*
X112594575Y-77329635D01*
X112586975Y-77359978D01*
X112576437Y-77389430D01*
X112563062Y-77417708D01*
X112546981Y-77444538D01*
X112528347Y-77469663D01*
X112507340Y-77492840D01*
X112484163Y-77513847D01*
X112459038Y-77532481D01*
X112432208Y-77548562D01*
X112403930Y-77561937D01*
X112374478Y-77572475D01*
X112344135Y-77580075D01*
X112313193Y-77584665D01*
X112281950Y-77586200D01*
X111644450Y-77586200D01*
X111613207Y-77584665D01*
X111582265Y-77580075D01*
X111551922Y-77572475D01*
X111522470Y-77561937D01*
X111494192Y-77548562D01*
X111467362Y-77532481D01*
X111442237Y-77513847D01*
X111419060Y-77492840D01*
X111398053Y-77469663D01*
X111379419Y-77444538D01*
X111363338Y-77417708D01*
X111349963Y-77389430D01*
X111339425Y-77359978D01*
X111331825Y-77329635D01*
X111327235Y-77298693D01*
X111325700Y-77267450D01*
X111325700Y-76554950D01*
X111327235Y-76523707D01*
X111331825Y-76492765D01*
X111339425Y-76462422D01*
X111349963Y-76432970D01*
X111363338Y-76404692D01*
X111379419Y-76377862D01*
X111398053Y-76352737D01*
X111419060Y-76329560D01*
X111442237Y-76308553D01*
X111467362Y-76289919D01*
X111494192Y-76273838D01*
X111522470Y-76260463D01*
X111551922Y-76249925D01*
X111582265Y-76242325D01*
X111613207Y-76237735D01*
X111644450Y-76236200D01*
X112281950Y-76236200D01*
X112313193Y-76237735D01*
X112313193Y-76237735D01*
G37*
D15*
X111963200Y-76911200D03*
D14*
G36*
X113888193Y-76237735D02*
X113919135Y-76242325D01*
X113949478Y-76249925D01*
X113978930Y-76260463D01*
X114007208Y-76273838D01*
X114034038Y-76289919D01*
X114059163Y-76308553D01*
X114082340Y-76329560D01*
X114103347Y-76352737D01*
X114121981Y-76377862D01*
X114138062Y-76404692D01*
X114151437Y-76432970D01*
X114161975Y-76462422D01*
X114169575Y-76492765D01*
X114174165Y-76523707D01*
X114175700Y-76554950D01*
X114175700Y-77267450D01*
X114174165Y-77298693D01*
X114169575Y-77329635D01*
X114161975Y-77359978D01*
X114151437Y-77389430D01*
X114138062Y-77417708D01*
X114121981Y-77444538D01*
X114103347Y-77469663D01*
X114082340Y-77492840D01*
X114059163Y-77513847D01*
X114034038Y-77532481D01*
X114007208Y-77548562D01*
X113978930Y-77561937D01*
X113949478Y-77572475D01*
X113919135Y-77580075D01*
X113888193Y-77584665D01*
X113856950Y-77586200D01*
X113219450Y-77586200D01*
X113188207Y-77584665D01*
X113157265Y-77580075D01*
X113126922Y-77572475D01*
X113097470Y-77561937D01*
X113069192Y-77548562D01*
X113042362Y-77532481D01*
X113017237Y-77513847D01*
X112994060Y-77492840D01*
X112973053Y-77469663D01*
X112954419Y-77444538D01*
X112938338Y-77417708D01*
X112924963Y-77389430D01*
X112914425Y-77359978D01*
X112906825Y-77329635D01*
X112902235Y-77298693D01*
X112900700Y-77267450D01*
X112900700Y-76554950D01*
X112902235Y-76523707D01*
X112906825Y-76492765D01*
X112914425Y-76462422D01*
X112924963Y-76432970D01*
X112938338Y-76404692D01*
X112954419Y-76377862D01*
X112973053Y-76352737D01*
X112994060Y-76329560D01*
X113017237Y-76308553D01*
X113042362Y-76289919D01*
X113069192Y-76273838D01*
X113097470Y-76260463D01*
X113126922Y-76249925D01*
X113157265Y-76242325D01*
X113188207Y-76237735D01*
X113219450Y-76236200D01*
X113856950Y-76236200D01*
X113888193Y-76237735D01*
X113888193Y-76237735D01*
G37*
D15*
X113538200Y-76911200D03*
G04 #@! TD*
D14*
G04 #@! TO.C,R6*
G36*
X100362493Y-75526535D02*
X100393435Y-75531125D01*
X100423778Y-75538725D01*
X100453230Y-75549263D01*
X100481508Y-75562638D01*
X100508338Y-75578719D01*
X100533463Y-75597353D01*
X100556640Y-75618360D01*
X100577647Y-75641537D01*
X100596281Y-75666662D01*
X100612362Y-75693492D01*
X100625737Y-75721770D01*
X100636275Y-75751222D01*
X100643875Y-75781565D01*
X100648465Y-75812507D01*
X100650000Y-75843750D01*
X100650000Y-76556250D01*
X100648465Y-76587493D01*
X100643875Y-76618435D01*
X100636275Y-76648778D01*
X100625737Y-76678230D01*
X100612362Y-76706508D01*
X100596281Y-76733338D01*
X100577647Y-76758463D01*
X100556640Y-76781640D01*
X100533463Y-76802647D01*
X100508338Y-76821281D01*
X100481508Y-76837362D01*
X100453230Y-76850737D01*
X100423778Y-76861275D01*
X100393435Y-76868875D01*
X100362493Y-76873465D01*
X100331250Y-76875000D01*
X99693750Y-76875000D01*
X99662507Y-76873465D01*
X99631565Y-76868875D01*
X99601222Y-76861275D01*
X99571770Y-76850737D01*
X99543492Y-76837362D01*
X99516662Y-76821281D01*
X99491537Y-76802647D01*
X99468360Y-76781640D01*
X99447353Y-76758463D01*
X99428719Y-76733338D01*
X99412638Y-76706508D01*
X99399263Y-76678230D01*
X99388725Y-76648778D01*
X99381125Y-76618435D01*
X99376535Y-76587493D01*
X99375000Y-76556250D01*
X99375000Y-75843750D01*
X99376535Y-75812507D01*
X99381125Y-75781565D01*
X99388725Y-75751222D01*
X99399263Y-75721770D01*
X99412638Y-75693492D01*
X99428719Y-75666662D01*
X99447353Y-75641537D01*
X99468360Y-75618360D01*
X99491537Y-75597353D01*
X99516662Y-75578719D01*
X99543492Y-75562638D01*
X99571770Y-75549263D01*
X99601222Y-75538725D01*
X99631565Y-75531125D01*
X99662507Y-75526535D01*
X99693750Y-75525000D01*
X100331250Y-75525000D01*
X100362493Y-75526535D01*
X100362493Y-75526535D01*
G37*
D15*
X100012500Y-76200000D03*
D14*
G36*
X101937493Y-75526535D02*
X101968435Y-75531125D01*
X101998778Y-75538725D01*
X102028230Y-75549263D01*
X102056508Y-75562638D01*
X102083338Y-75578719D01*
X102108463Y-75597353D01*
X102131640Y-75618360D01*
X102152647Y-75641537D01*
X102171281Y-75666662D01*
X102187362Y-75693492D01*
X102200737Y-75721770D01*
X102211275Y-75751222D01*
X102218875Y-75781565D01*
X102223465Y-75812507D01*
X102225000Y-75843750D01*
X102225000Y-76556250D01*
X102223465Y-76587493D01*
X102218875Y-76618435D01*
X102211275Y-76648778D01*
X102200737Y-76678230D01*
X102187362Y-76706508D01*
X102171281Y-76733338D01*
X102152647Y-76758463D01*
X102131640Y-76781640D01*
X102108463Y-76802647D01*
X102083338Y-76821281D01*
X102056508Y-76837362D01*
X102028230Y-76850737D01*
X101998778Y-76861275D01*
X101968435Y-76868875D01*
X101937493Y-76873465D01*
X101906250Y-76875000D01*
X101268750Y-76875000D01*
X101237507Y-76873465D01*
X101206565Y-76868875D01*
X101176222Y-76861275D01*
X101146770Y-76850737D01*
X101118492Y-76837362D01*
X101091662Y-76821281D01*
X101066537Y-76802647D01*
X101043360Y-76781640D01*
X101022353Y-76758463D01*
X101003719Y-76733338D01*
X100987638Y-76706508D01*
X100974263Y-76678230D01*
X100963725Y-76648778D01*
X100956125Y-76618435D01*
X100951535Y-76587493D01*
X100950000Y-76556250D01*
X100950000Y-75843750D01*
X100951535Y-75812507D01*
X100956125Y-75781565D01*
X100963725Y-75751222D01*
X100974263Y-75721770D01*
X100987638Y-75693492D01*
X101003719Y-75666662D01*
X101022353Y-75641537D01*
X101043360Y-75618360D01*
X101066537Y-75597353D01*
X101091662Y-75578719D01*
X101118492Y-75562638D01*
X101146770Y-75549263D01*
X101176222Y-75538725D01*
X101206565Y-75531125D01*
X101237507Y-75526535D01*
X101268750Y-75525000D01*
X101906250Y-75525000D01*
X101937493Y-75526535D01*
X101937493Y-75526535D01*
G37*
D15*
X101587500Y-76200000D03*
G04 #@! TD*
D16*
G04 #@! TO.C,MH4*
X113000000Y-60000000D03*
G04 #@! TD*
G04 #@! TO.C,MH3*
X195000000Y-60000000D03*
G04 #@! TD*
G04 #@! TO.C,MH2*
X157000000Y-60000000D03*
G04 #@! TD*
G04 #@! TO.C,MH1*
X157000000Y-92000000D03*
G04 #@! TD*
D17*
G04 #@! TO.C,Y1*
X106000000Y-74500000D03*
X106000000Y-66000000D03*
G04 #@! TD*
D18*
G04 #@! TO.C,C8*
X138708000Y-60248800D03*
X140208000Y-60248800D03*
G04 #@! TD*
G04 #@! TO.C,C9*
X118750000Y-63000000D03*
X117250000Y-63000000D03*
G04 #@! TD*
D19*
G04 #@! TO.C,U1*
X140190000Y-67700000D03*
X141460000Y-67700000D03*
X142730000Y-67700000D03*
X144000000Y-67700000D03*
X145270000Y-67700000D03*
X146540000Y-67700000D03*
X147810000Y-67700000D03*
X147810000Y-62300000D03*
X146540000Y-62300000D03*
X145270000Y-62300000D03*
X144000000Y-62300000D03*
X142730000Y-62300000D03*
X141460000Y-62300000D03*
X140190000Y-62300000D03*
G04 #@! TD*
G04 #@! TO.C,U5*
X120790000Y-62500000D03*
X122060000Y-62500000D03*
X123330000Y-62500000D03*
X124600000Y-62500000D03*
X125870000Y-62500000D03*
X127140000Y-62500000D03*
X128410000Y-62500000D03*
X128410000Y-67900000D03*
X127140000Y-67900000D03*
X125870000Y-67900000D03*
X124600000Y-67900000D03*
X123330000Y-67900000D03*
X122060000Y-67900000D03*
X120790000Y-67900000D03*
G04 #@! TD*
D11*
G04 #@! TO.C,U2*
X101440000Y-94000000D03*
D10*
X149700000Y-78760000D03*
X103980000Y-94000000D03*
X147160000Y-78760000D03*
X106520000Y-94000000D03*
X144620000Y-78760000D03*
X109060000Y-94000000D03*
X142080000Y-78760000D03*
X111600000Y-94000000D03*
X139540000Y-78760000D03*
X114140000Y-94000000D03*
X137000000Y-78760000D03*
X116680000Y-94000000D03*
X134460000Y-78760000D03*
X119220000Y-94000000D03*
X131920000Y-78760000D03*
X121760000Y-94000000D03*
X129380000Y-78760000D03*
X124300000Y-94000000D03*
X126840000Y-78760000D03*
X126840000Y-94000000D03*
X124300000Y-78760000D03*
X129380000Y-94000000D03*
X121760000Y-78760000D03*
X131920000Y-94000000D03*
X119220000Y-78760000D03*
X134460000Y-94000000D03*
X116680000Y-78760000D03*
X137000000Y-94000000D03*
X114140000Y-78760000D03*
X139540000Y-94000000D03*
X111600000Y-78760000D03*
X142080000Y-94000000D03*
X109060000Y-78760000D03*
X144620000Y-94000000D03*
X106520000Y-78760000D03*
X147160000Y-94000000D03*
X103980000Y-78760000D03*
X149700000Y-94000000D03*
X101440000Y-78760000D03*
G04 #@! TD*
D20*
G04 #@! TO.C,C2*
X101800000Y-73000000D03*
X101800000Y-74500000D03*
G04 #@! TD*
G04 #@! TO.C,C3*
X110500000Y-66000000D03*
X110500000Y-67500000D03*
G04 #@! TD*
D18*
G04 #@! TO.C,C5*
X115175600Y-96012000D03*
X116675600Y-96012000D03*
G04 #@! TD*
G04 #@! TO.C,C6*
X195500000Y-75000000D03*
X197000000Y-75000000D03*
G04 #@! TD*
G04 #@! TO.C,C7*
X196800000Y-95500000D03*
X195300000Y-95500000D03*
G04 #@! TD*
D14*
G04 #@! TO.C,R1*
G36*
X110662493Y-74826535D02*
X110693435Y-74831125D01*
X110723778Y-74838725D01*
X110753230Y-74849263D01*
X110781508Y-74862638D01*
X110808338Y-74878719D01*
X110833463Y-74897353D01*
X110856640Y-74918360D01*
X110877647Y-74941537D01*
X110896281Y-74966662D01*
X110912362Y-74993492D01*
X110925737Y-75021770D01*
X110936275Y-75051222D01*
X110943875Y-75081565D01*
X110948465Y-75112507D01*
X110950000Y-75143750D01*
X110950000Y-75856250D01*
X110948465Y-75887493D01*
X110943875Y-75918435D01*
X110936275Y-75948778D01*
X110925737Y-75978230D01*
X110912362Y-76006508D01*
X110896281Y-76033338D01*
X110877647Y-76058463D01*
X110856640Y-76081640D01*
X110833463Y-76102647D01*
X110808338Y-76121281D01*
X110781508Y-76137362D01*
X110753230Y-76150737D01*
X110723778Y-76161275D01*
X110693435Y-76168875D01*
X110662493Y-76173465D01*
X110631250Y-76175000D01*
X109993750Y-76175000D01*
X109962507Y-76173465D01*
X109931565Y-76168875D01*
X109901222Y-76161275D01*
X109871770Y-76150737D01*
X109843492Y-76137362D01*
X109816662Y-76121281D01*
X109791537Y-76102647D01*
X109768360Y-76081640D01*
X109747353Y-76058463D01*
X109728719Y-76033338D01*
X109712638Y-76006508D01*
X109699263Y-75978230D01*
X109688725Y-75948778D01*
X109681125Y-75918435D01*
X109676535Y-75887493D01*
X109675000Y-75856250D01*
X109675000Y-75143750D01*
X109676535Y-75112507D01*
X109681125Y-75081565D01*
X109688725Y-75051222D01*
X109699263Y-75021770D01*
X109712638Y-74993492D01*
X109728719Y-74966662D01*
X109747353Y-74941537D01*
X109768360Y-74918360D01*
X109791537Y-74897353D01*
X109816662Y-74878719D01*
X109843492Y-74862638D01*
X109871770Y-74849263D01*
X109901222Y-74838725D01*
X109931565Y-74831125D01*
X109962507Y-74826535D01*
X109993750Y-74825000D01*
X110631250Y-74825000D01*
X110662493Y-74826535D01*
X110662493Y-74826535D01*
G37*
D15*
X110312500Y-75500000D03*
D14*
G36*
X112237493Y-74826535D02*
X112268435Y-74831125D01*
X112298778Y-74838725D01*
X112328230Y-74849263D01*
X112356508Y-74862638D01*
X112383338Y-74878719D01*
X112408463Y-74897353D01*
X112431640Y-74918360D01*
X112452647Y-74941537D01*
X112471281Y-74966662D01*
X112487362Y-74993492D01*
X112500737Y-75021770D01*
X112511275Y-75051222D01*
X112518875Y-75081565D01*
X112523465Y-75112507D01*
X112525000Y-75143750D01*
X112525000Y-75856250D01*
X112523465Y-75887493D01*
X112518875Y-75918435D01*
X112511275Y-75948778D01*
X112500737Y-75978230D01*
X112487362Y-76006508D01*
X112471281Y-76033338D01*
X112452647Y-76058463D01*
X112431640Y-76081640D01*
X112408463Y-76102647D01*
X112383338Y-76121281D01*
X112356508Y-76137362D01*
X112328230Y-76150737D01*
X112298778Y-76161275D01*
X112268435Y-76168875D01*
X112237493Y-76173465D01*
X112206250Y-76175000D01*
X111568750Y-76175000D01*
X111537507Y-76173465D01*
X111506565Y-76168875D01*
X111476222Y-76161275D01*
X111446770Y-76150737D01*
X111418492Y-76137362D01*
X111391662Y-76121281D01*
X111366537Y-76102647D01*
X111343360Y-76081640D01*
X111322353Y-76058463D01*
X111303719Y-76033338D01*
X111287638Y-76006508D01*
X111274263Y-75978230D01*
X111263725Y-75948778D01*
X111256125Y-75918435D01*
X111251535Y-75887493D01*
X111250000Y-75856250D01*
X111250000Y-75143750D01*
X111251535Y-75112507D01*
X111256125Y-75081565D01*
X111263725Y-75051222D01*
X111274263Y-75021770D01*
X111287638Y-74993492D01*
X111303719Y-74966662D01*
X111322353Y-74941537D01*
X111343360Y-74918360D01*
X111366537Y-74897353D01*
X111391662Y-74878719D01*
X111418492Y-74862638D01*
X111446770Y-74849263D01*
X111476222Y-74838725D01*
X111506565Y-74831125D01*
X111537507Y-74826535D01*
X111568750Y-74825000D01*
X112206250Y-74825000D01*
X112237493Y-74826535D01*
X112237493Y-74826535D01*
G37*
D15*
X111887500Y-75500000D03*
G04 #@! TD*
D14*
G04 #@! TO.C,R2*
G36*
X152374993Y-96326535D02*
X152405935Y-96331125D01*
X152436278Y-96338725D01*
X152465730Y-96349263D01*
X152494008Y-96362638D01*
X152520838Y-96378719D01*
X152545963Y-96397353D01*
X152569140Y-96418360D01*
X152590147Y-96441537D01*
X152608781Y-96466662D01*
X152624862Y-96493492D01*
X152638237Y-96521770D01*
X152648775Y-96551222D01*
X152656375Y-96581565D01*
X152660965Y-96612507D01*
X152662500Y-96643750D01*
X152662500Y-97356250D01*
X152660965Y-97387493D01*
X152656375Y-97418435D01*
X152648775Y-97448778D01*
X152638237Y-97478230D01*
X152624862Y-97506508D01*
X152608781Y-97533338D01*
X152590147Y-97558463D01*
X152569140Y-97581640D01*
X152545963Y-97602647D01*
X152520838Y-97621281D01*
X152494008Y-97637362D01*
X152465730Y-97650737D01*
X152436278Y-97661275D01*
X152405935Y-97668875D01*
X152374993Y-97673465D01*
X152343750Y-97675000D01*
X151706250Y-97675000D01*
X151675007Y-97673465D01*
X151644065Y-97668875D01*
X151613722Y-97661275D01*
X151584270Y-97650737D01*
X151555992Y-97637362D01*
X151529162Y-97621281D01*
X151504037Y-97602647D01*
X151480860Y-97581640D01*
X151459853Y-97558463D01*
X151441219Y-97533338D01*
X151425138Y-97506508D01*
X151411763Y-97478230D01*
X151401225Y-97448778D01*
X151393625Y-97418435D01*
X151389035Y-97387493D01*
X151387500Y-97356250D01*
X151387500Y-96643750D01*
X151389035Y-96612507D01*
X151393625Y-96581565D01*
X151401225Y-96551222D01*
X151411763Y-96521770D01*
X151425138Y-96493492D01*
X151441219Y-96466662D01*
X151459853Y-96441537D01*
X151480860Y-96418360D01*
X151504037Y-96397353D01*
X151529162Y-96378719D01*
X151555992Y-96362638D01*
X151584270Y-96349263D01*
X151613722Y-96338725D01*
X151644065Y-96331125D01*
X151675007Y-96326535D01*
X151706250Y-96325000D01*
X152343750Y-96325000D01*
X152374993Y-96326535D01*
X152374993Y-96326535D01*
G37*
D15*
X152025000Y-97000000D03*
D14*
G36*
X153949993Y-96326535D02*
X153980935Y-96331125D01*
X154011278Y-96338725D01*
X154040730Y-96349263D01*
X154069008Y-96362638D01*
X154095838Y-96378719D01*
X154120963Y-96397353D01*
X154144140Y-96418360D01*
X154165147Y-96441537D01*
X154183781Y-96466662D01*
X154199862Y-96493492D01*
X154213237Y-96521770D01*
X154223775Y-96551222D01*
X154231375Y-96581565D01*
X154235965Y-96612507D01*
X154237500Y-96643750D01*
X154237500Y-97356250D01*
X154235965Y-97387493D01*
X154231375Y-97418435D01*
X154223775Y-97448778D01*
X154213237Y-97478230D01*
X154199862Y-97506508D01*
X154183781Y-97533338D01*
X154165147Y-97558463D01*
X154144140Y-97581640D01*
X154120963Y-97602647D01*
X154095838Y-97621281D01*
X154069008Y-97637362D01*
X154040730Y-97650737D01*
X154011278Y-97661275D01*
X153980935Y-97668875D01*
X153949993Y-97673465D01*
X153918750Y-97675000D01*
X153281250Y-97675000D01*
X153250007Y-97673465D01*
X153219065Y-97668875D01*
X153188722Y-97661275D01*
X153159270Y-97650737D01*
X153130992Y-97637362D01*
X153104162Y-97621281D01*
X153079037Y-97602647D01*
X153055860Y-97581640D01*
X153034853Y-97558463D01*
X153016219Y-97533338D01*
X153000138Y-97506508D01*
X152986763Y-97478230D01*
X152976225Y-97448778D01*
X152968625Y-97418435D01*
X152964035Y-97387493D01*
X152962500Y-97356250D01*
X152962500Y-96643750D01*
X152964035Y-96612507D01*
X152968625Y-96581565D01*
X152976225Y-96551222D01*
X152986763Y-96521770D01*
X153000138Y-96493492D01*
X153016219Y-96466662D01*
X153034853Y-96441537D01*
X153055860Y-96418360D01*
X153079037Y-96397353D01*
X153104162Y-96378719D01*
X153130992Y-96362638D01*
X153159270Y-96349263D01*
X153188722Y-96338725D01*
X153219065Y-96331125D01*
X153250007Y-96326535D01*
X153281250Y-96325000D01*
X153918750Y-96325000D01*
X153949993Y-96326535D01*
X153949993Y-96326535D01*
G37*
D15*
X153600000Y-97000000D03*
G04 #@! TD*
D14*
G04 #@! TO.C,R3*
G36*
X105963393Y-95236935D02*
X105994335Y-95241525D01*
X106024678Y-95249125D01*
X106054130Y-95259663D01*
X106082408Y-95273038D01*
X106109238Y-95289119D01*
X106134363Y-95307753D01*
X106157540Y-95328760D01*
X106178547Y-95351937D01*
X106197181Y-95377062D01*
X106213262Y-95403892D01*
X106226637Y-95432170D01*
X106237175Y-95461622D01*
X106244775Y-95491965D01*
X106249365Y-95522907D01*
X106250900Y-95554150D01*
X106250900Y-96266650D01*
X106249365Y-96297893D01*
X106244775Y-96328835D01*
X106237175Y-96359178D01*
X106226637Y-96388630D01*
X106213262Y-96416908D01*
X106197181Y-96443738D01*
X106178547Y-96468863D01*
X106157540Y-96492040D01*
X106134363Y-96513047D01*
X106109238Y-96531681D01*
X106082408Y-96547762D01*
X106054130Y-96561137D01*
X106024678Y-96571675D01*
X105994335Y-96579275D01*
X105963393Y-96583865D01*
X105932150Y-96585400D01*
X105294650Y-96585400D01*
X105263407Y-96583865D01*
X105232465Y-96579275D01*
X105202122Y-96571675D01*
X105172670Y-96561137D01*
X105144392Y-96547762D01*
X105117562Y-96531681D01*
X105092437Y-96513047D01*
X105069260Y-96492040D01*
X105048253Y-96468863D01*
X105029619Y-96443738D01*
X105013538Y-96416908D01*
X105000163Y-96388630D01*
X104989625Y-96359178D01*
X104982025Y-96328835D01*
X104977435Y-96297893D01*
X104975900Y-96266650D01*
X104975900Y-95554150D01*
X104977435Y-95522907D01*
X104982025Y-95491965D01*
X104989625Y-95461622D01*
X105000163Y-95432170D01*
X105013538Y-95403892D01*
X105029619Y-95377062D01*
X105048253Y-95351937D01*
X105069260Y-95328760D01*
X105092437Y-95307753D01*
X105117562Y-95289119D01*
X105144392Y-95273038D01*
X105172670Y-95259663D01*
X105202122Y-95249125D01*
X105232465Y-95241525D01*
X105263407Y-95236935D01*
X105294650Y-95235400D01*
X105932150Y-95235400D01*
X105963393Y-95236935D01*
X105963393Y-95236935D01*
G37*
D15*
X105613400Y-95910400D03*
D14*
G36*
X104388393Y-95236935D02*
X104419335Y-95241525D01*
X104449678Y-95249125D01*
X104479130Y-95259663D01*
X104507408Y-95273038D01*
X104534238Y-95289119D01*
X104559363Y-95307753D01*
X104582540Y-95328760D01*
X104603547Y-95351937D01*
X104622181Y-95377062D01*
X104638262Y-95403892D01*
X104651637Y-95432170D01*
X104662175Y-95461622D01*
X104669775Y-95491965D01*
X104674365Y-95522907D01*
X104675900Y-95554150D01*
X104675900Y-96266650D01*
X104674365Y-96297893D01*
X104669775Y-96328835D01*
X104662175Y-96359178D01*
X104651637Y-96388630D01*
X104638262Y-96416908D01*
X104622181Y-96443738D01*
X104603547Y-96468863D01*
X104582540Y-96492040D01*
X104559363Y-96513047D01*
X104534238Y-96531681D01*
X104507408Y-96547762D01*
X104479130Y-96561137D01*
X104449678Y-96571675D01*
X104419335Y-96579275D01*
X104388393Y-96583865D01*
X104357150Y-96585400D01*
X103719650Y-96585400D01*
X103688407Y-96583865D01*
X103657465Y-96579275D01*
X103627122Y-96571675D01*
X103597670Y-96561137D01*
X103569392Y-96547762D01*
X103542562Y-96531681D01*
X103517437Y-96513047D01*
X103494260Y-96492040D01*
X103473253Y-96468863D01*
X103454619Y-96443738D01*
X103438538Y-96416908D01*
X103425163Y-96388630D01*
X103414625Y-96359178D01*
X103407025Y-96328835D01*
X103402435Y-96297893D01*
X103400900Y-96266650D01*
X103400900Y-95554150D01*
X103402435Y-95522907D01*
X103407025Y-95491965D01*
X103414625Y-95461622D01*
X103425163Y-95432170D01*
X103438538Y-95403892D01*
X103454619Y-95377062D01*
X103473253Y-95351937D01*
X103494260Y-95328760D01*
X103517437Y-95307753D01*
X103542562Y-95289119D01*
X103569392Y-95273038D01*
X103597670Y-95259663D01*
X103627122Y-95249125D01*
X103657465Y-95241525D01*
X103688407Y-95236935D01*
X103719650Y-95235400D01*
X104357150Y-95235400D01*
X104388393Y-95236935D01*
X104388393Y-95236935D01*
G37*
D15*
X104038400Y-95910400D03*
G04 #@! TD*
D14*
G04 #@! TO.C,R4*
G36*
X107791793Y-95236935D02*
X107822735Y-95241525D01*
X107853078Y-95249125D01*
X107882530Y-95259663D01*
X107910808Y-95273038D01*
X107937638Y-95289119D01*
X107962763Y-95307753D01*
X107985940Y-95328760D01*
X108006947Y-95351937D01*
X108025581Y-95377062D01*
X108041662Y-95403892D01*
X108055037Y-95432170D01*
X108065575Y-95461622D01*
X108073175Y-95491965D01*
X108077765Y-95522907D01*
X108079300Y-95554150D01*
X108079300Y-96266650D01*
X108077765Y-96297893D01*
X108073175Y-96328835D01*
X108065575Y-96359178D01*
X108055037Y-96388630D01*
X108041662Y-96416908D01*
X108025581Y-96443738D01*
X108006947Y-96468863D01*
X107985940Y-96492040D01*
X107962763Y-96513047D01*
X107937638Y-96531681D01*
X107910808Y-96547762D01*
X107882530Y-96561137D01*
X107853078Y-96571675D01*
X107822735Y-96579275D01*
X107791793Y-96583865D01*
X107760550Y-96585400D01*
X107123050Y-96585400D01*
X107091807Y-96583865D01*
X107060865Y-96579275D01*
X107030522Y-96571675D01*
X107001070Y-96561137D01*
X106972792Y-96547762D01*
X106945962Y-96531681D01*
X106920837Y-96513047D01*
X106897660Y-96492040D01*
X106876653Y-96468863D01*
X106858019Y-96443738D01*
X106841938Y-96416908D01*
X106828563Y-96388630D01*
X106818025Y-96359178D01*
X106810425Y-96328835D01*
X106805835Y-96297893D01*
X106804300Y-96266650D01*
X106804300Y-95554150D01*
X106805835Y-95522907D01*
X106810425Y-95491965D01*
X106818025Y-95461622D01*
X106828563Y-95432170D01*
X106841938Y-95403892D01*
X106858019Y-95377062D01*
X106876653Y-95351937D01*
X106897660Y-95328760D01*
X106920837Y-95307753D01*
X106945962Y-95289119D01*
X106972792Y-95273038D01*
X107001070Y-95259663D01*
X107030522Y-95249125D01*
X107060865Y-95241525D01*
X107091807Y-95236935D01*
X107123050Y-95235400D01*
X107760550Y-95235400D01*
X107791793Y-95236935D01*
X107791793Y-95236935D01*
G37*
D15*
X107441800Y-95910400D03*
D14*
G36*
X109366793Y-95236935D02*
X109397735Y-95241525D01*
X109428078Y-95249125D01*
X109457530Y-95259663D01*
X109485808Y-95273038D01*
X109512638Y-95289119D01*
X109537763Y-95307753D01*
X109560940Y-95328760D01*
X109581947Y-95351937D01*
X109600581Y-95377062D01*
X109616662Y-95403892D01*
X109630037Y-95432170D01*
X109640575Y-95461622D01*
X109648175Y-95491965D01*
X109652765Y-95522907D01*
X109654300Y-95554150D01*
X109654300Y-96266650D01*
X109652765Y-96297893D01*
X109648175Y-96328835D01*
X109640575Y-96359178D01*
X109630037Y-96388630D01*
X109616662Y-96416908D01*
X109600581Y-96443738D01*
X109581947Y-96468863D01*
X109560940Y-96492040D01*
X109537763Y-96513047D01*
X109512638Y-96531681D01*
X109485808Y-96547762D01*
X109457530Y-96561137D01*
X109428078Y-96571675D01*
X109397735Y-96579275D01*
X109366793Y-96583865D01*
X109335550Y-96585400D01*
X108698050Y-96585400D01*
X108666807Y-96583865D01*
X108635865Y-96579275D01*
X108605522Y-96571675D01*
X108576070Y-96561137D01*
X108547792Y-96547762D01*
X108520962Y-96531681D01*
X108495837Y-96513047D01*
X108472660Y-96492040D01*
X108451653Y-96468863D01*
X108433019Y-96443738D01*
X108416938Y-96416908D01*
X108403563Y-96388630D01*
X108393025Y-96359178D01*
X108385425Y-96328835D01*
X108380835Y-96297893D01*
X108379300Y-96266650D01*
X108379300Y-95554150D01*
X108380835Y-95522907D01*
X108385425Y-95491965D01*
X108393025Y-95461622D01*
X108403563Y-95432170D01*
X108416938Y-95403892D01*
X108433019Y-95377062D01*
X108451653Y-95351937D01*
X108472660Y-95328760D01*
X108495837Y-95307753D01*
X108520962Y-95289119D01*
X108547792Y-95273038D01*
X108576070Y-95259663D01*
X108605522Y-95249125D01*
X108635865Y-95241525D01*
X108666807Y-95236935D01*
X108698050Y-95235400D01*
X109335550Y-95235400D01*
X109366793Y-95236935D01*
X109366793Y-95236935D01*
G37*
D15*
X109016800Y-95910400D03*
G04 #@! TD*
D18*
G04 #@! TO.C,C1*
X111850000Y-74000000D03*
X110350000Y-74000000D03*
G04 #@! TD*
D10*
G04 #@! TO.C,U3*
X196540000Y-72620000D03*
X163520000Y-65000000D03*
X194000000Y-72620000D03*
X166060000Y-65000000D03*
X191460000Y-72620000D03*
X168600000Y-65000000D03*
X188920000Y-72620000D03*
X171140000Y-65000000D03*
X186380000Y-72620000D03*
X173680000Y-65000000D03*
X183840000Y-72620000D03*
X176220000Y-65000000D03*
X181300000Y-72620000D03*
X178760000Y-65000000D03*
X178760000Y-72620000D03*
X181300000Y-65000000D03*
X176220000Y-72620000D03*
X183840000Y-65000000D03*
X173680000Y-72620000D03*
X186380000Y-65000000D03*
X171140000Y-72620000D03*
X188920000Y-65000000D03*
X168600000Y-72620000D03*
X191460000Y-65000000D03*
X166060000Y-72620000D03*
X194000000Y-65000000D03*
X163520000Y-72620000D03*
D11*
X196540000Y-65000000D03*
G04 #@! TD*
M02*
