M48
;DRILL file {KiCad (5.0.0)} date 08/03/20 17:04:55
;FORMAT={-:-/ absolute / inch / decimal}
FMAT,2
INCH,TZ
T1C0.0157
T2C0.0315
T3C0.0394
%
G90
G05
M72
T1
X3.944Y-3.58
X4.044Y-3.56
X4.092Y-3.412
X4.252Y-3.32
X4.296Y-3.428
X4.304Y-3.56
X4.364Y-3.348
X4.564Y-2.484
X4.568Y-3.484
X4.5937Y-3.5623
X4.624Y-3.412
X4.676Y-2.412
X4.7Y-3.56
X4.792Y-3.38
X4.828Y-3.568
X4.844Y-3.344
X4.872Y-2.968
X4.932Y-3.568
X4.94Y-3.344
X4.956Y-3.636
X4.964Y-2.792
X5.012Y-2.608
X5.052Y-2.756
X5.108Y-3.6
X5.148Y-2.74
X5.196Y-3.632
X5.244Y-3.172
X5.344Y-3.172
X5.348Y-2.512
X5.412Y-2.368
X5.412Y-2.784
X5.444Y-3.156
X5.516Y-2.524
X5.572Y-2.38
X5.636Y-3.448
X5.72Y-3.448
X5.76Y-2.38
X5.776Y-3.44
X5.784Y-2.74
X5.832Y-3.404
X5.84Y-3.224
X5.86Y-3.376
X5.88Y-2.672
X5.892Y-3.352
X5.896Y-3.184
X5.944Y-3.776
X5.984Y-2.764
X6.048Y-2.716
X6.116Y-2.828
X6.192Y-3.2
X6.2283Y-2.5787
X6.284Y-3.72
X6.34Y-2.9
X6.344Y-3.588
X6.368Y-3.544
X6.404Y-3.572
X6.484Y-3.568
X6.492Y-2.796
X6.552Y-2.952
X6.58Y-3.568
X6.588Y-2.768
X6.672Y-2.964
X6.684Y-3.6
X6.688Y-2.772
X6.788Y-2.98
X6.836Y-3.28
X6.888Y-3.008
X6.94Y-3.3
X6.948Y-3.548
X6.992Y-3.18
X7.0378Y-3.472
X7.044Y-3.316
X7.124Y-3.548
X7.136Y-3.328
X7.192Y-3.252
X7.236Y-3.34
X7.2362Y-3.4724
X7.268Y-3.58
X7.304Y-3.196
X7.34Y-3.36
X7.356Y-3.46
X7.364Y-2.464
X7.388Y-3.632
X7.404Y-3.244
X7.404Y-3.524
X7.436Y-3.376
X7.468Y-3.44
X7.5Y-3.52
X7.516Y-3.236
X7.572Y-3.136
X7.584Y-3.404
X7.584Y-3.404
X7.584Y-3.404
X7.6Y-3.524
X7.612Y-3.14
X7.636Y-2.752
X7.644Y-3.208
X7.66Y-2.964
X7.688Y-3.136
X7.692Y-3.388
X7.704Y-2.68
X7.732Y-3.
X7.748Y-2.768
X7.748Y-3.248
T2
X3.9937Y-3.1008
X3.9937Y-3.7008
X4.0937Y-3.1008
X4.0937Y-3.7008
X4.1937Y-3.1008
X4.1937Y-3.7008
X4.2937Y-3.1008
X4.2937Y-3.7008
X4.3937Y-3.1008
X4.3937Y-3.7008
X4.4937Y-3.1008
X4.4937Y-3.7008
X4.5937Y-3.1008
X4.5937Y-3.7008
X4.6937Y-3.1008
X4.6937Y-3.7008
X4.7937Y-3.1008
X4.7937Y-3.7008
X4.8937Y-3.1008
X4.8937Y-3.7008
X4.9937Y-3.1008
X4.9937Y-3.7008
X5.0937Y-3.1008
X5.0937Y-3.7008
X5.1937Y-3.1008
X5.1937Y-3.7008
X5.2937Y-3.1008
X5.2937Y-3.7008
X5.3937Y-3.1008
X5.3937Y-3.7008
X5.4937Y-3.1008
X5.4937Y-3.7008
X5.5937Y-3.1008
X5.5937Y-3.7008
X5.6937Y-3.1008
X5.6937Y-3.7008
X5.7937Y-3.1008
X5.7937Y-3.7008
X5.8937Y-3.1008
X5.8937Y-3.7008
X6.4378Y-3.0709
X6.4378Y-3.6709
X6.5378Y-3.0709
X6.5378Y-3.6709
X6.6378Y-3.0709
X6.6378Y-3.6709
X6.7378Y-3.0709
X6.7378Y-3.6709
X6.8378Y-3.0709
X6.8378Y-3.6709
X6.9378Y-3.0709
X6.9378Y-3.6709
X7.0378Y-3.0709
X7.0378Y-3.6709
X7.1378Y-3.0709
X7.1378Y-3.6709
X7.2378Y-3.0709
X7.2378Y-3.6709
X7.3378Y-3.0709
X7.3378Y-3.6709
X7.4378Y-3.0709
X7.4378Y-3.6709
X7.5378Y-3.0709
X7.5378Y-3.6709
X7.6378Y-3.0709
X7.6378Y-3.6709
X7.7378Y-3.0709
X7.7378Y-3.6709
X6.4378Y-2.5591
X6.4378Y-2.8591
X6.5378Y-2.5591
X6.5378Y-2.8591
X6.6378Y-2.5591
X6.6378Y-2.8591
X6.7378Y-2.5591
X6.7378Y-2.8591
X6.8378Y-2.5591
X6.8378Y-2.8591
X6.9378Y-2.5591
X6.9378Y-2.8591
X7.0378Y-2.5591
X7.0378Y-2.8591
X7.1378Y-2.5591
X7.1378Y-2.8591
X7.2378Y-2.5591
X7.2378Y-2.8591
X7.3378Y-2.5591
X7.3378Y-2.8591
X7.4378Y-2.5591
X7.4378Y-2.8591
X7.5378Y-2.5591
X7.5378Y-2.8591
X7.6378Y-2.5591
X7.6378Y-2.8591
X7.7378Y-2.5591
X7.7378Y-2.8591
T3
X4.7394Y-2.3228
X4.8394Y-2.3228
X4.9394Y-2.3228
X5.0394Y-2.3228
X3.9252Y-3.9252
X4.0252Y-3.9252
X4.1252Y-3.9252
X4.2252Y-3.9252
X4.3252Y-3.9252
X4.4252Y-3.9252
X4.5252Y-3.9252
X4.6252Y-3.9252
X4.7252Y-3.9252
X4.8252Y-3.9252
X4.9252Y-3.9252
X5.0252Y-3.9252
X5.1252Y-3.9252
X5.2252Y-3.9252
X5.3252Y-3.9252
X5.4252Y-3.9252
X5.5252Y-3.9252
X5.6252Y-3.9252
X5.7252Y-3.9252
X5.8252Y-3.9252
X5.9252Y-3.9252
X6.0252Y-3.9252
X6.1252Y-3.9252
X6.2252Y-3.9252
X6.3252Y-3.9252
X6.4252Y-3.9252
X6.5252Y-3.9252
X6.6252Y-3.9252
X6.7252Y-3.9252
X6.8252Y-3.9252
X6.9252Y-3.9252
X7.0252Y-3.9252
X7.1252Y-3.9252
X7.2252Y-3.9252
X7.3252Y-3.9252
X7.4252Y-3.9252
X7.5252Y-3.9252
X7.6252Y-3.9252
X7.7252Y-3.9252
T0
M30
