G04 #@! TF.GenerationSoftware,KiCad,Pcbnew,(5.0.0)*
G04 #@! TF.CreationDate,2020-08-03T17:04:06+01:00*
G04 #@! TF.ProjectId,basic-mc6800,62617369632D6D63363830302E6B6963,rev?*
G04 #@! TF.SameCoordinates,Original*
G04 #@! TF.FileFunction,Soldermask,Bot*
G04 #@! TF.FilePolarity,Negative*
%FSLAX46Y46*%
G04 Gerber Fmt 4.6, Leading zero omitted, Abs format (unit mm)*
G04 Created by KiCad (PCBNEW (5.0.0)) date 08/03/20 17:04:06*
%MOMM*%
%LPD*%
G01*
G04 APERTURE LIST*
%ADD10O,2.000000X2.000000*%
%ADD11R,2.000000X2.000000*%
%ADD12C,0.500000*%
%ADD13C,0.100000*%
%ADD14R,2.100000X2.100000*%
%ADD15O,2.100000X2.100000*%
%ADD16C,3.600000*%
G04 APERTURE END LIST*
D10*
G04 #@! TO.C,U4*
X196540000Y-93240000D03*
X163520000Y-78000000D03*
X194000000Y-93240000D03*
X166060000Y-78000000D03*
X191460000Y-93240000D03*
X168600000Y-78000000D03*
X188920000Y-93240000D03*
X171140000Y-78000000D03*
X186380000Y-93240000D03*
X173680000Y-78000000D03*
X183840000Y-93240000D03*
X176220000Y-78000000D03*
X181300000Y-93240000D03*
X178760000Y-78000000D03*
X178760000Y-93240000D03*
X181300000Y-78000000D03*
X176220000Y-93240000D03*
X183840000Y-78000000D03*
X173680000Y-93240000D03*
X186380000Y-78000000D03*
X171140000Y-93240000D03*
X188920000Y-78000000D03*
X168600000Y-93240000D03*
X191460000Y-78000000D03*
X166060000Y-93240000D03*
X194000000Y-78000000D03*
X163520000Y-93240000D03*
D11*
X196540000Y-78000000D03*
G04 #@! TD*
D12*
G04 #@! TO.C,JP2*
X187187600Y-90932000D03*
D13*
G36*
X187193712Y-89982602D02*
X187212134Y-89982602D01*
X187231740Y-89983565D01*
X187280571Y-89988375D01*
X187299980Y-89991254D01*
X187348105Y-90000826D01*
X187367148Y-90005596D01*
X187414103Y-90019840D01*
X187432580Y-90026451D01*
X187477913Y-90045228D01*
X187495661Y-90053623D01*
X187538934Y-90076754D01*
X187555762Y-90086840D01*
X187596561Y-90114100D01*
X187612330Y-90125795D01*
X187650259Y-90156923D01*
X187664800Y-90170103D01*
X187699497Y-90204800D01*
X187712677Y-90219341D01*
X187743805Y-90257270D01*
X187755500Y-90273039D01*
X187782760Y-90313838D01*
X187792846Y-90330666D01*
X187815977Y-90373939D01*
X187824372Y-90391687D01*
X187843149Y-90437020D01*
X187849760Y-90455497D01*
X187864004Y-90502452D01*
X187868774Y-90521495D01*
X187878346Y-90569620D01*
X187881225Y-90589029D01*
X187886035Y-90637860D01*
X187886998Y-90657466D01*
X187886998Y-90675888D01*
X187887600Y-90682000D01*
X187887600Y-91182000D01*
X187886998Y-91188112D01*
X187886998Y-91206534D01*
X187886035Y-91226140D01*
X187881225Y-91274971D01*
X187878346Y-91294380D01*
X187868774Y-91342505D01*
X187864004Y-91361548D01*
X187849760Y-91408503D01*
X187843149Y-91426980D01*
X187824372Y-91472313D01*
X187815977Y-91490061D01*
X187792846Y-91533334D01*
X187782760Y-91550162D01*
X187755500Y-91590961D01*
X187743805Y-91606730D01*
X187712677Y-91644659D01*
X187699497Y-91659200D01*
X187664800Y-91693897D01*
X187650259Y-91707077D01*
X187612330Y-91738205D01*
X187596561Y-91749900D01*
X187555762Y-91777160D01*
X187538934Y-91787246D01*
X187495661Y-91810377D01*
X187477913Y-91818772D01*
X187432580Y-91837549D01*
X187414103Y-91844160D01*
X187367148Y-91858404D01*
X187348105Y-91863174D01*
X187299980Y-91872746D01*
X187280571Y-91875625D01*
X187231740Y-91880435D01*
X187212134Y-91881398D01*
X187193712Y-91881398D01*
X187187600Y-91882000D01*
X186687600Y-91882000D01*
X186648582Y-91878157D01*
X186611063Y-91866776D01*
X186576486Y-91848294D01*
X186546179Y-91823421D01*
X186521306Y-91793114D01*
X186502824Y-91758537D01*
X186491443Y-91721018D01*
X186487600Y-91682000D01*
X186487600Y-90182000D01*
X186491443Y-90142982D01*
X186502824Y-90105463D01*
X186521306Y-90070886D01*
X186546179Y-90040579D01*
X186576486Y-90015706D01*
X186611063Y-89997224D01*
X186648582Y-89985843D01*
X186687600Y-89982000D01*
X187187600Y-89982000D01*
X187193712Y-89982602D01*
X187193712Y-89982602D01*
G37*
D12*
X185887600Y-90932000D03*
D13*
G36*
X186426618Y-89985843D02*
X186464137Y-89997224D01*
X186498714Y-90015706D01*
X186529021Y-90040579D01*
X186553894Y-90070886D01*
X186572376Y-90105463D01*
X186583757Y-90142982D01*
X186587600Y-90182000D01*
X186587600Y-90432000D01*
X186787600Y-90432000D01*
X186826618Y-90435843D01*
X186864137Y-90447224D01*
X186898714Y-90465706D01*
X186929021Y-90490579D01*
X186953894Y-90520886D01*
X186972376Y-90555463D01*
X186983757Y-90592982D01*
X186987600Y-90632000D01*
X186987600Y-91232000D01*
X186983757Y-91271018D01*
X186972376Y-91308537D01*
X186953894Y-91343114D01*
X186929021Y-91373421D01*
X186898714Y-91398294D01*
X186864137Y-91416776D01*
X186826618Y-91428157D01*
X186787600Y-91432000D01*
X186587600Y-91432000D01*
X186587600Y-91682000D01*
X186583757Y-91721018D01*
X186572376Y-91758537D01*
X186553894Y-91793114D01*
X186529021Y-91823421D01*
X186498714Y-91848294D01*
X186464137Y-91866776D01*
X186426618Y-91878157D01*
X186387600Y-91882000D01*
X185887600Y-91882000D01*
X185881488Y-91881398D01*
X185863066Y-91881398D01*
X185843460Y-91880435D01*
X185794629Y-91875625D01*
X185775220Y-91872746D01*
X185727095Y-91863174D01*
X185708052Y-91858404D01*
X185661097Y-91844160D01*
X185642620Y-91837549D01*
X185597287Y-91818772D01*
X185579539Y-91810377D01*
X185536266Y-91787246D01*
X185519438Y-91777160D01*
X185478639Y-91749900D01*
X185462870Y-91738205D01*
X185424941Y-91707077D01*
X185410400Y-91693897D01*
X185375703Y-91659200D01*
X185362523Y-91644659D01*
X185331395Y-91606730D01*
X185319700Y-91590961D01*
X185292440Y-91550162D01*
X185282354Y-91533334D01*
X185259223Y-91490061D01*
X185250828Y-91472313D01*
X185232051Y-91426980D01*
X185225440Y-91408503D01*
X185211196Y-91361548D01*
X185206426Y-91342505D01*
X185196854Y-91294380D01*
X185193975Y-91274971D01*
X185189165Y-91226140D01*
X185188202Y-91206534D01*
X185188202Y-91188112D01*
X185187600Y-91182000D01*
X185187600Y-90682000D01*
X185188202Y-90675888D01*
X185188202Y-90657466D01*
X185189165Y-90637860D01*
X185193975Y-90589029D01*
X185196854Y-90569620D01*
X185206426Y-90521495D01*
X185211196Y-90502452D01*
X185225440Y-90455497D01*
X185232051Y-90437020D01*
X185250828Y-90391687D01*
X185259223Y-90373939D01*
X185282354Y-90330666D01*
X185292440Y-90313838D01*
X185319700Y-90273039D01*
X185331395Y-90257270D01*
X185362523Y-90219341D01*
X185375703Y-90204800D01*
X185410400Y-90170103D01*
X185424941Y-90156923D01*
X185462870Y-90125795D01*
X185478639Y-90114100D01*
X185519438Y-90086840D01*
X185536266Y-90076754D01*
X185579539Y-90053623D01*
X185597287Y-90045228D01*
X185642620Y-90026451D01*
X185661097Y-90019840D01*
X185708052Y-90005596D01*
X185727095Y-90000826D01*
X185775220Y-89991254D01*
X185794629Y-89988375D01*
X185843460Y-89983565D01*
X185863066Y-89982602D01*
X185881488Y-89982602D01*
X185887600Y-89982000D01*
X186387600Y-89982000D01*
X186426618Y-89985843D01*
X186426618Y-89985843D01*
G37*
G04 #@! TD*
D12*
G04 #@! TO.C,JP3*
X189646800Y-90932000D03*
D13*
G36*
X190185818Y-89985843D02*
X190223337Y-89997224D01*
X190257914Y-90015706D01*
X190288221Y-90040579D01*
X190313094Y-90070886D01*
X190331576Y-90105463D01*
X190342957Y-90142982D01*
X190346800Y-90182000D01*
X190346800Y-90432000D01*
X190546800Y-90432000D01*
X190585818Y-90435843D01*
X190623337Y-90447224D01*
X190657914Y-90465706D01*
X190688221Y-90490579D01*
X190713094Y-90520886D01*
X190731576Y-90555463D01*
X190742957Y-90592982D01*
X190746800Y-90632000D01*
X190746800Y-91232000D01*
X190742957Y-91271018D01*
X190731576Y-91308537D01*
X190713094Y-91343114D01*
X190688221Y-91373421D01*
X190657914Y-91398294D01*
X190623337Y-91416776D01*
X190585818Y-91428157D01*
X190546800Y-91432000D01*
X190346800Y-91432000D01*
X190346800Y-91682000D01*
X190342957Y-91721018D01*
X190331576Y-91758537D01*
X190313094Y-91793114D01*
X190288221Y-91823421D01*
X190257914Y-91848294D01*
X190223337Y-91866776D01*
X190185818Y-91878157D01*
X190146800Y-91882000D01*
X189646800Y-91882000D01*
X189640688Y-91881398D01*
X189622266Y-91881398D01*
X189602660Y-91880435D01*
X189553829Y-91875625D01*
X189534420Y-91872746D01*
X189486295Y-91863174D01*
X189467252Y-91858404D01*
X189420297Y-91844160D01*
X189401820Y-91837549D01*
X189356487Y-91818772D01*
X189338739Y-91810377D01*
X189295466Y-91787246D01*
X189278638Y-91777160D01*
X189237839Y-91749900D01*
X189222070Y-91738205D01*
X189184141Y-91707077D01*
X189169600Y-91693897D01*
X189134903Y-91659200D01*
X189121723Y-91644659D01*
X189090595Y-91606730D01*
X189078900Y-91590961D01*
X189051640Y-91550162D01*
X189041554Y-91533334D01*
X189018423Y-91490061D01*
X189010028Y-91472313D01*
X188991251Y-91426980D01*
X188984640Y-91408503D01*
X188970396Y-91361548D01*
X188965626Y-91342505D01*
X188956054Y-91294380D01*
X188953175Y-91274971D01*
X188948365Y-91226140D01*
X188947402Y-91206534D01*
X188947402Y-91188112D01*
X188946800Y-91182000D01*
X188946800Y-90682000D01*
X188947402Y-90675888D01*
X188947402Y-90657466D01*
X188948365Y-90637860D01*
X188953175Y-90589029D01*
X188956054Y-90569620D01*
X188965626Y-90521495D01*
X188970396Y-90502452D01*
X188984640Y-90455497D01*
X188991251Y-90437020D01*
X189010028Y-90391687D01*
X189018423Y-90373939D01*
X189041554Y-90330666D01*
X189051640Y-90313838D01*
X189078900Y-90273039D01*
X189090595Y-90257270D01*
X189121723Y-90219341D01*
X189134903Y-90204800D01*
X189169600Y-90170103D01*
X189184141Y-90156923D01*
X189222070Y-90125795D01*
X189237839Y-90114100D01*
X189278638Y-90086840D01*
X189295466Y-90076754D01*
X189338739Y-90053623D01*
X189356487Y-90045228D01*
X189401820Y-90026451D01*
X189420297Y-90019840D01*
X189467252Y-90005596D01*
X189486295Y-90000826D01*
X189534420Y-89991254D01*
X189553829Y-89988375D01*
X189602660Y-89983565D01*
X189622266Y-89982602D01*
X189640688Y-89982602D01*
X189646800Y-89982000D01*
X190146800Y-89982000D01*
X190185818Y-89985843D01*
X190185818Y-89985843D01*
G37*
D12*
X190946800Y-90932000D03*
D13*
G36*
X190952912Y-89982602D02*
X190971334Y-89982602D01*
X190990940Y-89983565D01*
X191039771Y-89988375D01*
X191059180Y-89991254D01*
X191107305Y-90000826D01*
X191126348Y-90005596D01*
X191173303Y-90019840D01*
X191191780Y-90026451D01*
X191237113Y-90045228D01*
X191254861Y-90053623D01*
X191298134Y-90076754D01*
X191314962Y-90086840D01*
X191355761Y-90114100D01*
X191371530Y-90125795D01*
X191409459Y-90156923D01*
X191424000Y-90170103D01*
X191458697Y-90204800D01*
X191471877Y-90219341D01*
X191503005Y-90257270D01*
X191514700Y-90273039D01*
X191541960Y-90313838D01*
X191552046Y-90330666D01*
X191575177Y-90373939D01*
X191583572Y-90391687D01*
X191602349Y-90437020D01*
X191608960Y-90455497D01*
X191623204Y-90502452D01*
X191627974Y-90521495D01*
X191637546Y-90569620D01*
X191640425Y-90589029D01*
X191645235Y-90637860D01*
X191646198Y-90657466D01*
X191646198Y-90675888D01*
X191646800Y-90682000D01*
X191646800Y-91182000D01*
X191646198Y-91188112D01*
X191646198Y-91206534D01*
X191645235Y-91226140D01*
X191640425Y-91274971D01*
X191637546Y-91294380D01*
X191627974Y-91342505D01*
X191623204Y-91361548D01*
X191608960Y-91408503D01*
X191602349Y-91426980D01*
X191583572Y-91472313D01*
X191575177Y-91490061D01*
X191552046Y-91533334D01*
X191541960Y-91550162D01*
X191514700Y-91590961D01*
X191503005Y-91606730D01*
X191471877Y-91644659D01*
X191458697Y-91659200D01*
X191424000Y-91693897D01*
X191409459Y-91707077D01*
X191371530Y-91738205D01*
X191355761Y-91749900D01*
X191314962Y-91777160D01*
X191298134Y-91787246D01*
X191254861Y-91810377D01*
X191237113Y-91818772D01*
X191191780Y-91837549D01*
X191173303Y-91844160D01*
X191126348Y-91858404D01*
X191107305Y-91863174D01*
X191059180Y-91872746D01*
X191039771Y-91875625D01*
X190990940Y-91880435D01*
X190971334Y-91881398D01*
X190952912Y-91881398D01*
X190946800Y-91882000D01*
X190446800Y-91882000D01*
X190407782Y-91878157D01*
X190370263Y-91866776D01*
X190335686Y-91848294D01*
X190305379Y-91823421D01*
X190280506Y-91793114D01*
X190262024Y-91758537D01*
X190250643Y-91721018D01*
X190246800Y-91682000D01*
X190246800Y-90182000D01*
X190250643Y-90142982D01*
X190262024Y-90105463D01*
X190280506Y-90070886D01*
X190305379Y-90040579D01*
X190335686Y-90015706D01*
X190370263Y-89997224D01*
X190407782Y-89985843D01*
X190446800Y-89982000D01*
X190946800Y-89982000D01*
X190952912Y-89982602D01*
X190952912Y-89982602D01*
G37*
G04 #@! TD*
D14*
G04 #@! TO.C,J1*
X99700000Y-99700000D03*
D15*
X102240000Y-99700000D03*
X104780000Y-99700000D03*
X107320000Y-99700000D03*
X109860000Y-99700000D03*
X112400000Y-99700000D03*
X114940000Y-99700000D03*
X117480000Y-99700000D03*
X120020000Y-99700000D03*
X122560000Y-99700000D03*
X125100000Y-99700000D03*
X127640000Y-99700000D03*
X130180000Y-99700000D03*
X132720000Y-99700000D03*
X135260000Y-99700000D03*
X137800000Y-99700000D03*
X140340000Y-99700000D03*
X142880000Y-99700000D03*
X145420000Y-99700000D03*
X147960000Y-99700000D03*
X150500000Y-99700000D03*
X153040000Y-99700000D03*
X155580000Y-99700000D03*
X158120000Y-99700000D03*
X160660000Y-99700000D03*
X163200000Y-99700000D03*
X165740000Y-99700000D03*
X168280000Y-99700000D03*
X170820000Y-99700000D03*
X173360000Y-99700000D03*
X175900000Y-99700000D03*
X178440000Y-99700000D03*
X180980000Y-99700000D03*
X183520000Y-99700000D03*
X186060000Y-99700000D03*
X188600000Y-99700000D03*
X191140000Y-99700000D03*
X193680000Y-99700000D03*
X196220000Y-99700000D03*
G04 #@! TD*
D14*
G04 #@! TO.C,J2*
X128000000Y-59000000D03*
D15*
X125460000Y-59000000D03*
X122920000Y-59000000D03*
X120380000Y-59000000D03*
G04 #@! TD*
D12*
G04 #@! TO.C,JP1*
X193000000Y-90932000D03*
D13*
G36*
X193539018Y-89985843D02*
X193576537Y-89997224D01*
X193611114Y-90015706D01*
X193641421Y-90040579D01*
X193666294Y-90070886D01*
X193684776Y-90105463D01*
X193696157Y-90142982D01*
X193700000Y-90182000D01*
X193700000Y-90432000D01*
X193900000Y-90432000D01*
X193939018Y-90435843D01*
X193976537Y-90447224D01*
X194011114Y-90465706D01*
X194041421Y-90490579D01*
X194066294Y-90520886D01*
X194084776Y-90555463D01*
X194096157Y-90592982D01*
X194100000Y-90632000D01*
X194100000Y-91232000D01*
X194096157Y-91271018D01*
X194084776Y-91308537D01*
X194066294Y-91343114D01*
X194041421Y-91373421D01*
X194011114Y-91398294D01*
X193976537Y-91416776D01*
X193939018Y-91428157D01*
X193900000Y-91432000D01*
X193700000Y-91432000D01*
X193700000Y-91682000D01*
X193696157Y-91721018D01*
X193684776Y-91758537D01*
X193666294Y-91793114D01*
X193641421Y-91823421D01*
X193611114Y-91848294D01*
X193576537Y-91866776D01*
X193539018Y-91878157D01*
X193500000Y-91882000D01*
X193000000Y-91882000D01*
X192993888Y-91881398D01*
X192975466Y-91881398D01*
X192955860Y-91880435D01*
X192907029Y-91875625D01*
X192887620Y-91872746D01*
X192839495Y-91863174D01*
X192820452Y-91858404D01*
X192773497Y-91844160D01*
X192755020Y-91837549D01*
X192709687Y-91818772D01*
X192691939Y-91810377D01*
X192648666Y-91787246D01*
X192631838Y-91777160D01*
X192591039Y-91749900D01*
X192575270Y-91738205D01*
X192537341Y-91707077D01*
X192522800Y-91693897D01*
X192488103Y-91659200D01*
X192474923Y-91644659D01*
X192443795Y-91606730D01*
X192432100Y-91590961D01*
X192404840Y-91550162D01*
X192394754Y-91533334D01*
X192371623Y-91490061D01*
X192363228Y-91472313D01*
X192344451Y-91426980D01*
X192337840Y-91408503D01*
X192323596Y-91361548D01*
X192318826Y-91342505D01*
X192309254Y-91294380D01*
X192306375Y-91274971D01*
X192301565Y-91226140D01*
X192300602Y-91206534D01*
X192300602Y-91188112D01*
X192300000Y-91182000D01*
X192300000Y-90682000D01*
X192300602Y-90675888D01*
X192300602Y-90657466D01*
X192301565Y-90637860D01*
X192306375Y-90589029D01*
X192309254Y-90569620D01*
X192318826Y-90521495D01*
X192323596Y-90502452D01*
X192337840Y-90455497D01*
X192344451Y-90437020D01*
X192363228Y-90391687D01*
X192371623Y-90373939D01*
X192394754Y-90330666D01*
X192404840Y-90313838D01*
X192432100Y-90273039D01*
X192443795Y-90257270D01*
X192474923Y-90219341D01*
X192488103Y-90204800D01*
X192522800Y-90170103D01*
X192537341Y-90156923D01*
X192575270Y-90125795D01*
X192591039Y-90114100D01*
X192631838Y-90086840D01*
X192648666Y-90076754D01*
X192691939Y-90053623D01*
X192709687Y-90045228D01*
X192755020Y-90026451D01*
X192773497Y-90019840D01*
X192820452Y-90005596D01*
X192839495Y-90000826D01*
X192887620Y-89991254D01*
X192907029Y-89988375D01*
X192955860Y-89983565D01*
X192975466Y-89982602D01*
X192993888Y-89982602D01*
X193000000Y-89982000D01*
X193500000Y-89982000D01*
X193539018Y-89985843D01*
X193539018Y-89985843D01*
G37*
D12*
X194300000Y-90932000D03*
D13*
G36*
X194306112Y-89982602D02*
X194324534Y-89982602D01*
X194344140Y-89983565D01*
X194392971Y-89988375D01*
X194412380Y-89991254D01*
X194460505Y-90000826D01*
X194479548Y-90005596D01*
X194526503Y-90019840D01*
X194544980Y-90026451D01*
X194590313Y-90045228D01*
X194608061Y-90053623D01*
X194651334Y-90076754D01*
X194668162Y-90086840D01*
X194708961Y-90114100D01*
X194724730Y-90125795D01*
X194762659Y-90156923D01*
X194777200Y-90170103D01*
X194811897Y-90204800D01*
X194825077Y-90219341D01*
X194856205Y-90257270D01*
X194867900Y-90273039D01*
X194895160Y-90313838D01*
X194905246Y-90330666D01*
X194928377Y-90373939D01*
X194936772Y-90391687D01*
X194955549Y-90437020D01*
X194962160Y-90455497D01*
X194976404Y-90502452D01*
X194981174Y-90521495D01*
X194990746Y-90569620D01*
X194993625Y-90589029D01*
X194998435Y-90637860D01*
X194999398Y-90657466D01*
X194999398Y-90675888D01*
X195000000Y-90682000D01*
X195000000Y-91182000D01*
X194999398Y-91188112D01*
X194999398Y-91206534D01*
X194998435Y-91226140D01*
X194993625Y-91274971D01*
X194990746Y-91294380D01*
X194981174Y-91342505D01*
X194976404Y-91361548D01*
X194962160Y-91408503D01*
X194955549Y-91426980D01*
X194936772Y-91472313D01*
X194928377Y-91490061D01*
X194905246Y-91533334D01*
X194895160Y-91550162D01*
X194867900Y-91590961D01*
X194856205Y-91606730D01*
X194825077Y-91644659D01*
X194811897Y-91659200D01*
X194777200Y-91693897D01*
X194762659Y-91707077D01*
X194724730Y-91738205D01*
X194708961Y-91749900D01*
X194668162Y-91777160D01*
X194651334Y-91787246D01*
X194608061Y-91810377D01*
X194590313Y-91818772D01*
X194544980Y-91837549D01*
X194526503Y-91844160D01*
X194479548Y-91858404D01*
X194460505Y-91863174D01*
X194412380Y-91872746D01*
X194392971Y-91875625D01*
X194344140Y-91880435D01*
X194324534Y-91881398D01*
X194306112Y-91881398D01*
X194300000Y-91882000D01*
X193800000Y-91882000D01*
X193760982Y-91878157D01*
X193723463Y-91866776D01*
X193688886Y-91848294D01*
X193658579Y-91823421D01*
X193633706Y-91793114D01*
X193615224Y-91758537D01*
X193603843Y-91721018D01*
X193600000Y-91682000D01*
X193600000Y-90182000D01*
X193603843Y-90142982D01*
X193615224Y-90105463D01*
X193633706Y-90070886D01*
X193658579Y-90040579D01*
X193688886Y-90015706D01*
X193723463Y-89997224D01*
X193760982Y-89985843D01*
X193800000Y-89982000D01*
X194300000Y-89982000D01*
X194306112Y-89982602D01*
X194306112Y-89982602D01*
G37*
G04 #@! TD*
D16*
G04 #@! TO.C,MH4*
X113000000Y-60000000D03*
G04 #@! TD*
G04 #@! TO.C,MH3*
X195000000Y-60000000D03*
G04 #@! TD*
G04 #@! TO.C,MH2*
X157000000Y-60000000D03*
G04 #@! TD*
G04 #@! TO.C,MH1*
X157000000Y-92000000D03*
G04 #@! TD*
D11*
G04 #@! TO.C,U2*
X101440000Y-94000000D03*
D10*
X149700000Y-78760000D03*
X103980000Y-94000000D03*
X147160000Y-78760000D03*
X106520000Y-94000000D03*
X144620000Y-78760000D03*
X109060000Y-94000000D03*
X142080000Y-78760000D03*
X111600000Y-94000000D03*
X139540000Y-78760000D03*
X114140000Y-94000000D03*
X137000000Y-78760000D03*
X116680000Y-94000000D03*
X134460000Y-78760000D03*
X119220000Y-94000000D03*
X131920000Y-78760000D03*
X121760000Y-94000000D03*
X129380000Y-78760000D03*
X124300000Y-94000000D03*
X126840000Y-78760000D03*
X126840000Y-94000000D03*
X124300000Y-78760000D03*
X129380000Y-94000000D03*
X121760000Y-78760000D03*
X131920000Y-94000000D03*
X119220000Y-78760000D03*
X134460000Y-94000000D03*
X116680000Y-78760000D03*
X137000000Y-94000000D03*
X114140000Y-78760000D03*
X139540000Y-94000000D03*
X111600000Y-78760000D03*
X142080000Y-94000000D03*
X109060000Y-78760000D03*
X144620000Y-94000000D03*
X106520000Y-78760000D03*
X147160000Y-94000000D03*
X103980000Y-78760000D03*
X149700000Y-94000000D03*
X101440000Y-78760000D03*
G04 #@! TD*
G04 #@! TO.C,U3*
X196540000Y-72620000D03*
X163520000Y-65000000D03*
X194000000Y-72620000D03*
X166060000Y-65000000D03*
X191460000Y-72620000D03*
X168600000Y-65000000D03*
X188920000Y-72620000D03*
X171140000Y-65000000D03*
X186380000Y-72620000D03*
X173680000Y-65000000D03*
X183840000Y-72620000D03*
X176220000Y-65000000D03*
X181300000Y-72620000D03*
X178760000Y-65000000D03*
X178760000Y-72620000D03*
X181300000Y-65000000D03*
X176220000Y-72620000D03*
X183840000Y-65000000D03*
X173680000Y-72620000D03*
X186380000Y-65000000D03*
X171140000Y-72620000D03*
X188920000Y-65000000D03*
X168600000Y-72620000D03*
X191460000Y-65000000D03*
X166060000Y-72620000D03*
X194000000Y-65000000D03*
X163520000Y-72620000D03*
D11*
X196540000Y-65000000D03*
G04 #@! TD*
M02*
