M48
;DRILL file {KiCad (5.0.0)} date 03/05/20 09:38:27
;FORMAT={-:-/ absolute / inch / decimal}
FMAT,2
INCH,TZ
T1C0.0157
T2C0.0315
T3C0.0394
%
G90
G05
M72
T1
X4.0551Y-2.6772
X4.1732Y-3.0315
X4.3504Y-2.437
X4.4409Y-2.9921
X4.4764Y-3.5529
X4.4803Y-3.4567
X4.4803Y-3.5039
X4.6378Y-3.4567
X4.6378Y-3.5039
X4.6378Y-3.5591
X4.6614Y-2.5945
X4.9833Y-2.44
X5.Y-2.8346
X5.3228Y-2.6063
X5.3386Y-3.5709
X5.3386Y-3.6417
X5.4331Y-2.6929
X5.4409Y-3.5433
X5.4409Y-3.6378
X5.5276Y-2.6063
X5.5394Y-3.6378
X5.5433Y-3.4961
X5.5748Y-3.346
X5.5906Y-3.4016
X5.5984Y-3.4646
X5.6063Y-2.8228
X5.6063Y-2.874
X5.6142Y-2.4252
X5.622Y-3.4331
X5.622Y-3.6063
X5.638Y-3.3735
X5.6772Y-3.378
X5.7008Y-3.5118
X5.7298Y-3.4788
X5.7598Y-3.4533
X5.7874Y-3.4252
X5.8187Y-3.4013
X5.8976Y-3.8189
X5.9291Y-2.6378
X6.0787Y-3.0748
X6.122Y-3.0748
X6.1811Y-3.3307
X6.1811Y-3.374
X6.1811Y-3.4134
X6.3228Y-3.6811
X6.4803Y-2.9646
X6.5315Y-2.9646
X6.5354Y-3.6102
X6.5787Y-2.9646
X6.622Y-3.6102
X6.626Y-2.9646
X6.6732Y-2.9646
X6.7165Y-2.9646
X6.7283Y-3.7992
X6.7362Y-3.6102
X6.7598Y-2.9646
X6.7638Y-3.8189
X6.8071Y-3.8504
X6.9882Y-2.9646
X7.0906Y-3.2559
X7.2835Y-3.2323
X7.3425Y-3.2323
X7.4331Y-3.2323
X7.4331Y-3.7717
X7.5315Y-3.2323
X7.6811Y-3.2323
X7.7323Y-3.2677
X7.7402Y-3.0079
T2
X6.4378Y-3.0709
X6.4378Y-3.6709
X6.5378Y-3.0709
X6.5378Y-3.6709
X6.6378Y-3.0709
X6.6378Y-3.6709
X6.7378Y-3.0709
X6.7378Y-3.6709
X6.8378Y-3.0709
X6.8378Y-3.6709
X6.9378Y-3.0709
X6.9378Y-3.6709
X7.0378Y-3.0709
X7.0378Y-3.6709
X7.1378Y-3.0709
X7.1378Y-3.6709
X7.2378Y-3.0709
X7.2378Y-3.6709
X7.3378Y-3.0709
X7.3378Y-3.6709
X7.4378Y-3.0709
X7.4378Y-3.6709
X7.5378Y-3.0709
X7.5378Y-3.6709
X7.6378Y-3.0709
X7.6378Y-3.6709
X7.7378Y-3.0709
X7.7378Y-3.6709
X3.9937Y-3.1008
X3.9937Y-3.7008
X4.0937Y-3.1008
X4.0937Y-3.7008
X4.1937Y-3.1008
X4.1937Y-3.7008
X4.2937Y-3.1008
X4.2937Y-3.7008
X4.3937Y-3.1008
X4.3937Y-3.7008
X4.4937Y-3.1008
X4.4937Y-3.7008
X4.5937Y-3.1008
X4.5937Y-3.7008
X4.6937Y-3.1008
X4.6937Y-3.7008
X4.7937Y-3.1008
X4.7937Y-3.7008
X4.8937Y-3.1008
X4.8937Y-3.7008
X4.9937Y-3.1008
X4.9937Y-3.7008
X5.0937Y-3.1008
X5.0937Y-3.7008
X5.1937Y-3.1008
X5.1937Y-3.7008
X5.2937Y-3.1008
X5.2937Y-3.7008
X5.3937Y-3.1008
X5.3937Y-3.7008
X5.4937Y-3.1008
X5.4937Y-3.7008
X5.5937Y-3.1008
X5.5937Y-3.7008
X5.6937Y-3.1008
X5.6937Y-3.7008
X5.7937Y-3.1008
X5.7937Y-3.7008
X5.8937Y-3.1008
X5.8937Y-3.7008
X6.4378Y-2.5591
X6.4378Y-2.8591
X6.5378Y-2.5591
X6.5378Y-2.8591
X6.6378Y-2.5591
X6.6378Y-2.8591
X6.7378Y-2.5591
X6.7378Y-2.8591
X6.8378Y-2.5591
X6.8378Y-2.8591
X6.9378Y-2.5591
X6.9378Y-2.8591
X7.0378Y-2.5591
X7.0378Y-2.8591
X7.1378Y-2.5591
X7.1378Y-2.8591
X7.2378Y-2.5591
X7.2378Y-2.8591
X7.3378Y-2.5591
X7.3378Y-2.8591
X7.4378Y-2.5591
X7.4378Y-2.8591
X7.5378Y-2.5591
X7.5378Y-2.8591
X7.6378Y-2.5591
X7.6378Y-2.8591
X7.7378Y-2.5591
X7.7378Y-2.8591
T3
X3.937Y-3.937
X4.037Y-3.937
X4.137Y-3.937
X4.237Y-3.937
X4.337Y-3.937
X4.437Y-3.937
X4.537Y-3.937
X4.637Y-3.937
X4.737Y-3.937
X4.837Y-3.937
X4.937Y-3.937
X5.037Y-3.937
X5.137Y-3.937
X5.237Y-3.937
X5.337Y-3.937
X5.437Y-3.937
X5.537Y-3.937
X5.637Y-3.937
X5.737Y-3.937
X5.837Y-3.937
X5.937Y-3.937
X6.037Y-3.937
X6.137Y-3.937
X6.237Y-3.937
X6.337Y-3.937
X6.437Y-3.937
X6.537Y-3.937
X6.637Y-3.937
X6.737Y-3.937
X6.837Y-3.937
X6.937Y-3.937
X7.037Y-3.937
X7.137Y-3.937
X7.237Y-3.937
X7.337Y-3.937
X7.437Y-3.937
X7.537Y-3.937
X7.637Y-3.937
X7.737Y-3.937
T0
M30
