G04 #@! TF.GenerationSoftware,KiCad,Pcbnew,(5.0.0)*
G04 #@! TF.CreationDate,2020-03-05T15:16:05+00:00*
G04 #@! TF.ProjectId,basic-mc6800,62617369632D6D63363830302E6B6963,rev?*
G04 #@! TF.SameCoordinates,Original*
G04 #@! TF.FileFunction,Paste,Top*
G04 #@! TF.FilePolarity,Positive*
%FSLAX46Y46*%
G04 Gerber Fmt 4.6, Leading zero omitted, Abs format (unit mm)*
G04 Created by KiCad (PCBNEW (5.0.0)) date 03/05/20 15:16:05*
%MOMM*%
%LPD*%
G01*
G04 APERTURE LIST*
%ADD10R,0.600000X1.500000*%
%ADD11R,0.750000X0.800000*%
%ADD12R,0.800000X0.750000*%
%ADD13R,0.900000X0.800000*%
%ADD14C,0.100000*%
%ADD15C,0.875000*%
%ADD16R,1.400000X1.200000*%
G04 APERTURE END LIST*
D10*
G04 #@! TO.C,U1*
X149010000Y-69000000D03*
X147740000Y-69000000D03*
X146470000Y-69000000D03*
X145200000Y-69000000D03*
X143930000Y-69000000D03*
X142660000Y-69000000D03*
X141390000Y-69000000D03*
X140120000Y-69000000D03*
X140120000Y-63600000D03*
X141390000Y-63600000D03*
X142660000Y-63600000D03*
X143930000Y-63600000D03*
X145200000Y-63600000D03*
X146470000Y-63600000D03*
X147740000Y-63600000D03*
X149010000Y-63600000D03*
G04 #@! TD*
D11*
G04 #@! TO.C,C2*
X101800000Y-73000000D03*
X101800000Y-74500000D03*
G04 #@! TD*
G04 #@! TO.C,C3*
X108800000Y-72900000D03*
X108800000Y-74400000D03*
G04 #@! TD*
G04 #@! TO.C,C4*
X148800000Y-71500000D03*
X148800000Y-73000000D03*
G04 #@! TD*
D12*
G04 #@! TO.C,C5*
X114850000Y-95800000D03*
X116350000Y-95800000D03*
G04 #@! TD*
G04 #@! TO.C,C6*
X196200000Y-75000000D03*
X197700000Y-75000000D03*
G04 #@! TD*
G04 #@! TO.C,C7*
X196600000Y-95600000D03*
X195100000Y-95600000D03*
G04 #@! TD*
D13*
G04 #@! TO.C,Q1*
X123000000Y-69750000D03*
X123000000Y-67850000D03*
X121000000Y-68800000D03*
G04 #@! TD*
G04 #@! TO.C,Q2*
X123000000Y-64000000D03*
X121000000Y-64950000D03*
X121000000Y-63050000D03*
G04 #@! TD*
D14*
G04 #@! TO.C,R1*
G36*
X111052691Y-73926053D02*
X111073926Y-73929203D01*
X111094750Y-73934419D01*
X111114962Y-73941651D01*
X111134368Y-73950830D01*
X111152781Y-73961866D01*
X111170024Y-73974654D01*
X111185930Y-73989070D01*
X111200346Y-74004976D01*
X111213134Y-74022219D01*
X111224170Y-74040632D01*
X111233349Y-74060038D01*
X111240581Y-74080250D01*
X111245797Y-74101074D01*
X111248947Y-74122309D01*
X111250000Y-74143750D01*
X111250000Y-74656250D01*
X111248947Y-74677691D01*
X111245797Y-74698926D01*
X111240581Y-74719750D01*
X111233349Y-74739962D01*
X111224170Y-74759368D01*
X111213134Y-74777781D01*
X111200346Y-74795024D01*
X111185930Y-74810930D01*
X111170024Y-74825346D01*
X111152781Y-74838134D01*
X111134368Y-74849170D01*
X111114962Y-74858349D01*
X111094750Y-74865581D01*
X111073926Y-74870797D01*
X111052691Y-74873947D01*
X111031250Y-74875000D01*
X110593750Y-74875000D01*
X110572309Y-74873947D01*
X110551074Y-74870797D01*
X110530250Y-74865581D01*
X110510038Y-74858349D01*
X110490632Y-74849170D01*
X110472219Y-74838134D01*
X110454976Y-74825346D01*
X110439070Y-74810930D01*
X110424654Y-74795024D01*
X110411866Y-74777781D01*
X110400830Y-74759368D01*
X110391651Y-74739962D01*
X110384419Y-74719750D01*
X110379203Y-74698926D01*
X110376053Y-74677691D01*
X110375000Y-74656250D01*
X110375000Y-74143750D01*
X110376053Y-74122309D01*
X110379203Y-74101074D01*
X110384419Y-74080250D01*
X110391651Y-74060038D01*
X110400830Y-74040632D01*
X110411866Y-74022219D01*
X110424654Y-74004976D01*
X110439070Y-73989070D01*
X110454976Y-73974654D01*
X110472219Y-73961866D01*
X110490632Y-73950830D01*
X110510038Y-73941651D01*
X110530250Y-73934419D01*
X110551074Y-73929203D01*
X110572309Y-73926053D01*
X110593750Y-73925000D01*
X111031250Y-73925000D01*
X111052691Y-73926053D01*
X111052691Y-73926053D01*
G37*
D15*
X110812500Y-74400000D03*
D14*
G36*
X112627691Y-73926053D02*
X112648926Y-73929203D01*
X112669750Y-73934419D01*
X112689962Y-73941651D01*
X112709368Y-73950830D01*
X112727781Y-73961866D01*
X112745024Y-73974654D01*
X112760930Y-73989070D01*
X112775346Y-74004976D01*
X112788134Y-74022219D01*
X112799170Y-74040632D01*
X112808349Y-74060038D01*
X112815581Y-74080250D01*
X112820797Y-74101074D01*
X112823947Y-74122309D01*
X112825000Y-74143750D01*
X112825000Y-74656250D01*
X112823947Y-74677691D01*
X112820797Y-74698926D01*
X112815581Y-74719750D01*
X112808349Y-74739962D01*
X112799170Y-74759368D01*
X112788134Y-74777781D01*
X112775346Y-74795024D01*
X112760930Y-74810930D01*
X112745024Y-74825346D01*
X112727781Y-74838134D01*
X112709368Y-74849170D01*
X112689962Y-74858349D01*
X112669750Y-74865581D01*
X112648926Y-74870797D01*
X112627691Y-74873947D01*
X112606250Y-74875000D01*
X112168750Y-74875000D01*
X112147309Y-74873947D01*
X112126074Y-74870797D01*
X112105250Y-74865581D01*
X112085038Y-74858349D01*
X112065632Y-74849170D01*
X112047219Y-74838134D01*
X112029976Y-74825346D01*
X112014070Y-74810930D01*
X111999654Y-74795024D01*
X111986866Y-74777781D01*
X111975830Y-74759368D01*
X111966651Y-74739962D01*
X111959419Y-74719750D01*
X111954203Y-74698926D01*
X111951053Y-74677691D01*
X111950000Y-74656250D01*
X111950000Y-74143750D01*
X111951053Y-74122309D01*
X111954203Y-74101074D01*
X111959419Y-74080250D01*
X111966651Y-74060038D01*
X111975830Y-74040632D01*
X111986866Y-74022219D01*
X111999654Y-74004976D01*
X112014070Y-73989070D01*
X112029976Y-73974654D01*
X112047219Y-73961866D01*
X112065632Y-73950830D01*
X112085038Y-73941651D01*
X112105250Y-73934419D01*
X112126074Y-73929203D01*
X112147309Y-73926053D01*
X112168750Y-73925000D01*
X112606250Y-73925000D01*
X112627691Y-73926053D01*
X112627691Y-73926053D01*
G37*
D15*
X112387500Y-74400000D03*
G04 #@! TD*
D14*
G04 #@! TO.C,R2*
G36*
X152265191Y-96526053D02*
X152286426Y-96529203D01*
X152307250Y-96534419D01*
X152327462Y-96541651D01*
X152346868Y-96550830D01*
X152365281Y-96561866D01*
X152382524Y-96574654D01*
X152398430Y-96589070D01*
X152412846Y-96604976D01*
X152425634Y-96622219D01*
X152436670Y-96640632D01*
X152445849Y-96660038D01*
X152453081Y-96680250D01*
X152458297Y-96701074D01*
X152461447Y-96722309D01*
X152462500Y-96743750D01*
X152462500Y-97256250D01*
X152461447Y-97277691D01*
X152458297Y-97298926D01*
X152453081Y-97319750D01*
X152445849Y-97339962D01*
X152436670Y-97359368D01*
X152425634Y-97377781D01*
X152412846Y-97395024D01*
X152398430Y-97410930D01*
X152382524Y-97425346D01*
X152365281Y-97438134D01*
X152346868Y-97449170D01*
X152327462Y-97458349D01*
X152307250Y-97465581D01*
X152286426Y-97470797D01*
X152265191Y-97473947D01*
X152243750Y-97475000D01*
X151806250Y-97475000D01*
X151784809Y-97473947D01*
X151763574Y-97470797D01*
X151742750Y-97465581D01*
X151722538Y-97458349D01*
X151703132Y-97449170D01*
X151684719Y-97438134D01*
X151667476Y-97425346D01*
X151651570Y-97410930D01*
X151637154Y-97395024D01*
X151624366Y-97377781D01*
X151613330Y-97359368D01*
X151604151Y-97339962D01*
X151596919Y-97319750D01*
X151591703Y-97298926D01*
X151588553Y-97277691D01*
X151587500Y-97256250D01*
X151587500Y-96743750D01*
X151588553Y-96722309D01*
X151591703Y-96701074D01*
X151596919Y-96680250D01*
X151604151Y-96660038D01*
X151613330Y-96640632D01*
X151624366Y-96622219D01*
X151637154Y-96604976D01*
X151651570Y-96589070D01*
X151667476Y-96574654D01*
X151684719Y-96561866D01*
X151703132Y-96550830D01*
X151722538Y-96541651D01*
X151742750Y-96534419D01*
X151763574Y-96529203D01*
X151784809Y-96526053D01*
X151806250Y-96525000D01*
X152243750Y-96525000D01*
X152265191Y-96526053D01*
X152265191Y-96526053D01*
G37*
D15*
X152025000Y-97000000D03*
D14*
G36*
X153840191Y-96526053D02*
X153861426Y-96529203D01*
X153882250Y-96534419D01*
X153902462Y-96541651D01*
X153921868Y-96550830D01*
X153940281Y-96561866D01*
X153957524Y-96574654D01*
X153973430Y-96589070D01*
X153987846Y-96604976D01*
X154000634Y-96622219D01*
X154011670Y-96640632D01*
X154020849Y-96660038D01*
X154028081Y-96680250D01*
X154033297Y-96701074D01*
X154036447Y-96722309D01*
X154037500Y-96743750D01*
X154037500Y-97256250D01*
X154036447Y-97277691D01*
X154033297Y-97298926D01*
X154028081Y-97319750D01*
X154020849Y-97339962D01*
X154011670Y-97359368D01*
X154000634Y-97377781D01*
X153987846Y-97395024D01*
X153973430Y-97410930D01*
X153957524Y-97425346D01*
X153940281Y-97438134D01*
X153921868Y-97449170D01*
X153902462Y-97458349D01*
X153882250Y-97465581D01*
X153861426Y-97470797D01*
X153840191Y-97473947D01*
X153818750Y-97475000D01*
X153381250Y-97475000D01*
X153359809Y-97473947D01*
X153338574Y-97470797D01*
X153317750Y-97465581D01*
X153297538Y-97458349D01*
X153278132Y-97449170D01*
X153259719Y-97438134D01*
X153242476Y-97425346D01*
X153226570Y-97410930D01*
X153212154Y-97395024D01*
X153199366Y-97377781D01*
X153188330Y-97359368D01*
X153179151Y-97339962D01*
X153171919Y-97319750D01*
X153166703Y-97298926D01*
X153163553Y-97277691D01*
X153162500Y-97256250D01*
X153162500Y-96743750D01*
X153163553Y-96722309D01*
X153166703Y-96701074D01*
X153171919Y-96680250D01*
X153179151Y-96660038D01*
X153188330Y-96640632D01*
X153199366Y-96622219D01*
X153212154Y-96604976D01*
X153226570Y-96589070D01*
X153242476Y-96574654D01*
X153259719Y-96561866D01*
X153278132Y-96550830D01*
X153297538Y-96541651D01*
X153317750Y-96534419D01*
X153338574Y-96529203D01*
X153359809Y-96526053D01*
X153381250Y-96525000D01*
X153818750Y-96525000D01*
X153840191Y-96526053D01*
X153840191Y-96526053D01*
G37*
D15*
X153600000Y-97000000D03*
G04 #@! TD*
D14*
G04 #@! TO.C,R3*
G36*
X192252691Y-96726053D02*
X192273926Y-96729203D01*
X192294750Y-96734419D01*
X192314962Y-96741651D01*
X192334368Y-96750830D01*
X192352781Y-96761866D01*
X192370024Y-96774654D01*
X192385930Y-96789070D01*
X192400346Y-96804976D01*
X192413134Y-96822219D01*
X192424170Y-96840632D01*
X192433349Y-96860038D01*
X192440581Y-96880250D01*
X192445797Y-96901074D01*
X192448947Y-96922309D01*
X192450000Y-96943750D01*
X192450000Y-97456250D01*
X192448947Y-97477691D01*
X192445797Y-97498926D01*
X192440581Y-97519750D01*
X192433349Y-97539962D01*
X192424170Y-97559368D01*
X192413134Y-97577781D01*
X192400346Y-97595024D01*
X192385930Y-97610930D01*
X192370024Y-97625346D01*
X192352781Y-97638134D01*
X192334368Y-97649170D01*
X192314962Y-97658349D01*
X192294750Y-97665581D01*
X192273926Y-97670797D01*
X192252691Y-97673947D01*
X192231250Y-97675000D01*
X191793750Y-97675000D01*
X191772309Y-97673947D01*
X191751074Y-97670797D01*
X191730250Y-97665581D01*
X191710038Y-97658349D01*
X191690632Y-97649170D01*
X191672219Y-97638134D01*
X191654976Y-97625346D01*
X191639070Y-97610930D01*
X191624654Y-97595024D01*
X191611866Y-97577781D01*
X191600830Y-97559368D01*
X191591651Y-97539962D01*
X191584419Y-97519750D01*
X191579203Y-97498926D01*
X191576053Y-97477691D01*
X191575000Y-97456250D01*
X191575000Y-96943750D01*
X191576053Y-96922309D01*
X191579203Y-96901074D01*
X191584419Y-96880250D01*
X191591651Y-96860038D01*
X191600830Y-96840632D01*
X191611866Y-96822219D01*
X191624654Y-96804976D01*
X191639070Y-96789070D01*
X191654976Y-96774654D01*
X191672219Y-96761866D01*
X191690632Y-96750830D01*
X191710038Y-96741651D01*
X191730250Y-96734419D01*
X191751074Y-96729203D01*
X191772309Y-96726053D01*
X191793750Y-96725000D01*
X192231250Y-96725000D01*
X192252691Y-96726053D01*
X192252691Y-96726053D01*
G37*
D15*
X192012500Y-97200000D03*
D14*
G36*
X193827691Y-96726053D02*
X193848926Y-96729203D01*
X193869750Y-96734419D01*
X193889962Y-96741651D01*
X193909368Y-96750830D01*
X193927781Y-96761866D01*
X193945024Y-96774654D01*
X193960930Y-96789070D01*
X193975346Y-96804976D01*
X193988134Y-96822219D01*
X193999170Y-96840632D01*
X194008349Y-96860038D01*
X194015581Y-96880250D01*
X194020797Y-96901074D01*
X194023947Y-96922309D01*
X194025000Y-96943750D01*
X194025000Y-97456250D01*
X194023947Y-97477691D01*
X194020797Y-97498926D01*
X194015581Y-97519750D01*
X194008349Y-97539962D01*
X193999170Y-97559368D01*
X193988134Y-97577781D01*
X193975346Y-97595024D01*
X193960930Y-97610930D01*
X193945024Y-97625346D01*
X193927781Y-97638134D01*
X193909368Y-97649170D01*
X193889962Y-97658349D01*
X193869750Y-97665581D01*
X193848926Y-97670797D01*
X193827691Y-97673947D01*
X193806250Y-97675000D01*
X193368750Y-97675000D01*
X193347309Y-97673947D01*
X193326074Y-97670797D01*
X193305250Y-97665581D01*
X193285038Y-97658349D01*
X193265632Y-97649170D01*
X193247219Y-97638134D01*
X193229976Y-97625346D01*
X193214070Y-97610930D01*
X193199654Y-97595024D01*
X193186866Y-97577781D01*
X193175830Y-97559368D01*
X193166651Y-97539962D01*
X193159419Y-97519750D01*
X193154203Y-97498926D01*
X193151053Y-97477691D01*
X193150000Y-97456250D01*
X193150000Y-96943750D01*
X193151053Y-96922309D01*
X193154203Y-96901074D01*
X193159419Y-96880250D01*
X193166651Y-96860038D01*
X193175830Y-96840632D01*
X193186866Y-96822219D01*
X193199654Y-96804976D01*
X193214070Y-96789070D01*
X193229976Y-96774654D01*
X193247219Y-96761866D01*
X193265632Y-96750830D01*
X193285038Y-96741651D01*
X193305250Y-96734419D01*
X193326074Y-96729203D01*
X193347309Y-96726053D01*
X193368750Y-96725000D01*
X193806250Y-96725000D01*
X193827691Y-96726053D01*
X193827691Y-96726053D01*
G37*
D15*
X193587500Y-97200000D03*
G04 #@! TD*
D14*
G04 #@! TO.C,R4*
G36*
X195465191Y-96726053D02*
X195486426Y-96729203D01*
X195507250Y-96734419D01*
X195527462Y-96741651D01*
X195546868Y-96750830D01*
X195565281Y-96761866D01*
X195582524Y-96774654D01*
X195598430Y-96789070D01*
X195612846Y-96804976D01*
X195625634Y-96822219D01*
X195636670Y-96840632D01*
X195645849Y-96860038D01*
X195653081Y-96880250D01*
X195658297Y-96901074D01*
X195661447Y-96922309D01*
X195662500Y-96943750D01*
X195662500Y-97456250D01*
X195661447Y-97477691D01*
X195658297Y-97498926D01*
X195653081Y-97519750D01*
X195645849Y-97539962D01*
X195636670Y-97559368D01*
X195625634Y-97577781D01*
X195612846Y-97595024D01*
X195598430Y-97610930D01*
X195582524Y-97625346D01*
X195565281Y-97638134D01*
X195546868Y-97649170D01*
X195527462Y-97658349D01*
X195507250Y-97665581D01*
X195486426Y-97670797D01*
X195465191Y-97673947D01*
X195443750Y-97675000D01*
X195006250Y-97675000D01*
X194984809Y-97673947D01*
X194963574Y-97670797D01*
X194942750Y-97665581D01*
X194922538Y-97658349D01*
X194903132Y-97649170D01*
X194884719Y-97638134D01*
X194867476Y-97625346D01*
X194851570Y-97610930D01*
X194837154Y-97595024D01*
X194824366Y-97577781D01*
X194813330Y-97559368D01*
X194804151Y-97539962D01*
X194796919Y-97519750D01*
X194791703Y-97498926D01*
X194788553Y-97477691D01*
X194787500Y-97456250D01*
X194787500Y-96943750D01*
X194788553Y-96922309D01*
X194791703Y-96901074D01*
X194796919Y-96880250D01*
X194804151Y-96860038D01*
X194813330Y-96840632D01*
X194824366Y-96822219D01*
X194837154Y-96804976D01*
X194851570Y-96789070D01*
X194867476Y-96774654D01*
X194884719Y-96761866D01*
X194903132Y-96750830D01*
X194922538Y-96741651D01*
X194942750Y-96734419D01*
X194963574Y-96729203D01*
X194984809Y-96726053D01*
X195006250Y-96725000D01*
X195443750Y-96725000D01*
X195465191Y-96726053D01*
X195465191Y-96726053D01*
G37*
D15*
X195225000Y-97200000D03*
D14*
G36*
X197040191Y-96726053D02*
X197061426Y-96729203D01*
X197082250Y-96734419D01*
X197102462Y-96741651D01*
X197121868Y-96750830D01*
X197140281Y-96761866D01*
X197157524Y-96774654D01*
X197173430Y-96789070D01*
X197187846Y-96804976D01*
X197200634Y-96822219D01*
X197211670Y-96840632D01*
X197220849Y-96860038D01*
X197228081Y-96880250D01*
X197233297Y-96901074D01*
X197236447Y-96922309D01*
X197237500Y-96943750D01*
X197237500Y-97456250D01*
X197236447Y-97477691D01*
X197233297Y-97498926D01*
X197228081Y-97519750D01*
X197220849Y-97539962D01*
X197211670Y-97559368D01*
X197200634Y-97577781D01*
X197187846Y-97595024D01*
X197173430Y-97610930D01*
X197157524Y-97625346D01*
X197140281Y-97638134D01*
X197121868Y-97649170D01*
X197102462Y-97658349D01*
X197082250Y-97665581D01*
X197061426Y-97670797D01*
X197040191Y-97673947D01*
X197018750Y-97675000D01*
X196581250Y-97675000D01*
X196559809Y-97673947D01*
X196538574Y-97670797D01*
X196517750Y-97665581D01*
X196497538Y-97658349D01*
X196478132Y-97649170D01*
X196459719Y-97638134D01*
X196442476Y-97625346D01*
X196426570Y-97610930D01*
X196412154Y-97595024D01*
X196399366Y-97577781D01*
X196388330Y-97559368D01*
X196379151Y-97539962D01*
X196371919Y-97519750D01*
X196366703Y-97498926D01*
X196363553Y-97477691D01*
X196362500Y-97456250D01*
X196362500Y-96943750D01*
X196363553Y-96922309D01*
X196366703Y-96901074D01*
X196371919Y-96880250D01*
X196379151Y-96860038D01*
X196388330Y-96840632D01*
X196399366Y-96822219D01*
X196412154Y-96804976D01*
X196426570Y-96789070D01*
X196442476Y-96774654D01*
X196459719Y-96761866D01*
X196478132Y-96750830D01*
X196497538Y-96741651D01*
X196517750Y-96734419D01*
X196538574Y-96729203D01*
X196559809Y-96726053D01*
X196581250Y-96725000D01*
X197018750Y-96725000D01*
X197040191Y-96726053D01*
X197040191Y-96726053D01*
G37*
D15*
X196800000Y-97200000D03*
G04 #@! TD*
D14*
G04 #@! TO.C,R5*
G36*
X118227691Y-68326053D02*
X118248926Y-68329203D01*
X118269750Y-68334419D01*
X118289962Y-68341651D01*
X118309368Y-68350830D01*
X118327781Y-68361866D01*
X118345024Y-68374654D01*
X118360930Y-68389070D01*
X118375346Y-68404976D01*
X118388134Y-68422219D01*
X118399170Y-68440632D01*
X118408349Y-68460038D01*
X118415581Y-68480250D01*
X118420797Y-68501074D01*
X118423947Y-68522309D01*
X118425000Y-68543750D01*
X118425000Y-69056250D01*
X118423947Y-69077691D01*
X118420797Y-69098926D01*
X118415581Y-69119750D01*
X118408349Y-69139962D01*
X118399170Y-69159368D01*
X118388134Y-69177781D01*
X118375346Y-69195024D01*
X118360930Y-69210930D01*
X118345024Y-69225346D01*
X118327781Y-69238134D01*
X118309368Y-69249170D01*
X118289962Y-69258349D01*
X118269750Y-69265581D01*
X118248926Y-69270797D01*
X118227691Y-69273947D01*
X118206250Y-69275000D01*
X117768750Y-69275000D01*
X117747309Y-69273947D01*
X117726074Y-69270797D01*
X117705250Y-69265581D01*
X117685038Y-69258349D01*
X117665632Y-69249170D01*
X117647219Y-69238134D01*
X117629976Y-69225346D01*
X117614070Y-69210930D01*
X117599654Y-69195024D01*
X117586866Y-69177781D01*
X117575830Y-69159368D01*
X117566651Y-69139962D01*
X117559419Y-69119750D01*
X117554203Y-69098926D01*
X117551053Y-69077691D01*
X117550000Y-69056250D01*
X117550000Y-68543750D01*
X117551053Y-68522309D01*
X117554203Y-68501074D01*
X117559419Y-68480250D01*
X117566651Y-68460038D01*
X117575830Y-68440632D01*
X117586866Y-68422219D01*
X117599654Y-68404976D01*
X117614070Y-68389070D01*
X117629976Y-68374654D01*
X117647219Y-68361866D01*
X117665632Y-68350830D01*
X117685038Y-68341651D01*
X117705250Y-68334419D01*
X117726074Y-68329203D01*
X117747309Y-68326053D01*
X117768750Y-68325000D01*
X118206250Y-68325000D01*
X118227691Y-68326053D01*
X118227691Y-68326053D01*
G37*
D15*
X117987500Y-68800000D03*
D14*
G36*
X116652691Y-68326053D02*
X116673926Y-68329203D01*
X116694750Y-68334419D01*
X116714962Y-68341651D01*
X116734368Y-68350830D01*
X116752781Y-68361866D01*
X116770024Y-68374654D01*
X116785930Y-68389070D01*
X116800346Y-68404976D01*
X116813134Y-68422219D01*
X116824170Y-68440632D01*
X116833349Y-68460038D01*
X116840581Y-68480250D01*
X116845797Y-68501074D01*
X116848947Y-68522309D01*
X116850000Y-68543750D01*
X116850000Y-69056250D01*
X116848947Y-69077691D01*
X116845797Y-69098926D01*
X116840581Y-69119750D01*
X116833349Y-69139962D01*
X116824170Y-69159368D01*
X116813134Y-69177781D01*
X116800346Y-69195024D01*
X116785930Y-69210930D01*
X116770024Y-69225346D01*
X116752781Y-69238134D01*
X116734368Y-69249170D01*
X116714962Y-69258349D01*
X116694750Y-69265581D01*
X116673926Y-69270797D01*
X116652691Y-69273947D01*
X116631250Y-69275000D01*
X116193750Y-69275000D01*
X116172309Y-69273947D01*
X116151074Y-69270797D01*
X116130250Y-69265581D01*
X116110038Y-69258349D01*
X116090632Y-69249170D01*
X116072219Y-69238134D01*
X116054976Y-69225346D01*
X116039070Y-69210930D01*
X116024654Y-69195024D01*
X116011866Y-69177781D01*
X116000830Y-69159368D01*
X115991651Y-69139962D01*
X115984419Y-69119750D01*
X115979203Y-69098926D01*
X115976053Y-69077691D01*
X115975000Y-69056250D01*
X115975000Y-68543750D01*
X115976053Y-68522309D01*
X115979203Y-68501074D01*
X115984419Y-68480250D01*
X115991651Y-68460038D01*
X116000830Y-68440632D01*
X116011866Y-68422219D01*
X116024654Y-68404976D01*
X116039070Y-68389070D01*
X116054976Y-68374654D01*
X116072219Y-68361866D01*
X116090632Y-68350830D01*
X116110038Y-68341651D01*
X116130250Y-68334419D01*
X116151074Y-68329203D01*
X116172309Y-68326053D01*
X116193750Y-68325000D01*
X116631250Y-68325000D01*
X116652691Y-68326053D01*
X116652691Y-68326053D01*
G37*
D15*
X116412500Y-68800000D03*
G04 #@! TD*
D14*
G04 #@! TO.C,R6*
G36*
X126815191Y-63526053D02*
X126836426Y-63529203D01*
X126857250Y-63534419D01*
X126877462Y-63541651D01*
X126896868Y-63550830D01*
X126915281Y-63561866D01*
X126932524Y-63574654D01*
X126948430Y-63589070D01*
X126962846Y-63604976D01*
X126975634Y-63622219D01*
X126986670Y-63640632D01*
X126995849Y-63660038D01*
X127003081Y-63680250D01*
X127008297Y-63701074D01*
X127011447Y-63722309D01*
X127012500Y-63743750D01*
X127012500Y-64256250D01*
X127011447Y-64277691D01*
X127008297Y-64298926D01*
X127003081Y-64319750D01*
X126995849Y-64339962D01*
X126986670Y-64359368D01*
X126975634Y-64377781D01*
X126962846Y-64395024D01*
X126948430Y-64410930D01*
X126932524Y-64425346D01*
X126915281Y-64438134D01*
X126896868Y-64449170D01*
X126877462Y-64458349D01*
X126857250Y-64465581D01*
X126836426Y-64470797D01*
X126815191Y-64473947D01*
X126793750Y-64475000D01*
X126356250Y-64475000D01*
X126334809Y-64473947D01*
X126313574Y-64470797D01*
X126292750Y-64465581D01*
X126272538Y-64458349D01*
X126253132Y-64449170D01*
X126234719Y-64438134D01*
X126217476Y-64425346D01*
X126201570Y-64410930D01*
X126187154Y-64395024D01*
X126174366Y-64377781D01*
X126163330Y-64359368D01*
X126154151Y-64339962D01*
X126146919Y-64319750D01*
X126141703Y-64298926D01*
X126138553Y-64277691D01*
X126137500Y-64256250D01*
X126137500Y-63743750D01*
X126138553Y-63722309D01*
X126141703Y-63701074D01*
X126146919Y-63680250D01*
X126154151Y-63660038D01*
X126163330Y-63640632D01*
X126174366Y-63622219D01*
X126187154Y-63604976D01*
X126201570Y-63589070D01*
X126217476Y-63574654D01*
X126234719Y-63561866D01*
X126253132Y-63550830D01*
X126272538Y-63541651D01*
X126292750Y-63534419D01*
X126313574Y-63529203D01*
X126334809Y-63526053D01*
X126356250Y-63525000D01*
X126793750Y-63525000D01*
X126815191Y-63526053D01*
X126815191Y-63526053D01*
G37*
D15*
X126575000Y-64000000D03*
D14*
G36*
X125240191Y-63526053D02*
X125261426Y-63529203D01*
X125282250Y-63534419D01*
X125302462Y-63541651D01*
X125321868Y-63550830D01*
X125340281Y-63561866D01*
X125357524Y-63574654D01*
X125373430Y-63589070D01*
X125387846Y-63604976D01*
X125400634Y-63622219D01*
X125411670Y-63640632D01*
X125420849Y-63660038D01*
X125428081Y-63680250D01*
X125433297Y-63701074D01*
X125436447Y-63722309D01*
X125437500Y-63743750D01*
X125437500Y-64256250D01*
X125436447Y-64277691D01*
X125433297Y-64298926D01*
X125428081Y-64319750D01*
X125420849Y-64339962D01*
X125411670Y-64359368D01*
X125400634Y-64377781D01*
X125387846Y-64395024D01*
X125373430Y-64410930D01*
X125357524Y-64425346D01*
X125340281Y-64438134D01*
X125321868Y-64449170D01*
X125302462Y-64458349D01*
X125282250Y-64465581D01*
X125261426Y-64470797D01*
X125240191Y-64473947D01*
X125218750Y-64475000D01*
X124781250Y-64475000D01*
X124759809Y-64473947D01*
X124738574Y-64470797D01*
X124717750Y-64465581D01*
X124697538Y-64458349D01*
X124678132Y-64449170D01*
X124659719Y-64438134D01*
X124642476Y-64425346D01*
X124626570Y-64410930D01*
X124612154Y-64395024D01*
X124599366Y-64377781D01*
X124588330Y-64359368D01*
X124579151Y-64339962D01*
X124571919Y-64319750D01*
X124566703Y-64298926D01*
X124563553Y-64277691D01*
X124562500Y-64256250D01*
X124562500Y-63743750D01*
X124563553Y-63722309D01*
X124566703Y-63701074D01*
X124571919Y-63680250D01*
X124579151Y-63660038D01*
X124588330Y-63640632D01*
X124599366Y-63622219D01*
X124612154Y-63604976D01*
X124626570Y-63589070D01*
X124642476Y-63574654D01*
X124659719Y-63561866D01*
X124678132Y-63550830D01*
X124697538Y-63541651D01*
X124717750Y-63534419D01*
X124738574Y-63529203D01*
X124759809Y-63526053D01*
X124781250Y-63525000D01*
X125218750Y-63525000D01*
X125240191Y-63526053D01*
X125240191Y-63526053D01*
G37*
D15*
X125000000Y-64000000D03*
G04 #@! TD*
D16*
G04 #@! TO.C,Y1*
X104200000Y-74600000D03*
X106400000Y-74600000D03*
X106400000Y-72900000D03*
X104200000Y-72900000D03*
G04 #@! TD*
D12*
G04 #@! TO.C,C1*
X112350000Y-72600000D03*
X110850000Y-72600000D03*
G04 #@! TD*
M02*
