G04 #@! TF.GenerationSoftware,KiCad,Pcbnew,(5.0.0)*
G04 #@! TF.CreationDate,2020-03-05T09:38:22+00:00*
G04 #@! TF.ProjectId,basic-mc6800,62617369632D6D63363830302E6B6963,rev?*
G04 #@! TF.SameCoordinates,Original*
G04 #@! TF.FileFunction,Copper,L2,Bot,Signal*
G04 #@! TF.FilePolarity,Positive*
%FSLAX46Y46*%
G04 Gerber Fmt 4.6, Leading zero omitted, Abs format (unit mm)*
G04 Created by KiCad (PCBNEW (5.0.0)) date 03/05/20 09:38:22*
%MOMM*%
%LPD*%
G01*
G04 APERTURE LIST*
G04 #@! TA.AperFunction,ComponentPad*
%ADD10O,1.600000X1.600000*%
G04 #@! TD*
G04 #@! TA.AperFunction,ComponentPad*
%ADD11R,1.600000X1.600000*%
G04 #@! TD*
G04 #@! TA.AperFunction,ComponentPad*
%ADD12R,1.700000X1.700000*%
G04 #@! TD*
G04 #@! TA.AperFunction,ComponentPad*
%ADD13O,1.700000X1.700000*%
G04 #@! TD*
G04 #@! TA.AperFunction,ViaPad*
%ADD14C,0.800000*%
G04 #@! TD*
G04 #@! TA.AperFunction,Conductor*
%ADD15C,0.400000*%
G04 #@! TD*
G04 #@! TA.AperFunction,Conductor*
%ADD16C,0.200000*%
G04 #@! TD*
G04 APERTURE END LIST*
D10*
G04 #@! TO.P,U4,28*
G04 #@! TO.N,+5V*
X196540000Y-93240000D03*
G04 #@! TO.P,U4,14*
G04 #@! TO.N,GND*
X163520000Y-78000000D03*
G04 #@! TO.P,U4,27*
G04 #@! TO.N,N/C*
X194000000Y-93240000D03*
G04 #@! TO.P,U4,13*
G04 #@! TO.N,/D2*
X166060000Y-78000000D03*
G04 #@! TO.P,U4,26*
G04 #@! TO.N,/A13*
X191460000Y-93240000D03*
G04 #@! TO.P,U4,12*
G04 #@! TO.N,/D1*
X168600000Y-78000000D03*
G04 #@! TO.P,U4,25*
G04 #@! TO.N,/A8*
X188920000Y-93240000D03*
G04 #@! TO.P,U4,11*
G04 #@! TO.N,/D0*
X171140000Y-78000000D03*
G04 #@! TO.P,U4,24*
G04 #@! TO.N,/A9*
X186380000Y-93240000D03*
G04 #@! TO.P,U4,10*
G04 #@! TO.N,/A0*
X173680000Y-78000000D03*
G04 #@! TO.P,U4,23*
G04 #@! TO.N,/A11*
X183840000Y-93240000D03*
G04 #@! TO.P,U4,9*
G04 #@! TO.N,/A1*
X176220000Y-78000000D03*
G04 #@! TO.P,U4,22*
G04 #@! TO.N,/ROM_CS*
X181300000Y-93240000D03*
G04 #@! TO.P,U4,8*
G04 #@! TO.N,/A2*
X178760000Y-78000000D03*
G04 #@! TO.P,U4,21*
G04 #@! TO.N,/A10*
X178760000Y-93240000D03*
G04 #@! TO.P,U4,7*
G04 #@! TO.N,/A3*
X181300000Y-78000000D03*
G04 #@! TO.P,U4,20*
G04 #@! TO.N,/_QLATCH*
X176220000Y-93240000D03*
G04 #@! TO.P,U4,6*
G04 #@! TO.N,/A4*
X183840000Y-78000000D03*
G04 #@! TO.P,U4,19*
G04 #@! TO.N,/D7*
X173680000Y-93240000D03*
G04 #@! TO.P,U4,5*
G04 #@! TO.N,/A5*
X186380000Y-78000000D03*
G04 #@! TO.P,U4,18*
G04 #@! TO.N,/D6*
X171140000Y-93240000D03*
G04 #@! TO.P,U4,4*
G04 #@! TO.N,/A6*
X188920000Y-78000000D03*
G04 #@! TO.P,U4,17*
G04 #@! TO.N,/D5*
X168600000Y-93240000D03*
G04 #@! TO.P,U4,3*
G04 #@! TO.N,/A7*
X191460000Y-78000000D03*
G04 #@! TO.P,U4,16*
G04 #@! TO.N,/D4*
X166060000Y-93240000D03*
G04 #@! TO.P,U4,2*
G04 #@! TO.N,/A12*
X194000000Y-78000000D03*
G04 #@! TO.P,U4,15*
G04 #@! TO.N,/D3*
X163520000Y-93240000D03*
D11*
G04 #@! TO.P,U4,1*
G04 #@! TO.N,/A14*
X196540000Y-78000000D03*
G04 #@! TD*
D12*
G04 #@! TO.P,J1,1*
G04 #@! TO.N,/A0*
X100000000Y-100000000D03*
D13*
G04 #@! TO.P,J1,2*
G04 #@! TO.N,/A1*
X102540000Y-100000000D03*
G04 #@! TO.P,J1,3*
G04 #@! TO.N,/A2*
X105080000Y-100000000D03*
G04 #@! TO.P,J1,4*
G04 #@! TO.N,/A3*
X107620000Y-100000000D03*
G04 #@! TO.P,J1,5*
G04 #@! TO.N,/A4*
X110160000Y-100000000D03*
G04 #@! TO.P,J1,6*
G04 #@! TO.N,/A5*
X112700000Y-100000000D03*
G04 #@! TO.P,J1,7*
G04 #@! TO.N,/A6*
X115240000Y-100000000D03*
G04 #@! TO.P,J1,8*
G04 #@! TO.N,/A7*
X117780000Y-100000000D03*
G04 #@! TO.P,J1,9*
G04 #@! TO.N,/A8*
X120320000Y-100000000D03*
G04 #@! TO.P,J1,10*
G04 #@! TO.N,/A9*
X122860000Y-100000000D03*
G04 #@! TO.P,J1,11*
G04 #@! TO.N,/A10*
X125400000Y-100000000D03*
G04 #@! TO.P,J1,12*
G04 #@! TO.N,/A11*
X127940000Y-100000000D03*
G04 #@! TO.P,J1,13*
G04 #@! TO.N,/A12*
X130480000Y-100000000D03*
G04 #@! TO.P,J1,14*
G04 #@! TO.N,/A13*
X133020000Y-100000000D03*
G04 #@! TO.P,J1,15*
G04 #@! TO.N,/A14*
X135560000Y-100000000D03*
G04 #@! TO.P,J1,16*
G04 #@! TO.N,/A15*
X138100000Y-100000000D03*
G04 #@! TO.P,J1,17*
G04 #@! TO.N,GND*
X140640000Y-100000000D03*
G04 #@! TO.P,J1,18*
G04 #@! TO.N,+5V*
X143180000Y-100000000D03*
G04 #@! TO.P,J1,19*
G04 #@! TO.N,N/C*
X145720000Y-100000000D03*
G04 #@! TO.P,J1,20*
G04 #@! TO.N,/RESET*
X148260000Y-100000000D03*
G04 #@! TO.P,J1,21*
G04 #@! TO.N,/E*
X150800000Y-100000000D03*
G04 #@! TO.P,J1,22*
G04 #@! TO.N,/INT1*
X153340000Y-100000000D03*
G04 #@! TO.P,J1,23*
G04 #@! TO.N,N/C*
X155880000Y-100000000D03*
G04 #@! TO.P,J1,24*
G04 #@! TO.N,/R_W*
X158420000Y-100000000D03*
G04 #@! TO.P,J1,25*
G04 #@! TO.N,N/C*
X160960000Y-100000000D03*
G04 #@! TO.P,J1,26*
G04 #@! TO.N,/PER_CS*
X163500000Y-100000000D03*
G04 #@! TO.P,J1,27*
G04 #@! TO.N,/D0*
X166040000Y-100000000D03*
G04 #@! TO.P,J1,28*
G04 #@! TO.N,/D1*
X168580000Y-100000000D03*
G04 #@! TO.P,J1,29*
G04 #@! TO.N,/D2*
X171120000Y-100000000D03*
G04 #@! TO.P,J1,30*
G04 #@! TO.N,/D3*
X173660000Y-100000000D03*
G04 #@! TO.P,J1,31*
G04 #@! TO.N,/D4*
X176200000Y-100000000D03*
G04 #@! TO.P,J1,32*
G04 #@! TO.N,/D5*
X178740000Y-100000000D03*
G04 #@! TO.P,J1,33*
G04 #@! TO.N,/D6*
X181280000Y-100000000D03*
G04 #@! TO.P,J1,34*
G04 #@! TO.N,/D7*
X183820000Y-100000000D03*
G04 #@! TO.P,J1,35*
G04 #@! TO.N,N/C*
X186360000Y-100000000D03*
G04 #@! TO.P,J1,36*
X188900000Y-100000000D03*
G04 #@! TO.P,J1,37*
X191440000Y-100000000D03*
G04 #@! TO.P,J1,38*
G04 #@! TO.N,/INT2*
X193980000Y-100000000D03*
G04 #@! TO.P,J1,39*
G04 #@! TO.N,/INT3*
X196520000Y-100000000D03*
G04 #@! TD*
D11*
G04 #@! TO.P,U2,1*
G04 #@! TO.N,GND*
X101440000Y-94000000D03*
D10*
G04 #@! TO.P,U2,21*
G04 #@! TO.N,/A13*
X149700000Y-78760000D03*
G04 #@! TO.P,U2,2*
G04 #@! TO.N,/INT1*
X103980000Y-94000000D03*
G04 #@! TO.P,U2,22*
G04 #@! TO.N,/A14*
X147160000Y-78760000D03*
G04 #@! TO.P,U2,3*
G04 #@! TO.N,/INT2*
X106520000Y-94000000D03*
G04 #@! TO.P,U2,23*
G04 #@! TO.N,/A15*
X144620000Y-78760000D03*
G04 #@! TO.P,U2,4*
G04 #@! TO.N,/INT3*
X109060000Y-94000000D03*
G04 #@! TO.P,U2,24*
G04 #@! TO.N,/D7*
X142080000Y-78760000D03*
G04 #@! TO.P,U2,5*
G04 #@! TO.N,N/C*
X111600000Y-94000000D03*
G04 #@! TO.P,U2,25*
G04 #@! TO.N,/D6*
X139540000Y-78760000D03*
G04 #@! TO.P,U2,6*
G04 #@! TO.N,N/C*
X114140000Y-94000000D03*
G04 #@! TO.P,U2,26*
G04 #@! TO.N,/D5*
X137000000Y-78760000D03*
G04 #@! TO.P,U2,7*
G04 #@! TO.N,+5V*
X116680000Y-94000000D03*
G04 #@! TO.P,U2,27*
G04 #@! TO.N,/D4*
X134460000Y-78760000D03*
G04 #@! TO.P,U2,8*
G04 #@! TO.N,/A0*
X119220000Y-94000000D03*
G04 #@! TO.P,U2,28*
G04 #@! TO.N,/D3*
X131920000Y-78760000D03*
G04 #@! TO.P,U2,9*
G04 #@! TO.N,/A1*
X121760000Y-94000000D03*
G04 #@! TO.P,U2,29*
G04 #@! TO.N,/D2*
X129380000Y-78760000D03*
G04 #@! TO.P,U2,10*
G04 #@! TO.N,/A2*
X124300000Y-94000000D03*
G04 #@! TO.P,U2,30*
G04 #@! TO.N,/D1*
X126840000Y-78760000D03*
G04 #@! TO.P,U2,11*
G04 #@! TO.N,/A3*
X126840000Y-94000000D03*
G04 #@! TO.P,U2,31*
G04 #@! TO.N,/D0*
X124300000Y-78760000D03*
G04 #@! TO.P,U2,12*
G04 #@! TO.N,/A4*
X129380000Y-94000000D03*
G04 #@! TO.P,U2,32*
G04 #@! TO.N,/R_W*
X121760000Y-78760000D03*
G04 #@! TO.P,U2,13*
G04 #@! TO.N,/A5*
X131920000Y-94000000D03*
G04 #@! TO.P,U2,33*
G04 #@! TO.N,N/C*
X119220000Y-78760000D03*
G04 #@! TO.P,U2,14*
G04 #@! TO.N,/A6*
X134460000Y-94000000D03*
G04 #@! TO.P,U2,34*
G04 #@! TO.N,/E*
X116680000Y-78760000D03*
G04 #@! TO.P,U2,15*
G04 #@! TO.N,/A7*
X137000000Y-94000000D03*
G04 #@! TO.P,U2,35*
G04 #@! TO.N,/QLATCH*
X114140000Y-78760000D03*
G04 #@! TO.P,U2,16*
G04 #@! TO.N,/A8*
X139540000Y-94000000D03*
G04 #@! TO.P,U2,36*
G04 #@! TO.N,+5V*
X111600000Y-78760000D03*
G04 #@! TO.P,U2,17*
G04 #@! TO.N,/A9*
X142080000Y-94000000D03*
G04 #@! TO.P,U2,37*
G04 #@! TO.N,/RESET*
X109060000Y-78760000D03*
G04 #@! TO.P,U2,18*
G04 #@! TO.N,/A10*
X144620000Y-94000000D03*
G04 #@! TO.P,U2,38*
G04 #@! TO.N,Net-(C3-Pad1)*
X106520000Y-78760000D03*
G04 #@! TO.P,U2,19*
G04 #@! TO.N,/A11*
X147160000Y-94000000D03*
G04 #@! TO.P,U2,39*
G04 #@! TO.N,Net-(C2-Pad1)*
X103980000Y-78760000D03*
G04 #@! TO.P,U2,20*
G04 #@! TO.N,/A12*
X149700000Y-94000000D03*
G04 #@! TO.P,U2,40*
G04 #@! TO.N,N/C*
X101440000Y-78760000D03*
G04 #@! TD*
G04 #@! TO.P,U3,28*
G04 #@! TO.N,+5V*
X196540000Y-72620000D03*
G04 #@! TO.P,U3,14*
G04 #@! TO.N,GND*
X163520000Y-65000000D03*
G04 #@! TO.P,U3,27*
G04 #@! TO.N,/R_W*
X194000000Y-72620000D03*
G04 #@! TO.P,U3,13*
G04 #@! TO.N,/D2*
X166060000Y-65000000D03*
G04 #@! TO.P,U3,26*
G04 #@! TO.N,/A13*
X191460000Y-72620000D03*
G04 #@! TO.P,U3,12*
G04 #@! TO.N,/D1*
X168600000Y-65000000D03*
G04 #@! TO.P,U3,25*
G04 #@! TO.N,/A8*
X188920000Y-72620000D03*
G04 #@! TO.P,U3,11*
G04 #@! TO.N,/D0*
X171140000Y-65000000D03*
G04 #@! TO.P,U3,24*
G04 #@! TO.N,/A9*
X186380000Y-72620000D03*
G04 #@! TO.P,U3,10*
G04 #@! TO.N,/A0*
X173680000Y-65000000D03*
G04 #@! TO.P,U3,23*
G04 #@! TO.N,/A11*
X183840000Y-72620000D03*
G04 #@! TO.P,U3,9*
G04 #@! TO.N,/A1*
X176220000Y-65000000D03*
G04 #@! TO.P,U3,22*
G04 #@! TO.N,/_QLATCH*
X181300000Y-72620000D03*
G04 #@! TO.P,U3,8*
G04 #@! TO.N,/A2*
X178760000Y-65000000D03*
G04 #@! TO.P,U3,21*
G04 #@! TO.N,/A10*
X178760000Y-72620000D03*
G04 #@! TO.P,U3,7*
G04 #@! TO.N,/A3*
X181300000Y-65000000D03*
G04 #@! TO.P,U3,20*
G04 #@! TO.N,/A15*
X176220000Y-72620000D03*
G04 #@! TO.P,U3,6*
G04 #@! TO.N,/A4*
X183840000Y-65000000D03*
G04 #@! TO.P,U3,19*
G04 #@! TO.N,/D7*
X173680000Y-72620000D03*
G04 #@! TO.P,U3,5*
G04 #@! TO.N,/A5*
X186380000Y-65000000D03*
G04 #@! TO.P,U3,18*
G04 #@! TO.N,/D6*
X171140000Y-72620000D03*
G04 #@! TO.P,U3,4*
G04 #@! TO.N,/A6*
X188920000Y-65000000D03*
G04 #@! TO.P,U3,17*
G04 #@! TO.N,/D5*
X168600000Y-72620000D03*
G04 #@! TO.P,U3,3*
G04 #@! TO.N,/A7*
X191460000Y-65000000D03*
G04 #@! TO.P,U3,16*
G04 #@! TO.N,/D4*
X166060000Y-72620000D03*
G04 #@! TO.P,U3,2*
G04 #@! TO.N,/A12*
X194000000Y-65000000D03*
G04 #@! TO.P,U3,15*
G04 #@! TO.N,/D3*
X163520000Y-72620000D03*
D11*
G04 #@! TO.P,U3,1*
G04 #@! TO.N,/A14*
X196540000Y-65000000D03*
G04 #@! TD*
D14*
G04 #@! TO.N,GND*
X127000000Y-72000000D03*
X103000000Y-68000000D03*
X110500000Y-61900000D03*
X106000000Y-77000000D03*
X140400000Y-66200000D03*
X135200000Y-66200000D03*
X196600000Y-76400000D03*
X196400000Y-83000000D03*
X188800000Y-95800000D03*
G04 #@! TO.N,+5V*
X150600000Y-67000000D03*
X140800000Y-88800000D03*
X149800000Y-97000000D03*
X112800000Y-76000000D03*
X142600000Y-61600000D03*
X126575000Y-61975000D03*
X140700000Y-92400000D03*
G04 #@! TO.N,/A8*
X188800000Y-82100000D03*
G04 #@! TO.N,/A9*
X186500000Y-82100000D03*
G04 #@! TO.N,/A10*
X180100000Y-82700000D03*
G04 #@! TO.N,/A11*
X185000000Y-82100000D03*
G04 #@! TO.N,/A12*
X157000000Y-84600000D03*
G04 #@! TO.N,/A13*
X157000000Y-85700000D03*
X191300000Y-82100000D03*
X155500000Y-78100000D03*
G04 #@! TO.N,/A14*
X135600000Y-90700000D03*
X157000000Y-86700000D03*
X135600000Y-92500000D03*
X154400000Y-78100000D03*
G04 #@! TO.N,/A15*
X138200000Y-90000000D03*
X138200000Y-92400000D03*
X142400000Y-71700000D03*
X118400000Y-65900000D03*
G04 #@! TO.N,/RESET*
X142200000Y-88000000D03*
X142800000Y-91600000D03*
G04 #@! TO.N,/E*
X142800000Y-87200000D03*
X144800000Y-89200014D03*
G04 #@! TO.N,/INT1*
X142000000Y-86400000D03*
X117800000Y-90400000D03*
X113699979Y-90242535D03*
X145538154Y-88362052D03*
G04 #@! TO.N,/R_W*
X144199999Y-85800000D03*
X146299399Y-87713569D03*
X195100000Y-82100000D03*
G04 #@! TO.N,/D0*
X170600000Y-75300000D03*
X171100000Y-91700000D03*
G04 #@! TO.N,/D1*
X168300000Y-75300000D03*
X168200000Y-91700000D03*
G04 #@! TO.N,/D2*
X166000000Y-91700021D03*
X165900000Y-75300000D03*
G04 #@! TO.N,/D3*
X164600000Y-75299990D03*
G04 #@! TO.N,/D4*
X167100000Y-75300000D03*
G04 #@! TO.N,/D5*
X169500000Y-75300000D03*
G04 #@! TO.N,/D6*
X171700000Y-75300000D03*
G04 #@! TO.N,/D7*
X142400000Y-73000000D03*
G04 #@! TO.N,/INT2*
X113800000Y-89000000D03*
X143206267Y-85688113D03*
X117800000Y-89000000D03*
X147000000Y-87000000D03*
X172900000Y-97800000D03*
G04 #@! TO.N,/INT3*
X113800000Y-87800000D03*
X141600000Y-84988113D03*
X147795417Y-86393935D03*
X117800000Y-87800000D03*
X171800000Y-97000000D03*
G04 #@! TO.N,/_QLATCH*
X138000000Y-68400000D03*
X177500000Y-75300000D03*
G04 #@! TO.N,/ROM_CS*
X170900000Y-96500000D03*
G04 #@! TO.N,/PER_CS*
X160600000Y-93500000D03*
G04 #@! TD*
D15*
G04 #@! TO.N,+5V*
X190920000Y-67000000D02*
X150600000Y-67000000D01*
X196540000Y-72620000D02*
X190920000Y-67000000D01*
X148000000Y-67000000D02*
X150600000Y-67000000D01*
X142600000Y-61600000D02*
X148000000Y-67000000D01*
X148200000Y-98600000D02*
X149800000Y-97000000D01*
X143180000Y-100000000D02*
X144580000Y-98600000D01*
X144580000Y-98600000D02*
X148200000Y-98600000D01*
X142600000Y-61600000D02*
X126950000Y-61600000D01*
X126950000Y-61600000D02*
X126575000Y-61975000D01*
X140700000Y-92400000D02*
X140740001Y-92359999D01*
X140740001Y-92359999D02*
X140740001Y-88859999D01*
X140740001Y-88859999D02*
X140800000Y-88800000D01*
X112800000Y-76565685D02*
X112800000Y-76000000D01*
X112800000Y-90526560D02*
X112800000Y-76565685D01*
X116680000Y-94000000D02*
X116273440Y-94000000D01*
X116273440Y-94000000D02*
X112800000Y-90526560D01*
D16*
G04 #@! TO.N,/A0*
X119220000Y-92868630D02*
X119220000Y-94000000D01*
X119220000Y-83580000D02*
X119220000Y-92868630D01*
X172280121Y-79399879D02*
X150688123Y-79399879D01*
X150688123Y-79399879D02*
X150228001Y-79860001D01*
X150228001Y-79860001D02*
X122939999Y-79860001D01*
X122939999Y-79860001D02*
X119220000Y-83580000D01*
X173680000Y-78000000D02*
X172280121Y-79399879D01*
G04 #@! TO.N,/A1*
X121760000Y-81640000D02*
X123139988Y-80260012D01*
X121760000Y-94000000D02*
X121760000Y-81640000D01*
X175420001Y-78799999D02*
X176220000Y-78000000D01*
X174420110Y-79799890D02*
X175420001Y-78799999D01*
X150393690Y-80260012D02*
X150853812Y-79799890D01*
X150853812Y-79799890D02*
X174420110Y-79799890D01*
X123139988Y-80260012D02*
X150393690Y-80260012D01*
G04 #@! TO.N,/A2*
X176560099Y-80199901D02*
X151019501Y-80199901D01*
X151019501Y-80199901D02*
X150559379Y-80660023D01*
X178760000Y-78000000D02*
X176560099Y-80199901D01*
X150559379Y-80660023D02*
X126339977Y-80660023D01*
X126339977Y-80660023D02*
X124300000Y-82700000D01*
X124300000Y-82700000D02*
X124300000Y-92868630D01*
X124300000Y-92868630D02*
X124300000Y-94000000D01*
G04 #@! TO.N,/A3*
X179569806Y-78799999D02*
X180500001Y-78799999D01*
X177769893Y-80599912D02*
X179569806Y-78799999D01*
X151185190Y-80599912D02*
X177769893Y-80599912D01*
X180500001Y-78799999D02*
X181300000Y-78000000D01*
X126840000Y-94000000D02*
X126840000Y-82760000D01*
X150725068Y-81060034D02*
X151185190Y-80599912D01*
X126840000Y-82760000D02*
X128539966Y-81060034D01*
X128539966Y-81060034D02*
X150725068Y-81060034D01*
G04 #@! TO.N,/A4*
X182440067Y-79399933D02*
X179535572Y-79399933D01*
X179535572Y-79399933D02*
X177935582Y-80999923D01*
X129380000Y-82620000D02*
X129380000Y-92868630D01*
X177935582Y-80999923D02*
X151350879Y-80999923D01*
X130539955Y-81460045D02*
X129380000Y-82620000D01*
X129380000Y-92868630D02*
X129380000Y-94000000D01*
X150890757Y-81460045D02*
X130539955Y-81460045D01*
X183840000Y-78000000D02*
X182440067Y-79399933D01*
X151350879Y-80999923D02*
X150890757Y-81460045D01*
G04 #@! TO.N,/A5*
X184580056Y-79799944D02*
X185580001Y-78799999D01*
X179701261Y-79799944D02*
X184580056Y-79799944D01*
X131920000Y-82680000D02*
X132739944Y-81860056D01*
X131920000Y-94000000D02*
X131920000Y-82680000D01*
X185580001Y-78799999D02*
X186380000Y-78000000D01*
X132739944Y-81860056D02*
X151056446Y-81860056D01*
X151056446Y-81860056D02*
X151516568Y-81399934D01*
X151516568Y-81399934D02*
X178101271Y-81399934D01*
X178101271Y-81399934D02*
X179701261Y-79799944D01*
G04 #@! TO.N,/A6*
X120040066Y-95199934D02*
X116089999Y-99150001D01*
X116089999Y-99150001D02*
X115240000Y-100000000D01*
X133260066Y-95199934D02*
X120040066Y-95199934D01*
X134460000Y-94000000D02*
X133260066Y-95199934D01*
X134460000Y-92868630D02*
X134460000Y-94000000D01*
X134460000Y-83140000D02*
X134460000Y-92868630D01*
X135339933Y-82260067D02*
X134460000Y-83140000D01*
X186720045Y-80199955D02*
X179866950Y-80199955D01*
X188920000Y-78000000D02*
X186720045Y-80199955D01*
X179866950Y-80199955D02*
X178266960Y-81799945D01*
X178266960Y-81799945D02*
X151682257Y-81799945D01*
X151682257Y-81799945D02*
X151222135Y-82260067D01*
X151222135Y-82260067D02*
X135339933Y-82260067D01*
G04 #@! TO.N,/A7*
X122180055Y-95599945D02*
X135400055Y-95599945D01*
X136200001Y-94799999D02*
X137000000Y-94000000D01*
X117780000Y-100000000D02*
X122180055Y-95599945D01*
X135400055Y-95599945D02*
X136200001Y-94799999D01*
X190660001Y-78799999D02*
X191460000Y-78000000D01*
X188860034Y-80599966D02*
X190660001Y-78799999D01*
X137000000Y-84200000D02*
X138539922Y-82660078D01*
X137000000Y-94000000D02*
X137000000Y-84200000D01*
X180032639Y-80599966D02*
X188860034Y-80599966D01*
X138539922Y-82660078D02*
X151387824Y-82660078D01*
X151387824Y-82660078D02*
X151847946Y-82199956D01*
X151847946Y-82199956D02*
X178432649Y-82199956D01*
X178432649Y-82199956D02*
X180032639Y-80599966D01*
G04 #@! TO.N,/A8*
X137540044Y-95999956D02*
X138740001Y-94799999D01*
X124320044Y-95999956D02*
X137540044Y-95999956D01*
X138740001Y-94799999D02*
X139540000Y-94000000D01*
X120320000Y-100000000D02*
X124320044Y-95999956D01*
X140939911Y-83060089D02*
X139540000Y-84460000D01*
X187699977Y-80999977D02*
X180198334Y-80999977D01*
X188800000Y-82100000D02*
X187699977Y-80999977D01*
X139540000Y-84460000D02*
X139540000Y-94000000D01*
X178598344Y-82599967D02*
X152013635Y-82599967D01*
X180198334Y-80999977D02*
X178598344Y-82599967D01*
X152013635Y-82599967D02*
X151553513Y-83060089D01*
X151553513Y-83060089D02*
X140939911Y-83060089D01*
G04 #@! TO.N,/A9*
X139680033Y-96399967D02*
X126460033Y-96399967D01*
X123709999Y-99150001D02*
X122860000Y-100000000D01*
X142080000Y-94000000D02*
X139680033Y-96399967D01*
X126460033Y-96399967D02*
X123709999Y-99150001D01*
X145700001Y-89479301D02*
X145700001Y-90379999D01*
X145700001Y-90379999D02*
X142080000Y-94000000D01*
X152179324Y-82999978D02*
X145700001Y-89479301D01*
X186500000Y-82100000D02*
X186500000Y-81400000D01*
X186500000Y-81400000D02*
X186499988Y-81399988D01*
X186499988Y-81399988D02*
X180364023Y-81399988D01*
X180364023Y-81399988D02*
X178764033Y-82999978D01*
X178764033Y-82999978D02*
X152179324Y-82999978D01*
G04 #@! TO.N,/A10*
X126249999Y-99150001D02*
X125400000Y-100000000D01*
X128600022Y-96799978D02*
X126249999Y-99150001D01*
X141820022Y-96799978D02*
X128600022Y-96799978D01*
X144620000Y-94000000D02*
X141820022Y-96799978D01*
X146100012Y-92519988D02*
X144620000Y-94000000D01*
X180100000Y-82700000D02*
X180100000Y-82910036D01*
X180100000Y-82910036D02*
X179610047Y-83399989D01*
X179610047Y-83399989D02*
X152345013Y-83399989D01*
X152345013Y-83399989D02*
X146100012Y-89644990D01*
X146100012Y-89644990D02*
X146100012Y-92519988D01*
G04 #@! TO.N,/A11*
X147160000Y-89150702D02*
X147160000Y-94000000D01*
X152510702Y-83800000D02*
X147160000Y-89150702D01*
X180000000Y-83800000D02*
X152510702Y-83800000D01*
X185000000Y-82100000D02*
X181700000Y-82100000D01*
X181700000Y-82100000D02*
X180000000Y-83800000D01*
X128789999Y-99150001D02*
X127940000Y-100000000D01*
X130740011Y-97199989D02*
X128789999Y-99150001D01*
X144000011Y-97199989D02*
X130740011Y-97199989D01*
X147160000Y-94000000D02*
X147160000Y-94040000D01*
X147160000Y-94040000D02*
X144000011Y-97199989D01*
G04 #@! TO.N,/A12*
X156800000Y-84400000D02*
X157000000Y-84600000D01*
X156800000Y-84299998D02*
X156800000Y-84400000D01*
X193200001Y-78799999D02*
X194000000Y-78000000D01*
X189600000Y-82400000D02*
X193200001Y-78799999D01*
X156800000Y-84299998D02*
X156899987Y-84200011D01*
X180365687Y-84200011D02*
X181765698Y-82800000D01*
X156899987Y-84200011D02*
X180365687Y-84200011D01*
X181765698Y-82800000D02*
X189234302Y-82800000D01*
X189234302Y-82800000D02*
X189600000Y-82434302D01*
X189600000Y-82434302D02*
X189600000Y-82400000D01*
X156700002Y-84200000D02*
X156800000Y-84299998D01*
X152676402Y-84200000D02*
X156700002Y-84200000D01*
X149700000Y-94000000D02*
X149700000Y-87176402D01*
X149700000Y-87176402D02*
X152676402Y-84200000D01*
X149700000Y-94400000D02*
X149700000Y-94000000D01*
X146500000Y-97600000D02*
X149700000Y-94400000D01*
X130480000Y-100000000D02*
X132880000Y-97600000D01*
X132880000Y-97600000D02*
X146500000Y-97600000D01*
G04 #@! TO.N,/A13*
X157000000Y-85700000D02*
X158000000Y-84700000D01*
X158000000Y-84700000D02*
X158000021Y-84700000D01*
X158000021Y-84700000D02*
X158100000Y-84600021D01*
X158100000Y-84600021D02*
X180599979Y-84600021D01*
X180599979Y-84600021D02*
X181999990Y-83200010D01*
X190199990Y-83200010D02*
X191300000Y-82100000D01*
X181999990Y-83200010D02*
X190199990Y-83200010D01*
X150831370Y-78760000D02*
X149700000Y-78760000D01*
X150971313Y-78899943D02*
X150831370Y-78760000D01*
X154935923Y-78899943D02*
X150971313Y-78899943D01*
X155500000Y-78100000D02*
X155500000Y-78335866D01*
X155500000Y-78335866D02*
X154935923Y-78899943D01*
G04 #@! TO.N,/A14*
X196540000Y-78760000D02*
X196540000Y-78000000D01*
X190200000Y-85100000D02*
X196540000Y-78760000D01*
X157000000Y-86700000D02*
X158600000Y-85100000D01*
X158600000Y-85100000D02*
X190200000Y-85100000D01*
X135600000Y-90700000D02*
X135600000Y-92500000D01*
X154400000Y-78100000D02*
X154400000Y-78018023D01*
X154400000Y-78018023D02*
X154041976Y-77659999D01*
X154041976Y-77659999D02*
X148260001Y-77659999D01*
X148260001Y-77659999D02*
X147160000Y-78760000D01*
G04 #@! TO.N,/A15*
X138200000Y-90000000D02*
X138200000Y-92400000D01*
X142400000Y-71700000D02*
X142300000Y-71600000D01*
X142300000Y-71600000D02*
X128600000Y-71600000D01*
X128600000Y-71600000D02*
X123000000Y-66000000D01*
X123000000Y-66000000D02*
X118500000Y-66000000D01*
X118500000Y-66000000D02*
X118400000Y-65900000D01*
X176220000Y-72620000D02*
X176220000Y-71420000D01*
X176220000Y-71420000D02*
X175400000Y-70600000D01*
X143500000Y-70600000D02*
X142400000Y-71700000D01*
X175400000Y-70600000D02*
X143500000Y-70600000D01*
G04 #@! TO.N,/RESET*
X142800000Y-91600000D02*
X142200000Y-91000000D01*
X142200000Y-91000000D02*
X142200000Y-88000000D01*
G04 #@! TO.N,/E*
X144800000Y-89200000D02*
X144800000Y-89200014D01*
X142800000Y-87200000D02*
X144800000Y-89200000D01*
G04 #@! TO.N,/INT1*
X117800000Y-90400000D02*
X113857444Y-90400000D01*
X113857444Y-90400000D02*
X113699979Y-90242535D01*
X142000000Y-86400000D02*
X143576102Y-86400000D01*
X143576102Y-86400000D02*
X145538154Y-88362052D01*
G04 #@! TO.N,/R_W*
X144199999Y-85800000D02*
X146113568Y-87713569D01*
X146113568Y-87713569D02*
X146299399Y-87713569D01*
X159269999Y-99150001D02*
X158420000Y-100000000D01*
X159269999Y-93730001D02*
X159269999Y-99150001D01*
X163200000Y-89800000D02*
X159269999Y-93730001D01*
X186200000Y-89800000D02*
X163200000Y-89800000D01*
X195100000Y-82100000D02*
X193900000Y-82100000D01*
X193900000Y-82100000D02*
X186200000Y-89800000D01*
G04 #@! TO.N,/D0*
X161399978Y-95359978D02*
X166040000Y-100000000D01*
X171100000Y-91700000D02*
X170000000Y-90600000D01*
X161399978Y-92234322D02*
X161399978Y-95359978D01*
X170000000Y-90600000D02*
X163034300Y-90600000D01*
X163034300Y-90600000D02*
X161399978Y-92234322D01*
X125400001Y-77659999D02*
X124300000Y-78760000D01*
X170600000Y-74760001D02*
X169639969Y-73799970D01*
X169639969Y-73799970D02*
X133208632Y-73799970D01*
X133208632Y-73799970D02*
X129748614Y-77259988D01*
X129748614Y-77259988D02*
X125800012Y-77259988D01*
X170600000Y-75300000D02*
X170600000Y-74760001D01*
X125800012Y-77259988D02*
X125400001Y-77659999D01*
G04 #@! TO.N,/D1*
X128851999Y-77659999D02*
X127751998Y-78760000D01*
X127751998Y-78760000D02*
X126840000Y-78760000D01*
X129914303Y-77659999D02*
X128851999Y-77659999D01*
X133374313Y-74199989D02*
X129914303Y-77659999D01*
X168300000Y-75300000D02*
X167199989Y-74199989D01*
X167199989Y-74199989D02*
X133374313Y-74199989D01*
X167429999Y-98849999D02*
X168580000Y-100000000D01*
X165455699Y-98849999D02*
X167429999Y-98849999D01*
X161799989Y-95194289D02*
X165455699Y-98849999D01*
X161799989Y-92400011D02*
X161799989Y-95194289D01*
X163199989Y-91000011D02*
X161799989Y-92400011D01*
X168200000Y-91700000D02*
X167921532Y-91700000D01*
X167921532Y-91700000D02*
X167221543Y-91000011D01*
X167221543Y-91000011D02*
X163199989Y-91000011D01*
G04 #@! TO.N,/D2*
X133540011Y-74599989D02*
X129380000Y-78760000D01*
X165034312Y-74599989D02*
X133540011Y-74599989D01*
X165900000Y-75300000D02*
X165734323Y-75300000D01*
X165734323Y-75300000D02*
X165034312Y-74599989D01*
X166000000Y-91600000D02*
X166000000Y-91700021D01*
X169569988Y-98449988D02*
X165621388Y-98449988D01*
X171120000Y-100000000D02*
X169569988Y-98449988D01*
X165621388Y-98449988D02*
X162200000Y-95028600D01*
X162200000Y-95028600D02*
X162200000Y-92800000D01*
X162200000Y-92800000D02*
X163400000Y-91600000D01*
X163400000Y-91600000D02*
X166000000Y-91600000D01*
G04 #@! TO.N,/D3*
X164034315Y-75299990D02*
X164600000Y-75299990D01*
X163934305Y-75299990D02*
X164034315Y-75299990D01*
X163634315Y-75000000D02*
X163934305Y-75299990D01*
X133800000Y-75000000D02*
X163634315Y-75000000D01*
X131920000Y-78760000D02*
X131920000Y-76880000D01*
X131920000Y-76880000D02*
X133800000Y-75000000D01*
G04 #@! TO.N,/D4*
X135371998Y-78760000D02*
X134460000Y-78760000D01*
X136471999Y-77659999D02*
X135371998Y-78760000D01*
X137528001Y-77659999D02*
X136471999Y-77659999D01*
X164068617Y-76000000D02*
X163468617Y-75400000D01*
X167100000Y-75300000D02*
X166900000Y-75300000D01*
X166900000Y-75300000D02*
X166200000Y-76000000D01*
X163468617Y-75400000D02*
X140000000Y-75400000D01*
X166200000Y-76000000D02*
X164068617Y-76000000D01*
X140000000Y-75400000D02*
X137634001Y-77765999D01*
X137634001Y-77765999D02*
X137528001Y-77659999D01*
G04 #@! TO.N,/D5*
X137593992Y-78166008D02*
X137000000Y-78760000D01*
X168399989Y-76400011D02*
X163902928Y-76400011D01*
X169500000Y-75300000D02*
X168399989Y-76400011D01*
X163902928Y-76400011D02*
X163302928Y-75800011D01*
X163302928Y-75800011D02*
X140165689Y-75800011D01*
X140165689Y-75800011D02*
X137799692Y-78166008D01*
X137799692Y-78166008D02*
X137593992Y-78166008D01*
G04 #@! TO.N,/D6*
X139540000Y-77060000D02*
X139540000Y-78760000D01*
X171700000Y-75400000D02*
X170299978Y-76800022D01*
X171700000Y-75300000D02*
X171700000Y-75400000D01*
X170299978Y-76800022D02*
X163737239Y-76800022D01*
X163737239Y-76800022D02*
X163137239Y-76200022D01*
X163137239Y-76200022D02*
X140399978Y-76200022D01*
X140399978Y-76200022D02*
X139540000Y-77060000D01*
G04 #@! TO.N,/D7*
X172680001Y-71620001D02*
X173680000Y-72620000D01*
X172460000Y-71400000D02*
X172680001Y-71620001D01*
X142400000Y-73000000D02*
X144000000Y-71400000D01*
X144000000Y-71400000D02*
X172460000Y-71400000D01*
G04 #@! TO.N,/INT2*
X118000000Y-89000000D02*
X117800000Y-89000000D01*
X113800000Y-89000000D02*
X117800000Y-89000000D01*
X143206267Y-85688113D02*
X143894380Y-85000000D01*
X145000000Y-85000000D02*
X146600001Y-86600001D01*
X143894380Y-85000000D02*
X145000000Y-85000000D01*
X146600001Y-86600001D02*
X147000000Y-87000000D01*
X191480000Y-97500000D02*
X193980000Y-100000000D01*
X172900000Y-97800000D02*
X173200000Y-97500000D01*
X173200000Y-97500000D02*
X191480000Y-97500000D01*
G04 #@! TO.N,/INT3*
X145989596Y-84588114D02*
X147795417Y-86393935D01*
X141600000Y-84988113D02*
X141999999Y-84588114D01*
X141999999Y-84588114D02*
X145989596Y-84588114D01*
X113800000Y-87800000D02*
X117800000Y-87800000D01*
X195670001Y-99150001D02*
X196520000Y-100000000D01*
X171800000Y-97000000D02*
X193520000Y-97000000D01*
X193520000Y-97000000D02*
X195670001Y-99150001D01*
G04 #@! TO.N,/_QLATCH*
X138000000Y-68400000D02*
X139000000Y-69400000D01*
X178080000Y-69400000D02*
X181300000Y-72620000D01*
X139000000Y-69400000D02*
X178080000Y-69400000D01*
X178620000Y-75300000D02*
X181300000Y-72620000D01*
X177500000Y-75300000D02*
X178620000Y-75300000D01*
G04 #@! TO.N,/ROM_CS*
X181300000Y-93240000D02*
X180388002Y-93240000D01*
X178040000Y-96500000D02*
X181300000Y-93240000D01*
X170900000Y-96500000D02*
X171000000Y-96500000D01*
X171000000Y-96500000D02*
X171300000Y-96200000D01*
X172300000Y-96200000D02*
X172600000Y-96500000D01*
X171300000Y-96200000D02*
X172300000Y-96200000D01*
X172600000Y-96500000D02*
X178040000Y-96500000D01*
G04 #@! TO.N,/PER_CS*
X163500000Y-98100000D02*
X163500000Y-100000000D01*
X160900000Y-95500000D02*
X163500000Y-98100000D01*
X160600000Y-93500000D02*
X160900000Y-93800000D01*
X160900000Y-93800000D02*
X160900000Y-95500000D01*
G04 #@! TD*
G04 #@! TO.N,GND*
G36*
X196447922Y-57468228D02*
X196859835Y-57655514D01*
X197202626Y-57950883D01*
X197448739Y-58330589D01*
X197582352Y-58777359D01*
X197600000Y-59014841D01*
X197600000Y-64049133D01*
X197556288Y-63983712D01*
X197457054Y-63917407D01*
X197340000Y-63894123D01*
X195740000Y-63894123D01*
X195622946Y-63917407D01*
X195523712Y-63983712D01*
X195457407Y-64082946D01*
X195434123Y-64200000D01*
X195434123Y-65800000D01*
X195457407Y-65917054D01*
X195523712Y-66016288D01*
X195622946Y-66082593D01*
X195740000Y-66105877D01*
X197340000Y-66105877D01*
X197457054Y-66082593D01*
X197556288Y-66016288D01*
X197600000Y-65950867D01*
X197600000Y-72310569D01*
X197576177Y-72190801D01*
X197333056Y-71826944D01*
X196969199Y-71583823D01*
X196648339Y-71520000D01*
X196431661Y-71520000D01*
X196194317Y-71567211D01*
X191308377Y-66681271D01*
X191280480Y-66639520D01*
X191115090Y-66529011D01*
X190969243Y-66500000D01*
X190969241Y-66500000D01*
X190920000Y-66490205D01*
X190870759Y-66500000D01*
X151089950Y-66500000D01*
X150996518Y-66406568D01*
X150739239Y-66300000D01*
X150460761Y-66300000D01*
X150203482Y-66406568D01*
X150110050Y-66500000D01*
X148207107Y-66500000D01*
X147078151Y-65371044D01*
X162161757Y-65371044D01*
X162407139Y-65862577D01*
X162821944Y-66222791D01*
X163148958Y-66358231D01*
X163366000Y-66246523D01*
X163366000Y-65154000D01*
X163674000Y-65154000D01*
X163674000Y-66246523D01*
X163891042Y-66358231D01*
X164218056Y-66222791D01*
X164632861Y-65862577D01*
X164878243Y-65371044D01*
X164767565Y-65154000D01*
X163674000Y-65154000D01*
X163366000Y-65154000D01*
X162272435Y-65154000D01*
X162161757Y-65371044D01*
X147078151Y-65371044D01*
X146707107Y-65000000D01*
X164938450Y-65000000D01*
X165023823Y-65429199D01*
X165266944Y-65793056D01*
X165630801Y-66036177D01*
X165951661Y-66100000D01*
X166168339Y-66100000D01*
X166489199Y-66036177D01*
X166853056Y-65793056D01*
X167096177Y-65429199D01*
X167181550Y-65000000D01*
X167478450Y-65000000D01*
X167563823Y-65429199D01*
X167806944Y-65793056D01*
X168170801Y-66036177D01*
X168491661Y-66100000D01*
X168708339Y-66100000D01*
X169029199Y-66036177D01*
X169393056Y-65793056D01*
X169636177Y-65429199D01*
X169721550Y-65000000D01*
X170018450Y-65000000D01*
X170103823Y-65429199D01*
X170346944Y-65793056D01*
X170710801Y-66036177D01*
X171031661Y-66100000D01*
X171248339Y-66100000D01*
X171569199Y-66036177D01*
X171933056Y-65793056D01*
X172176177Y-65429199D01*
X172261550Y-65000000D01*
X172558450Y-65000000D01*
X172643823Y-65429199D01*
X172886944Y-65793056D01*
X173250801Y-66036177D01*
X173571661Y-66100000D01*
X173788339Y-66100000D01*
X174109199Y-66036177D01*
X174473056Y-65793056D01*
X174716177Y-65429199D01*
X174801550Y-65000000D01*
X175098450Y-65000000D01*
X175183823Y-65429199D01*
X175426944Y-65793056D01*
X175790801Y-66036177D01*
X176111661Y-66100000D01*
X176328339Y-66100000D01*
X176649199Y-66036177D01*
X177013056Y-65793056D01*
X177256177Y-65429199D01*
X177341550Y-65000000D01*
X177638450Y-65000000D01*
X177723823Y-65429199D01*
X177966944Y-65793056D01*
X178330801Y-66036177D01*
X178651661Y-66100000D01*
X178868339Y-66100000D01*
X179189199Y-66036177D01*
X179553056Y-65793056D01*
X179796177Y-65429199D01*
X179881550Y-65000000D01*
X180178450Y-65000000D01*
X180263823Y-65429199D01*
X180506944Y-65793056D01*
X180870801Y-66036177D01*
X181191661Y-66100000D01*
X181408339Y-66100000D01*
X181729199Y-66036177D01*
X182093056Y-65793056D01*
X182336177Y-65429199D01*
X182421550Y-65000000D01*
X182718450Y-65000000D01*
X182803823Y-65429199D01*
X183046944Y-65793056D01*
X183410801Y-66036177D01*
X183731661Y-66100000D01*
X183948339Y-66100000D01*
X184269199Y-66036177D01*
X184633056Y-65793056D01*
X184876177Y-65429199D01*
X184961550Y-65000000D01*
X185258450Y-65000000D01*
X185343823Y-65429199D01*
X185586944Y-65793056D01*
X185950801Y-66036177D01*
X186271661Y-66100000D01*
X186488339Y-66100000D01*
X186809199Y-66036177D01*
X187173056Y-65793056D01*
X187416177Y-65429199D01*
X187501550Y-65000000D01*
X187798450Y-65000000D01*
X187883823Y-65429199D01*
X188126944Y-65793056D01*
X188490801Y-66036177D01*
X188811661Y-66100000D01*
X189028339Y-66100000D01*
X189349199Y-66036177D01*
X189713056Y-65793056D01*
X189956177Y-65429199D01*
X190041550Y-65000000D01*
X190338450Y-65000000D01*
X190423823Y-65429199D01*
X190666944Y-65793056D01*
X191030801Y-66036177D01*
X191351661Y-66100000D01*
X191568339Y-66100000D01*
X191889199Y-66036177D01*
X192253056Y-65793056D01*
X192496177Y-65429199D01*
X192581550Y-65000000D01*
X192878450Y-65000000D01*
X192963823Y-65429199D01*
X193206944Y-65793056D01*
X193570801Y-66036177D01*
X193891661Y-66100000D01*
X194108339Y-66100000D01*
X194429199Y-66036177D01*
X194793056Y-65793056D01*
X195036177Y-65429199D01*
X195121550Y-65000000D01*
X195036177Y-64570801D01*
X194793056Y-64206944D01*
X194429199Y-63963823D01*
X194108339Y-63900000D01*
X193891661Y-63900000D01*
X193570801Y-63963823D01*
X193206944Y-64206944D01*
X192963823Y-64570801D01*
X192878450Y-65000000D01*
X192581550Y-65000000D01*
X192496177Y-64570801D01*
X192253056Y-64206944D01*
X191889199Y-63963823D01*
X191568339Y-63900000D01*
X191351661Y-63900000D01*
X191030801Y-63963823D01*
X190666944Y-64206944D01*
X190423823Y-64570801D01*
X190338450Y-65000000D01*
X190041550Y-65000000D01*
X189956177Y-64570801D01*
X189713056Y-64206944D01*
X189349199Y-63963823D01*
X189028339Y-63900000D01*
X188811661Y-63900000D01*
X188490801Y-63963823D01*
X188126944Y-64206944D01*
X187883823Y-64570801D01*
X187798450Y-65000000D01*
X187501550Y-65000000D01*
X187416177Y-64570801D01*
X187173056Y-64206944D01*
X186809199Y-63963823D01*
X186488339Y-63900000D01*
X186271661Y-63900000D01*
X185950801Y-63963823D01*
X185586944Y-64206944D01*
X185343823Y-64570801D01*
X185258450Y-65000000D01*
X184961550Y-65000000D01*
X184876177Y-64570801D01*
X184633056Y-64206944D01*
X184269199Y-63963823D01*
X183948339Y-63900000D01*
X183731661Y-63900000D01*
X183410801Y-63963823D01*
X183046944Y-64206944D01*
X182803823Y-64570801D01*
X182718450Y-65000000D01*
X182421550Y-65000000D01*
X182336177Y-64570801D01*
X182093056Y-64206944D01*
X181729199Y-63963823D01*
X181408339Y-63900000D01*
X181191661Y-63900000D01*
X180870801Y-63963823D01*
X180506944Y-64206944D01*
X180263823Y-64570801D01*
X180178450Y-65000000D01*
X179881550Y-65000000D01*
X179796177Y-64570801D01*
X179553056Y-64206944D01*
X179189199Y-63963823D01*
X178868339Y-63900000D01*
X178651661Y-63900000D01*
X178330801Y-63963823D01*
X177966944Y-64206944D01*
X177723823Y-64570801D01*
X177638450Y-65000000D01*
X177341550Y-65000000D01*
X177256177Y-64570801D01*
X177013056Y-64206944D01*
X176649199Y-63963823D01*
X176328339Y-63900000D01*
X176111661Y-63900000D01*
X175790801Y-63963823D01*
X175426944Y-64206944D01*
X175183823Y-64570801D01*
X175098450Y-65000000D01*
X174801550Y-65000000D01*
X174716177Y-64570801D01*
X174473056Y-64206944D01*
X174109199Y-63963823D01*
X173788339Y-63900000D01*
X173571661Y-63900000D01*
X173250801Y-63963823D01*
X172886944Y-64206944D01*
X172643823Y-64570801D01*
X172558450Y-65000000D01*
X172261550Y-65000000D01*
X172176177Y-64570801D01*
X171933056Y-64206944D01*
X171569199Y-63963823D01*
X171248339Y-63900000D01*
X171031661Y-63900000D01*
X170710801Y-63963823D01*
X170346944Y-64206944D01*
X170103823Y-64570801D01*
X170018450Y-65000000D01*
X169721550Y-65000000D01*
X169636177Y-64570801D01*
X169393056Y-64206944D01*
X169029199Y-63963823D01*
X168708339Y-63900000D01*
X168491661Y-63900000D01*
X168170801Y-63963823D01*
X167806944Y-64206944D01*
X167563823Y-64570801D01*
X167478450Y-65000000D01*
X167181550Y-65000000D01*
X167096177Y-64570801D01*
X166853056Y-64206944D01*
X166489199Y-63963823D01*
X166168339Y-63900000D01*
X165951661Y-63900000D01*
X165630801Y-63963823D01*
X165266944Y-64206944D01*
X165023823Y-64570801D01*
X164938450Y-65000000D01*
X146707107Y-65000000D01*
X146336063Y-64628956D01*
X162161757Y-64628956D01*
X162272435Y-64846000D01*
X163366000Y-64846000D01*
X163366000Y-63753477D01*
X163674000Y-63753477D01*
X163674000Y-64846000D01*
X164767565Y-64846000D01*
X164878243Y-64628956D01*
X164632861Y-64137423D01*
X164218056Y-63777209D01*
X163891042Y-63641769D01*
X163674000Y-63753477D01*
X163366000Y-63753477D01*
X163148958Y-63641769D01*
X162821944Y-63777209D01*
X162407139Y-64137423D01*
X162161757Y-64628956D01*
X146336063Y-64628956D01*
X143300000Y-61592894D01*
X143300000Y-61460761D01*
X143193432Y-61203482D01*
X142996518Y-61006568D01*
X142739239Y-60900000D01*
X142460761Y-60900000D01*
X142203482Y-61006568D01*
X142110050Y-61100000D01*
X126999240Y-61100000D01*
X126949999Y-61090205D01*
X126900758Y-61100000D01*
X126900757Y-61100000D01*
X126754910Y-61129011D01*
X126589520Y-61239520D01*
X126565813Y-61275000D01*
X126435761Y-61275000D01*
X126178482Y-61381568D01*
X125981568Y-61578482D01*
X125875000Y-61835761D01*
X125875000Y-62114239D01*
X125981568Y-62371518D01*
X126178482Y-62568432D01*
X126435761Y-62675000D01*
X126714239Y-62675000D01*
X126971518Y-62568432D01*
X127168432Y-62371518D01*
X127275000Y-62114239D01*
X127275000Y-62100000D01*
X142110050Y-62100000D01*
X142203482Y-62193432D01*
X142460761Y-62300000D01*
X142592894Y-62300000D01*
X147611625Y-67318732D01*
X147639520Y-67360480D01*
X147804910Y-67470989D01*
X147950757Y-67500000D01*
X147950758Y-67500000D01*
X147999999Y-67509795D01*
X148049240Y-67500000D01*
X150110050Y-67500000D01*
X150203482Y-67593432D01*
X150460761Y-67700000D01*
X150739239Y-67700000D01*
X150996518Y-67593432D01*
X151089950Y-67500000D01*
X190712894Y-67500000D01*
X195487211Y-72274317D01*
X195418450Y-72620000D01*
X195503823Y-73049199D01*
X195746944Y-73413056D01*
X196110801Y-73656177D01*
X196431661Y-73720000D01*
X196648339Y-73720000D01*
X196969199Y-73656177D01*
X197333056Y-73413056D01*
X197576177Y-73049199D01*
X197600000Y-72929431D01*
X197600000Y-77049133D01*
X197556288Y-76983712D01*
X197457054Y-76917407D01*
X197340000Y-76894123D01*
X195740000Y-76894123D01*
X195622946Y-76917407D01*
X195523712Y-76983712D01*
X195457407Y-77082946D01*
X195434123Y-77200000D01*
X195434123Y-78800000D01*
X195457407Y-78917054D01*
X195523712Y-79016288D01*
X195622946Y-79082593D01*
X195646948Y-79087367D01*
X190034316Y-84700000D01*
X181065684Y-84700000D01*
X182165675Y-83600010D01*
X190160596Y-83600010D01*
X190199990Y-83607846D01*
X190239384Y-83600010D01*
X190356062Y-83576801D01*
X190488374Y-83488394D01*
X190510693Y-83454991D01*
X191165685Y-82800000D01*
X191439239Y-82800000D01*
X191696518Y-82693432D01*
X191893432Y-82496518D01*
X192000000Y-82239239D01*
X192000000Y-81960761D01*
X191893432Y-81703482D01*
X191696518Y-81506568D01*
X191439239Y-81400000D01*
X191165685Y-81400000D01*
X193510699Y-79054987D01*
X193510703Y-79054981D01*
X193546047Y-79019637D01*
X193570801Y-79036177D01*
X193891661Y-79100000D01*
X194108339Y-79100000D01*
X194429199Y-79036177D01*
X194793056Y-78793056D01*
X195036177Y-78429199D01*
X195121550Y-78000000D01*
X195036177Y-77570801D01*
X194793056Y-77206944D01*
X194429199Y-76963823D01*
X194108339Y-76900000D01*
X193891661Y-76900000D01*
X193570801Y-76963823D01*
X193206944Y-77206944D01*
X192963823Y-77570801D01*
X192878450Y-78000000D01*
X192963823Y-78429199D01*
X192980363Y-78453953D01*
X192945019Y-78489297D01*
X192945013Y-78489301D01*
X189492254Y-81942061D01*
X189393432Y-81703482D01*
X189196518Y-81506568D01*
X188939239Y-81400000D01*
X188665685Y-81400000D01*
X188265651Y-80999966D01*
X188820640Y-80999966D01*
X188860034Y-81007802D01*
X188899428Y-80999966D01*
X189016106Y-80976757D01*
X189148418Y-80888350D01*
X189170737Y-80854947D01*
X190970699Y-79054986D01*
X190970701Y-79054983D01*
X191006047Y-79019637D01*
X191030801Y-79036177D01*
X191351661Y-79100000D01*
X191568339Y-79100000D01*
X191889199Y-79036177D01*
X192253056Y-78793056D01*
X192496177Y-78429199D01*
X192581550Y-78000000D01*
X192496177Y-77570801D01*
X192253056Y-77206944D01*
X191889199Y-76963823D01*
X191568339Y-76900000D01*
X191351661Y-76900000D01*
X191030801Y-76963823D01*
X190666944Y-77206944D01*
X190423823Y-77570801D01*
X190338450Y-78000000D01*
X190423823Y-78429199D01*
X190440363Y-78453953D01*
X190405017Y-78489299D01*
X190405014Y-78489301D01*
X188694350Y-80199966D01*
X187285718Y-80199966D01*
X188466048Y-79019637D01*
X188490801Y-79036177D01*
X188811661Y-79100000D01*
X189028339Y-79100000D01*
X189349199Y-79036177D01*
X189713056Y-78793056D01*
X189956177Y-78429199D01*
X190041550Y-78000000D01*
X189956177Y-77570801D01*
X189713056Y-77206944D01*
X189349199Y-76963823D01*
X189028339Y-76900000D01*
X188811661Y-76900000D01*
X188490801Y-76963823D01*
X188126944Y-77206944D01*
X187883823Y-77570801D01*
X187798450Y-78000000D01*
X187883823Y-78429199D01*
X187900363Y-78453952D01*
X186554361Y-79799955D01*
X185145729Y-79799955D01*
X185890699Y-79054986D01*
X185890701Y-79054983D01*
X185926047Y-79019637D01*
X185950801Y-79036177D01*
X186271661Y-79100000D01*
X186488339Y-79100000D01*
X186809199Y-79036177D01*
X187173056Y-78793056D01*
X187416177Y-78429199D01*
X187501550Y-78000000D01*
X187416177Y-77570801D01*
X187173056Y-77206944D01*
X186809199Y-76963823D01*
X186488339Y-76900000D01*
X186271661Y-76900000D01*
X185950801Y-76963823D01*
X185586944Y-77206944D01*
X185343823Y-77570801D01*
X185258450Y-78000000D01*
X185343823Y-78429199D01*
X185360363Y-78453953D01*
X185325017Y-78489299D01*
X185325014Y-78489301D01*
X184414372Y-79399944D01*
X183005740Y-79399944D01*
X183386048Y-79019637D01*
X183410801Y-79036177D01*
X183731661Y-79100000D01*
X183948339Y-79100000D01*
X184269199Y-79036177D01*
X184633056Y-78793056D01*
X184876177Y-78429199D01*
X184961550Y-78000000D01*
X184876177Y-77570801D01*
X184633056Y-77206944D01*
X184269199Y-76963823D01*
X183948339Y-76900000D01*
X183731661Y-76900000D01*
X183410801Y-76963823D01*
X183046944Y-77206944D01*
X182803823Y-77570801D01*
X182718450Y-78000000D01*
X182803823Y-78429199D01*
X182820363Y-78453952D01*
X182274383Y-78999933D01*
X181783442Y-78999933D01*
X182093056Y-78793056D01*
X182336177Y-78429199D01*
X182421550Y-78000000D01*
X182336177Y-77570801D01*
X182093056Y-77206944D01*
X181729199Y-76963823D01*
X181408339Y-76900000D01*
X181191661Y-76900000D01*
X180870801Y-76963823D01*
X180506944Y-77206944D01*
X180263823Y-77570801D01*
X180178450Y-78000000D01*
X180258015Y-78399999D01*
X179801985Y-78399999D01*
X179881550Y-78000000D01*
X179796177Y-77570801D01*
X179553056Y-77206944D01*
X179189199Y-76963823D01*
X178868339Y-76900000D01*
X178651661Y-76900000D01*
X178330801Y-76963823D01*
X177966944Y-77206944D01*
X177723823Y-77570801D01*
X177638450Y-78000000D01*
X177723823Y-78429199D01*
X177740363Y-78453953D01*
X176394415Y-79799901D01*
X174985784Y-79799901D01*
X175730699Y-79054987D01*
X175730703Y-79054981D01*
X175766047Y-79019637D01*
X175790801Y-79036177D01*
X176111661Y-79100000D01*
X176328339Y-79100000D01*
X176649199Y-79036177D01*
X177013056Y-78793056D01*
X177256177Y-78429199D01*
X177341550Y-78000000D01*
X177256177Y-77570801D01*
X177013056Y-77206944D01*
X176649199Y-76963823D01*
X176328339Y-76900000D01*
X176111661Y-76900000D01*
X175790801Y-76963823D01*
X175426944Y-77206944D01*
X175183823Y-77570801D01*
X175098450Y-78000000D01*
X175183823Y-78429199D01*
X175200363Y-78453953D01*
X175165019Y-78489297D01*
X175165013Y-78489301D01*
X174254426Y-79399890D01*
X172845794Y-79399890D01*
X173226047Y-79019637D01*
X173250801Y-79036177D01*
X173571661Y-79100000D01*
X173788339Y-79100000D01*
X174109199Y-79036177D01*
X174473056Y-78793056D01*
X174716177Y-78429199D01*
X174801550Y-78000000D01*
X174716177Y-77570801D01*
X174473056Y-77206944D01*
X174109199Y-76963823D01*
X173788339Y-76900000D01*
X173571661Y-76900000D01*
X173250801Y-76963823D01*
X172886944Y-77206944D01*
X172643823Y-77570801D01*
X172558450Y-78000000D01*
X172643823Y-78429199D01*
X172660363Y-78453953D01*
X172114437Y-78999879D01*
X171623523Y-78999879D01*
X171933056Y-78793056D01*
X172176177Y-78429199D01*
X172261550Y-78000000D01*
X172176177Y-77570801D01*
X171933056Y-77206944D01*
X171569199Y-76963823D01*
X171248339Y-76900000D01*
X171031661Y-76900000D01*
X170710801Y-76963823D01*
X170683859Y-76981825D01*
X171665686Y-76000000D01*
X171839239Y-76000000D01*
X172096518Y-75893432D01*
X172293432Y-75696518D01*
X172400000Y-75439239D01*
X172400000Y-75160761D01*
X172293432Y-74903482D01*
X172096518Y-74706568D01*
X171839239Y-74600000D01*
X171560761Y-74600000D01*
X171303482Y-74706568D01*
X171150000Y-74860050D01*
X170997379Y-74707429D01*
X170976791Y-74603929D01*
X170958651Y-74576780D01*
X170888384Y-74471617D01*
X170854984Y-74449300D01*
X169950672Y-73544989D01*
X169928353Y-73511586D01*
X169796041Y-73423179D01*
X169679363Y-73399970D01*
X169639969Y-73392134D01*
X169600575Y-73399970D01*
X169401800Y-73399970D01*
X169636177Y-73049199D01*
X169721550Y-72620000D01*
X169636177Y-72190801D01*
X169393056Y-71826944D01*
X169352731Y-71800000D01*
X170387269Y-71800000D01*
X170346944Y-71826944D01*
X170103823Y-72190801D01*
X170018450Y-72620000D01*
X170103823Y-73049199D01*
X170346944Y-73413056D01*
X170710801Y-73656177D01*
X171031661Y-73720000D01*
X171248339Y-73720000D01*
X171569199Y-73656177D01*
X171933056Y-73413056D01*
X172176177Y-73049199D01*
X172261550Y-72620000D01*
X172176177Y-72190801D01*
X171933056Y-71826944D01*
X171892731Y-71800000D01*
X172294315Y-71800000D01*
X172425014Y-71930699D01*
X172425017Y-71930701D01*
X172660363Y-72166047D01*
X172643823Y-72190801D01*
X172558450Y-72620000D01*
X172643823Y-73049199D01*
X172886944Y-73413056D01*
X173250801Y-73656177D01*
X173571661Y-73720000D01*
X173788339Y-73720000D01*
X174109199Y-73656177D01*
X174473056Y-73413056D01*
X174716177Y-73049199D01*
X174801550Y-72620000D01*
X174716177Y-72190801D01*
X174473056Y-71826944D01*
X174109199Y-71583823D01*
X173788339Y-71520000D01*
X173571661Y-71520000D01*
X173250801Y-71583823D01*
X173226047Y-71600363D01*
X172990701Y-71365017D01*
X172990699Y-71365014D01*
X172770702Y-71145018D01*
X172748384Y-71111616D01*
X172616072Y-71023209D01*
X172499394Y-71000000D01*
X175234316Y-71000000D01*
X175813602Y-71579288D01*
X175790801Y-71583823D01*
X175426944Y-71826944D01*
X175183823Y-72190801D01*
X175098450Y-72620000D01*
X175183823Y-73049199D01*
X175426944Y-73413056D01*
X175790801Y-73656177D01*
X176111661Y-73720000D01*
X176328339Y-73720000D01*
X176649199Y-73656177D01*
X177013056Y-73413056D01*
X177256177Y-73049199D01*
X177341550Y-72620000D01*
X177638450Y-72620000D01*
X177723823Y-73049199D01*
X177966944Y-73413056D01*
X178330801Y-73656177D01*
X178651661Y-73720000D01*
X178868339Y-73720000D01*
X179189199Y-73656177D01*
X179553056Y-73413056D01*
X179796177Y-73049199D01*
X179881550Y-72620000D01*
X179796177Y-72190801D01*
X179553056Y-71826944D01*
X179189199Y-71583823D01*
X178868339Y-71520000D01*
X178651661Y-71520000D01*
X178330801Y-71583823D01*
X177966944Y-71826944D01*
X177723823Y-72190801D01*
X177638450Y-72620000D01*
X177341550Y-72620000D01*
X177256177Y-72190801D01*
X177013056Y-71826944D01*
X176649199Y-71583823D01*
X176620000Y-71578015D01*
X176620000Y-71459392D01*
X176627836Y-71419999D01*
X176620000Y-71380606D01*
X176596791Y-71263928D01*
X176508384Y-71131616D01*
X176474987Y-71109301D01*
X175710702Y-70345018D01*
X175688384Y-70311616D01*
X175556072Y-70223209D01*
X175439394Y-70200000D01*
X175400000Y-70192164D01*
X175360606Y-70200000D01*
X143539394Y-70200000D01*
X143500000Y-70192164D01*
X143460606Y-70200000D01*
X143343928Y-70223209D01*
X143211616Y-70311616D01*
X143189299Y-70345016D01*
X142534316Y-71000000D01*
X142260761Y-71000000D01*
X142003482Y-71106568D01*
X141910050Y-71200000D01*
X128765685Y-71200000D01*
X125826446Y-68260761D01*
X137300000Y-68260761D01*
X137300000Y-68539239D01*
X137406568Y-68796518D01*
X137603482Y-68993432D01*
X137860761Y-69100000D01*
X138134316Y-69100000D01*
X138689299Y-69654984D01*
X138711616Y-69688384D01*
X138843928Y-69776791D01*
X139000000Y-69807836D01*
X139039394Y-69800000D01*
X177914316Y-69800000D01*
X180280363Y-72166047D01*
X180263823Y-72190801D01*
X180178450Y-72620000D01*
X180263823Y-73049199D01*
X180280362Y-73073952D01*
X178454316Y-74900000D01*
X178089950Y-74900000D01*
X177896518Y-74706568D01*
X177639239Y-74600000D01*
X177360761Y-74600000D01*
X177103482Y-74706568D01*
X176906568Y-74903482D01*
X176800000Y-75160761D01*
X176800000Y-75439239D01*
X176906568Y-75696518D01*
X177103482Y-75893432D01*
X177360761Y-76000000D01*
X177639239Y-76000000D01*
X177896518Y-75893432D01*
X178089950Y-75700000D01*
X178580606Y-75700000D01*
X178620000Y-75707836D01*
X178659394Y-75700000D01*
X178776072Y-75676791D01*
X178908384Y-75588384D01*
X178930703Y-75554981D01*
X180846048Y-73639638D01*
X180870801Y-73656177D01*
X181191661Y-73720000D01*
X181408339Y-73720000D01*
X181729199Y-73656177D01*
X182093056Y-73413056D01*
X182336177Y-73049199D01*
X182421550Y-72620000D01*
X182718450Y-72620000D01*
X182803823Y-73049199D01*
X183046944Y-73413056D01*
X183410801Y-73656177D01*
X183731661Y-73720000D01*
X183948339Y-73720000D01*
X184269199Y-73656177D01*
X184633056Y-73413056D01*
X184876177Y-73049199D01*
X184961550Y-72620000D01*
X185258450Y-72620000D01*
X185343823Y-73049199D01*
X185586944Y-73413056D01*
X185950801Y-73656177D01*
X186271661Y-73720000D01*
X186488339Y-73720000D01*
X186809199Y-73656177D01*
X187173056Y-73413056D01*
X187416177Y-73049199D01*
X187501550Y-72620000D01*
X187798450Y-72620000D01*
X187883823Y-73049199D01*
X188126944Y-73413056D01*
X188490801Y-73656177D01*
X188811661Y-73720000D01*
X189028339Y-73720000D01*
X189349199Y-73656177D01*
X189713056Y-73413056D01*
X189956177Y-73049199D01*
X190041550Y-72620000D01*
X190338450Y-72620000D01*
X190423823Y-73049199D01*
X190666944Y-73413056D01*
X191030801Y-73656177D01*
X191351661Y-73720000D01*
X191568339Y-73720000D01*
X191889199Y-73656177D01*
X192253056Y-73413056D01*
X192496177Y-73049199D01*
X192581550Y-72620000D01*
X192878450Y-72620000D01*
X192963823Y-73049199D01*
X193206944Y-73413056D01*
X193570801Y-73656177D01*
X193891661Y-73720000D01*
X194108339Y-73720000D01*
X194429199Y-73656177D01*
X194793056Y-73413056D01*
X195036177Y-73049199D01*
X195121550Y-72620000D01*
X195036177Y-72190801D01*
X194793056Y-71826944D01*
X194429199Y-71583823D01*
X194108339Y-71520000D01*
X193891661Y-71520000D01*
X193570801Y-71583823D01*
X193206944Y-71826944D01*
X192963823Y-72190801D01*
X192878450Y-72620000D01*
X192581550Y-72620000D01*
X192496177Y-72190801D01*
X192253056Y-71826944D01*
X191889199Y-71583823D01*
X191568339Y-71520000D01*
X191351661Y-71520000D01*
X191030801Y-71583823D01*
X190666944Y-71826944D01*
X190423823Y-72190801D01*
X190338450Y-72620000D01*
X190041550Y-72620000D01*
X189956177Y-72190801D01*
X189713056Y-71826944D01*
X189349199Y-71583823D01*
X189028339Y-71520000D01*
X188811661Y-71520000D01*
X188490801Y-71583823D01*
X188126944Y-71826944D01*
X187883823Y-72190801D01*
X187798450Y-72620000D01*
X187501550Y-72620000D01*
X187416177Y-72190801D01*
X187173056Y-71826944D01*
X186809199Y-71583823D01*
X186488339Y-71520000D01*
X186271661Y-71520000D01*
X185950801Y-71583823D01*
X185586944Y-71826944D01*
X185343823Y-72190801D01*
X185258450Y-72620000D01*
X184961550Y-72620000D01*
X184876177Y-72190801D01*
X184633056Y-71826944D01*
X184269199Y-71583823D01*
X183948339Y-71520000D01*
X183731661Y-71520000D01*
X183410801Y-71583823D01*
X183046944Y-71826944D01*
X182803823Y-72190801D01*
X182718450Y-72620000D01*
X182421550Y-72620000D01*
X182336177Y-72190801D01*
X182093056Y-71826944D01*
X181729199Y-71583823D01*
X181408339Y-71520000D01*
X181191661Y-71520000D01*
X180870801Y-71583823D01*
X180846047Y-71600363D01*
X178390703Y-69145019D01*
X178368384Y-69111616D01*
X178236072Y-69023209D01*
X178119394Y-69000000D01*
X178080000Y-68992164D01*
X178040606Y-69000000D01*
X139165685Y-69000000D01*
X138700000Y-68534316D01*
X138700000Y-68260761D01*
X138593432Y-68003482D01*
X138396518Y-67806568D01*
X138139239Y-67700000D01*
X137860761Y-67700000D01*
X137603482Y-67806568D01*
X137406568Y-68003482D01*
X137300000Y-68260761D01*
X125826446Y-68260761D01*
X123310703Y-65745019D01*
X123288384Y-65711616D01*
X123156072Y-65623209D01*
X123039394Y-65600000D01*
X123000000Y-65592164D01*
X122960606Y-65600000D01*
X119033411Y-65600000D01*
X118993432Y-65503482D01*
X118796518Y-65306568D01*
X118539239Y-65200000D01*
X118260761Y-65200000D01*
X118003482Y-65306568D01*
X117806568Y-65503482D01*
X117700000Y-65760761D01*
X117700000Y-66039239D01*
X117806568Y-66296518D01*
X118003482Y-66493432D01*
X118260761Y-66600000D01*
X118539239Y-66600000D01*
X118796518Y-66493432D01*
X118889950Y-66400000D01*
X122834316Y-66400000D01*
X128289299Y-71854984D01*
X128311616Y-71888384D01*
X128443928Y-71976791D01*
X128544474Y-71996791D01*
X128600000Y-72007836D01*
X128639394Y-72000000D01*
X141766589Y-72000000D01*
X141806568Y-72096518D01*
X142003482Y-72293432D01*
X142140050Y-72350000D01*
X142003482Y-72406568D01*
X141806568Y-72603482D01*
X141700000Y-72860761D01*
X141700000Y-73139239D01*
X141806568Y-73396518D01*
X141810020Y-73399970D01*
X133248024Y-73399970D01*
X133208631Y-73392134D01*
X133169238Y-73399970D01*
X133052560Y-73423179D01*
X132920248Y-73511586D01*
X132897933Y-73544983D01*
X129582930Y-76859988D01*
X125839406Y-76859988D01*
X125800012Y-76852152D01*
X125760618Y-76859988D01*
X125643940Y-76883197D01*
X125511628Y-76971604D01*
X125489311Y-77005004D01*
X125145019Y-77349297D01*
X125145013Y-77349301D01*
X124753952Y-77740363D01*
X124729199Y-77723823D01*
X124408339Y-77660000D01*
X124191661Y-77660000D01*
X123870801Y-77723823D01*
X123506944Y-77966944D01*
X123263823Y-78330801D01*
X123178450Y-78760000D01*
X123263823Y-79189199D01*
X123444767Y-79460001D01*
X122979392Y-79460001D01*
X122939998Y-79452165D01*
X122783927Y-79483210D01*
X122651615Y-79571617D01*
X122629298Y-79605017D01*
X118965019Y-83269297D01*
X118931616Y-83291616D01*
X118843690Y-83423209D01*
X118843209Y-83423929D01*
X118812164Y-83580000D01*
X118820000Y-83619394D01*
X118820001Y-92829232D01*
X118820000Y-92829237D01*
X118820000Y-92958015D01*
X118790801Y-92963823D01*
X118426944Y-93206944D01*
X118183823Y-93570801D01*
X118098450Y-94000000D01*
X118183823Y-94429199D01*
X118426944Y-94793056D01*
X118790801Y-95036177D01*
X119111661Y-95100000D01*
X119328339Y-95100000D01*
X119635390Y-95038924D01*
X115835017Y-98839299D01*
X115835011Y-98839303D01*
X115729999Y-98944315D01*
X115688707Y-98916724D01*
X115353261Y-98850000D01*
X115126739Y-98850000D01*
X114791293Y-98916724D01*
X114410897Y-99170897D01*
X114156724Y-99551293D01*
X114067471Y-100000000D01*
X114156724Y-100448707D01*
X114410897Y-100829103D01*
X114791293Y-101083276D01*
X115126739Y-101150000D01*
X115353261Y-101150000D01*
X115688707Y-101083276D01*
X116069103Y-100829103D01*
X116323276Y-100448707D01*
X116412529Y-100000000D01*
X116323276Y-99551293D01*
X116295685Y-99510001D01*
X116400697Y-99404989D01*
X116400701Y-99404983D01*
X120205752Y-95599934D01*
X121614380Y-95599934D01*
X118270000Y-98944315D01*
X118228707Y-98916724D01*
X117893261Y-98850000D01*
X117666739Y-98850000D01*
X117331293Y-98916724D01*
X116950897Y-99170897D01*
X116696724Y-99551293D01*
X116607471Y-100000000D01*
X116696724Y-100448707D01*
X116950897Y-100829103D01*
X117331293Y-101083276D01*
X117666739Y-101150000D01*
X117893261Y-101150000D01*
X118228707Y-101083276D01*
X118609103Y-100829103D01*
X118863276Y-100448707D01*
X118952529Y-100000000D01*
X118863276Y-99551293D01*
X118835685Y-99510000D01*
X122345741Y-95999945D01*
X123754369Y-95999945D01*
X120810000Y-98944315D01*
X120768707Y-98916724D01*
X120433261Y-98850000D01*
X120206739Y-98850000D01*
X119871293Y-98916724D01*
X119490897Y-99170897D01*
X119236724Y-99551293D01*
X119147471Y-100000000D01*
X119236724Y-100448707D01*
X119490897Y-100829103D01*
X119871293Y-101083276D01*
X120206739Y-101150000D01*
X120433261Y-101150000D01*
X120768707Y-101083276D01*
X121149103Y-100829103D01*
X121403276Y-100448707D01*
X121492529Y-100000000D01*
X121403276Y-99551293D01*
X121375685Y-99510000D01*
X124485730Y-96399956D01*
X125894358Y-96399956D01*
X123455017Y-98839299D01*
X123455011Y-98839303D01*
X123349999Y-98944315D01*
X123308707Y-98916724D01*
X122973261Y-98850000D01*
X122746739Y-98850000D01*
X122411293Y-98916724D01*
X122030897Y-99170897D01*
X121776724Y-99551293D01*
X121687471Y-100000000D01*
X121776724Y-100448707D01*
X122030897Y-100829103D01*
X122411293Y-101083276D01*
X122746739Y-101150000D01*
X122973261Y-101150000D01*
X123308707Y-101083276D01*
X123689103Y-100829103D01*
X123943276Y-100448707D01*
X124032529Y-100000000D01*
X123943276Y-99551293D01*
X123915685Y-99510001D01*
X124020697Y-99404989D01*
X124020701Y-99404983D01*
X126625719Y-96799967D01*
X128034347Y-96799967D01*
X125995017Y-98839299D01*
X125995011Y-98839303D01*
X125889999Y-98944315D01*
X125848707Y-98916724D01*
X125513261Y-98850000D01*
X125286739Y-98850000D01*
X124951293Y-98916724D01*
X124570897Y-99170897D01*
X124316724Y-99551293D01*
X124227471Y-100000000D01*
X124316724Y-100448707D01*
X124570897Y-100829103D01*
X124951293Y-101083276D01*
X125286739Y-101150000D01*
X125513261Y-101150000D01*
X125848707Y-101083276D01*
X126229103Y-100829103D01*
X126483276Y-100448707D01*
X126572529Y-100000000D01*
X126483276Y-99551293D01*
X126455685Y-99510001D01*
X126560697Y-99404989D01*
X126560701Y-99404983D01*
X128765708Y-97199978D01*
X130174336Y-97199978D01*
X128535017Y-98839299D01*
X128535011Y-98839303D01*
X128429999Y-98944315D01*
X128388707Y-98916724D01*
X128053261Y-98850000D01*
X127826739Y-98850000D01*
X127491293Y-98916724D01*
X127110897Y-99170897D01*
X126856724Y-99551293D01*
X126767471Y-100000000D01*
X126856724Y-100448707D01*
X127110897Y-100829103D01*
X127491293Y-101083276D01*
X127826739Y-101150000D01*
X128053261Y-101150000D01*
X128388707Y-101083276D01*
X128769103Y-100829103D01*
X129023276Y-100448707D01*
X129112529Y-100000000D01*
X129023276Y-99551293D01*
X128995685Y-99510001D01*
X129100697Y-99404989D01*
X129100701Y-99404983D01*
X130905697Y-97599989D01*
X132314326Y-97599989D01*
X130970000Y-98944315D01*
X130928707Y-98916724D01*
X130593261Y-98850000D01*
X130366739Y-98850000D01*
X130031293Y-98916724D01*
X129650897Y-99170897D01*
X129396724Y-99551293D01*
X129307471Y-100000000D01*
X129396724Y-100448707D01*
X129650897Y-100829103D01*
X130031293Y-101083276D01*
X130366739Y-101150000D01*
X130593261Y-101150000D01*
X130928707Y-101083276D01*
X131309103Y-100829103D01*
X131563276Y-100448707D01*
X131652529Y-100000000D01*
X131847471Y-100000000D01*
X131936724Y-100448707D01*
X132190897Y-100829103D01*
X132571293Y-101083276D01*
X132906739Y-101150000D01*
X133133261Y-101150000D01*
X133468707Y-101083276D01*
X133849103Y-100829103D01*
X134103276Y-100448707D01*
X134192529Y-100000000D01*
X134387471Y-100000000D01*
X134476724Y-100448707D01*
X134730897Y-100829103D01*
X135111293Y-101083276D01*
X135446739Y-101150000D01*
X135673261Y-101150000D01*
X136008707Y-101083276D01*
X136389103Y-100829103D01*
X136643276Y-100448707D01*
X136732529Y-100000000D01*
X136927471Y-100000000D01*
X137016724Y-100448707D01*
X137270897Y-100829103D01*
X137651293Y-101083276D01*
X137986739Y-101150000D01*
X138213261Y-101150000D01*
X138548707Y-101083276D01*
X138929103Y-100829103D01*
X139183276Y-100448707D01*
X139241896Y-100154002D01*
X139342143Y-100154002D01*
X139232085Y-100378911D01*
X139484259Y-100888854D01*
X139912384Y-101263477D01*
X140261090Y-101407903D01*
X140486000Y-101296889D01*
X140486000Y-100154000D01*
X140466000Y-100154000D01*
X140466000Y-99846000D01*
X140486000Y-99846000D01*
X140486000Y-98703111D01*
X140794000Y-98703111D01*
X140794000Y-99846000D01*
X140814000Y-99846000D01*
X140814000Y-100154000D01*
X140794000Y-100154000D01*
X140794000Y-101296889D01*
X141018910Y-101407903D01*
X141367616Y-101263477D01*
X141795741Y-100888854D01*
X142047915Y-100378911D01*
X141937857Y-100154002D01*
X142038104Y-100154002D01*
X142096724Y-100448707D01*
X142350897Y-100829103D01*
X142731293Y-101083276D01*
X143066739Y-101150000D01*
X143293261Y-101150000D01*
X143628707Y-101083276D01*
X144009103Y-100829103D01*
X144263276Y-100448707D01*
X144352529Y-100000000D01*
X144275311Y-99611796D01*
X144787107Y-99100000D01*
X144997002Y-99100000D01*
X144890897Y-99170897D01*
X144636724Y-99551293D01*
X144547471Y-100000000D01*
X144636724Y-100448707D01*
X144890897Y-100829103D01*
X145271293Y-101083276D01*
X145606739Y-101150000D01*
X145833261Y-101150000D01*
X146168707Y-101083276D01*
X146549103Y-100829103D01*
X146803276Y-100448707D01*
X146892529Y-100000000D01*
X146803276Y-99551293D01*
X146549103Y-99170897D01*
X146442998Y-99100000D01*
X147537002Y-99100000D01*
X147430897Y-99170897D01*
X147176724Y-99551293D01*
X147087471Y-100000000D01*
X147176724Y-100448707D01*
X147430897Y-100829103D01*
X147811293Y-101083276D01*
X148146739Y-101150000D01*
X148373261Y-101150000D01*
X148708707Y-101083276D01*
X149089103Y-100829103D01*
X149343276Y-100448707D01*
X149432529Y-100000000D01*
X149627471Y-100000000D01*
X149716724Y-100448707D01*
X149970897Y-100829103D01*
X150351293Y-101083276D01*
X150686739Y-101150000D01*
X150913261Y-101150000D01*
X151248707Y-101083276D01*
X151629103Y-100829103D01*
X151883276Y-100448707D01*
X151972529Y-100000000D01*
X152167471Y-100000000D01*
X152256724Y-100448707D01*
X152510897Y-100829103D01*
X152891293Y-101083276D01*
X153226739Y-101150000D01*
X153453261Y-101150000D01*
X153788707Y-101083276D01*
X154169103Y-100829103D01*
X154423276Y-100448707D01*
X154512529Y-100000000D01*
X154707471Y-100000000D01*
X154796724Y-100448707D01*
X155050897Y-100829103D01*
X155431293Y-101083276D01*
X155766739Y-101150000D01*
X155993261Y-101150000D01*
X156328707Y-101083276D01*
X156709103Y-100829103D01*
X156963276Y-100448707D01*
X157052529Y-100000000D01*
X156963276Y-99551293D01*
X156709103Y-99170897D01*
X156328707Y-98916724D01*
X155993261Y-98850000D01*
X155766739Y-98850000D01*
X155431293Y-98916724D01*
X155050897Y-99170897D01*
X154796724Y-99551293D01*
X154707471Y-100000000D01*
X154512529Y-100000000D01*
X154423276Y-99551293D01*
X154169103Y-99170897D01*
X153788707Y-98916724D01*
X153453261Y-98850000D01*
X153226739Y-98850000D01*
X152891293Y-98916724D01*
X152510897Y-99170897D01*
X152256724Y-99551293D01*
X152167471Y-100000000D01*
X151972529Y-100000000D01*
X151883276Y-99551293D01*
X151629103Y-99170897D01*
X151248707Y-98916724D01*
X150913261Y-98850000D01*
X150686739Y-98850000D01*
X150351293Y-98916724D01*
X149970897Y-99170897D01*
X149716724Y-99551293D01*
X149627471Y-100000000D01*
X149432529Y-100000000D01*
X149343276Y-99551293D01*
X149089103Y-99170897D01*
X148708707Y-98916724D01*
X148610013Y-98897093D01*
X149807107Y-97700000D01*
X149939239Y-97700000D01*
X150196518Y-97593432D01*
X150393432Y-97396518D01*
X150500000Y-97139239D01*
X150500000Y-96860761D01*
X150393432Y-96603482D01*
X150196518Y-96406568D01*
X149939239Y-96300000D01*
X149660761Y-96300000D01*
X149403482Y-96406568D01*
X149206568Y-96603482D01*
X149100000Y-96860761D01*
X149100000Y-96992893D01*
X147992894Y-98100000D01*
X144629241Y-98100000D01*
X144580000Y-98090205D01*
X144530758Y-98100000D01*
X144530757Y-98100000D01*
X144384910Y-98129011D01*
X144219520Y-98239520D01*
X144191626Y-98281267D01*
X143568204Y-98904689D01*
X143293261Y-98850000D01*
X143066739Y-98850000D01*
X142731293Y-98916724D01*
X142350897Y-99170897D01*
X142096724Y-99551293D01*
X142038104Y-99845998D01*
X141937857Y-99845998D01*
X142047915Y-99621089D01*
X141795741Y-99111146D01*
X141367616Y-98736523D01*
X141018910Y-98592097D01*
X140794000Y-98703111D01*
X140486000Y-98703111D01*
X140261090Y-98592097D01*
X139912384Y-98736523D01*
X139484259Y-99111146D01*
X139232085Y-99621089D01*
X139342143Y-99845998D01*
X139241896Y-99845998D01*
X139183276Y-99551293D01*
X138929103Y-99170897D01*
X138548707Y-98916724D01*
X138213261Y-98850000D01*
X137986739Y-98850000D01*
X137651293Y-98916724D01*
X137270897Y-99170897D01*
X137016724Y-99551293D01*
X136927471Y-100000000D01*
X136732529Y-100000000D01*
X136643276Y-99551293D01*
X136389103Y-99170897D01*
X136008707Y-98916724D01*
X135673261Y-98850000D01*
X135446739Y-98850000D01*
X135111293Y-98916724D01*
X134730897Y-99170897D01*
X134476724Y-99551293D01*
X134387471Y-100000000D01*
X134192529Y-100000000D01*
X134103276Y-99551293D01*
X133849103Y-99170897D01*
X133468707Y-98916724D01*
X133133261Y-98850000D01*
X132906739Y-98850000D01*
X132571293Y-98916724D01*
X132190897Y-99170897D01*
X131936724Y-99551293D01*
X131847471Y-100000000D01*
X131652529Y-100000000D01*
X131563276Y-99551293D01*
X131535685Y-99510000D01*
X133045685Y-98000000D01*
X146460606Y-98000000D01*
X146500000Y-98007836D01*
X146539394Y-98000000D01*
X146656072Y-97976791D01*
X146788384Y-97888384D01*
X146810703Y-97854981D01*
X149569995Y-95095690D01*
X149591661Y-95100000D01*
X149808339Y-95100000D01*
X150129199Y-95036177D01*
X150493056Y-94793056D01*
X150736177Y-94429199D01*
X150821550Y-94000000D01*
X150736177Y-93570801D01*
X150493056Y-93206944D01*
X150129199Y-92963823D01*
X150100000Y-92958015D01*
X150100000Y-87342086D01*
X152842088Y-84600000D01*
X156300000Y-84600000D01*
X156300000Y-84739239D01*
X156406568Y-84996518D01*
X156560050Y-85150000D01*
X156406568Y-85303482D01*
X156300000Y-85560761D01*
X156300000Y-85839239D01*
X156406568Y-86096518D01*
X156510050Y-86200000D01*
X156406568Y-86303482D01*
X156300000Y-86560761D01*
X156300000Y-86839239D01*
X156406568Y-87096518D01*
X156603482Y-87293432D01*
X156860761Y-87400000D01*
X157139239Y-87400000D01*
X157396518Y-87293432D01*
X157593432Y-87096518D01*
X157700000Y-86839239D01*
X157700000Y-86565684D01*
X158765685Y-85500000D01*
X189934315Y-85500000D01*
X186034316Y-89400000D01*
X163239394Y-89400000D01*
X163200000Y-89392164D01*
X163160606Y-89400000D01*
X163043928Y-89423209D01*
X162911616Y-89511616D01*
X162889299Y-89545016D01*
X159015018Y-93419298D01*
X158981615Y-93441617D01*
X158895299Y-93570801D01*
X158893208Y-93573930D01*
X158862163Y-93730001D01*
X158869999Y-93769395D01*
X158870000Y-98917588D01*
X158868707Y-98916724D01*
X158533261Y-98850000D01*
X158306739Y-98850000D01*
X157971293Y-98916724D01*
X157590897Y-99170897D01*
X157336724Y-99551293D01*
X157247471Y-100000000D01*
X157336724Y-100448707D01*
X157590897Y-100829103D01*
X157971293Y-101083276D01*
X158306739Y-101150000D01*
X158533261Y-101150000D01*
X158868707Y-101083276D01*
X159249103Y-100829103D01*
X159503276Y-100448707D01*
X159592529Y-100000000D01*
X159787471Y-100000000D01*
X159876724Y-100448707D01*
X160130897Y-100829103D01*
X160511293Y-101083276D01*
X160846739Y-101150000D01*
X161073261Y-101150000D01*
X161408707Y-101083276D01*
X161789103Y-100829103D01*
X162043276Y-100448707D01*
X162132529Y-100000000D01*
X162043276Y-99551293D01*
X161789103Y-99170897D01*
X161408707Y-98916724D01*
X161073261Y-98850000D01*
X160846739Y-98850000D01*
X160511293Y-98916724D01*
X160130897Y-99170897D01*
X159876724Y-99551293D01*
X159787471Y-100000000D01*
X159592529Y-100000000D01*
X159503276Y-99551293D01*
X159475685Y-99510001D01*
X159524987Y-99460699D01*
X159558383Y-99438385D01*
X159646790Y-99306073D01*
X159669999Y-99189395D01*
X159669999Y-99189394D01*
X159677835Y-99150002D01*
X159669999Y-99110609D01*
X159669999Y-93895685D01*
X159907746Y-93657939D01*
X160006568Y-93896518D01*
X160203482Y-94093432D01*
X160460761Y-94200000D01*
X160500000Y-94200000D01*
X160500001Y-95460602D01*
X160492164Y-95500000D01*
X160523209Y-95656071D01*
X160523210Y-95656072D01*
X160611617Y-95788384D01*
X160645017Y-95810701D01*
X163100000Y-98265686D01*
X163100000Y-98907036D01*
X163051293Y-98916724D01*
X162670897Y-99170897D01*
X162416724Y-99551293D01*
X162327471Y-100000000D01*
X162416724Y-100448707D01*
X162670897Y-100829103D01*
X163051293Y-101083276D01*
X163386739Y-101150000D01*
X163613261Y-101150000D01*
X163948707Y-101083276D01*
X164329103Y-100829103D01*
X164583276Y-100448707D01*
X164672529Y-100000000D01*
X164583276Y-99551293D01*
X164329103Y-99170897D01*
X163948707Y-98916724D01*
X163900000Y-98907036D01*
X163900000Y-98425685D01*
X164984315Y-99510000D01*
X164956724Y-99551293D01*
X164867471Y-100000000D01*
X164956724Y-100448707D01*
X165210897Y-100829103D01*
X165591293Y-101083276D01*
X165926739Y-101150000D01*
X166153261Y-101150000D01*
X166488707Y-101083276D01*
X166869103Y-100829103D01*
X167123276Y-100448707D01*
X167212529Y-100000000D01*
X167123276Y-99551293D01*
X166921957Y-99249999D01*
X167264315Y-99249999D01*
X167524315Y-99510000D01*
X167496724Y-99551293D01*
X167407471Y-100000000D01*
X167496724Y-100448707D01*
X167750897Y-100829103D01*
X168131293Y-101083276D01*
X168466739Y-101150000D01*
X168693261Y-101150000D01*
X169028707Y-101083276D01*
X169409103Y-100829103D01*
X169663276Y-100448707D01*
X169752529Y-100000000D01*
X169663276Y-99551293D01*
X169409103Y-99170897D01*
X169028707Y-98916724D01*
X168693261Y-98850000D01*
X168466739Y-98850000D01*
X168131293Y-98916724D01*
X168090000Y-98944315D01*
X167995672Y-98849988D01*
X169404304Y-98849988D01*
X170064315Y-99510000D01*
X170036724Y-99551293D01*
X169947471Y-100000000D01*
X170036724Y-100448707D01*
X170290897Y-100829103D01*
X170671293Y-101083276D01*
X171006739Y-101150000D01*
X171233261Y-101150000D01*
X171568707Y-101083276D01*
X171949103Y-100829103D01*
X172203276Y-100448707D01*
X172292529Y-100000000D01*
X172487471Y-100000000D01*
X172576724Y-100448707D01*
X172830897Y-100829103D01*
X173211293Y-101083276D01*
X173546739Y-101150000D01*
X173773261Y-101150000D01*
X174108707Y-101083276D01*
X174489103Y-100829103D01*
X174743276Y-100448707D01*
X174832529Y-100000000D01*
X175027471Y-100000000D01*
X175116724Y-100448707D01*
X175370897Y-100829103D01*
X175751293Y-101083276D01*
X176086739Y-101150000D01*
X176313261Y-101150000D01*
X176648707Y-101083276D01*
X177029103Y-100829103D01*
X177283276Y-100448707D01*
X177372529Y-100000000D01*
X177567471Y-100000000D01*
X177656724Y-100448707D01*
X177910897Y-100829103D01*
X178291293Y-101083276D01*
X178626739Y-101150000D01*
X178853261Y-101150000D01*
X179188707Y-101083276D01*
X179569103Y-100829103D01*
X179823276Y-100448707D01*
X179912529Y-100000000D01*
X180107471Y-100000000D01*
X180196724Y-100448707D01*
X180450897Y-100829103D01*
X180831293Y-101083276D01*
X181166739Y-101150000D01*
X181393261Y-101150000D01*
X181728707Y-101083276D01*
X182109103Y-100829103D01*
X182363276Y-100448707D01*
X182452529Y-100000000D01*
X182647471Y-100000000D01*
X182736724Y-100448707D01*
X182990897Y-100829103D01*
X183371293Y-101083276D01*
X183706739Y-101150000D01*
X183933261Y-101150000D01*
X184268707Y-101083276D01*
X184649103Y-100829103D01*
X184903276Y-100448707D01*
X184992529Y-100000000D01*
X185187471Y-100000000D01*
X185276724Y-100448707D01*
X185530897Y-100829103D01*
X185911293Y-101083276D01*
X186246739Y-101150000D01*
X186473261Y-101150000D01*
X186808707Y-101083276D01*
X187189103Y-100829103D01*
X187443276Y-100448707D01*
X187532529Y-100000000D01*
X187727471Y-100000000D01*
X187816724Y-100448707D01*
X188070897Y-100829103D01*
X188451293Y-101083276D01*
X188786739Y-101150000D01*
X189013261Y-101150000D01*
X189348707Y-101083276D01*
X189729103Y-100829103D01*
X189983276Y-100448707D01*
X190072529Y-100000000D01*
X190267471Y-100000000D01*
X190356724Y-100448707D01*
X190610897Y-100829103D01*
X190991293Y-101083276D01*
X191326739Y-101150000D01*
X191553261Y-101150000D01*
X191888707Y-101083276D01*
X192269103Y-100829103D01*
X192523276Y-100448707D01*
X192612529Y-100000000D01*
X192523276Y-99551293D01*
X192269103Y-99170897D01*
X191888707Y-98916724D01*
X191553261Y-98850000D01*
X191326739Y-98850000D01*
X190991293Y-98916724D01*
X190610897Y-99170897D01*
X190356724Y-99551293D01*
X190267471Y-100000000D01*
X190072529Y-100000000D01*
X189983276Y-99551293D01*
X189729103Y-99170897D01*
X189348707Y-98916724D01*
X189013261Y-98850000D01*
X188786739Y-98850000D01*
X188451293Y-98916724D01*
X188070897Y-99170897D01*
X187816724Y-99551293D01*
X187727471Y-100000000D01*
X187532529Y-100000000D01*
X187443276Y-99551293D01*
X187189103Y-99170897D01*
X186808707Y-98916724D01*
X186473261Y-98850000D01*
X186246739Y-98850000D01*
X185911293Y-98916724D01*
X185530897Y-99170897D01*
X185276724Y-99551293D01*
X185187471Y-100000000D01*
X184992529Y-100000000D01*
X184903276Y-99551293D01*
X184649103Y-99170897D01*
X184268707Y-98916724D01*
X183933261Y-98850000D01*
X183706739Y-98850000D01*
X183371293Y-98916724D01*
X182990897Y-99170897D01*
X182736724Y-99551293D01*
X182647471Y-100000000D01*
X182452529Y-100000000D01*
X182363276Y-99551293D01*
X182109103Y-99170897D01*
X181728707Y-98916724D01*
X181393261Y-98850000D01*
X181166739Y-98850000D01*
X180831293Y-98916724D01*
X180450897Y-99170897D01*
X180196724Y-99551293D01*
X180107471Y-100000000D01*
X179912529Y-100000000D01*
X179823276Y-99551293D01*
X179569103Y-99170897D01*
X179188707Y-98916724D01*
X178853261Y-98850000D01*
X178626739Y-98850000D01*
X178291293Y-98916724D01*
X177910897Y-99170897D01*
X177656724Y-99551293D01*
X177567471Y-100000000D01*
X177372529Y-100000000D01*
X177283276Y-99551293D01*
X177029103Y-99170897D01*
X176648707Y-98916724D01*
X176313261Y-98850000D01*
X176086739Y-98850000D01*
X175751293Y-98916724D01*
X175370897Y-99170897D01*
X175116724Y-99551293D01*
X175027471Y-100000000D01*
X174832529Y-100000000D01*
X174743276Y-99551293D01*
X174489103Y-99170897D01*
X174108707Y-98916724D01*
X173773261Y-98850000D01*
X173546739Y-98850000D01*
X173211293Y-98916724D01*
X172830897Y-99170897D01*
X172576724Y-99551293D01*
X172487471Y-100000000D01*
X172292529Y-100000000D01*
X172203276Y-99551293D01*
X171949103Y-99170897D01*
X171568707Y-98916724D01*
X171233261Y-98850000D01*
X171006739Y-98850000D01*
X170671293Y-98916724D01*
X170630000Y-98944315D01*
X169880691Y-98195007D01*
X169858372Y-98161604D01*
X169726060Y-98073197D01*
X169609382Y-98049988D01*
X169569988Y-98042152D01*
X169530594Y-98049988D01*
X165787074Y-98049988D01*
X162600000Y-94862916D01*
X162600000Y-93843071D01*
X162726944Y-94033056D01*
X163090801Y-94276177D01*
X163411661Y-94340000D01*
X163628339Y-94340000D01*
X163949199Y-94276177D01*
X164313056Y-94033056D01*
X164556177Y-93669199D01*
X164641550Y-93240000D01*
X164556177Y-92810801D01*
X164313056Y-92446944D01*
X163949199Y-92203823D01*
X163628339Y-92140000D01*
X163425686Y-92140000D01*
X163565686Y-92000000D01*
X165366580Y-92000000D01*
X165406568Y-92096539D01*
X165560695Y-92250666D01*
X165266944Y-92446944D01*
X165023823Y-92810801D01*
X164938450Y-93240000D01*
X165023823Y-93669199D01*
X165266944Y-94033056D01*
X165630801Y-94276177D01*
X165951661Y-94340000D01*
X166168339Y-94340000D01*
X166489199Y-94276177D01*
X166853056Y-94033056D01*
X167096177Y-93669199D01*
X167181550Y-93240000D01*
X167096177Y-92810801D01*
X166853056Y-92446944D01*
X166489199Y-92203823D01*
X166486654Y-92203317D01*
X166593432Y-92096539D01*
X166700000Y-91839260D01*
X166700000Y-91560782D01*
X166633407Y-91400011D01*
X167055859Y-91400011D01*
X167503475Y-91847627D01*
X167606568Y-92096518D01*
X167803482Y-92293432D01*
X167947446Y-92353064D01*
X167806944Y-92446944D01*
X167563823Y-92810801D01*
X167478450Y-93240000D01*
X167563823Y-93669199D01*
X167806944Y-94033056D01*
X168170801Y-94276177D01*
X168491661Y-94340000D01*
X168708339Y-94340000D01*
X169029199Y-94276177D01*
X169393056Y-94033056D01*
X169636177Y-93669199D01*
X169721550Y-93240000D01*
X169636177Y-92810801D01*
X169393056Y-92446944D01*
X169029199Y-92203823D01*
X168743046Y-92146904D01*
X168793432Y-92096518D01*
X168900000Y-91839239D01*
X168900000Y-91560761D01*
X168793432Y-91303482D01*
X168596518Y-91106568D01*
X168339239Y-91000000D01*
X169834316Y-91000000D01*
X170400000Y-91565685D01*
X170400000Y-91839239D01*
X170506568Y-92096518D01*
X170652697Y-92242647D01*
X170346944Y-92446944D01*
X170103823Y-92810801D01*
X170018450Y-93240000D01*
X170103823Y-93669199D01*
X170346944Y-94033056D01*
X170710801Y-94276177D01*
X171031661Y-94340000D01*
X171248339Y-94340000D01*
X171569199Y-94276177D01*
X171933056Y-94033056D01*
X172176177Y-93669199D01*
X172261550Y-93240000D01*
X172558450Y-93240000D01*
X172643823Y-93669199D01*
X172886944Y-94033056D01*
X173250801Y-94276177D01*
X173571661Y-94340000D01*
X173788339Y-94340000D01*
X174109199Y-94276177D01*
X174473056Y-94033056D01*
X174716177Y-93669199D01*
X174801550Y-93240000D01*
X175098450Y-93240000D01*
X175183823Y-93669199D01*
X175426944Y-94033056D01*
X175790801Y-94276177D01*
X176111661Y-94340000D01*
X176328339Y-94340000D01*
X176649199Y-94276177D01*
X177013056Y-94033056D01*
X177256177Y-93669199D01*
X177341550Y-93240000D01*
X177638450Y-93240000D01*
X177723823Y-93669199D01*
X177966944Y-94033056D01*
X178330801Y-94276177D01*
X178651661Y-94340000D01*
X178868339Y-94340000D01*
X179189199Y-94276177D01*
X179553056Y-94033056D01*
X179796177Y-93669199D01*
X179881550Y-93240000D01*
X179796177Y-92810801D01*
X179553056Y-92446944D01*
X179189199Y-92203823D01*
X178868339Y-92140000D01*
X178651661Y-92140000D01*
X178330801Y-92203823D01*
X177966944Y-92446944D01*
X177723823Y-92810801D01*
X177638450Y-93240000D01*
X177341550Y-93240000D01*
X177256177Y-92810801D01*
X177013056Y-92446944D01*
X176649199Y-92203823D01*
X176328339Y-92140000D01*
X176111661Y-92140000D01*
X175790801Y-92203823D01*
X175426944Y-92446944D01*
X175183823Y-92810801D01*
X175098450Y-93240000D01*
X174801550Y-93240000D01*
X174716177Y-92810801D01*
X174473056Y-92446944D01*
X174109199Y-92203823D01*
X173788339Y-92140000D01*
X173571661Y-92140000D01*
X173250801Y-92203823D01*
X172886944Y-92446944D01*
X172643823Y-92810801D01*
X172558450Y-93240000D01*
X172261550Y-93240000D01*
X172176177Y-92810801D01*
X171933056Y-92446944D01*
X171579347Y-92210603D01*
X171693432Y-92096518D01*
X171800000Y-91839239D01*
X171800000Y-91560761D01*
X171693432Y-91303482D01*
X171496518Y-91106568D01*
X171239239Y-91000000D01*
X170965685Y-91000000D01*
X170310703Y-90345019D01*
X170288384Y-90311616D01*
X170156072Y-90223209D01*
X170039394Y-90200000D01*
X186160606Y-90200000D01*
X186200000Y-90207836D01*
X186239394Y-90200000D01*
X186356072Y-90176791D01*
X186488384Y-90088384D01*
X186510703Y-90054981D01*
X194065686Y-82500000D01*
X194510050Y-82500000D01*
X194703482Y-82693432D01*
X194960761Y-82800000D01*
X195239239Y-82800000D01*
X195496518Y-82693432D01*
X195693432Y-82496518D01*
X195800000Y-82239239D01*
X195800000Y-81960761D01*
X195693432Y-81703482D01*
X195496518Y-81506568D01*
X195239239Y-81400000D01*
X194960761Y-81400000D01*
X194703482Y-81506568D01*
X194510050Y-81700000D01*
X194165685Y-81700000D01*
X196759808Y-79105877D01*
X197340000Y-79105877D01*
X197457054Y-79082593D01*
X197556288Y-79016288D01*
X197600000Y-78950867D01*
X197600001Y-92930571D01*
X197576177Y-92810801D01*
X197333056Y-92446944D01*
X196969199Y-92203823D01*
X196648339Y-92140000D01*
X196431661Y-92140000D01*
X196110801Y-92203823D01*
X195746944Y-92446944D01*
X195503823Y-92810801D01*
X195418450Y-93240000D01*
X195503823Y-93669199D01*
X195746944Y-94033056D01*
X196110801Y-94276177D01*
X196431661Y-94340000D01*
X196648339Y-94340000D01*
X196969199Y-94276177D01*
X197333056Y-94033056D01*
X197576177Y-93669199D01*
X197600001Y-93549429D01*
X197600001Y-99546392D01*
X197349103Y-99170897D01*
X196968707Y-98916724D01*
X196633261Y-98850000D01*
X196406739Y-98850000D01*
X196071293Y-98916724D01*
X196030000Y-98944315D01*
X195980701Y-98895017D01*
X195980699Y-98895014D01*
X193830703Y-96745019D01*
X193808384Y-96711616D01*
X193676072Y-96623209D01*
X193559394Y-96600000D01*
X193520000Y-96592164D01*
X193480606Y-96600000D01*
X178505684Y-96600000D01*
X180846048Y-94259638D01*
X180870801Y-94276177D01*
X181191661Y-94340000D01*
X181408339Y-94340000D01*
X181729199Y-94276177D01*
X182093056Y-94033056D01*
X182336177Y-93669199D01*
X182421550Y-93240000D01*
X182718450Y-93240000D01*
X182803823Y-93669199D01*
X183046944Y-94033056D01*
X183410801Y-94276177D01*
X183731661Y-94340000D01*
X183948339Y-94340000D01*
X184269199Y-94276177D01*
X184633056Y-94033056D01*
X184876177Y-93669199D01*
X184961550Y-93240000D01*
X185258450Y-93240000D01*
X185343823Y-93669199D01*
X185586944Y-94033056D01*
X185950801Y-94276177D01*
X186271661Y-94340000D01*
X186488339Y-94340000D01*
X186809199Y-94276177D01*
X187173056Y-94033056D01*
X187416177Y-93669199D01*
X187501550Y-93240000D01*
X187798450Y-93240000D01*
X187883823Y-93669199D01*
X188126944Y-94033056D01*
X188490801Y-94276177D01*
X188811661Y-94340000D01*
X189028339Y-94340000D01*
X189349199Y-94276177D01*
X189713056Y-94033056D01*
X189956177Y-93669199D01*
X190041550Y-93240000D01*
X190338450Y-93240000D01*
X190423823Y-93669199D01*
X190666944Y-94033056D01*
X191030801Y-94276177D01*
X191351661Y-94340000D01*
X191568339Y-94340000D01*
X191889199Y-94276177D01*
X192253056Y-94033056D01*
X192496177Y-93669199D01*
X192581550Y-93240000D01*
X192878450Y-93240000D01*
X192963823Y-93669199D01*
X193206944Y-94033056D01*
X193570801Y-94276177D01*
X193891661Y-94340000D01*
X194108339Y-94340000D01*
X194429199Y-94276177D01*
X194793056Y-94033056D01*
X195036177Y-93669199D01*
X195121550Y-93240000D01*
X195036177Y-92810801D01*
X194793056Y-92446944D01*
X194429199Y-92203823D01*
X194108339Y-92140000D01*
X193891661Y-92140000D01*
X193570801Y-92203823D01*
X193206944Y-92446944D01*
X192963823Y-92810801D01*
X192878450Y-93240000D01*
X192581550Y-93240000D01*
X192496177Y-92810801D01*
X192253056Y-92446944D01*
X191889199Y-92203823D01*
X191568339Y-92140000D01*
X191351661Y-92140000D01*
X191030801Y-92203823D01*
X190666944Y-92446944D01*
X190423823Y-92810801D01*
X190338450Y-93240000D01*
X190041550Y-93240000D01*
X189956177Y-92810801D01*
X189713056Y-92446944D01*
X189349199Y-92203823D01*
X189028339Y-92140000D01*
X188811661Y-92140000D01*
X188490801Y-92203823D01*
X188126944Y-92446944D01*
X187883823Y-92810801D01*
X187798450Y-93240000D01*
X187501550Y-93240000D01*
X187416177Y-92810801D01*
X187173056Y-92446944D01*
X186809199Y-92203823D01*
X186488339Y-92140000D01*
X186271661Y-92140000D01*
X185950801Y-92203823D01*
X185586944Y-92446944D01*
X185343823Y-92810801D01*
X185258450Y-93240000D01*
X184961550Y-93240000D01*
X184876177Y-92810801D01*
X184633056Y-92446944D01*
X184269199Y-92203823D01*
X183948339Y-92140000D01*
X183731661Y-92140000D01*
X183410801Y-92203823D01*
X183046944Y-92446944D01*
X182803823Y-92810801D01*
X182718450Y-93240000D01*
X182421550Y-93240000D01*
X182336177Y-92810801D01*
X182093056Y-92446944D01*
X181729199Y-92203823D01*
X181408339Y-92140000D01*
X181191661Y-92140000D01*
X180870801Y-92203823D01*
X180506944Y-92446944D01*
X180263823Y-92810801D01*
X180254283Y-92858763D01*
X180231930Y-92863209D01*
X180099618Y-92951616D01*
X180011211Y-93083928D01*
X179980166Y-93240000D01*
X180011211Y-93396072D01*
X180099618Y-93528384D01*
X180231930Y-93616791D01*
X180254283Y-93621237D01*
X180263823Y-93669199D01*
X180280362Y-93693952D01*
X177874316Y-96100000D01*
X172765685Y-96100000D01*
X172610702Y-95945018D01*
X172588384Y-95911616D01*
X172456072Y-95823209D01*
X172339394Y-95800000D01*
X172300000Y-95792164D01*
X172260606Y-95800000D01*
X171339392Y-95800000D01*
X171299999Y-95792164D01*
X171260607Y-95800000D01*
X171260606Y-95800000D01*
X171143928Y-95823209D01*
X171125308Y-95835651D01*
X171039239Y-95800000D01*
X170760761Y-95800000D01*
X170503482Y-95906568D01*
X170306568Y-96103482D01*
X170200000Y-96360761D01*
X170200000Y-96639239D01*
X170306568Y-96896518D01*
X170503482Y-97093432D01*
X170760761Y-97200000D01*
X171039239Y-97200000D01*
X171112584Y-97169620D01*
X171206568Y-97396518D01*
X171403482Y-97593432D01*
X171660761Y-97700000D01*
X171939239Y-97700000D01*
X172196518Y-97593432D01*
X172250071Y-97539879D01*
X172200000Y-97660761D01*
X172200000Y-97939239D01*
X172306568Y-98196518D01*
X172503482Y-98393432D01*
X172760761Y-98500000D01*
X173039239Y-98500000D01*
X173296518Y-98393432D01*
X173493432Y-98196518D01*
X173600000Y-97939239D01*
X173600000Y-97900000D01*
X191314316Y-97900000D01*
X192924315Y-99510000D01*
X192896724Y-99551293D01*
X192807471Y-100000000D01*
X192896724Y-100448707D01*
X193150897Y-100829103D01*
X193531293Y-101083276D01*
X193866739Y-101150000D01*
X194093261Y-101150000D01*
X194428707Y-101083276D01*
X194809103Y-100829103D01*
X195063276Y-100448707D01*
X195152529Y-100000000D01*
X195063276Y-99551293D01*
X194809103Y-99170897D01*
X194428707Y-98916724D01*
X194093261Y-98850000D01*
X193866739Y-98850000D01*
X193531293Y-98916724D01*
X193490000Y-98944315D01*
X191945684Y-97400000D01*
X193354316Y-97400000D01*
X195415014Y-99460699D01*
X195415017Y-99460701D01*
X195464315Y-99510000D01*
X195436724Y-99551293D01*
X195347471Y-100000000D01*
X195436724Y-100448707D01*
X195690897Y-100829103D01*
X196071293Y-101083276D01*
X196406739Y-101150000D01*
X196633261Y-101150000D01*
X196968707Y-101083276D01*
X197349103Y-100829103D01*
X197600001Y-100453608D01*
X197600001Y-101600000D01*
X98400000Y-101600000D01*
X98400000Y-99150000D01*
X98844123Y-99150000D01*
X98844123Y-100850000D01*
X98867407Y-100967054D01*
X98933712Y-101066288D01*
X99032946Y-101132593D01*
X99150000Y-101155877D01*
X100850000Y-101155877D01*
X100967054Y-101132593D01*
X101066288Y-101066288D01*
X101132593Y-100967054D01*
X101155877Y-100850000D01*
X101155877Y-100000000D01*
X101367471Y-100000000D01*
X101456724Y-100448707D01*
X101710897Y-100829103D01*
X102091293Y-101083276D01*
X102426739Y-101150000D01*
X102653261Y-101150000D01*
X102988707Y-101083276D01*
X103369103Y-100829103D01*
X103623276Y-100448707D01*
X103712529Y-100000000D01*
X103907471Y-100000000D01*
X103996724Y-100448707D01*
X104250897Y-100829103D01*
X104631293Y-101083276D01*
X104966739Y-101150000D01*
X105193261Y-101150000D01*
X105528707Y-101083276D01*
X105909103Y-100829103D01*
X106163276Y-100448707D01*
X106252529Y-100000000D01*
X106447471Y-100000000D01*
X106536724Y-100448707D01*
X106790897Y-100829103D01*
X107171293Y-101083276D01*
X107506739Y-101150000D01*
X107733261Y-101150000D01*
X108068707Y-101083276D01*
X108449103Y-100829103D01*
X108703276Y-100448707D01*
X108792529Y-100000000D01*
X108987471Y-100000000D01*
X109076724Y-100448707D01*
X109330897Y-100829103D01*
X109711293Y-101083276D01*
X110046739Y-101150000D01*
X110273261Y-101150000D01*
X110608707Y-101083276D01*
X110989103Y-100829103D01*
X111243276Y-100448707D01*
X111332529Y-100000000D01*
X111527471Y-100000000D01*
X111616724Y-100448707D01*
X111870897Y-100829103D01*
X112251293Y-101083276D01*
X112586739Y-101150000D01*
X112813261Y-101150000D01*
X113148707Y-101083276D01*
X113529103Y-100829103D01*
X113783276Y-100448707D01*
X113872529Y-100000000D01*
X113783276Y-99551293D01*
X113529103Y-99170897D01*
X113148707Y-98916724D01*
X112813261Y-98850000D01*
X112586739Y-98850000D01*
X112251293Y-98916724D01*
X111870897Y-99170897D01*
X111616724Y-99551293D01*
X111527471Y-100000000D01*
X111332529Y-100000000D01*
X111243276Y-99551293D01*
X110989103Y-99170897D01*
X110608707Y-98916724D01*
X110273261Y-98850000D01*
X110046739Y-98850000D01*
X109711293Y-98916724D01*
X109330897Y-99170897D01*
X109076724Y-99551293D01*
X108987471Y-100000000D01*
X108792529Y-100000000D01*
X108703276Y-99551293D01*
X108449103Y-99170897D01*
X108068707Y-98916724D01*
X107733261Y-98850000D01*
X107506739Y-98850000D01*
X107171293Y-98916724D01*
X106790897Y-99170897D01*
X106536724Y-99551293D01*
X106447471Y-100000000D01*
X106252529Y-100000000D01*
X106163276Y-99551293D01*
X105909103Y-99170897D01*
X105528707Y-98916724D01*
X105193261Y-98850000D01*
X104966739Y-98850000D01*
X104631293Y-98916724D01*
X104250897Y-99170897D01*
X103996724Y-99551293D01*
X103907471Y-100000000D01*
X103712529Y-100000000D01*
X103623276Y-99551293D01*
X103369103Y-99170897D01*
X102988707Y-98916724D01*
X102653261Y-98850000D01*
X102426739Y-98850000D01*
X102091293Y-98916724D01*
X101710897Y-99170897D01*
X101456724Y-99551293D01*
X101367471Y-100000000D01*
X101155877Y-100000000D01*
X101155877Y-99150000D01*
X101132593Y-99032946D01*
X101066288Y-98933712D01*
X100967054Y-98867407D01*
X100850000Y-98844123D01*
X99150000Y-98844123D01*
X99032946Y-98867407D01*
X98933712Y-98933712D01*
X98867407Y-99032946D01*
X98844123Y-99150000D01*
X98400000Y-99150000D01*
X98400000Y-94306000D01*
X100032000Y-94306000D01*
X100032000Y-94920939D01*
X100124563Y-95144405D01*
X100295596Y-95315438D01*
X100519062Y-95408000D01*
X101134000Y-95408000D01*
X101286000Y-95256000D01*
X101286000Y-94154000D01*
X101594000Y-94154000D01*
X101594000Y-95256000D01*
X101746000Y-95408000D01*
X102360938Y-95408000D01*
X102584404Y-95315438D01*
X102755437Y-95144405D01*
X102848000Y-94920939D01*
X102848000Y-94306000D01*
X102696000Y-94154000D01*
X101594000Y-94154000D01*
X101286000Y-94154000D01*
X100184000Y-94154000D01*
X100032000Y-94306000D01*
X98400000Y-94306000D01*
X98400000Y-94000000D01*
X102858450Y-94000000D01*
X102943823Y-94429199D01*
X103186944Y-94793056D01*
X103550801Y-95036177D01*
X103871661Y-95100000D01*
X104088339Y-95100000D01*
X104409199Y-95036177D01*
X104773056Y-94793056D01*
X105016177Y-94429199D01*
X105101550Y-94000000D01*
X105398450Y-94000000D01*
X105483823Y-94429199D01*
X105726944Y-94793056D01*
X106090801Y-95036177D01*
X106411661Y-95100000D01*
X106628339Y-95100000D01*
X106949199Y-95036177D01*
X107313056Y-94793056D01*
X107556177Y-94429199D01*
X107641550Y-94000000D01*
X107938450Y-94000000D01*
X108023823Y-94429199D01*
X108266944Y-94793056D01*
X108630801Y-95036177D01*
X108951661Y-95100000D01*
X109168339Y-95100000D01*
X109489199Y-95036177D01*
X109853056Y-94793056D01*
X110096177Y-94429199D01*
X110181550Y-94000000D01*
X110478450Y-94000000D01*
X110563823Y-94429199D01*
X110806944Y-94793056D01*
X111170801Y-95036177D01*
X111491661Y-95100000D01*
X111708339Y-95100000D01*
X112029199Y-95036177D01*
X112393056Y-94793056D01*
X112636177Y-94429199D01*
X112721550Y-94000000D01*
X112636177Y-93570801D01*
X112393056Y-93206944D01*
X112029199Y-92963823D01*
X111708339Y-92900000D01*
X111491661Y-92900000D01*
X111170801Y-92963823D01*
X110806944Y-93206944D01*
X110563823Y-93570801D01*
X110478450Y-94000000D01*
X110181550Y-94000000D01*
X110096177Y-93570801D01*
X109853056Y-93206944D01*
X109489199Y-92963823D01*
X109168339Y-92900000D01*
X108951661Y-92900000D01*
X108630801Y-92963823D01*
X108266944Y-93206944D01*
X108023823Y-93570801D01*
X107938450Y-94000000D01*
X107641550Y-94000000D01*
X107556177Y-93570801D01*
X107313056Y-93206944D01*
X106949199Y-92963823D01*
X106628339Y-92900000D01*
X106411661Y-92900000D01*
X106090801Y-92963823D01*
X105726944Y-93206944D01*
X105483823Y-93570801D01*
X105398450Y-94000000D01*
X105101550Y-94000000D01*
X105016177Y-93570801D01*
X104773056Y-93206944D01*
X104409199Y-92963823D01*
X104088339Y-92900000D01*
X103871661Y-92900000D01*
X103550801Y-92963823D01*
X103186944Y-93206944D01*
X102943823Y-93570801D01*
X102858450Y-94000000D01*
X98400000Y-94000000D01*
X98400000Y-93079061D01*
X100032000Y-93079061D01*
X100032000Y-93694000D01*
X100184000Y-93846000D01*
X101286000Y-93846000D01*
X101286000Y-92744000D01*
X101594000Y-92744000D01*
X101594000Y-93846000D01*
X102696000Y-93846000D01*
X102848000Y-93694000D01*
X102848000Y-93079061D01*
X102755437Y-92855595D01*
X102584404Y-92684562D01*
X102360938Y-92592000D01*
X101746000Y-92592000D01*
X101594000Y-92744000D01*
X101286000Y-92744000D01*
X101134000Y-92592000D01*
X100519062Y-92592000D01*
X100295596Y-92684562D01*
X100124563Y-92855595D01*
X100032000Y-93079061D01*
X98400000Y-93079061D01*
X98400000Y-78760000D01*
X100318450Y-78760000D01*
X100403823Y-79189199D01*
X100646944Y-79553056D01*
X101010801Y-79796177D01*
X101331661Y-79860000D01*
X101548339Y-79860000D01*
X101869199Y-79796177D01*
X102233056Y-79553056D01*
X102476177Y-79189199D01*
X102561550Y-78760000D01*
X102858450Y-78760000D01*
X102943823Y-79189199D01*
X103186944Y-79553056D01*
X103550801Y-79796177D01*
X103871661Y-79860000D01*
X104088339Y-79860000D01*
X104409199Y-79796177D01*
X104773056Y-79553056D01*
X105016177Y-79189199D01*
X105101550Y-78760000D01*
X105398450Y-78760000D01*
X105483823Y-79189199D01*
X105726944Y-79553056D01*
X106090801Y-79796177D01*
X106411661Y-79860000D01*
X106628339Y-79860000D01*
X106949199Y-79796177D01*
X107313056Y-79553056D01*
X107556177Y-79189199D01*
X107641550Y-78760000D01*
X107938450Y-78760000D01*
X108023823Y-79189199D01*
X108266944Y-79553056D01*
X108630801Y-79796177D01*
X108951661Y-79860000D01*
X109168339Y-79860000D01*
X109489199Y-79796177D01*
X109853056Y-79553056D01*
X110096177Y-79189199D01*
X110181550Y-78760000D01*
X110478450Y-78760000D01*
X110563823Y-79189199D01*
X110806944Y-79553056D01*
X111170801Y-79796177D01*
X111491661Y-79860000D01*
X111708339Y-79860000D01*
X112029199Y-79796177D01*
X112300001Y-79615233D01*
X112300000Y-90477319D01*
X112290205Y-90526560D01*
X112300000Y-90575801D01*
X112300000Y-90575802D01*
X112329011Y-90721649D01*
X112439520Y-90887040D01*
X112481271Y-90914937D01*
X114520462Y-92954129D01*
X114248339Y-92900000D01*
X114031661Y-92900000D01*
X113710801Y-92963823D01*
X113346944Y-93206944D01*
X113103823Y-93570801D01*
X113018450Y-94000000D01*
X113103823Y-94429199D01*
X113346944Y-94793056D01*
X113710801Y-95036177D01*
X114031661Y-95100000D01*
X114248339Y-95100000D01*
X114569199Y-95036177D01*
X114933056Y-94793056D01*
X115176177Y-94429199D01*
X115261550Y-94000000D01*
X115185871Y-93619538D01*
X115559758Y-93993425D01*
X115558450Y-94000000D01*
X115643823Y-94429199D01*
X115886944Y-94793056D01*
X116250801Y-95036177D01*
X116571661Y-95100000D01*
X116788339Y-95100000D01*
X117109199Y-95036177D01*
X117473056Y-94793056D01*
X117716177Y-94429199D01*
X117801550Y-94000000D01*
X117716177Y-93570801D01*
X117473056Y-93206944D01*
X117109199Y-92963823D01*
X116788339Y-92900000D01*
X116571661Y-92900000D01*
X116250801Y-92963823D01*
X116067109Y-93086562D01*
X113898518Y-90917972D01*
X114096497Y-90835967D01*
X114132464Y-90800000D01*
X117210050Y-90800000D01*
X117403482Y-90993432D01*
X117660761Y-91100000D01*
X117939239Y-91100000D01*
X118196518Y-90993432D01*
X118393432Y-90796518D01*
X118500000Y-90539239D01*
X118500000Y-90260761D01*
X118393432Y-90003482D01*
X118196518Y-89806568D01*
X117939239Y-89700000D01*
X118196518Y-89593432D01*
X118393432Y-89396518D01*
X118500000Y-89139239D01*
X118500000Y-88860761D01*
X118393432Y-88603482D01*
X118196518Y-88406568D01*
X118180661Y-88400000D01*
X118196518Y-88393432D01*
X118393432Y-88196518D01*
X118500000Y-87939239D01*
X118500000Y-87660761D01*
X118393432Y-87403482D01*
X118196518Y-87206568D01*
X117939239Y-87100000D01*
X117660761Y-87100000D01*
X117403482Y-87206568D01*
X117210050Y-87400000D01*
X114389950Y-87400000D01*
X114196518Y-87206568D01*
X113939239Y-87100000D01*
X113660761Y-87100000D01*
X113403482Y-87206568D01*
X113300000Y-87310050D01*
X113300000Y-79482799D01*
X113346944Y-79553056D01*
X113710801Y-79796177D01*
X114031661Y-79860000D01*
X114248339Y-79860000D01*
X114569199Y-79796177D01*
X114933056Y-79553056D01*
X115176177Y-79189199D01*
X115261550Y-78760000D01*
X115558450Y-78760000D01*
X115643823Y-79189199D01*
X115886944Y-79553056D01*
X116250801Y-79796177D01*
X116571661Y-79860000D01*
X116788339Y-79860000D01*
X117109199Y-79796177D01*
X117473056Y-79553056D01*
X117716177Y-79189199D01*
X117801550Y-78760000D01*
X118098450Y-78760000D01*
X118183823Y-79189199D01*
X118426944Y-79553056D01*
X118790801Y-79796177D01*
X119111661Y-79860000D01*
X119328339Y-79860000D01*
X119649199Y-79796177D01*
X120013056Y-79553056D01*
X120256177Y-79189199D01*
X120341550Y-78760000D01*
X120638450Y-78760000D01*
X120723823Y-79189199D01*
X120966944Y-79553056D01*
X121330801Y-79796177D01*
X121651661Y-79860000D01*
X121868339Y-79860000D01*
X122189199Y-79796177D01*
X122553056Y-79553056D01*
X122796177Y-79189199D01*
X122881550Y-78760000D01*
X122796177Y-78330801D01*
X122553056Y-77966944D01*
X122189199Y-77723823D01*
X121868339Y-77660000D01*
X121651661Y-77660000D01*
X121330801Y-77723823D01*
X120966944Y-77966944D01*
X120723823Y-78330801D01*
X120638450Y-78760000D01*
X120341550Y-78760000D01*
X120256177Y-78330801D01*
X120013056Y-77966944D01*
X119649199Y-77723823D01*
X119328339Y-77660000D01*
X119111661Y-77660000D01*
X118790801Y-77723823D01*
X118426944Y-77966944D01*
X118183823Y-78330801D01*
X118098450Y-78760000D01*
X117801550Y-78760000D01*
X117716177Y-78330801D01*
X117473056Y-77966944D01*
X117109199Y-77723823D01*
X116788339Y-77660000D01*
X116571661Y-77660000D01*
X116250801Y-77723823D01*
X115886944Y-77966944D01*
X115643823Y-78330801D01*
X115558450Y-78760000D01*
X115261550Y-78760000D01*
X115176177Y-78330801D01*
X114933056Y-77966944D01*
X114569199Y-77723823D01*
X114248339Y-77660000D01*
X114031661Y-77660000D01*
X113710801Y-77723823D01*
X113346944Y-77966944D01*
X113300000Y-78037201D01*
X113300000Y-76489950D01*
X113393432Y-76396518D01*
X113500000Y-76139239D01*
X113500000Y-75860761D01*
X113393432Y-75603482D01*
X113196518Y-75406568D01*
X112939239Y-75300000D01*
X112660761Y-75300000D01*
X112403482Y-75406568D01*
X112206568Y-75603482D01*
X112100000Y-75860761D01*
X112100000Y-76139239D01*
X112206568Y-76396518D01*
X112300000Y-76489950D01*
X112300000Y-76614927D01*
X112300001Y-76614932D01*
X112300001Y-77904767D01*
X112029199Y-77723823D01*
X111708339Y-77660000D01*
X111491661Y-77660000D01*
X111170801Y-77723823D01*
X110806944Y-77966944D01*
X110563823Y-78330801D01*
X110478450Y-78760000D01*
X110181550Y-78760000D01*
X110096177Y-78330801D01*
X109853056Y-77966944D01*
X109489199Y-77723823D01*
X109168339Y-77660000D01*
X108951661Y-77660000D01*
X108630801Y-77723823D01*
X108266944Y-77966944D01*
X108023823Y-78330801D01*
X107938450Y-78760000D01*
X107641550Y-78760000D01*
X107556177Y-78330801D01*
X107313056Y-77966944D01*
X106949199Y-77723823D01*
X106628339Y-77660000D01*
X106411661Y-77660000D01*
X106090801Y-77723823D01*
X105726944Y-77966944D01*
X105483823Y-78330801D01*
X105398450Y-78760000D01*
X105101550Y-78760000D01*
X105016177Y-78330801D01*
X104773056Y-77966944D01*
X104409199Y-77723823D01*
X104088339Y-77660000D01*
X103871661Y-77660000D01*
X103550801Y-77723823D01*
X103186944Y-77966944D01*
X102943823Y-78330801D01*
X102858450Y-78760000D01*
X102561550Y-78760000D01*
X102476177Y-78330801D01*
X102233056Y-77966944D01*
X101869199Y-77723823D01*
X101548339Y-77660000D01*
X101331661Y-77660000D01*
X101010801Y-77723823D01*
X100646944Y-77966944D01*
X100403823Y-78330801D01*
X100318450Y-78760000D01*
X98400000Y-78760000D01*
X98400000Y-65179626D01*
X107152080Y-57400000D01*
X195971504Y-57400000D01*
X196447922Y-57468228D01*
X196447922Y-57468228D01*
G37*
X196447922Y-57468228D02*
X196859835Y-57655514D01*
X197202626Y-57950883D01*
X197448739Y-58330589D01*
X197582352Y-58777359D01*
X197600000Y-59014841D01*
X197600000Y-64049133D01*
X197556288Y-63983712D01*
X197457054Y-63917407D01*
X197340000Y-63894123D01*
X195740000Y-63894123D01*
X195622946Y-63917407D01*
X195523712Y-63983712D01*
X195457407Y-64082946D01*
X195434123Y-64200000D01*
X195434123Y-65800000D01*
X195457407Y-65917054D01*
X195523712Y-66016288D01*
X195622946Y-66082593D01*
X195740000Y-66105877D01*
X197340000Y-66105877D01*
X197457054Y-66082593D01*
X197556288Y-66016288D01*
X197600000Y-65950867D01*
X197600000Y-72310569D01*
X197576177Y-72190801D01*
X197333056Y-71826944D01*
X196969199Y-71583823D01*
X196648339Y-71520000D01*
X196431661Y-71520000D01*
X196194317Y-71567211D01*
X191308377Y-66681271D01*
X191280480Y-66639520D01*
X191115090Y-66529011D01*
X190969243Y-66500000D01*
X190969241Y-66500000D01*
X190920000Y-66490205D01*
X190870759Y-66500000D01*
X151089950Y-66500000D01*
X150996518Y-66406568D01*
X150739239Y-66300000D01*
X150460761Y-66300000D01*
X150203482Y-66406568D01*
X150110050Y-66500000D01*
X148207107Y-66500000D01*
X147078151Y-65371044D01*
X162161757Y-65371044D01*
X162407139Y-65862577D01*
X162821944Y-66222791D01*
X163148958Y-66358231D01*
X163366000Y-66246523D01*
X163366000Y-65154000D01*
X163674000Y-65154000D01*
X163674000Y-66246523D01*
X163891042Y-66358231D01*
X164218056Y-66222791D01*
X164632861Y-65862577D01*
X164878243Y-65371044D01*
X164767565Y-65154000D01*
X163674000Y-65154000D01*
X163366000Y-65154000D01*
X162272435Y-65154000D01*
X162161757Y-65371044D01*
X147078151Y-65371044D01*
X146707107Y-65000000D01*
X164938450Y-65000000D01*
X165023823Y-65429199D01*
X165266944Y-65793056D01*
X165630801Y-66036177D01*
X165951661Y-66100000D01*
X166168339Y-66100000D01*
X166489199Y-66036177D01*
X166853056Y-65793056D01*
X167096177Y-65429199D01*
X167181550Y-65000000D01*
X167478450Y-65000000D01*
X167563823Y-65429199D01*
X167806944Y-65793056D01*
X168170801Y-66036177D01*
X168491661Y-66100000D01*
X168708339Y-66100000D01*
X169029199Y-66036177D01*
X169393056Y-65793056D01*
X169636177Y-65429199D01*
X169721550Y-65000000D01*
X170018450Y-65000000D01*
X170103823Y-65429199D01*
X170346944Y-65793056D01*
X170710801Y-66036177D01*
X171031661Y-66100000D01*
X171248339Y-66100000D01*
X171569199Y-66036177D01*
X171933056Y-65793056D01*
X172176177Y-65429199D01*
X172261550Y-65000000D01*
X172558450Y-65000000D01*
X172643823Y-65429199D01*
X172886944Y-65793056D01*
X173250801Y-66036177D01*
X173571661Y-66100000D01*
X173788339Y-66100000D01*
X174109199Y-66036177D01*
X174473056Y-65793056D01*
X174716177Y-65429199D01*
X174801550Y-65000000D01*
X175098450Y-65000000D01*
X175183823Y-65429199D01*
X175426944Y-65793056D01*
X175790801Y-66036177D01*
X176111661Y-66100000D01*
X176328339Y-66100000D01*
X176649199Y-66036177D01*
X177013056Y-65793056D01*
X177256177Y-65429199D01*
X177341550Y-65000000D01*
X177638450Y-65000000D01*
X177723823Y-65429199D01*
X177966944Y-65793056D01*
X178330801Y-66036177D01*
X178651661Y-66100000D01*
X178868339Y-66100000D01*
X179189199Y-66036177D01*
X179553056Y-65793056D01*
X179796177Y-65429199D01*
X179881550Y-65000000D01*
X180178450Y-65000000D01*
X180263823Y-65429199D01*
X180506944Y-65793056D01*
X180870801Y-66036177D01*
X181191661Y-66100000D01*
X181408339Y-66100000D01*
X181729199Y-66036177D01*
X182093056Y-65793056D01*
X182336177Y-65429199D01*
X182421550Y-65000000D01*
X182718450Y-65000000D01*
X182803823Y-65429199D01*
X183046944Y-65793056D01*
X183410801Y-66036177D01*
X183731661Y-66100000D01*
X183948339Y-66100000D01*
X184269199Y-66036177D01*
X184633056Y-65793056D01*
X184876177Y-65429199D01*
X184961550Y-65000000D01*
X185258450Y-65000000D01*
X185343823Y-65429199D01*
X185586944Y-65793056D01*
X185950801Y-66036177D01*
X186271661Y-66100000D01*
X186488339Y-66100000D01*
X186809199Y-66036177D01*
X187173056Y-65793056D01*
X187416177Y-65429199D01*
X187501550Y-65000000D01*
X187798450Y-65000000D01*
X187883823Y-65429199D01*
X188126944Y-65793056D01*
X188490801Y-66036177D01*
X188811661Y-66100000D01*
X189028339Y-66100000D01*
X189349199Y-66036177D01*
X189713056Y-65793056D01*
X189956177Y-65429199D01*
X190041550Y-65000000D01*
X190338450Y-65000000D01*
X190423823Y-65429199D01*
X190666944Y-65793056D01*
X191030801Y-66036177D01*
X191351661Y-66100000D01*
X191568339Y-66100000D01*
X191889199Y-66036177D01*
X192253056Y-65793056D01*
X192496177Y-65429199D01*
X192581550Y-65000000D01*
X192878450Y-65000000D01*
X192963823Y-65429199D01*
X193206944Y-65793056D01*
X193570801Y-66036177D01*
X193891661Y-66100000D01*
X194108339Y-66100000D01*
X194429199Y-66036177D01*
X194793056Y-65793056D01*
X195036177Y-65429199D01*
X195121550Y-65000000D01*
X195036177Y-64570801D01*
X194793056Y-64206944D01*
X194429199Y-63963823D01*
X194108339Y-63900000D01*
X193891661Y-63900000D01*
X193570801Y-63963823D01*
X193206944Y-64206944D01*
X192963823Y-64570801D01*
X192878450Y-65000000D01*
X192581550Y-65000000D01*
X192496177Y-64570801D01*
X192253056Y-64206944D01*
X191889199Y-63963823D01*
X191568339Y-63900000D01*
X191351661Y-63900000D01*
X191030801Y-63963823D01*
X190666944Y-64206944D01*
X190423823Y-64570801D01*
X190338450Y-65000000D01*
X190041550Y-65000000D01*
X189956177Y-64570801D01*
X189713056Y-64206944D01*
X189349199Y-63963823D01*
X189028339Y-63900000D01*
X188811661Y-63900000D01*
X188490801Y-63963823D01*
X188126944Y-64206944D01*
X187883823Y-64570801D01*
X187798450Y-65000000D01*
X187501550Y-65000000D01*
X187416177Y-64570801D01*
X187173056Y-64206944D01*
X186809199Y-63963823D01*
X186488339Y-63900000D01*
X186271661Y-63900000D01*
X185950801Y-63963823D01*
X185586944Y-64206944D01*
X185343823Y-64570801D01*
X185258450Y-65000000D01*
X184961550Y-65000000D01*
X184876177Y-64570801D01*
X184633056Y-64206944D01*
X184269199Y-63963823D01*
X183948339Y-63900000D01*
X183731661Y-63900000D01*
X183410801Y-63963823D01*
X183046944Y-64206944D01*
X182803823Y-64570801D01*
X182718450Y-65000000D01*
X182421550Y-65000000D01*
X182336177Y-64570801D01*
X182093056Y-64206944D01*
X181729199Y-63963823D01*
X181408339Y-63900000D01*
X181191661Y-63900000D01*
X180870801Y-63963823D01*
X180506944Y-64206944D01*
X180263823Y-64570801D01*
X180178450Y-65000000D01*
X179881550Y-65000000D01*
X179796177Y-64570801D01*
X179553056Y-64206944D01*
X179189199Y-63963823D01*
X178868339Y-63900000D01*
X178651661Y-63900000D01*
X178330801Y-63963823D01*
X177966944Y-64206944D01*
X177723823Y-64570801D01*
X177638450Y-65000000D01*
X177341550Y-65000000D01*
X177256177Y-64570801D01*
X177013056Y-64206944D01*
X176649199Y-63963823D01*
X176328339Y-63900000D01*
X176111661Y-63900000D01*
X175790801Y-63963823D01*
X175426944Y-64206944D01*
X175183823Y-64570801D01*
X175098450Y-65000000D01*
X174801550Y-65000000D01*
X174716177Y-64570801D01*
X174473056Y-64206944D01*
X174109199Y-63963823D01*
X173788339Y-63900000D01*
X173571661Y-63900000D01*
X173250801Y-63963823D01*
X172886944Y-64206944D01*
X172643823Y-64570801D01*
X172558450Y-65000000D01*
X172261550Y-65000000D01*
X172176177Y-64570801D01*
X171933056Y-64206944D01*
X171569199Y-63963823D01*
X171248339Y-63900000D01*
X171031661Y-63900000D01*
X170710801Y-63963823D01*
X170346944Y-64206944D01*
X170103823Y-64570801D01*
X170018450Y-65000000D01*
X169721550Y-65000000D01*
X169636177Y-64570801D01*
X169393056Y-64206944D01*
X169029199Y-63963823D01*
X168708339Y-63900000D01*
X168491661Y-63900000D01*
X168170801Y-63963823D01*
X167806944Y-64206944D01*
X167563823Y-64570801D01*
X167478450Y-65000000D01*
X167181550Y-65000000D01*
X167096177Y-64570801D01*
X166853056Y-64206944D01*
X166489199Y-63963823D01*
X166168339Y-63900000D01*
X165951661Y-63900000D01*
X165630801Y-63963823D01*
X165266944Y-64206944D01*
X165023823Y-64570801D01*
X164938450Y-65000000D01*
X146707107Y-65000000D01*
X146336063Y-64628956D01*
X162161757Y-64628956D01*
X162272435Y-64846000D01*
X163366000Y-64846000D01*
X163366000Y-63753477D01*
X163674000Y-63753477D01*
X163674000Y-64846000D01*
X164767565Y-64846000D01*
X164878243Y-64628956D01*
X164632861Y-64137423D01*
X164218056Y-63777209D01*
X163891042Y-63641769D01*
X163674000Y-63753477D01*
X163366000Y-63753477D01*
X163148958Y-63641769D01*
X162821944Y-63777209D01*
X162407139Y-64137423D01*
X162161757Y-64628956D01*
X146336063Y-64628956D01*
X143300000Y-61592894D01*
X143300000Y-61460761D01*
X143193432Y-61203482D01*
X142996518Y-61006568D01*
X142739239Y-60900000D01*
X142460761Y-60900000D01*
X142203482Y-61006568D01*
X142110050Y-61100000D01*
X126999240Y-61100000D01*
X126949999Y-61090205D01*
X126900758Y-61100000D01*
X126900757Y-61100000D01*
X126754910Y-61129011D01*
X126589520Y-61239520D01*
X126565813Y-61275000D01*
X126435761Y-61275000D01*
X126178482Y-61381568D01*
X125981568Y-61578482D01*
X125875000Y-61835761D01*
X125875000Y-62114239D01*
X125981568Y-62371518D01*
X126178482Y-62568432D01*
X126435761Y-62675000D01*
X126714239Y-62675000D01*
X126971518Y-62568432D01*
X127168432Y-62371518D01*
X127275000Y-62114239D01*
X127275000Y-62100000D01*
X142110050Y-62100000D01*
X142203482Y-62193432D01*
X142460761Y-62300000D01*
X142592894Y-62300000D01*
X147611625Y-67318732D01*
X147639520Y-67360480D01*
X147804910Y-67470989D01*
X147950757Y-67500000D01*
X147950758Y-67500000D01*
X147999999Y-67509795D01*
X148049240Y-67500000D01*
X150110050Y-67500000D01*
X150203482Y-67593432D01*
X150460761Y-67700000D01*
X150739239Y-67700000D01*
X150996518Y-67593432D01*
X151089950Y-67500000D01*
X190712894Y-67500000D01*
X195487211Y-72274317D01*
X195418450Y-72620000D01*
X195503823Y-73049199D01*
X195746944Y-73413056D01*
X196110801Y-73656177D01*
X196431661Y-73720000D01*
X196648339Y-73720000D01*
X196969199Y-73656177D01*
X197333056Y-73413056D01*
X197576177Y-73049199D01*
X197600000Y-72929431D01*
X197600000Y-77049133D01*
X197556288Y-76983712D01*
X197457054Y-76917407D01*
X197340000Y-76894123D01*
X195740000Y-76894123D01*
X195622946Y-76917407D01*
X195523712Y-76983712D01*
X195457407Y-77082946D01*
X195434123Y-77200000D01*
X195434123Y-78800000D01*
X195457407Y-78917054D01*
X195523712Y-79016288D01*
X195622946Y-79082593D01*
X195646948Y-79087367D01*
X190034316Y-84700000D01*
X181065684Y-84700000D01*
X182165675Y-83600010D01*
X190160596Y-83600010D01*
X190199990Y-83607846D01*
X190239384Y-83600010D01*
X190356062Y-83576801D01*
X190488374Y-83488394D01*
X190510693Y-83454991D01*
X191165685Y-82800000D01*
X191439239Y-82800000D01*
X191696518Y-82693432D01*
X191893432Y-82496518D01*
X192000000Y-82239239D01*
X192000000Y-81960761D01*
X191893432Y-81703482D01*
X191696518Y-81506568D01*
X191439239Y-81400000D01*
X191165685Y-81400000D01*
X193510699Y-79054987D01*
X193510703Y-79054981D01*
X193546047Y-79019637D01*
X193570801Y-79036177D01*
X193891661Y-79100000D01*
X194108339Y-79100000D01*
X194429199Y-79036177D01*
X194793056Y-78793056D01*
X195036177Y-78429199D01*
X195121550Y-78000000D01*
X195036177Y-77570801D01*
X194793056Y-77206944D01*
X194429199Y-76963823D01*
X194108339Y-76900000D01*
X193891661Y-76900000D01*
X193570801Y-76963823D01*
X193206944Y-77206944D01*
X192963823Y-77570801D01*
X192878450Y-78000000D01*
X192963823Y-78429199D01*
X192980363Y-78453953D01*
X192945019Y-78489297D01*
X192945013Y-78489301D01*
X189492254Y-81942061D01*
X189393432Y-81703482D01*
X189196518Y-81506568D01*
X188939239Y-81400000D01*
X188665685Y-81400000D01*
X188265651Y-80999966D01*
X188820640Y-80999966D01*
X188860034Y-81007802D01*
X188899428Y-80999966D01*
X189016106Y-80976757D01*
X189148418Y-80888350D01*
X189170737Y-80854947D01*
X190970699Y-79054986D01*
X190970701Y-79054983D01*
X191006047Y-79019637D01*
X191030801Y-79036177D01*
X191351661Y-79100000D01*
X191568339Y-79100000D01*
X191889199Y-79036177D01*
X192253056Y-78793056D01*
X192496177Y-78429199D01*
X192581550Y-78000000D01*
X192496177Y-77570801D01*
X192253056Y-77206944D01*
X191889199Y-76963823D01*
X191568339Y-76900000D01*
X191351661Y-76900000D01*
X191030801Y-76963823D01*
X190666944Y-77206944D01*
X190423823Y-77570801D01*
X190338450Y-78000000D01*
X190423823Y-78429199D01*
X190440363Y-78453953D01*
X190405017Y-78489299D01*
X190405014Y-78489301D01*
X188694350Y-80199966D01*
X187285718Y-80199966D01*
X188466048Y-79019637D01*
X188490801Y-79036177D01*
X188811661Y-79100000D01*
X189028339Y-79100000D01*
X189349199Y-79036177D01*
X189713056Y-78793056D01*
X189956177Y-78429199D01*
X190041550Y-78000000D01*
X189956177Y-77570801D01*
X189713056Y-77206944D01*
X189349199Y-76963823D01*
X189028339Y-76900000D01*
X188811661Y-76900000D01*
X188490801Y-76963823D01*
X188126944Y-77206944D01*
X187883823Y-77570801D01*
X187798450Y-78000000D01*
X187883823Y-78429199D01*
X187900363Y-78453952D01*
X186554361Y-79799955D01*
X185145729Y-79799955D01*
X185890699Y-79054986D01*
X185890701Y-79054983D01*
X185926047Y-79019637D01*
X185950801Y-79036177D01*
X186271661Y-79100000D01*
X186488339Y-79100000D01*
X186809199Y-79036177D01*
X187173056Y-78793056D01*
X187416177Y-78429199D01*
X187501550Y-78000000D01*
X187416177Y-77570801D01*
X187173056Y-77206944D01*
X186809199Y-76963823D01*
X186488339Y-76900000D01*
X186271661Y-76900000D01*
X185950801Y-76963823D01*
X185586944Y-77206944D01*
X185343823Y-77570801D01*
X185258450Y-78000000D01*
X185343823Y-78429199D01*
X185360363Y-78453953D01*
X185325017Y-78489299D01*
X185325014Y-78489301D01*
X184414372Y-79399944D01*
X183005740Y-79399944D01*
X183386048Y-79019637D01*
X183410801Y-79036177D01*
X183731661Y-79100000D01*
X183948339Y-79100000D01*
X184269199Y-79036177D01*
X184633056Y-78793056D01*
X184876177Y-78429199D01*
X184961550Y-78000000D01*
X184876177Y-77570801D01*
X184633056Y-77206944D01*
X184269199Y-76963823D01*
X183948339Y-76900000D01*
X183731661Y-76900000D01*
X183410801Y-76963823D01*
X183046944Y-77206944D01*
X182803823Y-77570801D01*
X182718450Y-78000000D01*
X182803823Y-78429199D01*
X182820363Y-78453952D01*
X182274383Y-78999933D01*
X181783442Y-78999933D01*
X182093056Y-78793056D01*
X182336177Y-78429199D01*
X182421550Y-78000000D01*
X182336177Y-77570801D01*
X182093056Y-77206944D01*
X181729199Y-76963823D01*
X181408339Y-76900000D01*
X181191661Y-76900000D01*
X180870801Y-76963823D01*
X180506944Y-77206944D01*
X180263823Y-77570801D01*
X180178450Y-78000000D01*
X180258015Y-78399999D01*
X179801985Y-78399999D01*
X179881550Y-78000000D01*
X179796177Y-77570801D01*
X179553056Y-77206944D01*
X179189199Y-76963823D01*
X178868339Y-76900000D01*
X178651661Y-76900000D01*
X178330801Y-76963823D01*
X177966944Y-77206944D01*
X177723823Y-77570801D01*
X177638450Y-78000000D01*
X177723823Y-78429199D01*
X177740363Y-78453953D01*
X176394415Y-79799901D01*
X174985784Y-79799901D01*
X175730699Y-79054987D01*
X175730703Y-79054981D01*
X175766047Y-79019637D01*
X175790801Y-79036177D01*
X176111661Y-79100000D01*
X176328339Y-79100000D01*
X176649199Y-79036177D01*
X177013056Y-78793056D01*
X177256177Y-78429199D01*
X177341550Y-78000000D01*
X177256177Y-77570801D01*
X177013056Y-77206944D01*
X176649199Y-76963823D01*
X176328339Y-76900000D01*
X176111661Y-76900000D01*
X175790801Y-76963823D01*
X175426944Y-77206944D01*
X175183823Y-77570801D01*
X175098450Y-78000000D01*
X175183823Y-78429199D01*
X175200363Y-78453953D01*
X175165019Y-78489297D01*
X175165013Y-78489301D01*
X174254426Y-79399890D01*
X172845794Y-79399890D01*
X173226047Y-79019637D01*
X173250801Y-79036177D01*
X173571661Y-79100000D01*
X173788339Y-79100000D01*
X174109199Y-79036177D01*
X174473056Y-78793056D01*
X174716177Y-78429199D01*
X174801550Y-78000000D01*
X174716177Y-77570801D01*
X174473056Y-77206944D01*
X174109199Y-76963823D01*
X173788339Y-76900000D01*
X173571661Y-76900000D01*
X173250801Y-76963823D01*
X172886944Y-77206944D01*
X172643823Y-77570801D01*
X172558450Y-78000000D01*
X172643823Y-78429199D01*
X172660363Y-78453953D01*
X172114437Y-78999879D01*
X171623523Y-78999879D01*
X171933056Y-78793056D01*
X172176177Y-78429199D01*
X172261550Y-78000000D01*
X172176177Y-77570801D01*
X171933056Y-77206944D01*
X171569199Y-76963823D01*
X171248339Y-76900000D01*
X171031661Y-76900000D01*
X170710801Y-76963823D01*
X170683859Y-76981825D01*
X171665686Y-76000000D01*
X171839239Y-76000000D01*
X172096518Y-75893432D01*
X172293432Y-75696518D01*
X172400000Y-75439239D01*
X172400000Y-75160761D01*
X172293432Y-74903482D01*
X172096518Y-74706568D01*
X171839239Y-74600000D01*
X171560761Y-74600000D01*
X171303482Y-74706568D01*
X171150000Y-74860050D01*
X170997379Y-74707429D01*
X170976791Y-74603929D01*
X170958651Y-74576780D01*
X170888384Y-74471617D01*
X170854984Y-74449300D01*
X169950672Y-73544989D01*
X169928353Y-73511586D01*
X169796041Y-73423179D01*
X169679363Y-73399970D01*
X169639969Y-73392134D01*
X169600575Y-73399970D01*
X169401800Y-73399970D01*
X169636177Y-73049199D01*
X169721550Y-72620000D01*
X169636177Y-72190801D01*
X169393056Y-71826944D01*
X169352731Y-71800000D01*
X170387269Y-71800000D01*
X170346944Y-71826944D01*
X170103823Y-72190801D01*
X170018450Y-72620000D01*
X170103823Y-73049199D01*
X170346944Y-73413056D01*
X170710801Y-73656177D01*
X171031661Y-73720000D01*
X171248339Y-73720000D01*
X171569199Y-73656177D01*
X171933056Y-73413056D01*
X172176177Y-73049199D01*
X172261550Y-72620000D01*
X172176177Y-72190801D01*
X171933056Y-71826944D01*
X171892731Y-71800000D01*
X172294315Y-71800000D01*
X172425014Y-71930699D01*
X172425017Y-71930701D01*
X172660363Y-72166047D01*
X172643823Y-72190801D01*
X172558450Y-72620000D01*
X172643823Y-73049199D01*
X172886944Y-73413056D01*
X173250801Y-73656177D01*
X173571661Y-73720000D01*
X173788339Y-73720000D01*
X174109199Y-73656177D01*
X174473056Y-73413056D01*
X174716177Y-73049199D01*
X174801550Y-72620000D01*
X174716177Y-72190801D01*
X174473056Y-71826944D01*
X174109199Y-71583823D01*
X173788339Y-71520000D01*
X173571661Y-71520000D01*
X173250801Y-71583823D01*
X173226047Y-71600363D01*
X172990701Y-71365017D01*
X172990699Y-71365014D01*
X172770702Y-71145018D01*
X172748384Y-71111616D01*
X172616072Y-71023209D01*
X172499394Y-71000000D01*
X175234316Y-71000000D01*
X175813602Y-71579288D01*
X175790801Y-71583823D01*
X175426944Y-71826944D01*
X175183823Y-72190801D01*
X175098450Y-72620000D01*
X175183823Y-73049199D01*
X175426944Y-73413056D01*
X175790801Y-73656177D01*
X176111661Y-73720000D01*
X176328339Y-73720000D01*
X176649199Y-73656177D01*
X177013056Y-73413056D01*
X177256177Y-73049199D01*
X177341550Y-72620000D01*
X177638450Y-72620000D01*
X177723823Y-73049199D01*
X177966944Y-73413056D01*
X178330801Y-73656177D01*
X178651661Y-73720000D01*
X178868339Y-73720000D01*
X179189199Y-73656177D01*
X179553056Y-73413056D01*
X179796177Y-73049199D01*
X179881550Y-72620000D01*
X179796177Y-72190801D01*
X179553056Y-71826944D01*
X179189199Y-71583823D01*
X178868339Y-71520000D01*
X178651661Y-71520000D01*
X178330801Y-71583823D01*
X177966944Y-71826944D01*
X177723823Y-72190801D01*
X177638450Y-72620000D01*
X177341550Y-72620000D01*
X177256177Y-72190801D01*
X177013056Y-71826944D01*
X176649199Y-71583823D01*
X176620000Y-71578015D01*
X176620000Y-71459392D01*
X176627836Y-71419999D01*
X176620000Y-71380606D01*
X176596791Y-71263928D01*
X176508384Y-71131616D01*
X176474987Y-71109301D01*
X175710702Y-70345018D01*
X175688384Y-70311616D01*
X175556072Y-70223209D01*
X175439394Y-70200000D01*
X175400000Y-70192164D01*
X175360606Y-70200000D01*
X143539394Y-70200000D01*
X143500000Y-70192164D01*
X143460606Y-70200000D01*
X143343928Y-70223209D01*
X143211616Y-70311616D01*
X143189299Y-70345016D01*
X142534316Y-71000000D01*
X142260761Y-71000000D01*
X142003482Y-71106568D01*
X141910050Y-71200000D01*
X128765685Y-71200000D01*
X125826446Y-68260761D01*
X137300000Y-68260761D01*
X137300000Y-68539239D01*
X137406568Y-68796518D01*
X137603482Y-68993432D01*
X137860761Y-69100000D01*
X138134316Y-69100000D01*
X138689299Y-69654984D01*
X138711616Y-69688384D01*
X138843928Y-69776791D01*
X139000000Y-69807836D01*
X139039394Y-69800000D01*
X177914316Y-69800000D01*
X180280363Y-72166047D01*
X180263823Y-72190801D01*
X180178450Y-72620000D01*
X180263823Y-73049199D01*
X180280362Y-73073952D01*
X178454316Y-74900000D01*
X178089950Y-74900000D01*
X177896518Y-74706568D01*
X177639239Y-74600000D01*
X177360761Y-74600000D01*
X177103482Y-74706568D01*
X176906568Y-74903482D01*
X176800000Y-75160761D01*
X176800000Y-75439239D01*
X176906568Y-75696518D01*
X177103482Y-75893432D01*
X177360761Y-76000000D01*
X177639239Y-76000000D01*
X177896518Y-75893432D01*
X178089950Y-75700000D01*
X178580606Y-75700000D01*
X178620000Y-75707836D01*
X178659394Y-75700000D01*
X178776072Y-75676791D01*
X178908384Y-75588384D01*
X178930703Y-75554981D01*
X180846048Y-73639638D01*
X180870801Y-73656177D01*
X181191661Y-73720000D01*
X181408339Y-73720000D01*
X181729199Y-73656177D01*
X182093056Y-73413056D01*
X182336177Y-73049199D01*
X182421550Y-72620000D01*
X182718450Y-72620000D01*
X182803823Y-73049199D01*
X183046944Y-73413056D01*
X183410801Y-73656177D01*
X183731661Y-73720000D01*
X183948339Y-73720000D01*
X184269199Y-73656177D01*
X184633056Y-73413056D01*
X184876177Y-73049199D01*
X184961550Y-72620000D01*
X185258450Y-72620000D01*
X185343823Y-73049199D01*
X185586944Y-73413056D01*
X185950801Y-73656177D01*
X186271661Y-73720000D01*
X186488339Y-73720000D01*
X186809199Y-73656177D01*
X187173056Y-73413056D01*
X187416177Y-73049199D01*
X187501550Y-72620000D01*
X187798450Y-72620000D01*
X187883823Y-73049199D01*
X188126944Y-73413056D01*
X188490801Y-73656177D01*
X188811661Y-73720000D01*
X189028339Y-73720000D01*
X189349199Y-73656177D01*
X189713056Y-73413056D01*
X189956177Y-73049199D01*
X190041550Y-72620000D01*
X190338450Y-72620000D01*
X190423823Y-73049199D01*
X190666944Y-73413056D01*
X191030801Y-73656177D01*
X191351661Y-73720000D01*
X191568339Y-73720000D01*
X191889199Y-73656177D01*
X192253056Y-73413056D01*
X192496177Y-73049199D01*
X192581550Y-72620000D01*
X192878450Y-72620000D01*
X192963823Y-73049199D01*
X193206944Y-73413056D01*
X193570801Y-73656177D01*
X193891661Y-73720000D01*
X194108339Y-73720000D01*
X194429199Y-73656177D01*
X194793056Y-73413056D01*
X195036177Y-73049199D01*
X195121550Y-72620000D01*
X195036177Y-72190801D01*
X194793056Y-71826944D01*
X194429199Y-71583823D01*
X194108339Y-71520000D01*
X193891661Y-71520000D01*
X193570801Y-71583823D01*
X193206944Y-71826944D01*
X192963823Y-72190801D01*
X192878450Y-72620000D01*
X192581550Y-72620000D01*
X192496177Y-72190801D01*
X192253056Y-71826944D01*
X191889199Y-71583823D01*
X191568339Y-71520000D01*
X191351661Y-71520000D01*
X191030801Y-71583823D01*
X190666944Y-71826944D01*
X190423823Y-72190801D01*
X190338450Y-72620000D01*
X190041550Y-72620000D01*
X189956177Y-72190801D01*
X189713056Y-71826944D01*
X189349199Y-71583823D01*
X189028339Y-71520000D01*
X188811661Y-71520000D01*
X188490801Y-71583823D01*
X188126944Y-71826944D01*
X187883823Y-72190801D01*
X187798450Y-72620000D01*
X187501550Y-72620000D01*
X187416177Y-72190801D01*
X187173056Y-71826944D01*
X186809199Y-71583823D01*
X186488339Y-71520000D01*
X186271661Y-71520000D01*
X185950801Y-71583823D01*
X185586944Y-71826944D01*
X185343823Y-72190801D01*
X185258450Y-72620000D01*
X184961550Y-72620000D01*
X184876177Y-72190801D01*
X184633056Y-71826944D01*
X184269199Y-71583823D01*
X183948339Y-71520000D01*
X183731661Y-71520000D01*
X183410801Y-71583823D01*
X183046944Y-71826944D01*
X182803823Y-72190801D01*
X182718450Y-72620000D01*
X182421550Y-72620000D01*
X182336177Y-72190801D01*
X182093056Y-71826944D01*
X181729199Y-71583823D01*
X181408339Y-71520000D01*
X181191661Y-71520000D01*
X180870801Y-71583823D01*
X180846047Y-71600363D01*
X178390703Y-69145019D01*
X178368384Y-69111616D01*
X178236072Y-69023209D01*
X178119394Y-69000000D01*
X178080000Y-68992164D01*
X178040606Y-69000000D01*
X139165685Y-69000000D01*
X138700000Y-68534316D01*
X138700000Y-68260761D01*
X138593432Y-68003482D01*
X138396518Y-67806568D01*
X138139239Y-67700000D01*
X137860761Y-67700000D01*
X137603482Y-67806568D01*
X137406568Y-68003482D01*
X137300000Y-68260761D01*
X125826446Y-68260761D01*
X123310703Y-65745019D01*
X123288384Y-65711616D01*
X123156072Y-65623209D01*
X123039394Y-65600000D01*
X123000000Y-65592164D01*
X122960606Y-65600000D01*
X119033411Y-65600000D01*
X118993432Y-65503482D01*
X118796518Y-65306568D01*
X118539239Y-65200000D01*
X118260761Y-65200000D01*
X118003482Y-65306568D01*
X117806568Y-65503482D01*
X117700000Y-65760761D01*
X117700000Y-66039239D01*
X117806568Y-66296518D01*
X118003482Y-66493432D01*
X118260761Y-66600000D01*
X118539239Y-66600000D01*
X118796518Y-66493432D01*
X118889950Y-66400000D01*
X122834316Y-66400000D01*
X128289299Y-71854984D01*
X128311616Y-71888384D01*
X128443928Y-71976791D01*
X128544474Y-71996791D01*
X128600000Y-72007836D01*
X128639394Y-72000000D01*
X141766589Y-72000000D01*
X141806568Y-72096518D01*
X142003482Y-72293432D01*
X142140050Y-72350000D01*
X142003482Y-72406568D01*
X141806568Y-72603482D01*
X141700000Y-72860761D01*
X141700000Y-73139239D01*
X141806568Y-73396518D01*
X141810020Y-73399970D01*
X133248024Y-73399970D01*
X133208631Y-73392134D01*
X133169238Y-73399970D01*
X133052560Y-73423179D01*
X132920248Y-73511586D01*
X132897933Y-73544983D01*
X129582930Y-76859988D01*
X125839406Y-76859988D01*
X125800012Y-76852152D01*
X125760618Y-76859988D01*
X125643940Y-76883197D01*
X125511628Y-76971604D01*
X125489311Y-77005004D01*
X125145019Y-77349297D01*
X125145013Y-77349301D01*
X124753952Y-77740363D01*
X124729199Y-77723823D01*
X124408339Y-77660000D01*
X124191661Y-77660000D01*
X123870801Y-77723823D01*
X123506944Y-77966944D01*
X123263823Y-78330801D01*
X123178450Y-78760000D01*
X123263823Y-79189199D01*
X123444767Y-79460001D01*
X122979392Y-79460001D01*
X122939998Y-79452165D01*
X122783927Y-79483210D01*
X122651615Y-79571617D01*
X122629298Y-79605017D01*
X118965019Y-83269297D01*
X118931616Y-83291616D01*
X118843690Y-83423209D01*
X118843209Y-83423929D01*
X118812164Y-83580000D01*
X118820000Y-83619394D01*
X118820001Y-92829232D01*
X118820000Y-92829237D01*
X118820000Y-92958015D01*
X118790801Y-92963823D01*
X118426944Y-93206944D01*
X118183823Y-93570801D01*
X118098450Y-94000000D01*
X118183823Y-94429199D01*
X118426944Y-94793056D01*
X118790801Y-95036177D01*
X119111661Y-95100000D01*
X119328339Y-95100000D01*
X119635390Y-95038924D01*
X115835017Y-98839299D01*
X115835011Y-98839303D01*
X115729999Y-98944315D01*
X115688707Y-98916724D01*
X115353261Y-98850000D01*
X115126739Y-98850000D01*
X114791293Y-98916724D01*
X114410897Y-99170897D01*
X114156724Y-99551293D01*
X114067471Y-100000000D01*
X114156724Y-100448707D01*
X114410897Y-100829103D01*
X114791293Y-101083276D01*
X115126739Y-101150000D01*
X115353261Y-101150000D01*
X115688707Y-101083276D01*
X116069103Y-100829103D01*
X116323276Y-100448707D01*
X116412529Y-100000000D01*
X116323276Y-99551293D01*
X116295685Y-99510001D01*
X116400697Y-99404989D01*
X116400701Y-99404983D01*
X120205752Y-95599934D01*
X121614380Y-95599934D01*
X118270000Y-98944315D01*
X118228707Y-98916724D01*
X117893261Y-98850000D01*
X117666739Y-98850000D01*
X117331293Y-98916724D01*
X116950897Y-99170897D01*
X116696724Y-99551293D01*
X116607471Y-100000000D01*
X116696724Y-100448707D01*
X116950897Y-100829103D01*
X117331293Y-101083276D01*
X117666739Y-101150000D01*
X117893261Y-101150000D01*
X118228707Y-101083276D01*
X118609103Y-100829103D01*
X118863276Y-100448707D01*
X118952529Y-100000000D01*
X118863276Y-99551293D01*
X118835685Y-99510000D01*
X122345741Y-95999945D01*
X123754369Y-95999945D01*
X120810000Y-98944315D01*
X120768707Y-98916724D01*
X120433261Y-98850000D01*
X120206739Y-98850000D01*
X119871293Y-98916724D01*
X119490897Y-99170897D01*
X119236724Y-99551293D01*
X119147471Y-100000000D01*
X119236724Y-100448707D01*
X119490897Y-100829103D01*
X119871293Y-101083276D01*
X120206739Y-101150000D01*
X120433261Y-101150000D01*
X120768707Y-101083276D01*
X121149103Y-100829103D01*
X121403276Y-100448707D01*
X121492529Y-100000000D01*
X121403276Y-99551293D01*
X121375685Y-99510000D01*
X124485730Y-96399956D01*
X125894358Y-96399956D01*
X123455017Y-98839299D01*
X123455011Y-98839303D01*
X123349999Y-98944315D01*
X123308707Y-98916724D01*
X122973261Y-98850000D01*
X122746739Y-98850000D01*
X122411293Y-98916724D01*
X122030897Y-99170897D01*
X121776724Y-99551293D01*
X121687471Y-100000000D01*
X121776724Y-100448707D01*
X122030897Y-100829103D01*
X122411293Y-101083276D01*
X122746739Y-101150000D01*
X122973261Y-101150000D01*
X123308707Y-101083276D01*
X123689103Y-100829103D01*
X123943276Y-100448707D01*
X124032529Y-100000000D01*
X123943276Y-99551293D01*
X123915685Y-99510001D01*
X124020697Y-99404989D01*
X124020701Y-99404983D01*
X126625719Y-96799967D01*
X128034347Y-96799967D01*
X125995017Y-98839299D01*
X125995011Y-98839303D01*
X125889999Y-98944315D01*
X125848707Y-98916724D01*
X125513261Y-98850000D01*
X125286739Y-98850000D01*
X124951293Y-98916724D01*
X124570897Y-99170897D01*
X124316724Y-99551293D01*
X124227471Y-100000000D01*
X124316724Y-100448707D01*
X124570897Y-100829103D01*
X124951293Y-101083276D01*
X125286739Y-101150000D01*
X125513261Y-101150000D01*
X125848707Y-101083276D01*
X126229103Y-100829103D01*
X126483276Y-100448707D01*
X126572529Y-100000000D01*
X126483276Y-99551293D01*
X126455685Y-99510001D01*
X126560697Y-99404989D01*
X126560701Y-99404983D01*
X128765708Y-97199978D01*
X130174336Y-97199978D01*
X128535017Y-98839299D01*
X128535011Y-98839303D01*
X128429999Y-98944315D01*
X128388707Y-98916724D01*
X128053261Y-98850000D01*
X127826739Y-98850000D01*
X127491293Y-98916724D01*
X127110897Y-99170897D01*
X126856724Y-99551293D01*
X126767471Y-100000000D01*
X126856724Y-100448707D01*
X127110897Y-100829103D01*
X127491293Y-101083276D01*
X127826739Y-101150000D01*
X128053261Y-101150000D01*
X128388707Y-101083276D01*
X128769103Y-100829103D01*
X129023276Y-100448707D01*
X129112529Y-100000000D01*
X129023276Y-99551293D01*
X128995685Y-99510001D01*
X129100697Y-99404989D01*
X129100701Y-99404983D01*
X130905697Y-97599989D01*
X132314326Y-97599989D01*
X130970000Y-98944315D01*
X130928707Y-98916724D01*
X130593261Y-98850000D01*
X130366739Y-98850000D01*
X130031293Y-98916724D01*
X129650897Y-99170897D01*
X129396724Y-99551293D01*
X129307471Y-100000000D01*
X129396724Y-100448707D01*
X129650897Y-100829103D01*
X130031293Y-101083276D01*
X130366739Y-101150000D01*
X130593261Y-101150000D01*
X130928707Y-101083276D01*
X131309103Y-100829103D01*
X131563276Y-100448707D01*
X131652529Y-100000000D01*
X131847471Y-100000000D01*
X131936724Y-100448707D01*
X132190897Y-100829103D01*
X132571293Y-101083276D01*
X132906739Y-101150000D01*
X133133261Y-101150000D01*
X133468707Y-101083276D01*
X133849103Y-100829103D01*
X134103276Y-100448707D01*
X134192529Y-100000000D01*
X134387471Y-100000000D01*
X134476724Y-100448707D01*
X134730897Y-100829103D01*
X135111293Y-101083276D01*
X135446739Y-101150000D01*
X135673261Y-101150000D01*
X136008707Y-101083276D01*
X136389103Y-100829103D01*
X136643276Y-100448707D01*
X136732529Y-100000000D01*
X136927471Y-100000000D01*
X137016724Y-100448707D01*
X137270897Y-100829103D01*
X137651293Y-101083276D01*
X137986739Y-101150000D01*
X138213261Y-101150000D01*
X138548707Y-101083276D01*
X138929103Y-100829103D01*
X139183276Y-100448707D01*
X139241896Y-100154002D01*
X139342143Y-100154002D01*
X139232085Y-100378911D01*
X139484259Y-100888854D01*
X139912384Y-101263477D01*
X140261090Y-101407903D01*
X140486000Y-101296889D01*
X140486000Y-100154000D01*
X140466000Y-100154000D01*
X140466000Y-99846000D01*
X140486000Y-99846000D01*
X140486000Y-98703111D01*
X140794000Y-98703111D01*
X140794000Y-99846000D01*
X140814000Y-99846000D01*
X140814000Y-100154000D01*
X140794000Y-100154000D01*
X140794000Y-101296889D01*
X141018910Y-101407903D01*
X141367616Y-101263477D01*
X141795741Y-100888854D01*
X142047915Y-100378911D01*
X141937857Y-100154002D01*
X142038104Y-100154002D01*
X142096724Y-100448707D01*
X142350897Y-100829103D01*
X142731293Y-101083276D01*
X143066739Y-101150000D01*
X143293261Y-101150000D01*
X143628707Y-101083276D01*
X144009103Y-100829103D01*
X144263276Y-100448707D01*
X144352529Y-100000000D01*
X144275311Y-99611796D01*
X144787107Y-99100000D01*
X144997002Y-99100000D01*
X144890897Y-99170897D01*
X144636724Y-99551293D01*
X144547471Y-100000000D01*
X144636724Y-100448707D01*
X144890897Y-100829103D01*
X145271293Y-101083276D01*
X145606739Y-101150000D01*
X145833261Y-101150000D01*
X146168707Y-101083276D01*
X146549103Y-100829103D01*
X146803276Y-100448707D01*
X146892529Y-100000000D01*
X146803276Y-99551293D01*
X146549103Y-99170897D01*
X146442998Y-99100000D01*
X147537002Y-99100000D01*
X147430897Y-99170897D01*
X147176724Y-99551293D01*
X147087471Y-100000000D01*
X147176724Y-100448707D01*
X147430897Y-100829103D01*
X147811293Y-101083276D01*
X148146739Y-101150000D01*
X148373261Y-101150000D01*
X148708707Y-101083276D01*
X149089103Y-100829103D01*
X149343276Y-100448707D01*
X149432529Y-100000000D01*
X149627471Y-100000000D01*
X149716724Y-100448707D01*
X149970897Y-100829103D01*
X150351293Y-101083276D01*
X150686739Y-101150000D01*
X150913261Y-101150000D01*
X151248707Y-101083276D01*
X151629103Y-100829103D01*
X151883276Y-100448707D01*
X151972529Y-100000000D01*
X152167471Y-100000000D01*
X152256724Y-100448707D01*
X152510897Y-100829103D01*
X152891293Y-101083276D01*
X153226739Y-101150000D01*
X153453261Y-101150000D01*
X153788707Y-101083276D01*
X154169103Y-100829103D01*
X154423276Y-100448707D01*
X154512529Y-100000000D01*
X154707471Y-100000000D01*
X154796724Y-100448707D01*
X155050897Y-100829103D01*
X155431293Y-101083276D01*
X155766739Y-101150000D01*
X155993261Y-101150000D01*
X156328707Y-101083276D01*
X156709103Y-100829103D01*
X156963276Y-100448707D01*
X157052529Y-100000000D01*
X156963276Y-99551293D01*
X156709103Y-99170897D01*
X156328707Y-98916724D01*
X155993261Y-98850000D01*
X155766739Y-98850000D01*
X155431293Y-98916724D01*
X155050897Y-99170897D01*
X154796724Y-99551293D01*
X154707471Y-100000000D01*
X154512529Y-100000000D01*
X154423276Y-99551293D01*
X154169103Y-99170897D01*
X153788707Y-98916724D01*
X153453261Y-98850000D01*
X153226739Y-98850000D01*
X152891293Y-98916724D01*
X152510897Y-99170897D01*
X152256724Y-99551293D01*
X152167471Y-100000000D01*
X151972529Y-100000000D01*
X151883276Y-99551293D01*
X151629103Y-99170897D01*
X151248707Y-98916724D01*
X150913261Y-98850000D01*
X150686739Y-98850000D01*
X150351293Y-98916724D01*
X149970897Y-99170897D01*
X149716724Y-99551293D01*
X149627471Y-100000000D01*
X149432529Y-100000000D01*
X149343276Y-99551293D01*
X149089103Y-99170897D01*
X148708707Y-98916724D01*
X148610013Y-98897093D01*
X149807107Y-97700000D01*
X149939239Y-97700000D01*
X150196518Y-97593432D01*
X150393432Y-97396518D01*
X150500000Y-97139239D01*
X150500000Y-96860761D01*
X150393432Y-96603482D01*
X150196518Y-96406568D01*
X149939239Y-96300000D01*
X149660761Y-96300000D01*
X149403482Y-96406568D01*
X149206568Y-96603482D01*
X149100000Y-96860761D01*
X149100000Y-96992893D01*
X147992894Y-98100000D01*
X144629241Y-98100000D01*
X144580000Y-98090205D01*
X144530758Y-98100000D01*
X144530757Y-98100000D01*
X144384910Y-98129011D01*
X144219520Y-98239520D01*
X144191626Y-98281267D01*
X143568204Y-98904689D01*
X143293261Y-98850000D01*
X143066739Y-98850000D01*
X142731293Y-98916724D01*
X142350897Y-99170897D01*
X142096724Y-99551293D01*
X142038104Y-99845998D01*
X141937857Y-99845998D01*
X142047915Y-99621089D01*
X141795741Y-99111146D01*
X141367616Y-98736523D01*
X141018910Y-98592097D01*
X140794000Y-98703111D01*
X140486000Y-98703111D01*
X140261090Y-98592097D01*
X139912384Y-98736523D01*
X139484259Y-99111146D01*
X139232085Y-99621089D01*
X139342143Y-99845998D01*
X139241896Y-99845998D01*
X139183276Y-99551293D01*
X138929103Y-99170897D01*
X138548707Y-98916724D01*
X138213261Y-98850000D01*
X137986739Y-98850000D01*
X137651293Y-98916724D01*
X137270897Y-99170897D01*
X137016724Y-99551293D01*
X136927471Y-100000000D01*
X136732529Y-100000000D01*
X136643276Y-99551293D01*
X136389103Y-99170897D01*
X136008707Y-98916724D01*
X135673261Y-98850000D01*
X135446739Y-98850000D01*
X135111293Y-98916724D01*
X134730897Y-99170897D01*
X134476724Y-99551293D01*
X134387471Y-100000000D01*
X134192529Y-100000000D01*
X134103276Y-99551293D01*
X133849103Y-99170897D01*
X133468707Y-98916724D01*
X133133261Y-98850000D01*
X132906739Y-98850000D01*
X132571293Y-98916724D01*
X132190897Y-99170897D01*
X131936724Y-99551293D01*
X131847471Y-100000000D01*
X131652529Y-100000000D01*
X131563276Y-99551293D01*
X131535685Y-99510000D01*
X133045685Y-98000000D01*
X146460606Y-98000000D01*
X146500000Y-98007836D01*
X146539394Y-98000000D01*
X146656072Y-97976791D01*
X146788384Y-97888384D01*
X146810703Y-97854981D01*
X149569995Y-95095690D01*
X149591661Y-95100000D01*
X149808339Y-95100000D01*
X150129199Y-95036177D01*
X150493056Y-94793056D01*
X150736177Y-94429199D01*
X150821550Y-94000000D01*
X150736177Y-93570801D01*
X150493056Y-93206944D01*
X150129199Y-92963823D01*
X150100000Y-92958015D01*
X150100000Y-87342086D01*
X152842088Y-84600000D01*
X156300000Y-84600000D01*
X156300000Y-84739239D01*
X156406568Y-84996518D01*
X156560050Y-85150000D01*
X156406568Y-85303482D01*
X156300000Y-85560761D01*
X156300000Y-85839239D01*
X156406568Y-86096518D01*
X156510050Y-86200000D01*
X156406568Y-86303482D01*
X156300000Y-86560761D01*
X156300000Y-86839239D01*
X156406568Y-87096518D01*
X156603482Y-87293432D01*
X156860761Y-87400000D01*
X157139239Y-87400000D01*
X157396518Y-87293432D01*
X157593432Y-87096518D01*
X157700000Y-86839239D01*
X157700000Y-86565684D01*
X158765685Y-85500000D01*
X189934315Y-85500000D01*
X186034316Y-89400000D01*
X163239394Y-89400000D01*
X163200000Y-89392164D01*
X163160606Y-89400000D01*
X163043928Y-89423209D01*
X162911616Y-89511616D01*
X162889299Y-89545016D01*
X159015018Y-93419298D01*
X158981615Y-93441617D01*
X158895299Y-93570801D01*
X158893208Y-93573930D01*
X158862163Y-93730001D01*
X158869999Y-93769395D01*
X158870000Y-98917588D01*
X158868707Y-98916724D01*
X158533261Y-98850000D01*
X158306739Y-98850000D01*
X157971293Y-98916724D01*
X157590897Y-99170897D01*
X157336724Y-99551293D01*
X157247471Y-100000000D01*
X157336724Y-100448707D01*
X157590897Y-100829103D01*
X157971293Y-101083276D01*
X158306739Y-101150000D01*
X158533261Y-101150000D01*
X158868707Y-101083276D01*
X159249103Y-100829103D01*
X159503276Y-100448707D01*
X159592529Y-100000000D01*
X159787471Y-100000000D01*
X159876724Y-100448707D01*
X160130897Y-100829103D01*
X160511293Y-101083276D01*
X160846739Y-101150000D01*
X161073261Y-101150000D01*
X161408707Y-101083276D01*
X161789103Y-100829103D01*
X162043276Y-100448707D01*
X162132529Y-100000000D01*
X162043276Y-99551293D01*
X161789103Y-99170897D01*
X161408707Y-98916724D01*
X161073261Y-98850000D01*
X160846739Y-98850000D01*
X160511293Y-98916724D01*
X160130897Y-99170897D01*
X159876724Y-99551293D01*
X159787471Y-100000000D01*
X159592529Y-100000000D01*
X159503276Y-99551293D01*
X159475685Y-99510001D01*
X159524987Y-99460699D01*
X159558383Y-99438385D01*
X159646790Y-99306073D01*
X159669999Y-99189395D01*
X159669999Y-99189394D01*
X159677835Y-99150002D01*
X159669999Y-99110609D01*
X159669999Y-93895685D01*
X159907746Y-93657939D01*
X160006568Y-93896518D01*
X160203482Y-94093432D01*
X160460761Y-94200000D01*
X160500000Y-94200000D01*
X160500001Y-95460602D01*
X160492164Y-95500000D01*
X160523209Y-95656071D01*
X160523210Y-95656072D01*
X160611617Y-95788384D01*
X160645017Y-95810701D01*
X163100000Y-98265686D01*
X163100000Y-98907036D01*
X163051293Y-98916724D01*
X162670897Y-99170897D01*
X162416724Y-99551293D01*
X162327471Y-100000000D01*
X162416724Y-100448707D01*
X162670897Y-100829103D01*
X163051293Y-101083276D01*
X163386739Y-101150000D01*
X163613261Y-101150000D01*
X163948707Y-101083276D01*
X164329103Y-100829103D01*
X164583276Y-100448707D01*
X164672529Y-100000000D01*
X164583276Y-99551293D01*
X164329103Y-99170897D01*
X163948707Y-98916724D01*
X163900000Y-98907036D01*
X163900000Y-98425685D01*
X164984315Y-99510000D01*
X164956724Y-99551293D01*
X164867471Y-100000000D01*
X164956724Y-100448707D01*
X165210897Y-100829103D01*
X165591293Y-101083276D01*
X165926739Y-101150000D01*
X166153261Y-101150000D01*
X166488707Y-101083276D01*
X166869103Y-100829103D01*
X167123276Y-100448707D01*
X167212529Y-100000000D01*
X167123276Y-99551293D01*
X166921957Y-99249999D01*
X167264315Y-99249999D01*
X167524315Y-99510000D01*
X167496724Y-99551293D01*
X167407471Y-100000000D01*
X167496724Y-100448707D01*
X167750897Y-100829103D01*
X168131293Y-101083276D01*
X168466739Y-101150000D01*
X168693261Y-101150000D01*
X169028707Y-101083276D01*
X169409103Y-100829103D01*
X169663276Y-100448707D01*
X169752529Y-100000000D01*
X169663276Y-99551293D01*
X169409103Y-99170897D01*
X169028707Y-98916724D01*
X168693261Y-98850000D01*
X168466739Y-98850000D01*
X168131293Y-98916724D01*
X168090000Y-98944315D01*
X167995672Y-98849988D01*
X169404304Y-98849988D01*
X170064315Y-99510000D01*
X170036724Y-99551293D01*
X169947471Y-100000000D01*
X170036724Y-100448707D01*
X170290897Y-100829103D01*
X170671293Y-101083276D01*
X171006739Y-101150000D01*
X171233261Y-101150000D01*
X171568707Y-101083276D01*
X171949103Y-100829103D01*
X172203276Y-100448707D01*
X172292529Y-100000000D01*
X172487471Y-100000000D01*
X172576724Y-100448707D01*
X172830897Y-100829103D01*
X173211293Y-101083276D01*
X173546739Y-101150000D01*
X173773261Y-101150000D01*
X174108707Y-101083276D01*
X174489103Y-100829103D01*
X174743276Y-100448707D01*
X174832529Y-100000000D01*
X175027471Y-100000000D01*
X175116724Y-100448707D01*
X175370897Y-100829103D01*
X175751293Y-101083276D01*
X176086739Y-101150000D01*
X176313261Y-101150000D01*
X176648707Y-101083276D01*
X177029103Y-100829103D01*
X177283276Y-100448707D01*
X177372529Y-100000000D01*
X177567471Y-100000000D01*
X177656724Y-100448707D01*
X177910897Y-100829103D01*
X178291293Y-101083276D01*
X178626739Y-101150000D01*
X178853261Y-101150000D01*
X179188707Y-101083276D01*
X179569103Y-100829103D01*
X179823276Y-100448707D01*
X179912529Y-100000000D01*
X180107471Y-100000000D01*
X180196724Y-100448707D01*
X180450897Y-100829103D01*
X180831293Y-101083276D01*
X181166739Y-101150000D01*
X181393261Y-101150000D01*
X181728707Y-101083276D01*
X182109103Y-100829103D01*
X182363276Y-100448707D01*
X182452529Y-100000000D01*
X182647471Y-100000000D01*
X182736724Y-100448707D01*
X182990897Y-100829103D01*
X183371293Y-101083276D01*
X183706739Y-101150000D01*
X183933261Y-101150000D01*
X184268707Y-101083276D01*
X184649103Y-100829103D01*
X184903276Y-100448707D01*
X184992529Y-100000000D01*
X185187471Y-100000000D01*
X185276724Y-100448707D01*
X185530897Y-100829103D01*
X185911293Y-101083276D01*
X186246739Y-101150000D01*
X186473261Y-101150000D01*
X186808707Y-101083276D01*
X187189103Y-100829103D01*
X187443276Y-100448707D01*
X187532529Y-100000000D01*
X187727471Y-100000000D01*
X187816724Y-100448707D01*
X188070897Y-100829103D01*
X188451293Y-101083276D01*
X188786739Y-101150000D01*
X189013261Y-101150000D01*
X189348707Y-101083276D01*
X189729103Y-100829103D01*
X189983276Y-100448707D01*
X190072529Y-100000000D01*
X190267471Y-100000000D01*
X190356724Y-100448707D01*
X190610897Y-100829103D01*
X190991293Y-101083276D01*
X191326739Y-101150000D01*
X191553261Y-101150000D01*
X191888707Y-101083276D01*
X192269103Y-100829103D01*
X192523276Y-100448707D01*
X192612529Y-100000000D01*
X192523276Y-99551293D01*
X192269103Y-99170897D01*
X191888707Y-98916724D01*
X191553261Y-98850000D01*
X191326739Y-98850000D01*
X190991293Y-98916724D01*
X190610897Y-99170897D01*
X190356724Y-99551293D01*
X190267471Y-100000000D01*
X190072529Y-100000000D01*
X189983276Y-99551293D01*
X189729103Y-99170897D01*
X189348707Y-98916724D01*
X189013261Y-98850000D01*
X188786739Y-98850000D01*
X188451293Y-98916724D01*
X188070897Y-99170897D01*
X187816724Y-99551293D01*
X187727471Y-100000000D01*
X187532529Y-100000000D01*
X187443276Y-99551293D01*
X187189103Y-99170897D01*
X186808707Y-98916724D01*
X186473261Y-98850000D01*
X186246739Y-98850000D01*
X185911293Y-98916724D01*
X185530897Y-99170897D01*
X185276724Y-99551293D01*
X185187471Y-100000000D01*
X184992529Y-100000000D01*
X184903276Y-99551293D01*
X184649103Y-99170897D01*
X184268707Y-98916724D01*
X183933261Y-98850000D01*
X183706739Y-98850000D01*
X183371293Y-98916724D01*
X182990897Y-99170897D01*
X182736724Y-99551293D01*
X182647471Y-100000000D01*
X182452529Y-100000000D01*
X182363276Y-99551293D01*
X182109103Y-99170897D01*
X181728707Y-98916724D01*
X181393261Y-98850000D01*
X181166739Y-98850000D01*
X180831293Y-98916724D01*
X180450897Y-99170897D01*
X180196724Y-99551293D01*
X180107471Y-100000000D01*
X179912529Y-100000000D01*
X179823276Y-99551293D01*
X179569103Y-99170897D01*
X179188707Y-98916724D01*
X178853261Y-98850000D01*
X178626739Y-98850000D01*
X178291293Y-98916724D01*
X177910897Y-99170897D01*
X177656724Y-99551293D01*
X177567471Y-100000000D01*
X177372529Y-100000000D01*
X177283276Y-99551293D01*
X177029103Y-99170897D01*
X176648707Y-98916724D01*
X176313261Y-98850000D01*
X176086739Y-98850000D01*
X175751293Y-98916724D01*
X175370897Y-99170897D01*
X175116724Y-99551293D01*
X175027471Y-100000000D01*
X174832529Y-100000000D01*
X174743276Y-99551293D01*
X174489103Y-99170897D01*
X174108707Y-98916724D01*
X173773261Y-98850000D01*
X173546739Y-98850000D01*
X173211293Y-98916724D01*
X172830897Y-99170897D01*
X172576724Y-99551293D01*
X172487471Y-100000000D01*
X172292529Y-100000000D01*
X172203276Y-99551293D01*
X171949103Y-99170897D01*
X171568707Y-98916724D01*
X171233261Y-98850000D01*
X171006739Y-98850000D01*
X170671293Y-98916724D01*
X170630000Y-98944315D01*
X169880691Y-98195007D01*
X169858372Y-98161604D01*
X169726060Y-98073197D01*
X169609382Y-98049988D01*
X169569988Y-98042152D01*
X169530594Y-98049988D01*
X165787074Y-98049988D01*
X162600000Y-94862916D01*
X162600000Y-93843071D01*
X162726944Y-94033056D01*
X163090801Y-94276177D01*
X163411661Y-94340000D01*
X163628339Y-94340000D01*
X163949199Y-94276177D01*
X164313056Y-94033056D01*
X164556177Y-93669199D01*
X164641550Y-93240000D01*
X164556177Y-92810801D01*
X164313056Y-92446944D01*
X163949199Y-92203823D01*
X163628339Y-92140000D01*
X163425686Y-92140000D01*
X163565686Y-92000000D01*
X165366580Y-92000000D01*
X165406568Y-92096539D01*
X165560695Y-92250666D01*
X165266944Y-92446944D01*
X165023823Y-92810801D01*
X164938450Y-93240000D01*
X165023823Y-93669199D01*
X165266944Y-94033056D01*
X165630801Y-94276177D01*
X165951661Y-94340000D01*
X166168339Y-94340000D01*
X166489199Y-94276177D01*
X166853056Y-94033056D01*
X167096177Y-93669199D01*
X167181550Y-93240000D01*
X167096177Y-92810801D01*
X166853056Y-92446944D01*
X166489199Y-92203823D01*
X166486654Y-92203317D01*
X166593432Y-92096539D01*
X166700000Y-91839260D01*
X166700000Y-91560782D01*
X166633407Y-91400011D01*
X167055859Y-91400011D01*
X167503475Y-91847627D01*
X167606568Y-92096518D01*
X167803482Y-92293432D01*
X167947446Y-92353064D01*
X167806944Y-92446944D01*
X167563823Y-92810801D01*
X167478450Y-93240000D01*
X167563823Y-93669199D01*
X167806944Y-94033056D01*
X168170801Y-94276177D01*
X168491661Y-94340000D01*
X168708339Y-94340000D01*
X169029199Y-94276177D01*
X169393056Y-94033056D01*
X169636177Y-93669199D01*
X169721550Y-93240000D01*
X169636177Y-92810801D01*
X169393056Y-92446944D01*
X169029199Y-92203823D01*
X168743046Y-92146904D01*
X168793432Y-92096518D01*
X168900000Y-91839239D01*
X168900000Y-91560761D01*
X168793432Y-91303482D01*
X168596518Y-91106568D01*
X168339239Y-91000000D01*
X169834316Y-91000000D01*
X170400000Y-91565685D01*
X170400000Y-91839239D01*
X170506568Y-92096518D01*
X170652697Y-92242647D01*
X170346944Y-92446944D01*
X170103823Y-92810801D01*
X170018450Y-93240000D01*
X170103823Y-93669199D01*
X170346944Y-94033056D01*
X170710801Y-94276177D01*
X171031661Y-94340000D01*
X171248339Y-94340000D01*
X171569199Y-94276177D01*
X171933056Y-94033056D01*
X172176177Y-93669199D01*
X172261550Y-93240000D01*
X172558450Y-93240000D01*
X172643823Y-93669199D01*
X172886944Y-94033056D01*
X173250801Y-94276177D01*
X173571661Y-94340000D01*
X173788339Y-94340000D01*
X174109199Y-94276177D01*
X174473056Y-94033056D01*
X174716177Y-93669199D01*
X174801550Y-93240000D01*
X175098450Y-93240000D01*
X175183823Y-93669199D01*
X175426944Y-94033056D01*
X175790801Y-94276177D01*
X176111661Y-94340000D01*
X176328339Y-94340000D01*
X176649199Y-94276177D01*
X177013056Y-94033056D01*
X177256177Y-93669199D01*
X177341550Y-93240000D01*
X177638450Y-93240000D01*
X177723823Y-93669199D01*
X177966944Y-94033056D01*
X178330801Y-94276177D01*
X178651661Y-94340000D01*
X178868339Y-94340000D01*
X179189199Y-94276177D01*
X179553056Y-94033056D01*
X179796177Y-93669199D01*
X179881550Y-93240000D01*
X179796177Y-92810801D01*
X179553056Y-92446944D01*
X179189199Y-92203823D01*
X178868339Y-92140000D01*
X178651661Y-92140000D01*
X178330801Y-92203823D01*
X177966944Y-92446944D01*
X177723823Y-92810801D01*
X177638450Y-93240000D01*
X177341550Y-93240000D01*
X177256177Y-92810801D01*
X177013056Y-92446944D01*
X176649199Y-92203823D01*
X176328339Y-92140000D01*
X176111661Y-92140000D01*
X175790801Y-92203823D01*
X175426944Y-92446944D01*
X175183823Y-92810801D01*
X175098450Y-93240000D01*
X174801550Y-93240000D01*
X174716177Y-92810801D01*
X174473056Y-92446944D01*
X174109199Y-92203823D01*
X173788339Y-92140000D01*
X173571661Y-92140000D01*
X173250801Y-92203823D01*
X172886944Y-92446944D01*
X172643823Y-92810801D01*
X172558450Y-93240000D01*
X172261550Y-93240000D01*
X172176177Y-92810801D01*
X171933056Y-92446944D01*
X171579347Y-92210603D01*
X171693432Y-92096518D01*
X171800000Y-91839239D01*
X171800000Y-91560761D01*
X171693432Y-91303482D01*
X171496518Y-91106568D01*
X171239239Y-91000000D01*
X170965685Y-91000000D01*
X170310703Y-90345019D01*
X170288384Y-90311616D01*
X170156072Y-90223209D01*
X170039394Y-90200000D01*
X186160606Y-90200000D01*
X186200000Y-90207836D01*
X186239394Y-90200000D01*
X186356072Y-90176791D01*
X186488384Y-90088384D01*
X186510703Y-90054981D01*
X194065686Y-82500000D01*
X194510050Y-82500000D01*
X194703482Y-82693432D01*
X194960761Y-82800000D01*
X195239239Y-82800000D01*
X195496518Y-82693432D01*
X195693432Y-82496518D01*
X195800000Y-82239239D01*
X195800000Y-81960761D01*
X195693432Y-81703482D01*
X195496518Y-81506568D01*
X195239239Y-81400000D01*
X194960761Y-81400000D01*
X194703482Y-81506568D01*
X194510050Y-81700000D01*
X194165685Y-81700000D01*
X196759808Y-79105877D01*
X197340000Y-79105877D01*
X197457054Y-79082593D01*
X197556288Y-79016288D01*
X197600000Y-78950867D01*
X197600001Y-92930571D01*
X197576177Y-92810801D01*
X197333056Y-92446944D01*
X196969199Y-92203823D01*
X196648339Y-92140000D01*
X196431661Y-92140000D01*
X196110801Y-92203823D01*
X195746944Y-92446944D01*
X195503823Y-92810801D01*
X195418450Y-93240000D01*
X195503823Y-93669199D01*
X195746944Y-94033056D01*
X196110801Y-94276177D01*
X196431661Y-94340000D01*
X196648339Y-94340000D01*
X196969199Y-94276177D01*
X197333056Y-94033056D01*
X197576177Y-93669199D01*
X197600001Y-93549429D01*
X197600001Y-99546392D01*
X197349103Y-99170897D01*
X196968707Y-98916724D01*
X196633261Y-98850000D01*
X196406739Y-98850000D01*
X196071293Y-98916724D01*
X196030000Y-98944315D01*
X195980701Y-98895017D01*
X195980699Y-98895014D01*
X193830703Y-96745019D01*
X193808384Y-96711616D01*
X193676072Y-96623209D01*
X193559394Y-96600000D01*
X193520000Y-96592164D01*
X193480606Y-96600000D01*
X178505684Y-96600000D01*
X180846048Y-94259638D01*
X180870801Y-94276177D01*
X181191661Y-94340000D01*
X181408339Y-94340000D01*
X181729199Y-94276177D01*
X182093056Y-94033056D01*
X182336177Y-93669199D01*
X182421550Y-93240000D01*
X182718450Y-93240000D01*
X182803823Y-93669199D01*
X183046944Y-94033056D01*
X183410801Y-94276177D01*
X183731661Y-94340000D01*
X183948339Y-94340000D01*
X184269199Y-94276177D01*
X184633056Y-94033056D01*
X184876177Y-93669199D01*
X184961550Y-93240000D01*
X185258450Y-93240000D01*
X185343823Y-93669199D01*
X185586944Y-94033056D01*
X185950801Y-94276177D01*
X186271661Y-94340000D01*
X186488339Y-94340000D01*
X186809199Y-94276177D01*
X187173056Y-94033056D01*
X187416177Y-93669199D01*
X187501550Y-93240000D01*
X187798450Y-93240000D01*
X187883823Y-93669199D01*
X188126944Y-94033056D01*
X188490801Y-94276177D01*
X188811661Y-94340000D01*
X189028339Y-94340000D01*
X189349199Y-94276177D01*
X189713056Y-94033056D01*
X189956177Y-93669199D01*
X190041550Y-93240000D01*
X190338450Y-93240000D01*
X190423823Y-93669199D01*
X190666944Y-94033056D01*
X191030801Y-94276177D01*
X191351661Y-94340000D01*
X191568339Y-94340000D01*
X191889199Y-94276177D01*
X192253056Y-94033056D01*
X192496177Y-93669199D01*
X192581550Y-93240000D01*
X192878450Y-93240000D01*
X192963823Y-93669199D01*
X193206944Y-94033056D01*
X193570801Y-94276177D01*
X193891661Y-94340000D01*
X194108339Y-94340000D01*
X194429199Y-94276177D01*
X194793056Y-94033056D01*
X195036177Y-93669199D01*
X195121550Y-93240000D01*
X195036177Y-92810801D01*
X194793056Y-92446944D01*
X194429199Y-92203823D01*
X194108339Y-92140000D01*
X193891661Y-92140000D01*
X193570801Y-92203823D01*
X193206944Y-92446944D01*
X192963823Y-92810801D01*
X192878450Y-93240000D01*
X192581550Y-93240000D01*
X192496177Y-92810801D01*
X192253056Y-92446944D01*
X191889199Y-92203823D01*
X191568339Y-92140000D01*
X191351661Y-92140000D01*
X191030801Y-92203823D01*
X190666944Y-92446944D01*
X190423823Y-92810801D01*
X190338450Y-93240000D01*
X190041550Y-93240000D01*
X189956177Y-92810801D01*
X189713056Y-92446944D01*
X189349199Y-92203823D01*
X189028339Y-92140000D01*
X188811661Y-92140000D01*
X188490801Y-92203823D01*
X188126944Y-92446944D01*
X187883823Y-92810801D01*
X187798450Y-93240000D01*
X187501550Y-93240000D01*
X187416177Y-92810801D01*
X187173056Y-92446944D01*
X186809199Y-92203823D01*
X186488339Y-92140000D01*
X186271661Y-92140000D01*
X185950801Y-92203823D01*
X185586944Y-92446944D01*
X185343823Y-92810801D01*
X185258450Y-93240000D01*
X184961550Y-93240000D01*
X184876177Y-92810801D01*
X184633056Y-92446944D01*
X184269199Y-92203823D01*
X183948339Y-92140000D01*
X183731661Y-92140000D01*
X183410801Y-92203823D01*
X183046944Y-92446944D01*
X182803823Y-92810801D01*
X182718450Y-93240000D01*
X182421550Y-93240000D01*
X182336177Y-92810801D01*
X182093056Y-92446944D01*
X181729199Y-92203823D01*
X181408339Y-92140000D01*
X181191661Y-92140000D01*
X180870801Y-92203823D01*
X180506944Y-92446944D01*
X180263823Y-92810801D01*
X180254283Y-92858763D01*
X180231930Y-92863209D01*
X180099618Y-92951616D01*
X180011211Y-93083928D01*
X179980166Y-93240000D01*
X180011211Y-93396072D01*
X180099618Y-93528384D01*
X180231930Y-93616791D01*
X180254283Y-93621237D01*
X180263823Y-93669199D01*
X180280362Y-93693952D01*
X177874316Y-96100000D01*
X172765685Y-96100000D01*
X172610702Y-95945018D01*
X172588384Y-95911616D01*
X172456072Y-95823209D01*
X172339394Y-95800000D01*
X172300000Y-95792164D01*
X172260606Y-95800000D01*
X171339392Y-95800000D01*
X171299999Y-95792164D01*
X171260607Y-95800000D01*
X171260606Y-95800000D01*
X171143928Y-95823209D01*
X171125308Y-95835651D01*
X171039239Y-95800000D01*
X170760761Y-95800000D01*
X170503482Y-95906568D01*
X170306568Y-96103482D01*
X170200000Y-96360761D01*
X170200000Y-96639239D01*
X170306568Y-96896518D01*
X170503482Y-97093432D01*
X170760761Y-97200000D01*
X171039239Y-97200000D01*
X171112584Y-97169620D01*
X171206568Y-97396518D01*
X171403482Y-97593432D01*
X171660761Y-97700000D01*
X171939239Y-97700000D01*
X172196518Y-97593432D01*
X172250071Y-97539879D01*
X172200000Y-97660761D01*
X172200000Y-97939239D01*
X172306568Y-98196518D01*
X172503482Y-98393432D01*
X172760761Y-98500000D01*
X173039239Y-98500000D01*
X173296518Y-98393432D01*
X173493432Y-98196518D01*
X173600000Y-97939239D01*
X173600000Y-97900000D01*
X191314316Y-97900000D01*
X192924315Y-99510000D01*
X192896724Y-99551293D01*
X192807471Y-100000000D01*
X192896724Y-100448707D01*
X193150897Y-100829103D01*
X193531293Y-101083276D01*
X193866739Y-101150000D01*
X194093261Y-101150000D01*
X194428707Y-101083276D01*
X194809103Y-100829103D01*
X195063276Y-100448707D01*
X195152529Y-100000000D01*
X195063276Y-99551293D01*
X194809103Y-99170897D01*
X194428707Y-98916724D01*
X194093261Y-98850000D01*
X193866739Y-98850000D01*
X193531293Y-98916724D01*
X193490000Y-98944315D01*
X191945684Y-97400000D01*
X193354316Y-97400000D01*
X195415014Y-99460699D01*
X195415017Y-99460701D01*
X195464315Y-99510000D01*
X195436724Y-99551293D01*
X195347471Y-100000000D01*
X195436724Y-100448707D01*
X195690897Y-100829103D01*
X196071293Y-101083276D01*
X196406739Y-101150000D01*
X196633261Y-101150000D01*
X196968707Y-101083276D01*
X197349103Y-100829103D01*
X197600001Y-100453608D01*
X197600001Y-101600000D01*
X98400000Y-101600000D01*
X98400000Y-99150000D01*
X98844123Y-99150000D01*
X98844123Y-100850000D01*
X98867407Y-100967054D01*
X98933712Y-101066288D01*
X99032946Y-101132593D01*
X99150000Y-101155877D01*
X100850000Y-101155877D01*
X100967054Y-101132593D01*
X101066288Y-101066288D01*
X101132593Y-100967054D01*
X101155877Y-100850000D01*
X101155877Y-100000000D01*
X101367471Y-100000000D01*
X101456724Y-100448707D01*
X101710897Y-100829103D01*
X102091293Y-101083276D01*
X102426739Y-101150000D01*
X102653261Y-101150000D01*
X102988707Y-101083276D01*
X103369103Y-100829103D01*
X103623276Y-100448707D01*
X103712529Y-100000000D01*
X103907471Y-100000000D01*
X103996724Y-100448707D01*
X104250897Y-100829103D01*
X104631293Y-101083276D01*
X104966739Y-101150000D01*
X105193261Y-101150000D01*
X105528707Y-101083276D01*
X105909103Y-100829103D01*
X106163276Y-100448707D01*
X106252529Y-100000000D01*
X106447471Y-100000000D01*
X106536724Y-100448707D01*
X106790897Y-100829103D01*
X107171293Y-101083276D01*
X107506739Y-101150000D01*
X107733261Y-101150000D01*
X108068707Y-101083276D01*
X108449103Y-100829103D01*
X108703276Y-100448707D01*
X108792529Y-100000000D01*
X108987471Y-100000000D01*
X109076724Y-100448707D01*
X109330897Y-100829103D01*
X109711293Y-101083276D01*
X110046739Y-101150000D01*
X110273261Y-101150000D01*
X110608707Y-101083276D01*
X110989103Y-100829103D01*
X111243276Y-100448707D01*
X111332529Y-100000000D01*
X111527471Y-100000000D01*
X111616724Y-100448707D01*
X111870897Y-100829103D01*
X112251293Y-101083276D01*
X112586739Y-101150000D01*
X112813261Y-101150000D01*
X113148707Y-101083276D01*
X113529103Y-100829103D01*
X113783276Y-100448707D01*
X113872529Y-100000000D01*
X113783276Y-99551293D01*
X113529103Y-99170897D01*
X113148707Y-98916724D01*
X112813261Y-98850000D01*
X112586739Y-98850000D01*
X112251293Y-98916724D01*
X111870897Y-99170897D01*
X111616724Y-99551293D01*
X111527471Y-100000000D01*
X111332529Y-100000000D01*
X111243276Y-99551293D01*
X110989103Y-99170897D01*
X110608707Y-98916724D01*
X110273261Y-98850000D01*
X110046739Y-98850000D01*
X109711293Y-98916724D01*
X109330897Y-99170897D01*
X109076724Y-99551293D01*
X108987471Y-100000000D01*
X108792529Y-100000000D01*
X108703276Y-99551293D01*
X108449103Y-99170897D01*
X108068707Y-98916724D01*
X107733261Y-98850000D01*
X107506739Y-98850000D01*
X107171293Y-98916724D01*
X106790897Y-99170897D01*
X106536724Y-99551293D01*
X106447471Y-100000000D01*
X106252529Y-100000000D01*
X106163276Y-99551293D01*
X105909103Y-99170897D01*
X105528707Y-98916724D01*
X105193261Y-98850000D01*
X104966739Y-98850000D01*
X104631293Y-98916724D01*
X104250897Y-99170897D01*
X103996724Y-99551293D01*
X103907471Y-100000000D01*
X103712529Y-100000000D01*
X103623276Y-99551293D01*
X103369103Y-99170897D01*
X102988707Y-98916724D01*
X102653261Y-98850000D01*
X102426739Y-98850000D01*
X102091293Y-98916724D01*
X101710897Y-99170897D01*
X101456724Y-99551293D01*
X101367471Y-100000000D01*
X101155877Y-100000000D01*
X101155877Y-99150000D01*
X101132593Y-99032946D01*
X101066288Y-98933712D01*
X100967054Y-98867407D01*
X100850000Y-98844123D01*
X99150000Y-98844123D01*
X99032946Y-98867407D01*
X98933712Y-98933712D01*
X98867407Y-99032946D01*
X98844123Y-99150000D01*
X98400000Y-99150000D01*
X98400000Y-94306000D01*
X100032000Y-94306000D01*
X100032000Y-94920939D01*
X100124563Y-95144405D01*
X100295596Y-95315438D01*
X100519062Y-95408000D01*
X101134000Y-95408000D01*
X101286000Y-95256000D01*
X101286000Y-94154000D01*
X101594000Y-94154000D01*
X101594000Y-95256000D01*
X101746000Y-95408000D01*
X102360938Y-95408000D01*
X102584404Y-95315438D01*
X102755437Y-95144405D01*
X102848000Y-94920939D01*
X102848000Y-94306000D01*
X102696000Y-94154000D01*
X101594000Y-94154000D01*
X101286000Y-94154000D01*
X100184000Y-94154000D01*
X100032000Y-94306000D01*
X98400000Y-94306000D01*
X98400000Y-94000000D01*
X102858450Y-94000000D01*
X102943823Y-94429199D01*
X103186944Y-94793056D01*
X103550801Y-95036177D01*
X103871661Y-95100000D01*
X104088339Y-95100000D01*
X104409199Y-95036177D01*
X104773056Y-94793056D01*
X105016177Y-94429199D01*
X105101550Y-94000000D01*
X105398450Y-94000000D01*
X105483823Y-94429199D01*
X105726944Y-94793056D01*
X106090801Y-95036177D01*
X106411661Y-95100000D01*
X106628339Y-95100000D01*
X106949199Y-95036177D01*
X107313056Y-94793056D01*
X107556177Y-94429199D01*
X107641550Y-94000000D01*
X107938450Y-94000000D01*
X108023823Y-94429199D01*
X108266944Y-94793056D01*
X108630801Y-95036177D01*
X108951661Y-95100000D01*
X109168339Y-95100000D01*
X109489199Y-95036177D01*
X109853056Y-94793056D01*
X110096177Y-94429199D01*
X110181550Y-94000000D01*
X110478450Y-94000000D01*
X110563823Y-94429199D01*
X110806944Y-94793056D01*
X111170801Y-95036177D01*
X111491661Y-95100000D01*
X111708339Y-95100000D01*
X112029199Y-95036177D01*
X112393056Y-94793056D01*
X112636177Y-94429199D01*
X112721550Y-94000000D01*
X112636177Y-93570801D01*
X112393056Y-93206944D01*
X112029199Y-92963823D01*
X111708339Y-92900000D01*
X111491661Y-92900000D01*
X111170801Y-92963823D01*
X110806944Y-93206944D01*
X110563823Y-93570801D01*
X110478450Y-94000000D01*
X110181550Y-94000000D01*
X110096177Y-93570801D01*
X109853056Y-93206944D01*
X109489199Y-92963823D01*
X109168339Y-92900000D01*
X108951661Y-92900000D01*
X108630801Y-92963823D01*
X108266944Y-93206944D01*
X108023823Y-93570801D01*
X107938450Y-94000000D01*
X107641550Y-94000000D01*
X107556177Y-93570801D01*
X107313056Y-93206944D01*
X106949199Y-92963823D01*
X106628339Y-92900000D01*
X106411661Y-92900000D01*
X106090801Y-92963823D01*
X105726944Y-93206944D01*
X105483823Y-93570801D01*
X105398450Y-94000000D01*
X105101550Y-94000000D01*
X105016177Y-93570801D01*
X104773056Y-93206944D01*
X104409199Y-92963823D01*
X104088339Y-92900000D01*
X103871661Y-92900000D01*
X103550801Y-92963823D01*
X103186944Y-93206944D01*
X102943823Y-93570801D01*
X102858450Y-94000000D01*
X98400000Y-94000000D01*
X98400000Y-93079061D01*
X100032000Y-93079061D01*
X100032000Y-93694000D01*
X100184000Y-93846000D01*
X101286000Y-93846000D01*
X101286000Y-92744000D01*
X101594000Y-92744000D01*
X101594000Y-93846000D01*
X102696000Y-93846000D01*
X102848000Y-93694000D01*
X102848000Y-93079061D01*
X102755437Y-92855595D01*
X102584404Y-92684562D01*
X102360938Y-92592000D01*
X101746000Y-92592000D01*
X101594000Y-92744000D01*
X101286000Y-92744000D01*
X101134000Y-92592000D01*
X100519062Y-92592000D01*
X100295596Y-92684562D01*
X100124563Y-92855595D01*
X100032000Y-93079061D01*
X98400000Y-93079061D01*
X98400000Y-78760000D01*
X100318450Y-78760000D01*
X100403823Y-79189199D01*
X100646944Y-79553056D01*
X101010801Y-79796177D01*
X101331661Y-79860000D01*
X101548339Y-79860000D01*
X101869199Y-79796177D01*
X102233056Y-79553056D01*
X102476177Y-79189199D01*
X102561550Y-78760000D01*
X102858450Y-78760000D01*
X102943823Y-79189199D01*
X103186944Y-79553056D01*
X103550801Y-79796177D01*
X103871661Y-79860000D01*
X104088339Y-79860000D01*
X104409199Y-79796177D01*
X104773056Y-79553056D01*
X105016177Y-79189199D01*
X105101550Y-78760000D01*
X105398450Y-78760000D01*
X105483823Y-79189199D01*
X105726944Y-79553056D01*
X106090801Y-79796177D01*
X106411661Y-79860000D01*
X106628339Y-79860000D01*
X106949199Y-79796177D01*
X107313056Y-79553056D01*
X107556177Y-79189199D01*
X107641550Y-78760000D01*
X107938450Y-78760000D01*
X108023823Y-79189199D01*
X108266944Y-79553056D01*
X108630801Y-79796177D01*
X108951661Y-79860000D01*
X109168339Y-79860000D01*
X109489199Y-79796177D01*
X109853056Y-79553056D01*
X110096177Y-79189199D01*
X110181550Y-78760000D01*
X110478450Y-78760000D01*
X110563823Y-79189199D01*
X110806944Y-79553056D01*
X111170801Y-79796177D01*
X111491661Y-79860000D01*
X111708339Y-79860000D01*
X112029199Y-79796177D01*
X112300001Y-79615233D01*
X112300000Y-90477319D01*
X112290205Y-90526560D01*
X112300000Y-90575801D01*
X112300000Y-90575802D01*
X112329011Y-90721649D01*
X112439520Y-90887040D01*
X112481271Y-90914937D01*
X114520462Y-92954129D01*
X114248339Y-92900000D01*
X114031661Y-92900000D01*
X113710801Y-92963823D01*
X113346944Y-93206944D01*
X113103823Y-93570801D01*
X113018450Y-94000000D01*
X113103823Y-94429199D01*
X113346944Y-94793056D01*
X113710801Y-95036177D01*
X114031661Y-95100000D01*
X114248339Y-95100000D01*
X114569199Y-95036177D01*
X114933056Y-94793056D01*
X115176177Y-94429199D01*
X115261550Y-94000000D01*
X115185871Y-93619538D01*
X115559758Y-93993425D01*
X115558450Y-94000000D01*
X115643823Y-94429199D01*
X115886944Y-94793056D01*
X116250801Y-95036177D01*
X116571661Y-95100000D01*
X116788339Y-95100000D01*
X117109199Y-95036177D01*
X117473056Y-94793056D01*
X117716177Y-94429199D01*
X117801550Y-94000000D01*
X117716177Y-93570801D01*
X117473056Y-93206944D01*
X117109199Y-92963823D01*
X116788339Y-92900000D01*
X116571661Y-92900000D01*
X116250801Y-92963823D01*
X116067109Y-93086562D01*
X113898518Y-90917972D01*
X114096497Y-90835967D01*
X114132464Y-90800000D01*
X117210050Y-90800000D01*
X117403482Y-90993432D01*
X117660761Y-91100000D01*
X117939239Y-91100000D01*
X118196518Y-90993432D01*
X118393432Y-90796518D01*
X118500000Y-90539239D01*
X118500000Y-90260761D01*
X118393432Y-90003482D01*
X118196518Y-89806568D01*
X117939239Y-89700000D01*
X118196518Y-89593432D01*
X118393432Y-89396518D01*
X118500000Y-89139239D01*
X118500000Y-88860761D01*
X118393432Y-88603482D01*
X118196518Y-88406568D01*
X118180661Y-88400000D01*
X118196518Y-88393432D01*
X118393432Y-88196518D01*
X118500000Y-87939239D01*
X118500000Y-87660761D01*
X118393432Y-87403482D01*
X118196518Y-87206568D01*
X117939239Y-87100000D01*
X117660761Y-87100000D01*
X117403482Y-87206568D01*
X117210050Y-87400000D01*
X114389950Y-87400000D01*
X114196518Y-87206568D01*
X113939239Y-87100000D01*
X113660761Y-87100000D01*
X113403482Y-87206568D01*
X113300000Y-87310050D01*
X113300000Y-79482799D01*
X113346944Y-79553056D01*
X113710801Y-79796177D01*
X114031661Y-79860000D01*
X114248339Y-79860000D01*
X114569199Y-79796177D01*
X114933056Y-79553056D01*
X115176177Y-79189199D01*
X115261550Y-78760000D01*
X115558450Y-78760000D01*
X115643823Y-79189199D01*
X115886944Y-79553056D01*
X116250801Y-79796177D01*
X116571661Y-79860000D01*
X116788339Y-79860000D01*
X117109199Y-79796177D01*
X117473056Y-79553056D01*
X117716177Y-79189199D01*
X117801550Y-78760000D01*
X118098450Y-78760000D01*
X118183823Y-79189199D01*
X118426944Y-79553056D01*
X118790801Y-79796177D01*
X119111661Y-79860000D01*
X119328339Y-79860000D01*
X119649199Y-79796177D01*
X120013056Y-79553056D01*
X120256177Y-79189199D01*
X120341550Y-78760000D01*
X120638450Y-78760000D01*
X120723823Y-79189199D01*
X120966944Y-79553056D01*
X121330801Y-79796177D01*
X121651661Y-79860000D01*
X121868339Y-79860000D01*
X122189199Y-79796177D01*
X122553056Y-79553056D01*
X122796177Y-79189199D01*
X122881550Y-78760000D01*
X122796177Y-78330801D01*
X122553056Y-77966944D01*
X122189199Y-77723823D01*
X121868339Y-77660000D01*
X121651661Y-77660000D01*
X121330801Y-77723823D01*
X120966944Y-77966944D01*
X120723823Y-78330801D01*
X120638450Y-78760000D01*
X120341550Y-78760000D01*
X120256177Y-78330801D01*
X120013056Y-77966944D01*
X119649199Y-77723823D01*
X119328339Y-77660000D01*
X119111661Y-77660000D01*
X118790801Y-77723823D01*
X118426944Y-77966944D01*
X118183823Y-78330801D01*
X118098450Y-78760000D01*
X117801550Y-78760000D01*
X117716177Y-78330801D01*
X117473056Y-77966944D01*
X117109199Y-77723823D01*
X116788339Y-77660000D01*
X116571661Y-77660000D01*
X116250801Y-77723823D01*
X115886944Y-77966944D01*
X115643823Y-78330801D01*
X115558450Y-78760000D01*
X115261550Y-78760000D01*
X115176177Y-78330801D01*
X114933056Y-77966944D01*
X114569199Y-77723823D01*
X114248339Y-77660000D01*
X114031661Y-77660000D01*
X113710801Y-77723823D01*
X113346944Y-77966944D01*
X113300000Y-78037201D01*
X113300000Y-76489950D01*
X113393432Y-76396518D01*
X113500000Y-76139239D01*
X113500000Y-75860761D01*
X113393432Y-75603482D01*
X113196518Y-75406568D01*
X112939239Y-75300000D01*
X112660761Y-75300000D01*
X112403482Y-75406568D01*
X112206568Y-75603482D01*
X112100000Y-75860761D01*
X112100000Y-76139239D01*
X112206568Y-76396518D01*
X112300000Y-76489950D01*
X112300000Y-76614927D01*
X112300001Y-76614932D01*
X112300001Y-77904767D01*
X112029199Y-77723823D01*
X111708339Y-77660000D01*
X111491661Y-77660000D01*
X111170801Y-77723823D01*
X110806944Y-77966944D01*
X110563823Y-78330801D01*
X110478450Y-78760000D01*
X110181550Y-78760000D01*
X110096177Y-78330801D01*
X109853056Y-77966944D01*
X109489199Y-77723823D01*
X109168339Y-77660000D01*
X108951661Y-77660000D01*
X108630801Y-77723823D01*
X108266944Y-77966944D01*
X108023823Y-78330801D01*
X107938450Y-78760000D01*
X107641550Y-78760000D01*
X107556177Y-78330801D01*
X107313056Y-77966944D01*
X106949199Y-77723823D01*
X106628339Y-77660000D01*
X106411661Y-77660000D01*
X106090801Y-77723823D01*
X105726944Y-77966944D01*
X105483823Y-78330801D01*
X105398450Y-78760000D01*
X105101550Y-78760000D01*
X105016177Y-78330801D01*
X104773056Y-77966944D01*
X104409199Y-77723823D01*
X104088339Y-77660000D01*
X103871661Y-77660000D01*
X103550801Y-77723823D01*
X103186944Y-77966944D01*
X102943823Y-78330801D01*
X102858450Y-78760000D01*
X102561550Y-78760000D01*
X102476177Y-78330801D01*
X102233056Y-77966944D01*
X101869199Y-77723823D01*
X101548339Y-77660000D01*
X101331661Y-77660000D01*
X101010801Y-77723823D01*
X100646944Y-77966944D01*
X100403823Y-78330801D01*
X100318450Y-78760000D01*
X98400000Y-78760000D01*
X98400000Y-65179626D01*
X107152080Y-57400000D01*
X195971504Y-57400000D01*
X196447922Y-57468228D01*
G36*
X163053031Y-76681499D02*
X162821944Y-76777209D01*
X162407139Y-77137423D01*
X162161757Y-77628956D01*
X162272435Y-77846000D01*
X163366000Y-77846000D01*
X163366000Y-77826000D01*
X163674000Y-77826000D01*
X163674000Y-77846000D01*
X164767565Y-77846000D01*
X164878243Y-77628956D01*
X164664112Y-77200022D01*
X165277304Y-77200022D01*
X165266944Y-77206944D01*
X165023823Y-77570801D01*
X164938450Y-78000000D01*
X165023823Y-78429199D01*
X165266944Y-78793056D01*
X165576477Y-78999879D01*
X164474751Y-78999879D01*
X164632861Y-78862577D01*
X164878243Y-78371044D01*
X164767565Y-78154000D01*
X163674000Y-78154000D01*
X163674000Y-78174000D01*
X163366000Y-78174000D01*
X163366000Y-78154000D01*
X162272435Y-78154000D01*
X162161757Y-78371044D01*
X162407139Y-78862577D01*
X162565249Y-78999879D01*
X155401672Y-78999879D01*
X155601551Y-78800000D01*
X155639239Y-78800000D01*
X155896518Y-78693432D01*
X156093432Y-78496518D01*
X156200000Y-78239239D01*
X156200000Y-77960761D01*
X156093432Y-77703482D01*
X155896518Y-77506568D01*
X155639239Y-77400000D01*
X155360761Y-77400000D01*
X155103482Y-77506568D01*
X154950000Y-77660050D01*
X154796518Y-77506568D01*
X154539239Y-77400000D01*
X154349326Y-77400000D01*
X154330360Y-77371615D01*
X154198048Y-77283208D01*
X154081370Y-77259999D01*
X154041976Y-77252163D01*
X154002582Y-77259999D01*
X148299393Y-77259999D01*
X148260000Y-77252163D01*
X148220607Y-77259999D01*
X148103929Y-77283208D01*
X147971617Y-77371615D01*
X147949302Y-77405012D01*
X147613952Y-77740363D01*
X147589199Y-77723823D01*
X147268339Y-77660000D01*
X147051661Y-77660000D01*
X146730801Y-77723823D01*
X146366944Y-77966944D01*
X146123823Y-78330801D01*
X146038450Y-78760000D01*
X146123823Y-79189199D01*
X146304767Y-79460001D01*
X145475233Y-79460001D01*
X145656177Y-79189199D01*
X145741550Y-78760000D01*
X145656177Y-78330801D01*
X145413056Y-77966944D01*
X145049199Y-77723823D01*
X144728339Y-77660000D01*
X144511661Y-77660000D01*
X144190801Y-77723823D01*
X143826944Y-77966944D01*
X143583823Y-78330801D01*
X143498450Y-78760000D01*
X143583823Y-79189199D01*
X143764767Y-79460001D01*
X142935233Y-79460001D01*
X143116177Y-79189199D01*
X143201550Y-78760000D01*
X143116177Y-78330801D01*
X142873056Y-77966944D01*
X142509199Y-77723823D01*
X142188339Y-77660000D01*
X141971661Y-77660000D01*
X141650801Y-77723823D01*
X141286944Y-77966944D01*
X141043823Y-78330801D01*
X140958450Y-78760000D01*
X141043823Y-79189199D01*
X141224767Y-79460001D01*
X140395233Y-79460001D01*
X140576177Y-79189199D01*
X140661550Y-78760000D01*
X140576177Y-78330801D01*
X140333056Y-77966944D01*
X139969199Y-77723823D01*
X139940000Y-77718015D01*
X139940000Y-77225684D01*
X140565663Y-76600022D01*
X162971555Y-76600022D01*
X163053031Y-76681499D01*
X163053031Y-76681499D01*
G37*
X163053031Y-76681499D02*
X162821944Y-76777209D01*
X162407139Y-77137423D01*
X162161757Y-77628956D01*
X162272435Y-77846000D01*
X163366000Y-77846000D01*
X163366000Y-77826000D01*
X163674000Y-77826000D01*
X163674000Y-77846000D01*
X164767565Y-77846000D01*
X164878243Y-77628956D01*
X164664112Y-77200022D01*
X165277304Y-77200022D01*
X165266944Y-77206944D01*
X165023823Y-77570801D01*
X164938450Y-78000000D01*
X165023823Y-78429199D01*
X165266944Y-78793056D01*
X165576477Y-78999879D01*
X164474751Y-78999879D01*
X164632861Y-78862577D01*
X164878243Y-78371044D01*
X164767565Y-78154000D01*
X163674000Y-78154000D01*
X163674000Y-78174000D01*
X163366000Y-78174000D01*
X163366000Y-78154000D01*
X162272435Y-78154000D01*
X162161757Y-78371044D01*
X162407139Y-78862577D01*
X162565249Y-78999879D01*
X155401672Y-78999879D01*
X155601551Y-78800000D01*
X155639239Y-78800000D01*
X155896518Y-78693432D01*
X156093432Y-78496518D01*
X156200000Y-78239239D01*
X156200000Y-77960761D01*
X156093432Y-77703482D01*
X155896518Y-77506568D01*
X155639239Y-77400000D01*
X155360761Y-77400000D01*
X155103482Y-77506568D01*
X154950000Y-77660050D01*
X154796518Y-77506568D01*
X154539239Y-77400000D01*
X154349326Y-77400000D01*
X154330360Y-77371615D01*
X154198048Y-77283208D01*
X154081370Y-77259999D01*
X154041976Y-77252163D01*
X154002582Y-77259999D01*
X148299393Y-77259999D01*
X148260000Y-77252163D01*
X148220607Y-77259999D01*
X148103929Y-77283208D01*
X147971617Y-77371615D01*
X147949302Y-77405012D01*
X147613952Y-77740363D01*
X147589199Y-77723823D01*
X147268339Y-77660000D01*
X147051661Y-77660000D01*
X146730801Y-77723823D01*
X146366944Y-77966944D01*
X146123823Y-78330801D01*
X146038450Y-78760000D01*
X146123823Y-79189199D01*
X146304767Y-79460001D01*
X145475233Y-79460001D01*
X145656177Y-79189199D01*
X145741550Y-78760000D01*
X145656177Y-78330801D01*
X145413056Y-77966944D01*
X145049199Y-77723823D01*
X144728339Y-77660000D01*
X144511661Y-77660000D01*
X144190801Y-77723823D01*
X143826944Y-77966944D01*
X143583823Y-78330801D01*
X143498450Y-78760000D01*
X143583823Y-79189199D01*
X143764767Y-79460001D01*
X142935233Y-79460001D01*
X143116177Y-79189199D01*
X143201550Y-78760000D01*
X143116177Y-78330801D01*
X142873056Y-77966944D01*
X142509199Y-77723823D01*
X142188339Y-77660000D01*
X141971661Y-77660000D01*
X141650801Y-77723823D01*
X141286944Y-77966944D01*
X141043823Y-78330801D01*
X140958450Y-78760000D01*
X141043823Y-79189199D01*
X141224767Y-79460001D01*
X140395233Y-79460001D01*
X140576177Y-79189199D01*
X140661550Y-78760000D01*
X140576177Y-78330801D01*
X140333056Y-77966944D01*
X139969199Y-77723823D01*
X139940000Y-77718015D01*
X139940000Y-77225684D01*
X140565663Y-76600022D01*
X162971555Y-76600022D01*
X163053031Y-76681499D01*
G04 #@! TD*
M02*
