G04 #@! TF.GenerationSoftware,KiCad,Pcbnew,(5.0.0)*
G04 #@! TF.CreationDate,2020-03-05T15:16:05+00:00*
G04 #@! TF.ProjectId,basic-mc6800,62617369632D6D63363830302E6B6963,rev?*
G04 #@! TF.SameCoordinates,Original*
G04 #@! TF.FileFunction,Legend,Top*
G04 #@! TF.FilePolarity,Positive*
%FSLAX46Y46*%
G04 Gerber Fmt 4.6, Leading zero omitted, Abs format (unit mm)*
G04 Created by KiCad (PCBNEW (5.0.0)) date 03/05/20 15:16:05*
%MOMM*%
%LPD*%
G01*
G04 APERTURE LIST*
%ADD10C,0.300000*%
%ADD11C,0.120000*%
%ADD12C,0.150000*%
G04 APERTURE END LIST*
D10*
X170435714Y-68203571D02*
X170435714Y-66703571D01*
X170935714Y-67775000D01*
X171435714Y-66703571D01*
X171435714Y-68203571D01*
X172435714Y-66703571D02*
X172721428Y-66703571D01*
X172864285Y-66775000D01*
X173007142Y-66917857D01*
X173078571Y-67203571D01*
X173078571Y-67703571D01*
X173007142Y-67989285D01*
X172864285Y-68132142D01*
X172721428Y-68203571D01*
X172435714Y-68203571D01*
X172292857Y-68132142D01*
X172150000Y-67989285D01*
X172078571Y-67703571D01*
X172078571Y-67203571D01*
X172150000Y-66917857D01*
X172292857Y-66775000D01*
X172435714Y-66703571D01*
X174578571Y-68203571D02*
X174078571Y-67489285D01*
X173721428Y-68203571D02*
X173721428Y-66703571D01*
X174292857Y-66703571D01*
X174435714Y-66775000D01*
X174507142Y-66846428D01*
X174578571Y-66989285D01*
X174578571Y-67203571D01*
X174507142Y-67346428D01*
X174435714Y-67417857D01*
X174292857Y-67489285D01*
X173721428Y-67489285D01*
X175221428Y-67417857D02*
X175721428Y-67417857D01*
X175935714Y-68203571D02*
X175221428Y-68203571D01*
X175221428Y-66703571D01*
X175935714Y-66703571D01*
X178578571Y-68203571D02*
X178078571Y-67489285D01*
X177721428Y-68203571D02*
X177721428Y-66703571D01*
X178292857Y-66703571D01*
X178435714Y-66775000D01*
X178507142Y-66846428D01*
X178578571Y-66989285D01*
X178578571Y-67203571D01*
X178507142Y-67346428D01*
X178435714Y-67417857D01*
X178292857Y-67489285D01*
X177721428Y-67489285D01*
X179150000Y-67775000D02*
X179864285Y-67775000D01*
X179007142Y-68203571D02*
X179507142Y-66703571D01*
X180007142Y-68203571D01*
X180507142Y-68203571D02*
X180507142Y-66703571D01*
X181007142Y-67775000D01*
X181507142Y-66703571D01*
X181507142Y-68203571D01*
X183150000Y-66703571D02*
X184007142Y-66703571D01*
X183578571Y-68203571D02*
X183578571Y-66703571D01*
X184507142Y-68203571D02*
X184507142Y-66703571D01*
X184507142Y-67417857D02*
X185364285Y-67417857D01*
X185364285Y-68203571D02*
X185364285Y-66703571D01*
X186007142Y-67775000D02*
X186721428Y-67775000D01*
X185864285Y-68203571D02*
X186364285Y-66703571D01*
X186864285Y-68203571D01*
X187364285Y-68203571D02*
X187364285Y-66703571D01*
X188221428Y-68203571D01*
X188221428Y-66703571D01*
X169757142Y-70325000D02*
X170471428Y-70325000D01*
X169614285Y-70753571D02*
X170114285Y-69253571D01*
X170614285Y-70753571D01*
X172757142Y-69967857D02*
X172257142Y-69967857D01*
X172257142Y-70753571D02*
X172257142Y-69253571D01*
X172971428Y-69253571D01*
X173542857Y-70753571D02*
X173542857Y-69253571D01*
X174257142Y-69967857D02*
X174757142Y-69967857D01*
X174971428Y-70753571D02*
X174257142Y-70753571D01*
X174257142Y-69253571D01*
X174971428Y-69253571D01*
X176328571Y-70753571D02*
X175614285Y-70753571D01*
X175614285Y-69253571D01*
X176828571Y-70753571D02*
X176828571Y-69253571D01*
X177185714Y-69253571D01*
X177400000Y-69325000D01*
X177542857Y-69467857D01*
X177614285Y-69610714D01*
X177685714Y-69896428D01*
X177685714Y-70110714D01*
X177614285Y-70396428D01*
X177542857Y-70539285D01*
X177400000Y-70682142D01*
X177185714Y-70753571D01*
X176828571Y-70753571D01*
X179757142Y-69253571D02*
X180042857Y-69253571D01*
X180185714Y-69325000D01*
X180328571Y-69467857D01*
X180400000Y-69753571D01*
X180400000Y-70253571D01*
X180328571Y-70539285D01*
X180185714Y-70682142D01*
X180042857Y-70753571D01*
X179757142Y-70753571D01*
X179614285Y-70682142D01*
X179471428Y-70539285D01*
X179400000Y-70253571D01*
X179400000Y-69753571D01*
X179471428Y-69467857D01*
X179614285Y-69325000D01*
X179757142Y-69253571D01*
X181542857Y-69967857D02*
X181042857Y-69967857D01*
X181042857Y-70753571D02*
X181042857Y-69253571D01*
X181757142Y-69253571D01*
X183400000Y-70682142D02*
X183614285Y-70753571D01*
X183971428Y-70753571D01*
X184114285Y-70682142D01*
X184185714Y-70610714D01*
X184257142Y-70467857D01*
X184257142Y-70325000D01*
X184185714Y-70182142D01*
X184114285Y-70110714D01*
X183971428Y-70039285D01*
X183685714Y-69967857D01*
X183542857Y-69896428D01*
X183471428Y-69825000D01*
X183400000Y-69682142D01*
X183400000Y-69539285D01*
X183471428Y-69396428D01*
X183542857Y-69325000D01*
X183685714Y-69253571D01*
X184042857Y-69253571D01*
X184257142Y-69325000D01*
X184900000Y-70753571D02*
X184900000Y-69253571D01*
X184900000Y-69967857D02*
X185757142Y-69967857D01*
X185757142Y-70753571D02*
X185757142Y-69253571D01*
X186471428Y-69967857D02*
X186971428Y-69967857D01*
X187185714Y-70753571D02*
X186471428Y-70753571D01*
X186471428Y-69253571D01*
X187185714Y-69253571D01*
X187828571Y-69967857D02*
X188328571Y-69967857D01*
X188542857Y-70753571D02*
X187828571Y-70753571D01*
X187828571Y-69253571D01*
X188542857Y-69253571D01*
X189185714Y-70753571D02*
X189185714Y-69253571D01*
X189757142Y-69253571D01*
X189900000Y-69325000D01*
X189971428Y-69396428D01*
X190042857Y-69539285D01*
X190042857Y-69753571D01*
X189971428Y-69896428D01*
X189900000Y-69967857D01*
X189757142Y-70039285D01*
X189185714Y-70039285D01*
X171400000Y-84275000D02*
X172114285Y-84275000D01*
X171257142Y-84703571D02*
X171757142Y-83203571D01*
X172257142Y-84703571D01*
X173471428Y-84703571D02*
X172757142Y-84703571D01*
X172757142Y-83203571D01*
X174685714Y-84703571D02*
X173971428Y-84703571D01*
X173971428Y-83203571D01*
X176328571Y-84703571D02*
X176328571Y-83203571D01*
X176685714Y-83203571D01*
X176900000Y-83275000D01*
X177042857Y-83417857D01*
X177114285Y-83560714D01*
X177185714Y-83846428D01*
X177185714Y-84060714D01*
X177114285Y-84346428D01*
X177042857Y-84489285D01*
X176900000Y-84632142D01*
X176685714Y-84703571D01*
X176328571Y-84703571D01*
X177757142Y-84275000D02*
X178471428Y-84275000D01*
X177614285Y-84703571D02*
X178114285Y-83203571D01*
X178614285Y-84703571D01*
X178900000Y-83203571D02*
X179757142Y-83203571D01*
X179328571Y-84703571D02*
X179328571Y-83203571D01*
X182257142Y-84703571D02*
X181757142Y-83989285D01*
X181400000Y-84703571D02*
X181400000Y-83203571D01*
X181971428Y-83203571D01*
X182114285Y-83275000D01*
X182185714Y-83346428D01*
X182257142Y-83489285D01*
X182257142Y-83703571D01*
X182185714Y-83846428D01*
X182114285Y-83917857D01*
X181971428Y-83989285D01*
X181400000Y-83989285D01*
X183185714Y-83203571D02*
X183471428Y-83203571D01*
X183614285Y-83275000D01*
X183757142Y-83417857D01*
X183828571Y-83703571D01*
X183828571Y-84203571D01*
X183757142Y-84489285D01*
X183614285Y-84632142D01*
X183471428Y-84703571D01*
X183185714Y-84703571D01*
X183042857Y-84632142D01*
X182900000Y-84489285D01*
X182828571Y-84203571D01*
X182828571Y-83703571D01*
X182900000Y-83417857D01*
X183042857Y-83275000D01*
X183185714Y-83203571D01*
X184471428Y-84703571D02*
X184471428Y-83203571D01*
X184971428Y-84275000D01*
X185471428Y-83203571D01*
X185471428Y-84703571D01*
X186185714Y-84560714D02*
X186257142Y-84632142D01*
X186185714Y-84703571D01*
X186114285Y-84632142D01*
X186185714Y-84560714D01*
X186185714Y-84703571D01*
X186185714Y-84132142D02*
X186114285Y-83275000D01*
X186185714Y-83203571D01*
X186257142Y-83275000D01*
X186185714Y-84132142D01*
X186185714Y-83203571D01*
X186900000Y-84560714D02*
X186971428Y-84632142D01*
X186900000Y-84703571D01*
X186828571Y-84632142D01*
X186900000Y-84560714D01*
X186900000Y-84703571D01*
X186900000Y-84132142D02*
X186828571Y-83275000D01*
X186900000Y-83203571D01*
X186971428Y-83275000D01*
X186900000Y-84132142D01*
X186900000Y-83203571D01*
X187614285Y-84560714D02*
X187685714Y-84632142D01*
X187614285Y-84703571D01*
X187542857Y-84632142D01*
X187614285Y-84560714D01*
X187614285Y-84703571D01*
X187614285Y-84132142D02*
X187542857Y-83275000D01*
X187614285Y-83203571D01*
X187685714Y-83275000D01*
X187614285Y-84132142D01*
X187614285Y-83203571D01*
X188328571Y-84560714D02*
X188400000Y-84632142D01*
X188328571Y-84703571D01*
X188257142Y-84632142D01*
X188328571Y-84560714D01*
X188328571Y-84703571D01*
X188328571Y-84132142D02*
X188257142Y-83275000D01*
X188328571Y-83203571D01*
X188400000Y-83275000D01*
X188328571Y-84132142D01*
X188328571Y-83203571D01*
X174828571Y-87253571D02*
X174828571Y-85753571D01*
X175685714Y-87253571D01*
X175685714Y-85753571D01*
X176685714Y-85753571D02*
X176971428Y-85753571D01*
X177114285Y-85825000D01*
X177257142Y-85967857D01*
X177328571Y-86253571D01*
X177328571Y-86753571D01*
X177257142Y-87039285D01*
X177114285Y-87182142D01*
X176971428Y-87253571D01*
X176685714Y-87253571D01*
X176542857Y-87182142D01*
X176400000Y-87039285D01*
X176328571Y-86753571D01*
X176328571Y-86253571D01*
X176400000Y-85967857D01*
X176542857Y-85825000D01*
X176685714Y-85753571D01*
X177971428Y-87253571D02*
X177971428Y-85753571D01*
X178471428Y-86825000D01*
X178971428Y-85753571D01*
X178971428Y-87253571D01*
X180828571Y-87253571D02*
X180828571Y-85753571D01*
X181685714Y-87253571D01*
X181685714Y-85753571D01*
X182685714Y-85753571D02*
X182971428Y-85753571D01*
X183114285Y-85825000D01*
X183257142Y-85967857D01*
X183328571Y-86253571D01*
X183328571Y-86753571D01*
X183257142Y-87039285D01*
X183114285Y-87182142D01*
X182971428Y-87253571D01*
X182685714Y-87253571D01*
X182542857Y-87182142D01*
X182400000Y-87039285D01*
X182328571Y-86753571D01*
X182328571Y-86253571D01*
X182400000Y-85967857D01*
X182542857Y-85825000D01*
X182685714Y-85753571D01*
X183971428Y-87253571D02*
X183971428Y-85753571D01*
X184471428Y-86825000D01*
X184971428Y-85753571D01*
X184971428Y-87253571D01*
X117100000Y-87278571D02*
X117100000Y-85778571D01*
X117600000Y-86850000D01*
X118100000Y-85778571D01*
X118100000Y-87278571D01*
X118814285Y-87278571D02*
X118814285Y-85778571D01*
X119385714Y-85778571D01*
X119528571Y-85850000D01*
X119600000Y-85921428D01*
X119671428Y-86064285D01*
X119671428Y-86278571D01*
X119600000Y-86421428D01*
X119528571Y-86492857D01*
X119385714Y-86564285D01*
X118814285Y-86564285D01*
X120314285Y-85778571D02*
X120314285Y-86992857D01*
X120385714Y-87135714D01*
X120457142Y-87207142D01*
X120600000Y-87278571D01*
X120885714Y-87278571D01*
X121028571Y-87207142D01*
X121100000Y-87135714D01*
X121171428Y-86992857D01*
X121171428Y-85778571D01*
X123028571Y-87278571D02*
X123028571Y-85778571D01*
X123600000Y-85778571D01*
X123742857Y-85850000D01*
X123814285Y-85921428D01*
X123885714Y-86064285D01*
X123885714Y-86278571D01*
X123814285Y-86421428D01*
X123742857Y-86492857D01*
X123600000Y-86564285D01*
X123028571Y-86564285D01*
X124814285Y-85778571D02*
X125100000Y-85778571D01*
X125242857Y-85850000D01*
X125385714Y-85992857D01*
X125457142Y-86278571D01*
X125457142Y-86778571D01*
X125385714Y-87064285D01*
X125242857Y-87207142D01*
X125100000Y-87278571D01*
X124814285Y-87278571D01*
X124671428Y-87207142D01*
X124528571Y-87064285D01*
X124457142Y-86778571D01*
X124457142Y-86278571D01*
X124528571Y-85992857D01*
X124671428Y-85850000D01*
X124814285Y-85778571D01*
X125957142Y-85778571D02*
X126314285Y-87278571D01*
X126600000Y-86207142D01*
X126885714Y-87278571D01*
X127242857Y-85778571D01*
X127814285Y-86492857D02*
X128314285Y-86492857D01*
X128528571Y-87278571D02*
X127814285Y-87278571D01*
X127814285Y-85778571D01*
X128528571Y-85778571D01*
X130028571Y-87278571D02*
X129528571Y-86564285D01*
X129171428Y-87278571D02*
X129171428Y-85778571D01*
X129742857Y-85778571D01*
X129885714Y-85850000D01*
X129957142Y-85921428D01*
X130028571Y-86064285D01*
X130028571Y-86278571D01*
X129957142Y-86421428D01*
X129885714Y-86492857D01*
X129742857Y-86564285D01*
X129171428Y-86564285D01*
X130671428Y-87135714D02*
X130742857Y-87207142D01*
X130671428Y-87278571D01*
X130600000Y-87207142D01*
X130671428Y-87135714D01*
X130671428Y-87278571D01*
X130671428Y-86707142D02*
X130600000Y-85850000D01*
X130671428Y-85778571D01*
X130742857Y-85850000D01*
X130671428Y-86707142D01*
X130671428Y-85778571D01*
X131385714Y-87135714D02*
X131457142Y-87207142D01*
X131385714Y-87278571D01*
X131314285Y-87207142D01*
X131385714Y-87135714D01*
X131385714Y-87278571D01*
X131385714Y-86707142D02*
X131314285Y-85850000D01*
X131385714Y-85778571D01*
X131457142Y-85850000D01*
X131385714Y-86707142D01*
X131385714Y-85778571D01*
X132100000Y-87135714D02*
X132171428Y-87207142D01*
X132100000Y-87278571D01*
X132028571Y-87207142D01*
X132100000Y-87135714D01*
X132100000Y-87278571D01*
X132100000Y-86707142D02*
X132028571Y-85850000D01*
X132100000Y-85778571D01*
X132171428Y-85850000D01*
X132100000Y-86707142D01*
X132100000Y-85778571D01*
X114964285Y-75378571D02*
X114249999Y-75378571D01*
X114178571Y-76092857D01*
X114249999Y-76021428D01*
X114392857Y-75950000D01*
X114749999Y-75950000D01*
X114892857Y-76021428D01*
X114964285Y-76092857D01*
X115035714Y-76235714D01*
X115035714Y-76592857D01*
X114964285Y-76735714D01*
X114892857Y-76807142D01*
X114749999Y-76878571D01*
X114392857Y-76878571D01*
X114249999Y-76807142D01*
X114178571Y-76735714D01*
X115749999Y-76878571D02*
X116035714Y-76878571D01*
X116178571Y-76807142D01*
X116249999Y-76735714D01*
X116392857Y-76521428D01*
X116464285Y-76235714D01*
X116464285Y-75664285D01*
X116392857Y-75521428D01*
X116321428Y-75450000D01*
X116178571Y-75378571D01*
X115892857Y-75378571D01*
X115749999Y-75450000D01*
X115678571Y-75521428D01*
X115607142Y-75664285D01*
X115607142Y-76021428D01*
X115678571Y-76164285D01*
X115749999Y-76235714D01*
X115892857Y-76307142D01*
X116178571Y-76307142D01*
X116321428Y-76235714D01*
X116392857Y-76164285D01*
X116464285Y-76021428D01*
X118249999Y-76878571D02*
X118249999Y-75378571D01*
X118964285Y-75878571D02*
X118964285Y-76878571D01*
X118964285Y-76021428D02*
X119035714Y-75950000D01*
X119178571Y-75878571D01*
X119392857Y-75878571D01*
X119535714Y-75950000D01*
X119607142Y-76092857D01*
X119607142Y-76878571D01*
X120249999Y-76807142D02*
X120392857Y-76878571D01*
X120678571Y-76878571D01*
X120821428Y-76807142D01*
X120892857Y-76664285D01*
X120892857Y-76592857D01*
X120821428Y-76450000D01*
X120678571Y-76378571D01*
X120464285Y-76378571D01*
X120321428Y-76307142D01*
X120249999Y-76164285D01*
X120249999Y-76092857D01*
X120321428Y-75950000D01*
X120464285Y-75878571D01*
X120678571Y-75878571D01*
X120821428Y-75950000D01*
X121321428Y-75878571D02*
X121892857Y-75878571D01*
X121535714Y-75378571D02*
X121535714Y-76664285D01*
X121607142Y-76807142D01*
X121749999Y-76878571D01*
X121892857Y-76878571D01*
X122392857Y-76878571D02*
X122392857Y-75878571D01*
X122392857Y-76164285D02*
X122464285Y-76021428D01*
X122535714Y-75950000D01*
X122678571Y-75878571D01*
X122821428Y-75878571D01*
X123964285Y-75878571D02*
X123964285Y-76878571D01*
X123321428Y-75878571D02*
X123321428Y-76664285D01*
X123392857Y-76807142D01*
X123535714Y-76878571D01*
X123749999Y-76878571D01*
X123892857Y-76807142D01*
X123964285Y-76735714D01*
X125321428Y-76807142D02*
X125178571Y-76878571D01*
X124892857Y-76878571D01*
X124749999Y-76807142D01*
X124678571Y-76735714D01*
X124607142Y-76592857D01*
X124607142Y-76164285D01*
X124678571Y-76021428D01*
X124749999Y-75950000D01*
X124892857Y-75878571D01*
X125178571Y-75878571D01*
X125321428Y-75950000D01*
X125749999Y-75878571D02*
X126321428Y-75878571D01*
X125964285Y-75378571D02*
X125964285Y-76664285D01*
X126035714Y-76807142D01*
X126178571Y-76878571D01*
X126321428Y-76878571D01*
X126821428Y-76878571D02*
X126821428Y-75878571D01*
X126821428Y-75378571D02*
X126749999Y-75450000D01*
X126821428Y-75521428D01*
X126892857Y-75450000D01*
X126821428Y-75378571D01*
X126821428Y-75521428D01*
X127749999Y-76878571D02*
X127607142Y-76807142D01*
X127535714Y-76735714D01*
X127464285Y-76592857D01*
X127464285Y-76164285D01*
X127535714Y-76021428D01*
X127607142Y-75950000D01*
X127749999Y-75878571D01*
X127964285Y-75878571D01*
X128107142Y-75950000D01*
X128178571Y-76021428D01*
X128249999Y-76164285D01*
X128249999Y-76592857D01*
X128178571Y-76735714D01*
X128107142Y-76807142D01*
X127964285Y-76878571D01*
X127749999Y-76878571D01*
X128892857Y-75878571D02*
X128892857Y-76878571D01*
X128892857Y-76021428D02*
X128964285Y-75950000D01*
X129107142Y-75878571D01*
X129321428Y-75878571D01*
X129464285Y-75950000D01*
X129535714Y-76092857D01*
X129535714Y-76878571D01*
X130178571Y-76807142D02*
X130321428Y-76878571D01*
X130607142Y-76878571D01*
X130749999Y-76807142D01*
X130821428Y-76664285D01*
X130821428Y-76592857D01*
X130749999Y-76450000D01*
X130607142Y-76378571D01*
X130392857Y-76378571D01*
X130249999Y-76307142D01*
X130178571Y-76164285D01*
X130178571Y-76092857D01*
X130249999Y-75950000D01*
X130392857Y-75878571D01*
X130607142Y-75878571D01*
X130749999Y-75950000D01*
X114228571Y-72921428D02*
X114300000Y-72850000D01*
X114442857Y-72778571D01*
X114800000Y-72778571D01*
X114942857Y-72850000D01*
X115014285Y-72921428D01*
X115085714Y-73064285D01*
X115085714Y-73207142D01*
X115014285Y-73421428D01*
X114157142Y-74278571D01*
X115085714Y-74278571D01*
X115728571Y-74278571D02*
X115728571Y-72778571D01*
X116228571Y-73850000D01*
X116728571Y-72778571D01*
X116728571Y-74278571D01*
X117442857Y-74278571D02*
X117442857Y-72778571D01*
X117442857Y-73492857D02*
X118300000Y-73492857D01*
X118300000Y-74278571D02*
X118300000Y-72778571D01*
X118871428Y-73278571D02*
X119657142Y-73278571D01*
X118871428Y-74278571D01*
X119657142Y-74278571D01*
X121371428Y-74278571D02*
X121371428Y-72778571D01*
X121942857Y-72778571D01*
X122085714Y-72850000D01*
X122157142Y-72921428D01*
X122228571Y-73064285D01*
X122228571Y-73278571D01*
X122157142Y-73421428D01*
X122085714Y-73492857D01*
X121942857Y-73564285D01*
X121371428Y-73564285D01*
X123085714Y-74278571D02*
X122942857Y-74207142D01*
X122871428Y-74135714D01*
X122800000Y-73992857D01*
X122800000Y-73564285D01*
X122871428Y-73421428D01*
X122942857Y-73350000D01*
X123085714Y-73278571D01*
X123300000Y-73278571D01*
X123442857Y-73350000D01*
X123514285Y-73421428D01*
X123585714Y-73564285D01*
X123585714Y-73992857D01*
X123514285Y-74135714D01*
X123442857Y-74207142D01*
X123300000Y-74278571D01*
X123085714Y-74278571D01*
X124085714Y-73278571D02*
X124371428Y-74278571D01*
X124657142Y-73564285D01*
X124942857Y-74278571D01*
X125228571Y-73278571D01*
X126371428Y-74207142D02*
X126228571Y-74278571D01*
X125942857Y-74278571D01*
X125800000Y-74207142D01*
X125728571Y-74064285D01*
X125728571Y-73492857D01*
X125800000Y-73350000D01*
X125942857Y-73278571D01*
X126228571Y-73278571D01*
X126371428Y-73350000D01*
X126442857Y-73492857D01*
X126442857Y-73635714D01*
X125728571Y-73778571D01*
X127085714Y-74278571D02*
X127085714Y-73278571D01*
X127085714Y-73564285D02*
X127157142Y-73421428D01*
X127228571Y-73350000D01*
X127371428Y-73278571D01*
X127514285Y-73278571D01*
X153628571Y-90321428D02*
X153628571Y-90178571D01*
X153700000Y-90035714D01*
X153771428Y-89964285D01*
X153914285Y-89892857D01*
X154200000Y-89821428D01*
X154557142Y-89821428D01*
X154842857Y-89892857D01*
X154985714Y-89964285D01*
X155057142Y-90035714D01*
X155128571Y-90178571D01*
X155128571Y-90321428D01*
X155057142Y-90464285D01*
X154985714Y-90535714D01*
X154842857Y-90607142D01*
X154557142Y-90678571D01*
X154200000Y-90678571D01*
X153914285Y-90607142D01*
X153771428Y-90535714D01*
X153700000Y-90464285D01*
X153628571Y-90321428D01*
X155128571Y-89321428D02*
X154128571Y-88535714D01*
X154128571Y-89321428D02*
X155128571Y-88535714D01*
X155128571Y-87892857D02*
X155128571Y-87607142D01*
X155057142Y-87464285D01*
X154985714Y-87392857D01*
X154771428Y-87250000D01*
X154485714Y-87178571D01*
X153914285Y-87178571D01*
X153771428Y-87250000D01*
X153700000Y-87321428D01*
X153628571Y-87464285D01*
X153628571Y-87750000D01*
X153700000Y-87892857D01*
X153771428Y-87964285D01*
X153914285Y-88035714D01*
X154271428Y-88035714D01*
X154414285Y-87964285D01*
X154485714Y-87892857D01*
X154557142Y-87750000D01*
X154557142Y-87464285D01*
X154485714Y-87321428D01*
X154414285Y-87250000D01*
X154271428Y-87178571D01*
X153628571Y-86250000D02*
X153628571Y-86107142D01*
X153700000Y-85964285D01*
X153771428Y-85892857D01*
X153914285Y-85821428D01*
X154200000Y-85750000D01*
X154557142Y-85750000D01*
X154842857Y-85821428D01*
X154985714Y-85892857D01*
X155057142Y-85964285D01*
X155128571Y-86107142D01*
X155128571Y-86250000D01*
X155057142Y-86392857D01*
X154985714Y-86464285D01*
X154842857Y-86535714D01*
X154557142Y-86607142D01*
X154200000Y-86607142D01*
X153914285Y-86535714D01*
X153771428Y-86464285D01*
X153700000Y-86392857D01*
X153628571Y-86250000D01*
X153628571Y-84821428D02*
X153628571Y-84678571D01*
X153700000Y-84535714D01*
X153771428Y-84464285D01*
X153914285Y-84392857D01*
X154200000Y-84321428D01*
X154557142Y-84321428D01*
X154842857Y-84392857D01*
X154985714Y-84464285D01*
X155057142Y-84535714D01*
X155128571Y-84678571D01*
X155128571Y-84821428D01*
X155057142Y-84964285D01*
X154985714Y-85035714D01*
X154842857Y-85107142D01*
X154557142Y-85178571D01*
X154200000Y-85178571D01*
X153914285Y-85107142D01*
X153771428Y-85035714D01*
X153700000Y-84964285D01*
X153628571Y-84821428D01*
X153628571Y-83392857D02*
X153628571Y-83250000D01*
X153700000Y-83107142D01*
X153771428Y-83035714D01*
X153914285Y-82964285D01*
X154200000Y-82892857D01*
X154557142Y-82892857D01*
X154842857Y-82964285D01*
X154985714Y-83035714D01*
X155057142Y-83107142D01*
X155128571Y-83250000D01*
X155128571Y-83392857D01*
X155057142Y-83535714D01*
X154985714Y-83607142D01*
X154842857Y-83678571D01*
X154557142Y-83750000D01*
X154200000Y-83750000D01*
X153914285Y-83678571D01*
X153771428Y-83607142D01*
X153700000Y-83535714D01*
X153628571Y-83392857D01*
X154557142Y-82250000D02*
X154557142Y-81107142D01*
X153628571Y-80107142D02*
X153628571Y-79964285D01*
X153700000Y-79821428D01*
X153771428Y-79750000D01*
X153914285Y-79678571D01*
X154200000Y-79607142D01*
X154557142Y-79607142D01*
X154842857Y-79678571D01*
X154985714Y-79750000D01*
X155057142Y-79821428D01*
X155128571Y-79964285D01*
X155128571Y-80107142D01*
X155057142Y-80250000D01*
X154985714Y-80321428D01*
X154842857Y-80392857D01*
X154557142Y-80464285D01*
X154200000Y-80464285D01*
X153914285Y-80392857D01*
X153771428Y-80321428D01*
X153700000Y-80250000D01*
X153628571Y-80107142D01*
X155128571Y-79107142D02*
X154128571Y-78321428D01*
X154128571Y-79107142D02*
X155128571Y-78321428D01*
X154342857Y-77250000D02*
X154342857Y-77750000D01*
X155128571Y-77750000D02*
X153628571Y-77750000D01*
X153628571Y-77035714D01*
X154342857Y-75964285D02*
X154342857Y-76464285D01*
X155128571Y-76464285D02*
X153628571Y-76464285D01*
X153628571Y-75750000D01*
X154342857Y-74678571D02*
X154342857Y-75178571D01*
X155128571Y-75178571D02*
X153628571Y-75178571D01*
X153628571Y-74464285D01*
X154342857Y-73392857D02*
X154342857Y-73892857D01*
X155128571Y-73892857D02*
X153628571Y-73892857D01*
X153628571Y-73178571D01*
X155128571Y-70607142D02*
X154414285Y-71107142D01*
X155128571Y-71464285D02*
X153628571Y-71464285D01*
X153628571Y-70892857D01*
X153700000Y-70750000D01*
X153771428Y-70678571D01*
X153914285Y-70607142D01*
X154128571Y-70607142D01*
X154271428Y-70678571D01*
X154342857Y-70750000D01*
X154414285Y-70892857D01*
X154414285Y-71464285D01*
X153628571Y-69678571D02*
X153628571Y-69392857D01*
X153700000Y-69250000D01*
X153842857Y-69107142D01*
X154128571Y-69035714D01*
X154628571Y-69035714D01*
X154914285Y-69107142D01*
X155057142Y-69250000D01*
X155128571Y-69392857D01*
X155128571Y-69678571D01*
X155057142Y-69821428D01*
X154914285Y-69964285D01*
X154628571Y-70035714D01*
X154128571Y-70035714D01*
X153842857Y-69964285D01*
X153700000Y-69821428D01*
X153628571Y-69678571D01*
X155128571Y-68392857D02*
X153628571Y-68392857D01*
X154700000Y-67892857D01*
X153628571Y-67392857D01*
X155128571Y-67392857D01*
X156178571Y-92071428D02*
X156178571Y-91928571D01*
X156250000Y-91785714D01*
X156321428Y-91714285D01*
X156464285Y-91642857D01*
X156750000Y-91571428D01*
X157107142Y-91571428D01*
X157392857Y-91642857D01*
X157535714Y-91714285D01*
X157607142Y-91785714D01*
X157678571Y-91928571D01*
X157678571Y-92071428D01*
X157607142Y-92214285D01*
X157535714Y-92285714D01*
X157392857Y-92357142D01*
X157107142Y-92428571D01*
X156750000Y-92428571D01*
X156464285Y-92357142D01*
X156321428Y-92285714D01*
X156250000Y-92214285D01*
X156178571Y-92071428D01*
X157678571Y-91071428D02*
X156678571Y-90285714D01*
X156678571Y-91071428D02*
X157678571Y-90285714D01*
X156821428Y-89500000D02*
X156750000Y-89642857D01*
X156678571Y-89714285D01*
X156535714Y-89785714D01*
X156464285Y-89785714D01*
X156321428Y-89714285D01*
X156250000Y-89642857D01*
X156178571Y-89500000D01*
X156178571Y-89214285D01*
X156250000Y-89071428D01*
X156321428Y-89000000D01*
X156464285Y-88928571D01*
X156535714Y-88928571D01*
X156678571Y-89000000D01*
X156750000Y-89071428D01*
X156821428Y-89214285D01*
X156821428Y-89500000D01*
X156892857Y-89642857D01*
X156964285Y-89714285D01*
X157107142Y-89785714D01*
X157392857Y-89785714D01*
X157535714Y-89714285D01*
X157607142Y-89642857D01*
X157678571Y-89500000D01*
X157678571Y-89214285D01*
X157607142Y-89071428D01*
X157535714Y-89000000D01*
X157392857Y-88928571D01*
X157107142Y-88928571D01*
X156964285Y-89000000D01*
X156892857Y-89071428D01*
X156821428Y-89214285D01*
X156178571Y-88000000D02*
X156178571Y-87857142D01*
X156250000Y-87714285D01*
X156321428Y-87642857D01*
X156464285Y-87571428D01*
X156750000Y-87500000D01*
X157107142Y-87500000D01*
X157392857Y-87571428D01*
X157535714Y-87642857D01*
X157607142Y-87714285D01*
X157678571Y-87857142D01*
X157678571Y-88000000D01*
X157607142Y-88142857D01*
X157535714Y-88214285D01*
X157392857Y-88285714D01*
X157107142Y-88357142D01*
X156750000Y-88357142D01*
X156464285Y-88285714D01*
X156321428Y-88214285D01*
X156250000Y-88142857D01*
X156178571Y-88000000D01*
X156178571Y-86571428D02*
X156178571Y-86428571D01*
X156250000Y-86285714D01*
X156321428Y-86214285D01*
X156464285Y-86142857D01*
X156750000Y-86071428D01*
X157107142Y-86071428D01*
X157392857Y-86142857D01*
X157535714Y-86214285D01*
X157607142Y-86285714D01*
X157678571Y-86428571D01*
X157678571Y-86571428D01*
X157607142Y-86714285D01*
X157535714Y-86785714D01*
X157392857Y-86857142D01*
X157107142Y-86928571D01*
X156750000Y-86928571D01*
X156464285Y-86857142D01*
X156321428Y-86785714D01*
X156250000Y-86714285D01*
X156178571Y-86571428D01*
X156178571Y-85142857D02*
X156178571Y-85000000D01*
X156250000Y-84857142D01*
X156321428Y-84785714D01*
X156464285Y-84714285D01*
X156750000Y-84642857D01*
X157107142Y-84642857D01*
X157392857Y-84714285D01*
X157535714Y-84785714D01*
X157607142Y-84857142D01*
X157678571Y-85000000D01*
X157678571Y-85142857D01*
X157607142Y-85285714D01*
X157535714Y-85357142D01*
X157392857Y-85428571D01*
X157107142Y-85500000D01*
X156750000Y-85500000D01*
X156464285Y-85428571D01*
X156321428Y-85357142D01*
X156250000Y-85285714D01*
X156178571Y-85142857D01*
X157107142Y-84000000D02*
X157107142Y-82857142D01*
X156178571Y-81857142D02*
X156178571Y-81714285D01*
X156250000Y-81571428D01*
X156321428Y-81500000D01*
X156464285Y-81428571D01*
X156750000Y-81357142D01*
X157107142Y-81357142D01*
X157392857Y-81428571D01*
X157535714Y-81500000D01*
X157607142Y-81571428D01*
X157678571Y-81714285D01*
X157678571Y-81857142D01*
X157607142Y-82000000D01*
X157535714Y-82071428D01*
X157392857Y-82142857D01*
X157107142Y-82214285D01*
X156750000Y-82214285D01*
X156464285Y-82142857D01*
X156321428Y-82071428D01*
X156250000Y-82000000D01*
X156178571Y-81857142D01*
X157678571Y-80857142D02*
X156678571Y-80071428D01*
X156678571Y-80857142D02*
X157678571Y-80071428D01*
X156821428Y-79285714D02*
X156750000Y-79428571D01*
X156678571Y-79500000D01*
X156535714Y-79571428D01*
X156464285Y-79571428D01*
X156321428Y-79500000D01*
X156250000Y-79428571D01*
X156178571Y-79285714D01*
X156178571Y-79000000D01*
X156250000Y-78857142D01*
X156321428Y-78785714D01*
X156464285Y-78714285D01*
X156535714Y-78714285D01*
X156678571Y-78785714D01*
X156750000Y-78857142D01*
X156821428Y-79000000D01*
X156821428Y-79285714D01*
X156892857Y-79428571D01*
X156964285Y-79500000D01*
X157107142Y-79571428D01*
X157392857Y-79571428D01*
X157535714Y-79500000D01*
X157607142Y-79428571D01*
X157678571Y-79285714D01*
X157678571Y-79000000D01*
X157607142Y-78857142D01*
X157535714Y-78785714D01*
X157392857Y-78714285D01*
X157107142Y-78714285D01*
X156964285Y-78785714D01*
X156892857Y-78857142D01*
X156821428Y-79000000D01*
X156892857Y-77571428D02*
X156892857Y-78071428D01*
X157678571Y-78071428D02*
X156178571Y-78071428D01*
X156178571Y-77357142D01*
X156892857Y-76285714D02*
X156892857Y-76785714D01*
X157678571Y-76785714D02*
X156178571Y-76785714D01*
X156178571Y-76071428D01*
X156892857Y-75000000D02*
X156892857Y-75500000D01*
X157678571Y-75500000D02*
X156178571Y-75500000D01*
X156178571Y-74785714D01*
X157678571Y-73071428D02*
X156178571Y-73071428D01*
X156178571Y-72500000D01*
X156250000Y-72357142D01*
X156321428Y-72285714D01*
X156464285Y-72214285D01*
X156678571Y-72214285D01*
X156821428Y-72285714D01*
X156892857Y-72357142D01*
X156964285Y-72500000D01*
X156964285Y-73071428D01*
X156892857Y-71571428D02*
X156892857Y-71071428D01*
X157678571Y-70857142D02*
X157678571Y-71571428D01*
X156178571Y-71571428D01*
X156178571Y-70857142D01*
X157678571Y-69357142D02*
X156964285Y-69857142D01*
X157678571Y-70214285D02*
X156178571Y-70214285D01*
X156178571Y-69642857D01*
X156250000Y-69500000D01*
X156321428Y-69428571D01*
X156464285Y-69357142D01*
X156678571Y-69357142D01*
X156821428Y-69428571D01*
X156892857Y-69500000D01*
X156964285Y-69642857D01*
X156964285Y-70214285D01*
X157678571Y-68714285D02*
X156178571Y-68714285D01*
X157678571Y-68000000D02*
X156178571Y-68000000D01*
X156178571Y-67428571D01*
X156250000Y-67285714D01*
X156321428Y-67214285D01*
X156464285Y-67142857D01*
X156678571Y-67142857D01*
X156821428Y-67214285D01*
X156892857Y-67285714D01*
X156964285Y-67428571D01*
X156964285Y-68000000D01*
X157678571Y-66500000D02*
X156178571Y-66500000D01*
X156892857Y-66500000D02*
X156892857Y-65642857D01*
X157678571Y-65642857D02*
X156178571Y-65642857D01*
X158728571Y-90250000D02*
X158728571Y-90107142D01*
X158800000Y-89964285D01*
X158871428Y-89892857D01*
X159014285Y-89821428D01*
X159300000Y-89750000D01*
X159657142Y-89750000D01*
X159942857Y-89821428D01*
X160085714Y-89892857D01*
X160157142Y-89964285D01*
X160228571Y-90107142D01*
X160228571Y-90250000D01*
X160157142Y-90392857D01*
X160085714Y-90464285D01*
X159942857Y-90535714D01*
X159657142Y-90607142D01*
X159300000Y-90607142D01*
X159014285Y-90535714D01*
X158871428Y-90464285D01*
X158800000Y-90392857D01*
X158728571Y-90250000D01*
X160228571Y-89250000D02*
X159228571Y-88464285D01*
X159228571Y-89250000D02*
X160228571Y-88464285D01*
X158728571Y-87607142D02*
X158728571Y-87464285D01*
X158800000Y-87321428D01*
X158871428Y-87250000D01*
X159014285Y-87178571D01*
X159300000Y-87107142D01*
X159657142Y-87107142D01*
X159942857Y-87178571D01*
X160085714Y-87250000D01*
X160157142Y-87321428D01*
X160228571Y-87464285D01*
X160228571Y-87607142D01*
X160157142Y-87750000D01*
X160085714Y-87821428D01*
X159942857Y-87892857D01*
X159657142Y-87964285D01*
X159300000Y-87964285D01*
X159014285Y-87892857D01*
X158871428Y-87821428D01*
X158800000Y-87750000D01*
X158728571Y-87607142D01*
X158728571Y-86178571D02*
X158728571Y-86035714D01*
X158800000Y-85892857D01*
X158871428Y-85821428D01*
X159014285Y-85750000D01*
X159300000Y-85678571D01*
X159657142Y-85678571D01*
X159942857Y-85750000D01*
X160085714Y-85821428D01*
X160157142Y-85892857D01*
X160228571Y-86035714D01*
X160228571Y-86178571D01*
X160157142Y-86321428D01*
X160085714Y-86392857D01*
X159942857Y-86464285D01*
X159657142Y-86535714D01*
X159300000Y-86535714D01*
X159014285Y-86464285D01*
X158871428Y-86392857D01*
X158800000Y-86321428D01*
X158728571Y-86178571D01*
X158728571Y-84750000D02*
X158728571Y-84607142D01*
X158800000Y-84464285D01*
X158871428Y-84392857D01*
X159014285Y-84321428D01*
X159300000Y-84250000D01*
X159657142Y-84250000D01*
X159942857Y-84321428D01*
X160085714Y-84392857D01*
X160157142Y-84464285D01*
X160228571Y-84607142D01*
X160228571Y-84750000D01*
X160157142Y-84892857D01*
X160085714Y-84964285D01*
X159942857Y-85035714D01*
X159657142Y-85107142D01*
X159300000Y-85107142D01*
X159014285Y-85035714D01*
X158871428Y-84964285D01*
X158800000Y-84892857D01*
X158728571Y-84750000D01*
X158728571Y-83321428D02*
X158728571Y-83178571D01*
X158800000Y-83035714D01*
X158871428Y-82964285D01*
X159014285Y-82892857D01*
X159300000Y-82821428D01*
X159657142Y-82821428D01*
X159942857Y-82892857D01*
X160085714Y-82964285D01*
X160157142Y-83035714D01*
X160228571Y-83178571D01*
X160228571Y-83321428D01*
X160157142Y-83464285D01*
X160085714Y-83535714D01*
X159942857Y-83607142D01*
X159657142Y-83678571D01*
X159300000Y-83678571D01*
X159014285Y-83607142D01*
X158871428Y-83535714D01*
X158800000Y-83464285D01*
X158728571Y-83321428D01*
X159657142Y-82178571D02*
X159657142Y-81035714D01*
X158728571Y-80035714D02*
X158728571Y-79892857D01*
X158800000Y-79750000D01*
X158871428Y-79678571D01*
X159014285Y-79607142D01*
X159300000Y-79535714D01*
X159657142Y-79535714D01*
X159942857Y-79607142D01*
X160085714Y-79678571D01*
X160157142Y-79750000D01*
X160228571Y-79892857D01*
X160228571Y-80035714D01*
X160157142Y-80178571D01*
X160085714Y-80250000D01*
X159942857Y-80321428D01*
X159657142Y-80392857D01*
X159300000Y-80392857D01*
X159014285Y-80321428D01*
X158871428Y-80250000D01*
X158800000Y-80178571D01*
X158728571Y-80035714D01*
X160228571Y-79035714D02*
X159228571Y-78250000D01*
X159228571Y-79035714D02*
X160228571Y-78250000D01*
X158728571Y-77821428D02*
X158728571Y-76821428D01*
X160228571Y-77464285D01*
X159442857Y-75750000D02*
X159442857Y-76250000D01*
X160228571Y-76250000D02*
X158728571Y-76250000D01*
X158728571Y-75535714D01*
X159442857Y-74464285D02*
X159442857Y-74964285D01*
X160228571Y-74964285D02*
X158728571Y-74964285D01*
X158728571Y-74250000D01*
X159442857Y-73178571D02*
X159442857Y-73678571D01*
X160228571Y-73678571D02*
X158728571Y-73678571D01*
X158728571Y-72964285D01*
X160228571Y-70392857D02*
X159514285Y-70892857D01*
X160228571Y-71250000D02*
X158728571Y-71250000D01*
X158728571Y-70678571D01*
X158800000Y-70535714D01*
X158871428Y-70464285D01*
X159014285Y-70392857D01*
X159228571Y-70392857D01*
X159371428Y-70464285D01*
X159442857Y-70535714D01*
X159514285Y-70678571D01*
X159514285Y-71250000D01*
X159800000Y-69821428D02*
X159800000Y-69107142D01*
X160228571Y-69964285D02*
X158728571Y-69464285D01*
X160228571Y-68964285D01*
X160228571Y-68464285D02*
X158728571Y-68464285D01*
X159800000Y-67964285D01*
X158728571Y-67464285D01*
X160228571Y-67464285D01*
X105213101Y-63940320D02*
X104248919Y-62791253D01*
X104616226Y-63228993D02*
X104679748Y-63082449D01*
X104898618Y-62898795D01*
X105053966Y-62861686D01*
X105154597Y-62870490D01*
X105301141Y-62934011D01*
X105576622Y-63262316D01*
X105613731Y-63417664D01*
X105604927Y-63518295D01*
X105541405Y-63664839D01*
X105322535Y-63848493D01*
X105167187Y-63885602D01*
X105500510Y-62393748D02*
X106416885Y-62930225D01*
X106047684Y-61934614D02*
X106416885Y-62930225D01*
X106537017Y-63295639D01*
X106528213Y-63396270D01*
X106464691Y-63542814D01*
X106058805Y-66559477D02*
X105216649Y-66333696D01*
X105402196Y-67110438D02*
X104438014Y-65961371D01*
X104875754Y-65594064D01*
X105031102Y-65556955D01*
X105131733Y-65565759D01*
X105278278Y-65629280D01*
X105416018Y-65793433D01*
X105453127Y-65948781D01*
X105444323Y-66049412D01*
X105380802Y-66195956D01*
X104943062Y-66563263D01*
X107043720Y-65733036D02*
X106538672Y-65131144D01*
X106392128Y-65067622D01*
X106236780Y-65104732D01*
X106017910Y-65288385D01*
X105954388Y-65434930D01*
X106997806Y-65678319D02*
X106934285Y-65824863D01*
X106660697Y-66054430D01*
X106505349Y-66091539D01*
X106358805Y-66028018D01*
X106266978Y-65918583D01*
X106229869Y-65763234D01*
X106293390Y-65616690D01*
X106566978Y-65387123D01*
X106630499Y-65240579D01*
X107590894Y-65273902D02*
X106626713Y-64124835D01*
X106994020Y-64562575D02*
X107057542Y-64416031D01*
X107276411Y-64232377D01*
X107431760Y-64195268D01*
X107532391Y-64204072D01*
X107678935Y-64267593D01*
X107954415Y-64595898D01*
X107991525Y-64751246D01*
X107982721Y-64851877D01*
X107919199Y-64998422D01*
X107700329Y-65182075D01*
X107544981Y-65219185D01*
X108630526Y-64401547D02*
X107987738Y-63635503D01*
X107666345Y-63252481D02*
X107657541Y-63353112D01*
X107758171Y-63361916D01*
X107766975Y-63261285D01*
X107666345Y-63252481D01*
X107758171Y-63361916D01*
X109670158Y-63529193D02*
X108705976Y-62380126D01*
X109624244Y-63474475D02*
X109560723Y-63621020D01*
X109341853Y-63804673D01*
X109186505Y-63841782D01*
X109085874Y-63832978D01*
X108939330Y-63769457D01*
X108663849Y-63441152D01*
X108626740Y-63285804D01*
X108635544Y-63185173D01*
X108699065Y-63038629D01*
X108917935Y-62854975D01*
X109073284Y-62817866D01*
X106001672Y-69936206D02*
X105037491Y-68787139D01*
X105906059Y-68711027D02*
X106548847Y-69477072D01*
X105997886Y-68820462D02*
X106006690Y-68719831D01*
X106070211Y-68573287D01*
X106234364Y-68435547D01*
X106389712Y-68398437D01*
X106536256Y-68461959D01*
X107041304Y-69063851D01*
X106836256Y-67930499D02*
X107752631Y-68466977D01*
X107383431Y-67471365D01*
X108855784Y-67448078D02*
X108792263Y-67594622D01*
X108573393Y-67778276D01*
X108418044Y-67815385D01*
X108271500Y-67751864D01*
X107904193Y-67314124D01*
X107867084Y-67158776D01*
X107930605Y-67012231D01*
X108149475Y-66828578D01*
X108304823Y-66791468D01*
X108451368Y-66854990D01*
X108543194Y-66964425D01*
X108087847Y-67532994D01*
X108806084Y-66277617D02*
X109448872Y-67043661D01*
X108897911Y-66387052D02*
X108906715Y-66286421D01*
X108970237Y-66139877D01*
X109134389Y-66002137D01*
X109289738Y-65965027D01*
X109436282Y-66028549D01*
X109941329Y-66630441D01*
X109681564Y-65543003D02*
X110119304Y-65175695D01*
X109524322Y-65022240D02*
X110350764Y-66007154D01*
X110497308Y-66070676D01*
X110652656Y-66033567D01*
X110762091Y-65941740D01*
X111309266Y-65482606D02*
X111153917Y-65519715D01*
X111053287Y-65510911D01*
X110906742Y-65447390D01*
X110631262Y-65119085D01*
X110594153Y-64963736D01*
X110602957Y-64863106D01*
X110666478Y-64716561D01*
X110830631Y-64578821D01*
X110985979Y-64541712D01*
X111086610Y-64550516D01*
X111233154Y-64614037D01*
X111508634Y-64942342D01*
X111545744Y-65097690D01*
X111536940Y-65198321D01*
X111473418Y-65344866D01*
X111309266Y-65482606D01*
X112184745Y-64747991D02*
X111541958Y-63981947D01*
X111725611Y-64200817D02*
X111688502Y-64045468D01*
X111697306Y-63944838D01*
X111760827Y-63798293D01*
X111870262Y-63706466D01*
X157542857Y-60378571D02*
X158471428Y-60378571D01*
X157971428Y-60950000D01*
X158185714Y-60950000D01*
X158328571Y-61021428D01*
X158400000Y-61092857D01*
X158471428Y-61235714D01*
X158471428Y-61592857D01*
X158400000Y-61735714D01*
X158328571Y-61807142D01*
X158185714Y-61878571D01*
X157757142Y-61878571D01*
X157614285Y-61807142D01*
X157542857Y-61735714D01*
X159042857Y-60521428D02*
X159114285Y-60450000D01*
X159257142Y-60378571D01*
X159614285Y-60378571D01*
X159757142Y-60450000D01*
X159828571Y-60521428D01*
X159900000Y-60664285D01*
X159900000Y-60807142D01*
X159828571Y-61021428D01*
X158971428Y-61878571D01*
X159900000Y-61878571D01*
X160542857Y-61878571D02*
X160542857Y-60378571D01*
X161400000Y-61878571D02*
X160757142Y-61021428D01*
X161400000Y-60378571D02*
X160542857Y-61235714D01*
X164042857Y-61878571D02*
X163542857Y-61164285D01*
X163185714Y-61878571D02*
X163185714Y-60378571D01*
X163757142Y-60378571D01*
X163900000Y-60450000D01*
X163971428Y-60521428D01*
X164042857Y-60664285D01*
X164042857Y-60878571D01*
X163971428Y-61021428D01*
X163900000Y-61092857D01*
X163757142Y-61164285D01*
X163185714Y-61164285D01*
X164614285Y-61450000D02*
X165328571Y-61450000D01*
X164471428Y-61878571D02*
X164971428Y-60378571D01*
X165471428Y-61878571D01*
X165971428Y-61878571D02*
X165971428Y-60378571D01*
X166471428Y-61450000D01*
X166971428Y-60378571D01*
X166971428Y-61878571D01*
X168757142Y-60521428D02*
X168828571Y-60450000D01*
X168971428Y-60378571D01*
X169328571Y-60378571D01*
X169471428Y-60450000D01*
X169542857Y-60521428D01*
X169614285Y-60664285D01*
X169614285Y-60807142D01*
X169542857Y-61021428D01*
X168685714Y-61878571D01*
X169614285Y-61878571D01*
X170471428Y-61021428D02*
X170328571Y-60950000D01*
X170257142Y-60878571D01*
X170185714Y-60735714D01*
X170185714Y-60664285D01*
X170257142Y-60521428D01*
X170328571Y-60450000D01*
X170471428Y-60378571D01*
X170757142Y-60378571D01*
X170900000Y-60450000D01*
X170971428Y-60521428D01*
X171042857Y-60664285D01*
X171042857Y-60735714D01*
X170971428Y-60878571D01*
X170900000Y-60950000D01*
X170757142Y-61021428D01*
X170471428Y-61021428D01*
X170328571Y-61092857D01*
X170257142Y-61164285D01*
X170185714Y-61307142D01*
X170185714Y-61592857D01*
X170257142Y-61735714D01*
X170328571Y-61807142D01*
X170471428Y-61878571D01*
X170757142Y-61878571D01*
X170900000Y-61807142D01*
X170971428Y-61735714D01*
X171042857Y-61592857D01*
X171042857Y-61307142D01*
X170971428Y-61164285D01*
X170900000Y-61092857D01*
X170757142Y-61021428D01*
X171685714Y-61878571D02*
X171685714Y-60378571D01*
X172542857Y-61878571D02*
X171900000Y-61021428D01*
X172542857Y-60378571D02*
X171685714Y-61235714D01*
X175185714Y-61878571D02*
X174685714Y-61164285D01*
X174328571Y-61878571D02*
X174328571Y-60378571D01*
X174900000Y-60378571D01*
X175042857Y-60450000D01*
X175114285Y-60521428D01*
X175185714Y-60664285D01*
X175185714Y-60878571D01*
X175114285Y-61021428D01*
X175042857Y-61092857D01*
X174900000Y-61164285D01*
X174328571Y-61164285D01*
X176114285Y-60378571D02*
X176400000Y-60378571D01*
X176542857Y-60450000D01*
X176685714Y-60592857D01*
X176757142Y-60878571D01*
X176757142Y-61378571D01*
X176685714Y-61664285D01*
X176542857Y-61807142D01*
X176400000Y-61878571D01*
X176114285Y-61878571D01*
X175971428Y-61807142D01*
X175828571Y-61664285D01*
X175757142Y-61378571D01*
X175757142Y-60878571D01*
X175828571Y-60592857D01*
X175971428Y-60450000D01*
X176114285Y-60378571D01*
X177400000Y-61878571D02*
X177400000Y-60378571D01*
X177900000Y-61450000D01*
X178400000Y-60378571D01*
X178400000Y-61878571D01*
X180900000Y-60878571D02*
X180900000Y-61878571D01*
X180542857Y-60307142D02*
X180185714Y-61378571D01*
X181114285Y-61378571D01*
X181685714Y-61878571D02*
X181685714Y-60378571D01*
X182542857Y-61878571D02*
X181900000Y-61021428D01*
X182542857Y-60378571D02*
X181685714Y-61235714D01*
X184328571Y-61878571D02*
X184328571Y-60378571D01*
X184900000Y-60378571D01*
X185042857Y-60450000D01*
X185114285Y-60521428D01*
X185185714Y-60664285D01*
X185185714Y-60878571D01*
X185114285Y-61021428D01*
X185042857Y-61092857D01*
X184900000Y-61164285D01*
X184328571Y-61164285D01*
X185828571Y-61092857D02*
X186328571Y-61092857D01*
X186542857Y-61878571D02*
X185828571Y-61878571D01*
X185828571Y-60378571D01*
X186542857Y-60378571D01*
X188042857Y-61878571D02*
X187542857Y-61164285D01*
X187185714Y-61878571D02*
X187185714Y-60378571D01*
X187757142Y-60378571D01*
X187900000Y-60450000D01*
X187971428Y-60521428D01*
X188042857Y-60664285D01*
X188042857Y-60878571D01*
X187971428Y-61021428D01*
X187900000Y-61092857D01*
X187757142Y-61164285D01*
X187185714Y-61164285D01*
X188685714Y-61878571D02*
X188685714Y-60378571D01*
X189400000Y-61878571D02*
X189400000Y-60378571D01*
X189971428Y-60378571D01*
X190114285Y-60450000D01*
X190185714Y-60521428D01*
X190257142Y-60664285D01*
X190257142Y-60878571D01*
X190185714Y-61021428D01*
X190114285Y-61092857D01*
X189971428Y-61164285D01*
X189400000Y-61164285D01*
X190900000Y-61878571D02*
X190900000Y-60378571D01*
X190900000Y-61092857D02*
X191757142Y-61092857D01*
X191757142Y-61878571D02*
X191757142Y-60378571D01*
X192471428Y-61092857D02*
X192971428Y-61092857D01*
X193185714Y-61878571D02*
X192471428Y-61878571D01*
X192471428Y-60378571D01*
X193185714Y-60378571D01*
X194685714Y-61878571D02*
X194185714Y-61164285D01*
X193828571Y-61878571D02*
X193828571Y-60378571D01*
X194400000Y-60378571D01*
X194542857Y-60450000D01*
X194614285Y-60521428D01*
X194685714Y-60664285D01*
X194685714Y-60878571D01*
X194614285Y-61021428D01*
X194542857Y-61092857D01*
X194400000Y-61164285D01*
X193828571Y-61164285D01*
X195257142Y-61450000D02*
X195971428Y-61450000D01*
X195114285Y-61878571D02*
X195614285Y-60378571D01*
X196114285Y-61878571D01*
X197328571Y-61878571D02*
X196614285Y-61878571D01*
X196614285Y-60378571D01*
X165307142Y-58492857D02*
X165521428Y-58564285D01*
X165592857Y-58635714D01*
X165664285Y-58778571D01*
X165664285Y-58992857D01*
X165592857Y-59135714D01*
X165521428Y-59207142D01*
X165378571Y-59278571D01*
X164807142Y-59278571D01*
X164807142Y-57778571D01*
X165307142Y-57778571D01*
X165450000Y-57850000D01*
X165521428Y-57921428D01*
X165592857Y-58064285D01*
X165592857Y-58207142D01*
X165521428Y-58350000D01*
X165450000Y-58421428D01*
X165307142Y-58492857D01*
X164807142Y-58492857D01*
X166235714Y-58850000D02*
X166950000Y-58850000D01*
X166092857Y-59278571D02*
X166592857Y-57778571D01*
X167092857Y-59278571D01*
X167521428Y-59207142D02*
X167735714Y-59278571D01*
X168092857Y-59278571D01*
X168235714Y-59207142D01*
X168307142Y-59135714D01*
X168378571Y-58992857D01*
X168378571Y-58850000D01*
X168307142Y-58707142D01*
X168235714Y-58635714D01*
X168092857Y-58564285D01*
X167807142Y-58492857D01*
X167664285Y-58421428D01*
X167592857Y-58350000D01*
X167521428Y-58207142D01*
X167521428Y-58064285D01*
X167592857Y-57921428D01*
X167664285Y-57850000D01*
X167807142Y-57778571D01*
X168164285Y-57778571D01*
X168378571Y-57850000D01*
X169021428Y-59278571D02*
X169021428Y-57778571D01*
X170592857Y-59135714D02*
X170521428Y-59207142D01*
X170307142Y-59278571D01*
X170164285Y-59278571D01*
X169950000Y-59207142D01*
X169807142Y-59064285D01*
X169735714Y-58921428D01*
X169664285Y-58635714D01*
X169664285Y-58421428D01*
X169735714Y-58135714D01*
X169807142Y-57992857D01*
X169950000Y-57850000D01*
X170164285Y-57778571D01*
X170307142Y-57778571D01*
X170521428Y-57850000D01*
X170592857Y-57921428D01*
X172378571Y-59278571D02*
X172378571Y-57778571D01*
X172878571Y-58850000D01*
X173378571Y-57778571D01*
X173378571Y-59278571D01*
X174950000Y-59135714D02*
X174878571Y-59207142D01*
X174664285Y-59278571D01*
X174521428Y-59278571D01*
X174307142Y-59207142D01*
X174164285Y-59064285D01*
X174092857Y-58921428D01*
X174021428Y-58635714D01*
X174021428Y-58421428D01*
X174092857Y-58135714D01*
X174164285Y-57992857D01*
X174307142Y-57850000D01*
X174521428Y-57778571D01*
X174664285Y-57778571D01*
X174878571Y-57850000D01*
X174950000Y-57921428D01*
X176235714Y-57778571D02*
X175950000Y-57778571D01*
X175807142Y-57850000D01*
X175735714Y-57921428D01*
X175592857Y-58135714D01*
X175521428Y-58421428D01*
X175521428Y-58992857D01*
X175592857Y-59135714D01*
X175664285Y-59207142D01*
X175807142Y-59278571D01*
X176092857Y-59278571D01*
X176235714Y-59207142D01*
X176307142Y-59135714D01*
X176378571Y-58992857D01*
X176378571Y-58635714D01*
X176307142Y-58492857D01*
X176235714Y-58421428D01*
X176092857Y-58350000D01*
X175807142Y-58350000D01*
X175664285Y-58421428D01*
X175592857Y-58492857D01*
X175521428Y-58635714D01*
X177235714Y-58421428D02*
X177092857Y-58350000D01*
X177021428Y-58278571D01*
X176950000Y-58135714D01*
X176950000Y-58064285D01*
X177021428Y-57921428D01*
X177092857Y-57850000D01*
X177235714Y-57778571D01*
X177521428Y-57778571D01*
X177664285Y-57850000D01*
X177735714Y-57921428D01*
X177807142Y-58064285D01*
X177807142Y-58135714D01*
X177735714Y-58278571D01*
X177664285Y-58350000D01*
X177521428Y-58421428D01*
X177235714Y-58421428D01*
X177092857Y-58492857D01*
X177021428Y-58564285D01*
X176950000Y-58707142D01*
X176950000Y-58992857D01*
X177021428Y-59135714D01*
X177092857Y-59207142D01*
X177235714Y-59278571D01*
X177521428Y-59278571D01*
X177664285Y-59207142D01*
X177735714Y-59135714D01*
X177807142Y-58992857D01*
X177807142Y-58707142D01*
X177735714Y-58564285D01*
X177664285Y-58492857D01*
X177521428Y-58421428D01*
X178735714Y-57778571D02*
X178878571Y-57778571D01*
X179021428Y-57850000D01*
X179092857Y-57921428D01*
X179164285Y-58064285D01*
X179235714Y-58350000D01*
X179235714Y-58707142D01*
X179164285Y-58992857D01*
X179092857Y-59135714D01*
X179021428Y-59207142D01*
X178878571Y-59278571D01*
X178735714Y-59278571D01*
X178592857Y-59207142D01*
X178521428Y-59135714D01*
X178450000Y-58992857D01*
X178378571Y-58707142D01*
X178378571Y-58350000D01*
X178450000Y-58064285D01*
X178521428Y-57921428D01*
X178592857Y-57850000D01*
X178735714Y-57778571D01*
X180164285Y-57778571D02*
X180307142Y-57778571D01*
X180450000Y-57850000D01*
X180521428Y-57921428D01*
X180592857Y-58064285D01*
X180664285Y-58350000D01*
X180664285Y-58707142D01*
X180592857Y-58992857D01*
X180521428Y-59135714D01*
X180450000Y-59207142D01*
X180307142Y-59278571D01*
X180164285Y-59278571D01*
X180021428Y-59207142D01*
X179950000Y-59135714D01*
X179878571Y-58992857D01*
X179807142Y-58707142D01*
X179807142Y-58350000D01*
X179878571Y-58064285D01*
X179950000Y-57921428D01*
X180021428Y-57850000D01*
X180164285Y-57778571D01*
X183307142Y-59135714D02*
X183235714Y-59207142D01*
X183021428Y-59278571D01*
X182878571Y-59278571D01*
X182664285Y-59207142D01*
X182521428Y-59064285D01*
X182450000Y-58921428D01*
X182378571Y-58635714D01*
X182378571Y-58421428D01*
X182450000Y-58135714D01*
X182521428Y-57992857D01*
X182664285Y-57850000D01*
X182878571Y-57778571D01*
X183021428Y-57778571D01*
X183235714Y-57850000D01*
X183307142Y-57921428D01*
X184235714Y-57778571D02*
X184521428Y-57778571D01*
X184664285Y-57850000D01*
X184807142Y-57992857D01*
X184878571Y-58278571D01*
X184878571Y-58778571D01*
X184807142Y-59064285D01*
X184664285Y-59207142D01*
X184521428Y-59278571D01*
X184235714Y-59278571D01*
X184092857Y-59207142D01*
X183950000Y-59064285D01*
X183878571Y-58778571D01*
X183878571Y-58278571D01*
X183950000Y-57992857D01*
X184092857Y-57850000D01*
X184235714Y-57778571D01*
X185521428Y-59278571D02*
X185521428Y-57778571D01*
X186021428Y-58850000D01*
X186521428Y-57778571D01*
X186521428Y-59278571D01*
X187235714Y-59278571D02*
X187235714Y-57778571D01*
X187807142Y-57778571D01*
X187950000Y-57850000D01*
X188021428Y-57921428D01*
X188092857Y-58064285D01*
X188092857Y-58278571D01*
X188021428Y-58421428D01*
X187950000Y-58492857D01*
X187807142Y-58564285D01*
X187235714Y-58564285D01*
X188735714Y-57778571D02*
X188735714Y-58992857D01*
X188807142Y-59135714D01*
X188878571Y-59207142D01*
X189021428Y-59278571D01*
X189307142Y-59278571D01*
X189450000Y-59207142D01*
X189521428Y-59135714D01*
X189592857Y-58992857D01*
X189592857Y-57778571D01*
X190092857Y-57778571D02*
X190950000Y-57778571D01*
X190521428Y-59278571D02*
X190521428Y-57778571D01*
X191450000Y-58492857D02*
X191950000Y-58492857D01*
X192164285Y-59278571D02*
X191450000Y-59278571D01*
X191450000Y-57778571D01*
X192164285Y-57778571D01*
X193664285Y-59278571D02*
X193164285Y-58564285D01*
X192807142Y-59278571D02*
X192807142Y-57778571D01*
X193378571Y-57778571D01*
X193521428Y-57850000D01*
X193592857Y-57921428D01*
X193664285Y-58064285D01*
X193664285Y-58278571D01*
X193592857Y-58421428D01*
X193521428Y-58492857D01*
X193378571Y-58564285D01*
X192807142Y-58564285D01*
D11*
G04 #@! TO.C,U2*
X100110000Y-85380000D02*
G75*
G02X100110000Y-87380000I0J-1000000D01*
G01*
X100110000Y-87380000D02*
X100110000Y-92840000D01*
X100110000Y-92840000D02*
X151030000Y-92840000D01*
X151030000Y-92840000D02*
X151030000Y-79920000D01*
X151030000Y-79920000D02*
X100110000Y-79920000D01*
X100110000Y-79920000D02*
X100110000Y-85380000D01*
D12*
G04 #@! TO.C,U1*
X149615000Y-64225000D02*
X149615000Y-62850000D01*
X139490000Y-64225000D02*
X139490000Y-68375000D01*
X149640000Y-64225000D02*
X149640000Y-68375000D01*
X139490000Y-64225000D02*
X139595000Y-64225000D01*
X139490000Y-68375000D02*
X139595000Y-68375000D01*
X149640000Y-68375000D02*
X149535000Y-68375000D01*
X149640000Y-64225000D02*
X149615000Y-64225000D01*
D11*
G04 #@! TO.C,U4*
X197870000Y-92080000D02*
X197870000Y-86620000D01*
X162190000Y-92080000D02*
X197870000Y-92080000D01*
X162190000Y-79160000D02*
X162190000Y-92080000D01*
X197870000Y-79160000D02*
X162190000Y-79160000D01*
X197870000Y-84620000D02*
X197870000Y-79160000D01*
X197870000Y-86620000D02*
G75*
G02X197870000Y-84620000I0J1000000D01*
G01*
G04 #@! TO.C,C2*
X102400000Y-73400000D02*
X102400000Y-74100000D01*
X101200000Y-74100000D02*
X101200000Y-73400000D01*
G04 #@! TO.C,C3*
X109400000Y-73300000D02*
X109400000Y-74000000D01*
X108200000Y-74000000D02*
X108200000Y-73300000D01*
G04 #@! TO.C,C4*
X149400000Y-71900000D02*
X149400000Y-72600000D01*
X148200000Y-72600000D02*
X148200000Y-71900000D01*
G04 #@! TO.C,C5*
X115250000Y-95200000D02*
X115950000Y-95200000D01*
X115950000Y-96400000D02*
X115250000Y-96400000D01*
G04 #@! TO.C,C6*
X196600000Y-74400000D02*
X197300000Y-74400000D01*
X197300000Y-75600000D02*
X196600000Y-75600000D01*
G04 #@! TO.C,C7*
X196200000Y-96200000D02*
X195500000Y-96200000D01*
X195500000Y-95000000D02*
X196200000Y-95000000D01*
G04 #@! TO.C,J1*
X197850000Y-101330000D02*
X197850000Y-98670000D01*
X101270000Y-101330000D02*
X197850000Y-101330000D01*
X101270000Y-98670000D02*
X197850000Y-98670000D01*
X101270000Y-101330000D02*
X101270000Y-98670000D01*
X100000000Y-101330000D02*
X98670000Y-101330000D01*
X98670000Y-101330000D02*
X98670000Y-100000000D01*
G04 #@! TO.C,Q1*
X121240000Y-67220000D02*
X121240000Y-68150000D01*
X121240000Y-70380000D02*
X121240000Y-69450000D01*
X121240000Y-70380000D02*
X123400000Y-70380000D01*
X121240000Y-67220000D02*
X122700000Y-67220000D01*
G04 #@! TO.C,Q2*
X122760000Y-65580000D02*
X121300000Y-65580000D01*
X122760000Y-62420000D02*
X120600000Y-62420000D01*
X122760000Y-62420000D02*
X122760000Y-63350000D01*
X122760000Y-65580000D02*
X122760000Y-64650000D01*
G04 #@! TO.C,R1*
X111762779Y-73890000D02*
X111437221Y-73890000D01*
X111762779Y-74910000D02*
X111437221Y-74910000D01*
G04 #@! TO.C,R2*
X152649721Y-96490000D02*
X152975279Y-96490000D01*
X152649721Y-97510000D02*
X152975279Y-97510000D01*
G04 #@! TO.C,R3*
X192962779Y-96690000D02*
X192637221Y-96690000D01*
X192962779Y-97710000D02*
X192637221Y-97710000D01*
G04 #@! TO.C,R4*
X195849721Y-96690000D02*
X196175279Y-96690000D01*
X195849721Y-97710000D02*
X196175279Y-97710000D01*
G04 #@! TO.C,R5*
X117037221Y-69310000D02*
X117362779Y-69310000D01*
X117037221Y-68290000D02*
X117362779Y-68290000D01*
G04 #@! TO.C,R6*
X125950279Y-64510000D02*
X125624721Y-64510000D01*
X125950279Y-63490000D02*
X125624721Y-63490000D01*
G04 #@! TO.C,Y1*
X103300000Y-72100000D02*
X103300000Y-75400000D01*
X103300000Y-75400000D02*
X107300000Y-75400000D01*
G04 #@! TO.C,C1*
X111950000Y-73200000D02*
X111250000Y-73200000D01*
X111250000Y-72000000D02*
X111950000Y-72000000D01*
G04 #@! TO.C,U3*
X197870000Y-71460000D02*
X197870000Y-69810000D01*
X162190000Y-71460000D02*
X197870000Y-71460000D01*
X162190000Y-66160000D02*
X162190000Y-71460000D01*
X197870000Y-66160000D02*
X162190000Y-66160000D01*
X197870000Y-67810000D02*
X197870000Y-66160000D01*
X197870000Y-69810000D02*
G75*
G02X197870000Y-67810000I0J1000000D01*
G01*
G04 #@! TO.C,U2*
D12*
X98562380Y-87141904D02*
X99371904Y-87141904D01*
X99467142Y-87094285D01*
X99514761Y-87046666D01*
X99562380Y-86951428D01*
X99562380Y-86760952D01*
X99514761Y-86665714D01*
X99467142Y-86618095D01*
X99371904Y-86570476D01*
X98562380Y-86570476D01*
X98657619Y-86141904D02*
X98610000Y-86094285D01*
X98562380Y-85999047D01*
X98562380Y-85760952D01*
X98610000Y-85665714D01*
X98657619Y-85618095D01*
X98752857Y-85570476D01*
X98848095Y-85570476D01*
X98990952Y-85618095D01*
X99562380Y-86189523D01*
X99562380Y-85570476D01*
X152482380Y-89118095D02*
X151482380Y-89118095D01*
X152196666Y-88784761D01*
X151482380Y-88451428D01*
X152482380Y-88451428D01*
X152387142Y-87403809D02*
X152434761Y-87451428D01*
X152482380Y-87594285D01*
X152482380Y-87689523D01*
X152434761Y-87832380D01*
X152339523Y-87927619D01*
X152244285Y-87975238D01*
X152053809Y-88022857D01*
X151910952Y-88022857D01*
X151720476Y-87975238D01*
X151625238Y-87927619D01*
X151530000Y-87832380D01*
X151482380Y-87689523D01*
X151482380Y-87594285D01*
X151530000Y-87451428D01*
X151577619Y-87403809D01*
X151482380Y-86546666D02*
X151482380Y-86737142D01*
X151530000Y-86832380D01*
X151577619Y-86880000D01*
X151720476Y-86975238D01*
X151910952Y-87022857D01*
X152291904Y-87022857D01*
X152387142Y-86975238D01*
X152434761Y-86927619D01*
X152482380Y-86832380D01*
X152482380Y-86641904D01*
X152434761Y-86546666D01*
X152387142Y-86499047D01*
X152291904Y-86451428D01*
X152053809Y-86451428D01*
X151958571Y-86499047D01*
X151910952Y-86546666D01*
X151863333Y-86641904D01*
X151863333Y-86832380D01*
X151910952Y-86927619D01*
X151958571Y-86975238D01*
X152053809Y-87022857D01*
X151910952Y-85880000D02*
X151863333Y-85975238D01*
X151815714Y-86022857D01*
X151720476Y-86070476D01*
X151672857Y-86070476D01*
X151577619Y-86022857D01*
X151530000Y-85975238D01*
X151482380Y-85880000D01*
X151482380Y-85689523D01*
X151530000Y-85594285D01*
X151577619Y-85546666D01*
X151672857Y-85499047D01*
X151720476Y-85499047D01*
X151815714Y-85546666D01*
X151863333Y-85594285D01*
X151910952Y-85689523D01*
X151910952Y-85880000D01*
X151958571Y-85975238D01*
X152006190Y-86022857D01*
X152101428Y-86070476D01*
X152291904Y-86070476D01*
X152387142Y-86022857D01*
X152434761Y-85975238D01*
X152482380Y-85880000D01*
X152482380Y-85689523D01*
X152434761Y-85594285D01*
X152387142Y-85546666D01*
X152291904Y-85499047D01*
X152101428Y-85499047D01*
X152006190Y-85546666D01*
X151958571Y-85594285D01*
X151910952Y-85689523D01*
X151482380Y-84880000D02*
X151482380Y-84784761D01*
X151530000Y-84689523D01*
X151577619Y-84641904D01*
X151672857Y-84594285D01*
X151863333Y-84546666D01*
X152101428Y-84546666D01*
X152291904Y-84594285D01*
X152387142Y-84641904D01*
X152434761Y-84689523D01*
X152482380Y-84784761D01*
X152482380Y-84880000D01*
X152434761Y-84975238D01*
X152387142Y-85022857D01*
X152291904Y-85070476D01*
X152101428Y-85118095D01*
X151863333Y-85118095D01*
X151672857Y-85070476D01*
X151577619Y-85022857D01*
X151530000Y-84975238D01*
X151482380Y-84880000D01*
X152482380Y-84070476D02*
X152482380Y-83880000D01*
X152434761Y-83784761D01*
X152387142Y-83737142D01*
X152244285Y-83641904D01*
X152053809Y-83594285D01*
X151672857Y-83594285D01*
X151577619Y-83641904D01*
X151530000Y-83689523D01*
X151482380Y-83784761D01*
X151482380Y-83975238D01*
X151530000Y-84070476D01*
X151577619Y-84118095D01*
X151672857Y-84165714D01*
X151910952Y-84165714D01*
X152006190Y-84118095D01*
X152053809Y-84070476D01*
X152101428Y-83975238D01*
X152101428Y-83784761D01*
X152053809Y-83689523D01*
X152006190Y-83641904D01*
X151910952Y-83594285D01*
G04 #@! TO.C,U1*
X150017380Y-67061904D02*
X150826904Y-67061904D01*
X150922142Y-67014285D01*
X150969761Y-66966666D01*
X151017380Y-66871428D01*
X151017380Y-66680952D01*
X150969761Y-66585714D01*
X150922142Y-66538095D01*
X150826904Y-66490476D01*
X150017380Y-66490476D01*
X151017380Y-65490476D02*
X151017380Y-66061904D01*
X151017380Y-65776190D02*
X150017380Y-65776190D01*
X150160238Y-65871428D01*
X150255476Y-65966666D01*
X150303095Y-66061904D01*
X137880952Y-70452380D02*
X138547619Y-70452380D01*
X138119047Y-71452380D01*
X139357142Y-70785714D02*
X139357142Y-71452380D01*
X139119047Y-70404761D02*
X138880952Y-71119047D01*
X139500000Y-71119047D01*
X140357142Y-71452380D02*
X139880952Y-71452380D01*
X139880952Y-70452380D01*
X140642857Y-71404761D02*
X140785714Y-71452380D01*
X141023809Y-71452380D01*
X141119047Y-71404761D01*
X141166666Y-71357142D01*
X141214285Y-71261904D01*
X141214285Y-71166666D01*
X141166666Y-71071428D01*
X141119047Y-71023809D01*
X141023809Y-70976190D01*
X140833333Y-70928571D01*
X140738095Y-70880952D01*
X140690476Y-70833333D01*
X140642857Y-70738095D01*
X140642857Y-70642857D01*
X140690476Y-70547619D01*
X140738095Y-70500000D01*
X140833333Y-70452380D01*
X141071428Y-70452380D01*
X141214285Y-70500000D01*
X142166666Y-71452380D02*
X141595238Y-71452380D01*
X141880952Y-71452380D02*
X141880952Y-70452380D01*
X141785714Y-70595238D01*
X141690476Y-70690476D01*
X141595238Y-70738095D01*
X142500000Y-70452380D02*
X143119047Y-70452380D01*
X142785714Y-70833333D01*
X142928571Y-70833333D01*
X143023809Y-70880952D01*
X143071428Y-70928571D01*
X143119047Y-71023809D01*
X143119047Y-71261904D01*
X143071428Y-71357142D01*
X143023809Y-71404761D01*
X142928571Y-71452380D01*
X142642857Y-71452380D01*
X142547619Y-71404761D01*
X142500000Y-71357142D01*
X143452380Y-70452380D02*
X144119047Y-70452380D01*
X143690476Y-71452380D01*
G04 #@! TO.C,U4*
X195252380Y-86561904D02*
X196061904Y-86561904D01*
X196157142Y-86514285D01*
X196204761Y-86466666D01*
X196252380Y-86371428D01*
X196252380Y-86180952D01*
X196204761Y-86085714D01*
X196157142Y-86038095D01*
X196061904Y-85990476D01*
X195252380Y-85990476D01*
X195585714Y-85085714D02*
X196252380Y-85085714D01*
X195204761Y-85323809D02*
X195919047Y-85561904D01*
X195919047Y-84942857D01*
X160737619Y-88310476D02*
X160690000Y-88262857D01*
X160642380Y-88167619D01*
X160642380Y-87929523D01*
X160690000Y-87834285D01*
X160737619Y-87786666D01*
X160832857Y-87739047D01*
X160928095Y-87739047D01*
X161070952Y-87786666D01*
X161642380Y-88358095D01*
X161642380Y-87739047D01*
X161070952Y-87167619D02*
X161023333Y-87262857D01*
X160975714Y-87310476D01*
X160880476Y-87358095D01*
X160832857Y-87358095D01*
X160737619Y-87310476D01*
X160690000Y-87262857D01*
X160642380Y-87167619D01*
X160642380Y-86977142D01*
X160690000Y-86881904D01*
X160737619Y-86834285D01*
X160832857Y-86786666D01*
X160880476Y-86786666D01*
X160975714Y-86834285D01*
X161023333Y-86881904D01*
X161070952Y-86977142D01*
X161070952Y-87167619D01*
X161118571Y-87262857D01*
X161166190Y-87310476D01*
X161261428Y-87358095D01*
X161451904Y-87358095D01*
X161547142Y-87310476D01*
X161594761Y-87262857D01*
X161642380Y-87167619D01*
X161642380Y-86977142D01*
X161594761Y-86881904D01*
X161547142Y-86834285D01*
X161451904Y-86786666D01*
X161261428Y-86786666D01*
X161166190Y-86834285D01*
X161118571Y-86881904D01*
X161070952Y-86977142D01*
X161547142Y-85786666D02*
X161594761Y-85834285D01*
X161642380Y-85977142D01*
X161642380Y-86072380D01*
X161594761Y-86215238D01*
X161499523Y-86310476D01*
X161404285Y-86358095D01*
X161213809Y-86405714D01*
X161070952Y-86405714D01*
X160880476Y-86358095D01*
X160785238Y-86310476D01*
X160690000Y-86215238D01*
X160642380Y-86072380D01*
X160642380Y-85977142D01*
X160690000Y-85834285D01*
X160737619Y-85786666D01*
X160737619Y-85405714D02*
X160690000Y-85358095D01*
X160642380Y-85262857D01*
X160642380Y-85024761D01*
X160690000Y-84929523D01*
X160737619Y-84881904D01*
X160832857Y-84834285D01*
X160928095Y-84834285D01*
X161070952Y-84881904D01*
X161642380Y-85453333D01*
X161642380Y-84834285D01*
X160642380Y-83929523D02*
X160642380Y-84405714D01*
X161118571Y-84453333D01*
X161070952Y-84405714D01*
X161023333Y-84310476D01*
X161023333Y-84072380D01*
X161070952Y-83977142D01*
X161118571Y-83929523D01*
X161213809Y-83881904D01*
X161451904Y-83881904D01*
X161547142Y-83929523D01*
X161594761Y-83977142D01*
X161642380Y-84072380D01*
X161642380Y-84310476D01*
X161594761Y-84405714D01*
X161547142Y-84453333D01*
X160642380Y-83024761D02*
X160642380Y-83215238D01*
X160690000Y-83310476D01*
X160737619Y-83358095D01*
X160880476Y-83453333D01*
X161070952Y-83500952D01*
X161451904Y-83500952D01*
X161547142Y-83453333D01*
X161594761Y-83405714D01*
X161642380Y-83310476D01*
X161642380Y-83120000D01*
X161594761Y-83024761D01*
X161547142Y-82977142D01*
X161451904Y-82929523D01*
X161213809Y-82929523D01*
X161118571Y-82977142D01*
X161070952Y-83024761D01*
X161023333Y-83120000D01*
X161023333Y-83310476D01*
X161070952Y-83405714D01*
X161118571Y-83453333D01*
X161213809Y-83500952D01*
G04 #@! TO.C,C2*
X100657142Y-73916666D02*
X100704761Y-73964285D01*
X100752380Y-74107142D01*
X100752380Y-74202380D01*
X100704761Y-74345238D01*
X100609523Y-74440476D01*
X100514285Y-74488095D01*
X100323809Y-74535714D01*
X100180952Y-74535714D01*
X99990476Y-74488095D01*
X99895238Y-74440476D01*
X99800000Y-74345238D01*
X99752380Y-74202380D01*
X99752380Y-74107142D01*
X99800000Y-73964285D01*
X99847619Y-73916666D01*
X99847619Y-73535714D02*
X99800000Y-73488095D01*
X99752380Y-73392857D01*
X99752380Y-73154761D01*
X99800000Y-73059523D01*
X99847619Y-73011904D01*
X99942857Y-72964285D01*
X100038095Y-72964285D01*
X100180952Y-73011904D01*
X100752380Y-73583333D01*
X100752380Y-72964285D01*
G04 #@! TO.C,C3*
X109357142Y-71166666D02*
X109404761Y-71214285D01*
X109452380Y-71357142D01*
X109452380Y-71452380D01*
X109404761Y-71595238D01*
X109309523Y-71690476D01*
X109214285Y-71738095D01*
X109023809Y-71785714D01*
X108880952Y-71785714D01*
X108690476Y-71738095D01*
X108595238Y-71690476D01*
X108500000Y-71595238D01*
X108452380Y-71452380D01*
X108452380Y-71357142D01*
X108500000Y-71214285D01*
X108547619Y-71166666D01*
X108452380Y-70833333D02*
X108452380Y-70214285D01*
X108833333Y-70547619D01*
X108833333Y-70404761D01*
X108880952Y-70309523D01*
X108928571Y-70261904D01*
X109023809Y-70214285D01*
X109261904Y-70214285D01*
X109357142Y-70261904D01*
X109404761Y-70309523D01*
X109452380Y-70404761D01*
X109452380Y-70690476D01*
X109404761Y-70785714D01*
X109357142Y-70833333D01*
G04 #@! TO.C,C4*
X150657142Y-72416666D02*
X150704761Y-72464285D01*
X150752380Y-72607142D01*
X150752380Y-72702380D01*
X150704761Y-72845238D01*
X150609523Y-72940476D01*
X150514285Y-72988095D01*
X150323809Y-73035714D01*
X150180952Y-73035714D01*
X149990476Y-72988095D01*
X149895238Y-72940476D01*
X149800000Y-72845238D01*
X149752380Y-72702380D01*
X149752380Y-72607142D01*
X149800000Y-72464285D01*
X149847619Y-72416666D01*
X150085714Y-71559523D02*
X150752380Y-71559523D01*
X149704761Y-71797619D02*
X150419047Y-72035714D01*
X150419047Y-71416666D01*
G04 #@! TO.C,C5*
X115433333Y-97657142D02*
X115385714Y-97704761D01*
X115242857Y-97752380D01*
X115147619Y-97752380D01*
X115004761Y-97704761D01*
X114909523Y-97609523D01*
X114861904Y-97514285D01*
X114814285Y-97323809D01*
X114814285Y-97180952D01*
X114861904Y-96990476D01*
X114909523Y-96895238D01*
X115004761Y-96800000D01*
X115147619Y-96752380D01*
X115242857Y-96752380D01*
X115385714Y-96800000D01*
X115433333Y-96847619D01*
X116338095Y-96752380D02*
X115861904Y-96752380D01*
X115814285Y-97228571D01*
X115861904Y-97180952D01*
X115957142Y-97133333D01*
X116195238Y-97133333D01*
X116290476Y-97180952D01*
X116338095Y-97228571D01*
X116385714Y-97323809D01*
X116385714Y-97561904D01*
X116338095Y-97657142D01*
X116290476Y-97704761D01*
X116195238Y-97752380D01*
X115957142Y-97752380D01*
X115861904Y-97704761D01*
X115814285Y-97657142D01*
G04 #@! TO.C,C6*
X196783333Y-76857142D02*
X196735714Y-76904761D01*
X196592857Y-76952380D01*
X196497619Y-76952380D01*
X196354761Y-76904761D01*
X196259523Y-76809523D01*
X196211904Y-76714285D01*
X196164285Y-76523809D01*
X196164285Y-76380952D01*
X196211904Y-76190476D01*
X196259523Y-76095238D01*
X196354761Y-76000000D01*
X196497619Y-75952380D01*
X196592857Y-75952380D01*
X196735714Y-76000000D01*
X196783333Y-76047619D01*
X197640476Y-75952380D02*
X197450000Y-75952380D01*
X197354761Y-76000000D01*
X197307142Y-76047619D01*
X197211904Y-76190476D01*
X197164285Y-76380952D01*
X197164285Y-76761904D01*
X197211904Y-76857142D01*
X197259523Y-76904761D01*
X197354761Y-76952380D01*
X197545238Y-76952380D01*
X197640476Y-76904761D01*
X197688095Y-76857142D01*
X197735714Y-76761904D01*
X197735714Y-76523809D01*
X197688095Y-76428571D01*
X197640476Y-76380952D01*
X197545238Y-76333333D01*
X197354761Y-76333333D01*
X197259523Y-76380952D01*
X197211904Y-76428571D01*
X197164285Y-76523809D01*
G04 #@! TO.C,C7*
X189833333Y-97757142D02*
X189785714Y-97804761D01*
X189642857Y-97852380D01*
X189547619Y-97852380D01*
X189404761Y-97804761D01*
X189309523Y-97709523D01*
X189261904Y-97614285D01*
X189214285Y-97423809D01*
X189214285Y-97280952D01*
X189261904Y-97090476D01*
X189309523Y-96995238D01*
X189404761Y-96900000D01*
X189547619Y-96852380D01*
X189642857Y-96852380D01*
X189785714Y-96900000D01*
X189833333Y-96947619D01*
X190166666Y-96852380D02*
X190833333Y-96852380D01*
X190404761Y-97852380D01*
G04 #@! TO.C,Q1*
X121904761Y-71847619D02*
X121809523Y-71800000D01*
X121714285Y-71704761D01*
X121571428Y-71561904D01*
X121476190Y-71514285D01*
X121380952Y-71514285D01*
X121428571Y-71752380D02*
X121333333Y-71704761D01*
X121238095Y-71609523D01*
X121190476Y-71419047D01*
X121190476Y-71085714D01*
X121238095Y-70895238D01*
X121333333Y-70800000D01*
X121428571Y-70752380D01*
X121619047Y-70752380D01*
X121714285Y-70800000D01*
X121809523Y-70895238D01*
X121857142Y-71085714D01*
X121857142Y-71419047D01*
X121809523Y-71609523D01*
X121714285Y-71704761D01*
X121619047Y-71752380D01*
X121428571Y-71752380D01*
X122809523Y-71752380D02*
X122238095Y-71752380D01*
X122523809Y-71752380D02*
X122523809Y-70752380D01*
X122428571Y-70895238D01*
X122333333Y-70990476D01*
X122238095Y-71038095D01*
G04 #@! TO.C,Q2*
X121904761Y-62047619D02*
X121809523Y-62000000D01*
X121714285Y-61904761D01*
X121571428Y-61761904D01*
X121476190Y-61714285D01*
X121380952Y-61714285D01*
X121428571Y-61952380D02*
X121333333Y-61904761D01*
X121238095Y-61809523D01*
X121190476Y-61619047D01*
X121190476Y-61285714D01*
X121238095Y-61095238D01*
X121333333Y-61000000D01*
X121428571Y-60952380D01*
X121619047Y-60952380D01*
X121714285Y-61000000D01*
X121809523Y-61095238D01*
X121857142Y-61285714D01*
X121857142Y-61619047D01*
X121809523Y-61809523D01*
X121714285Y-61904761D01*
X121619047Y-61952380D01*
X121428571Y-61952380D01*
X122238095Y-61047619D02*
X122285714Y-61000000D01*
X122380952Y-60952380D01*
X122619047Y-60952380D01*
X122714285Y-61000000D01*
X122761904Y-61047619D01*
X122809523Y-61142857D01*
X122809523Y-61238095D01*
X122761904Y-61380952D01*
X122190476Y-61952380D01*
X122809523Y-61952380D01*
G04 #@! TO.C,R1*
X111433333Y-76282380D02*
X111100000Y-75806190D01*
X110861904Y-76282380D02*
X110861904Y-75282380D01*
X111242857Y-75282380D01*
X111338095Y-75330000D01*
X111385714Y-75377619D01*
X111433333Y-75472857D01*
X111433333Y-75615714D01*
X111385714Y-75710952D01*
X111338095Y-75758571D01*
X111242857Y-75806190D01*
X110861904Y-75806190D01*
X112385714Y-76282380D02*
X111814285Y-76282380D01*
X112100000Y-76282380D02*
X112100000Y-75282380D01*
X112004761Y-75425238D01*
X111909523Y-75520476D01*
X111814285Y-75568095D01*
G04 #@! TO.C,R2*
X152645833Y-96022380D02*
X152312500Y-95546190D01*
X152074404Y-96022380D02*
X152074404Y-95022380D01*
X152455357Y-95022380D01*
X152550595Y-95070000D01*
X152598214Y-95117619D01*
X152645833Y-95212857D01*
X152645833Y-95355714D01*
X152598214Y-95450952D01*
X152550595Y-95498571D01*
X152455357Y-95546190D01*
X152074404Y-95546190D01*
X153026785Y-95117619D02*
X153074404Y-95070000D01*
X153169642Y-95022380D01*
X153407738Y-95022380D01*
X153502976Y-95070000D01*
X153550595Y-95117619D01*
X153598214Y-95212857D01*
X153598214Y-95308095D01*
X153550595Y-95450952D01*
X152979166Y-96022380D01*
X153598214Y-96022380D01*
G04 #@! TO.C,R3*
X186833333Y-97852380D02*
X186500000Y-97376190D01*
X186261904Y-97852380D02*
X186261904Y-96852380D01*
X186642857Y-96852380D01*
X186738095Y-96900000D01*
X186785714Y-96947619D01*
X186833333Y-97042857D01*
X186833333Y-97185714D01*
X186785714Y-97280952D01*
X186738095Y-97328571D01*
X186642857Y-97376190D01*
X186261904Y-97376190D01*
X187166666Y-96852380D02*
X187785714Y-96852380D01*
X187452380Y-97233333D01*
X187595238Y-97233333D01*
X187690476Y-97280952D01*
X187738095Y-97328571D01*
X187785714Y-97423809D01*
X187785714Y-97661904D01*
X187738095Y-97757142D01*
X187690476Y-97804761D01*
X187595238Y-97852380D01*
X187309523Y-97852380D01*
X187214285Y-97804761D01*
X187166666Y-97757142D01*
G04 #@! TO.C,R4*
X192633333Y-96052380D02*
X192300000Y-95576190D01*
X192061904Y-96052380D02*
X192061904Y-95052380D01*
X192442857Y-95052380D01*
X192538095Y-95100000D01*
X192585714Y-95147619D01*
X192633333Y-95242857D01*
X192633333Y-95385714D01*
X192585714Y-95480952D01*
X192538095Y-95528571D01*
X192442857Y-95576190D01*
X192061904Y-95576190D01*
X193490476Y-95385714D02*
X193490476Y-96052380D01*
X193252380Y-95004761D02*
X193014285Y-95719047D01*
X193633333Y-95719047D01*
G04 #@! TO.C,R5*
X117033333Y-67822380D02*
X116700000Y-67346190D01*
X116461904Y-67822380D02*
X116461904Y-66822380D01*
X116842857Y-66822380D01*
X116938095Y-66870000D01*
X116985714Y-66917619D01*
X117033333Y-67012857D01*
X117033333Y-67155714D01*
X116985714Y-67250952D01*
X116938095Y-67298571D01*
X116842857Y-67346190D01*
X116461904Y-67346190D01*
X117938095Y-66822380D02*
X117461904Y-66822380D01*
X117414285Y-67298571D01*
X117461904Y-67250952D01*
X117557142Y-67203333D01*
X117795238Y-67203333D01*
X117890476Y-67250952D01*
X117938095Y-67298571D01*
X117985714Y-67393809D01*
X117985714Y-67631904D01*
X117938095Y-67727142D01*
X117890476Y-67774761D01*
X117795238Y-67822380D01*
X117557142Y-67822380D01*
X117461904Y-67774761D01*
X117414285Y-67727142D01*
G04 #@! TO.C,R6*
X125620833Y-65882380D02*
X125287500Y-65406190D01*
X125049404Y-65882380D02*
X125049404Y-64882380D01*
X125430357Y-64882380D01*
X125525595Y-64930000D01*
X125573214Y-64977619D01*
X125620833Y-65072857D01*
X125620833Y-65215714D01*
X125573214Y-65310952D01*
X125525595Y-65358571D01*
X125430357Y-65406190D01*
X125049404Y-65406190D01*
X126477976Y-64882380D02*
X126287500Y-64882380D01*
X126192261Y-64930000D01*
X126144642Y-64977619D01*
X126049404Y-65120476D01*
X126001785Y-65310952D01*
X126001785Y-65691904D01*
X126049404Y-65787142D01*
X126097023Y-65834761D01*
X126192261Y-65882380D01*
X126382738Y-65882380D01*
X126477976Y-65834761D01*
X126525595Y-65787142D01*
X126573214Y-65691904D01*
X126573214Y-65453809D01*
X126525595Y-65358571D01*
X126477976Y-65310952D01*
X126382738Y-65263333D01*
X126192261Y-65263333D01*
X126097023Y-65310952D01*
X126049404Y-65358571D01*
X126001785Y-65453809D01*
G04 #@! TO.C,Y1*
X104823809Y-71276190D02*
X104823809Y-71752380D01*
X104490476Y-70752380D02*
X104823809Y-71276190D01*
X105157142Y-70752380D01*
X106014285Y-71752380D02*
X105442857Y-71752380D01*
X105728571Y-71752380D02*
X105728571Y-70752380D01*
X105633333Y-70895238D01*
X105538095Y-70990476D01*
X105442857Y-71038095D01*
G04 #@! TO.C,C1*
X111333333Y-74557142D02*
X111285714Y-74604761D01*
X111142857Y-74652380D01*
X111047619Y-74652380D01*
X110904761Y-74604761D01*
X110809523Y-74509523D01*
X110761904Y-74414285D01*
X110714285Y-74223809D01*
X110714285Y-74080952D01*
X110761904Y-73890476D01*
X110809523Y-73795238D01*
X110904761Y-73700000D01*
X111047619Y-73652380D01*
X111142857Y-73652380D01*
X111285714Y-73700000D01*
X111333333Y-73747619D01*
X112285714Y-74652380D02*
X111714285Y-74652380D01*
X112000000Y-74652380D02*
X112000000Y-73652380D01*
X111904761Y-73795238D01*
X111809523Y-73890476D01*
X111714285Y-73938095D01*
G04 #@! TO.C,U3*
X196052380Y-69761904D02*
X196861904Y-69761904D01*
X196957142Y-69714285D01*
X197004761Y-69666666D01*
X197052380Y-69571428D01*
X197052380Y-69380952D01*
X197004761Y-69285714D01*
X196957142Y-69238095D01*
X196861904Y-69190476D01*
X196052380Y-69190476D01*
X196052380Y-68809523D02*
X196052380Y-68190476D01*
X196433333Y-68523809D01*
X196433333Y-68380952D01*
X196480952Y-68285714D01*
X196528571Y-68238095D01*
X196623809Y-68190476D01*
X196861904Y-68190476D01*
X196957142Y-68238095D01*
X197004761Y-68285714D01*
X197052380Y-68380952D01*
X197052380Y-68666666D01*
X197004761Y-68761904D01*
X196957142Y-68809523D01*
X161642380Y-73000476D02*
X160642380Y-73000476D01*
X161594761Y-72571904D02*
X161642380Y-72429047D01*
X161642380Y-72190952D01*
X161594761Y-72095714D01*
X161547142Y-72048095D01*
X161451904Y-72000476D01*
X161356666Y-72000476D01*
X161261428Y-72048095D01*
X161213809Y-72095714D01*
X161166190Y-72190952D01*
X161118571Y-72381428D01*
X161070952Y-72476666D01*
X161023333Y-72524285D01*
X160928095Y-72571904D01*
X160832857Y-72571904D01*
X160737619Y-72524285D01*
X160690000Y-72476666D01*
X160642380Y-72381428D01*
X160642380Y-72143333D01*
X160690000Y-72000476D01*
X160642380Y-71143333D02*
X160642380Y-71333809D01*
X160690000Y-71429047D01*
X160737619Y-71476666D01*
X160880476Y-71571904D01*
X161070952Y-71619523D01*
X161451904Y-71619523D01*
X161547142Y-71571904D01*
X161594761Y-71524285D01*
X161642380Y-71429047D01*
X161642380Y-71238571D01*
X161594761Y-71143333D01*
X161547142Y-71095714D01*
X161451904Y-71048095D01*
X161213809Y-71048095D01*
X161118571Y-71095714D01*
X161070952Y-71143333D01*
X161023333Y-71238571D01*
X161023333Y-71429047D01*
X161070952Y-71524285D01*
X161118571Y-71571904D01*
X161213809Y-71619523D01*
X161642380Y-70095714D02*
X161642380Y-70667142D01*
X161642380Y-70381428D02*
X160642380Y-70381428D01*
X160785238Y-70476666D01*
X160880476Y-70571904D01*
X160928095Y-70667142D01*
X161547142Y-69095714D02*
X161594761Y-69143333D01*
X161642380Y-69286190D01*
X161642380Y-69381428D01*
X161594761Y-69524285D01*
X161499523Y-69619523D01*
X161404285Y-69667142D01*
X161213809Y-69714761D01*
X161070952Y-69714761D01*
X160880476Y-69667142D01*
X160785238Y-69619523D01*
X160690000Y-69524285D01*
X160642380Y-69381428D01*
X160642380Y-69286190D01*
X160690000Y-69143333D01*
X160737619Y-69095714D01*
X160737619Y-68714761D02*
X160690000Y-68667142D01*
X160642380Y-68571904D01*
X160642380Y-68333809D01*
X160690000Y-68238571D01*
X160737619Y-68190952D01*
X160832857Y-68143333D01*
X160928095Y-68143333D01*
X161070952Y-68190952D01*
X161642380Y-68762380D01*
X161642380Y-68143333D01*
X160642380Y-67238571D02*
X160642380Y-67714761D01*
X161118571Y-67762380D01*
X161070952Y-67714761D01*
X161023333Y-67619523D01*
X161023333Y-67381428D01*
X161070952Y-67286190D01*
X161118571Y-67238571D01*
X161213809Y-67190952D01*
X161451904Y-67190952D01*
X161547142Y-67238571D01*
X161594761Y-67286190D01*
X161642380Y-67381428D01*
X161642380Y-67619523D01*
X161594761Y-67714761D01*
X161547142Y-67762380D01*
X160642380Y-66333809D02*
X160642380Y-66524285D01*
X160690000Y-66619523D01*
X160737619Y-66667142D01*
X160880476Y-66762380D01*
X161070952Y-66810000D01*
X161451904Y-66810000D01*
X161547142Y-66762380D01*
X161594761Y-66714761D01*
X161642380Y-66619523D01*
X161642380Y-66429047D01*
X161594761Y-66333809D01*
X161547142Y-66286190D01*
X161451904Y-66238571D01*
X161213809Y-66238571D01*
X161118571Y-66286190D01*
X161070952Y-66333809D01*
X161023333Y-66429047D01*
X161023333Y-66619523D01*
X161070952Y-66714761D01*
X161118571Y-66762380D01*
X161213809Y-66810000D01*
X161356666Y-65857619D02*
X161356666Y-65381428D01*
X161642380Y-65952857D02*
X160642380Y-65619523D01*
X161642380Y-65286190D01*
X161642380Y-64476666D02*
X161642380Y-64952857D01*
X160642380Y-64952857D01*
G04 #@! TD*
M02*
