G04 #@! TF.GenerationSoftware,KiCad,Pcbnew,(5.0.0)*
G04 #@! TF.CreationDate,2020-03-05T09:38:23+00:00*
G04 #@! TF.ProjectId,basic-mc6800,62617369632D6D63363830302E6B6963,rev?*
G04 #@! TF.SameCoordinates,Original*
G04 #@! TF.FileFunction,Soldermask,Bot*
G04 #@! TF.FilePolarity,Negative*
%FSLAX46Y46*%
G04 Gerber Fmt 4.6, Leading zero omitted, Abs format (unit mm)*
G04 Created by KiCad (PCBNEW (5.0.0)) date 03/05/20 09:38:23*
%MOMM*%
%LPD*%
G01*
G04 APERTURE LIST*
%ADD10O,2.000000X2.000000*%
%ADD11R,2.000000X2.000000*%
%ADD12R,2.100000X2.100000*%
%ADD13O,2.100000X2.100000*%
G04 APERTURE END LIST*
D10*
G04 #@! TO.C,U4*
X196540000Y-93240000D03*
X163520000Y-78000000D03*
X194000000Y-93240000D03*
X166060000Y-78000000D03*
X191460000Y-93240000D03*
X168600000Y-78000000D03*
X188920000Y-93240000D03*
X171140000Y-78000000D03*
X186380000Y-93240000D03*
X173680000Y-78000000D03*
X183840000Y-93240000D03*
X176220000Y-78000000D03*
X181300000Y-93240000D03*
X178760000Y-78000000D03*
X178760000Y-93240000D03*
X181300000Y-78000000D03*
X176220000Y-93240000D03*
X183840000Y-78000000D03*
X173680000Y-93240000D03*
X186380000Y-78000000D03*
X171140000Y-93240000D03*
X188920000Y-78000000D03*
X168600000Y-93240000D03*
X191460000Y-78000000D03*
X166060000Y-93240000D03*
X194000000Y-78000000D03*
X163520000Y-93240000D03*
D11*
X196540000Y-78000000D03*
G04 #@! TD*
D12*
G04 #@! TO.C,J1*
X100000000Y-100000000D03*
D13*
X102540000Y-100000000D03*
X105080000Y-100000000D03*
X107620000Y-100000000D03*
X110160000Y-100000000D03*
X112700000Y-100000000D03*
X115240000Y-100000000D03*
X117780000Y-100000000D03*
X120320000Y-100000000D03*
X122860000Y-100000000D03*
X125400000Y-100000000D03*
X127940000Y-100000000D03*
X130480000Y-100000000D03*
X133020000Y-100000000D03*
X135560000Y-100000000D03*
X138100000Y-100000000D03*
X140640000Y-100000000D03*
X143180000Y-100000000D03*
X145720000Y-100000000D03*
X148260000Y-100000000D03*
X150800000Y-100000000D03*
X153340000Y-100000000D03*
X155880000Y-100000000D03*
X158420000Y-100000000D03*
X160960000Y-100000000D03*
X163500000Y-100000000D03*
X166040000Y-100000000D03*
X168580000Y-100000000D03*
X171120000Y-100000000D03*
X173660000Y-100000000D03*
X176200000Y-100000000D03*
X178740000Y-100000000D03*
X181280000Y-100000000D03*
X183820000Y-100000000D03*
X186360000Y-100000000D03*
X188900000Y-100000000D03*
X191440000Y-100000000D03*
X193980000Y-100000000D03*
X196520000Y-100000000D03*
G04 #@! TD*
D11*
G04 #@! TO.C,U2*
X101440000Y-94000000D03*
D10*
X149700000Y-78760000D03*
X103980000Y-94000000D03*
X147160000Y-78760000D03*
X106520000Y-94000000D03*
X144620000Y-78760000D03*
X109060000Y-94000000D03*
X142080000Y-78760000D03*
X111600000Y-94000000D03*
X139540000Y-78760000D03*
X114140000Y-94000000D03*
X137000000Y-78760000D03*
X116680000Y-94000000D03*
X134460000Y-78760000D03*
X119220000Y-94000000D03*
X131920000Y-78760000D03*
X121760000Y-94000000D03*
X129380000Y-78760000D03*
X124300000Y-94000000D03*
X126840000Y-78760000D03*
X126840000Y-94000000D03*
X124300000Y-78760000D03*
X129380000Y-94000000D03*
X121760000Y-78760000D03*
X131920000Y-94000000D03*
X119220000Y-78760000D03*
X134460000Y-94000000D03*
X116680000Y-78760000D03*
X137000000Y-94000000D03*
X114140000Y-78760000D03*
X139540000Y-94000000D03*
X111600000Y-78760000D03*
X142080000Y-94000000D03*
X109060000Y-78760000D03*
X144620000Y-94000000D03*
X106520000Y-78760000D03*
X147160000Y-94000000D03*
X103980000Y-78760000D03*
X149700000Y-94000000D03*
X101440000Y-78760000D03*
G04 #@! TD*
G04 #@! TO.C,U3*
X196540000Y-72620000D03*
X163520000Y-65000000D03*
X194000000Y-72620000D03*
X166060000Y-65000000D03*
X191460000Y-72620000D03*
X168600000Y-65000000D03*
X188920000Y-72620000D03*
X171140000Y-65000000D03*
X186380000Y-72620000D03*
X173680000Y-65000000D03*
X183840000Y-72620000D03*
X176220000Y-65000000D03*
X181300000Y-72620000D03*
X178760000Y-65000000D03*
X178760000Y-72620000D03*
X181300000Y-65000000D03*
X176220000Y-72620000D03*
X183840000Y-65000000D03*
X173680000Y-72620000D03*
X186380000Y-65000000D03*
X171140000Y-72620000D03*
X188920000Y-65000000D03*
X168600000Y-72620000D03*
X191460000Y-65000000D03*
X166060000Y-72620000D03*
X194000000Y-65000000D03*
X163520000Y-72620000D03*
D11*
X196540000Y-65000000D03*
G04 #@! TD*
M02*
